<svg width="56" height="56" viewBox="0 0 56 56" fill="none" xmlns="http://www.w3.org/2000/svg">
<g clip-path="url(#clip0_57_190)">
<path d="M15.1527 50.891C15.1527 53.7082 17.4446 56.0001 20.2618 56.0001H35.7382C38.5553 56.0001 40.8473 53.7082 40.8473 50.891V50.5093H15.1527V50.891ZM45.7505 35.0668H32.2974L36.7579 22.5777C37.0627 21.7244 36.618 20.7856 35.7646 20.4809C34.9114 20.1762 33.9725 20.6208 33.6678 21.4741L29.6406 32.7504V19.4482L29.6404 19.445C29.6421 18.1806 30.6711 17.1525 31.9358 17.1525L35.1615 17.135C38.6222 17.135 41.4376 14.3275 41.4376 10.8765C41.4376 7.42547 38.6222 4.61792 35.1615 4.61792H26.4598C24.8084 4.61792 23.465 3.28234 23.465 1.64062C23.465 0.734562 22.7304 0 21.8243 0C20.9183 0 20.1837 0.734562 20.1837 1.64062C20.1837 5.09163 22.9991 7.89917 26.4598 7.89917H31.6656C31.7402 7.90956 31.8159 7.91678 31.8933 7.91678C33.5446 7.91678 34.8881 9.25236 34.8881 10.8941C34.8881 12.5357 33.5446 13.8713 31.8933 13.8713C31.8763 13.8713 31.8595 13.8715 31.8427 13.872C28.8104 13.922 26.3589 16.4042 26.3589 19.4482L26.3594 32.7504L22.3322 21.4743C22.0274 20.6208 21.0886 20.1762 20.2353 20.481C19.382 20.7857 18.9373 21.7245 19.2421 22.5778L23.7025 35.0669H10.2495C9.34345 35.0669 8.60889 35.8015 8.60889 36.7076V39.0651C8.60889 43.5782 12.2804 47.2497 16.7934 47.2497H39.2065C43.7195 47.2497 47.3911 43.5782 47.3911 39.0651V36.7075C47.3911 35.8014 46.6565 35.0668 45.7505 35.0668Z" fill="white"/>
</g>
<defs>
<clipPath id="clip0_57_190">
<rect width="56" height="56" fill="white"/>
</clipPath>
</defs>
</svg>
