<svg width="56" height="56" viewBox="0 0 56 56" fill="none" xmlns="http://www.w3.org/2000/svg">
<g clip-path="url(#clip0_283_3306)">
<path d="M13.3501 14.4285C10.5634 13.0847 7.05967 13.9669 5.57169 16.6793C3.98515 19.5725 5.16101 23.1666 8.09566 24.5817L9.63101 25.3224L14.6232 15.0426L13.3501 14.4285ZM11.1387 45.5403L10.0914 47.1355C8.35147 49.7683 9.07546 53.3128 11.7082 55.0526C14.341 56.7923 17.8856 56.0685 19.6257 53.4355L20.472 52.4377L11.1387 45.5403ZM45.8458 47.1355L44.8236 45.5786L35.5001 52.479L36.3116 53.4355C38.0516 56.0683 41.5962 56.7923 44.229 55.0526C46.8617 53.3128 47.5858 49.7683 45.8458 47.1355ZM39.3962 35.0334V29.8808C39.3962 29.5225 39.4973 29.1714 39.6879 28.868C39.8784 28.5645 40.1507 28.321 40.4735 28.1654L44.6139 26.1687L39.6274 15.8862L35.3164 17.9652C37.4713 15.8598 38.7239 12.8366 38.4314 9.524C38.3901 9.05371 38.3192 8.58647 38.2193 8.12507C37.366 4.20931 34.1869 1.05826 30.2642 0.237255C23.4898 -1.18073 17.5249 3.95053 17.5249 10.4752C17.5249 13.4121 18.7367 16.0631 20.684 17.9652L16.3387 15.8698L11.3469 26.1494L15.5268 28.1652C15.8496 28.3208 16.122 28.5644 16.3125 28.8678C16.5031 29.1713 16.6042 29.5224 16.6041 29.8807V34.9372C16.6042 36.4228 16.1697 37.8761 15.3542 39.1179L12.1853 43.9457L21.7061 50.9827L26.516 45.313C27.2766 44.4164 28.6605 44.4164 29.4212 45.313L34.2659 51.0239L43.7768 43.984L40.6454 39.214C39.8304 37.972 39.3962 36.5189 39.3962 35.0334ZM31.8095 6.18987C32.5981 6.18987 33.2379 6.82934 33.2379 7.61833C33.2379 8.40719 32.5981 9.04678 31.8095 9.04678C31.0203 9.04678 30.381 8.40719 30.381 7.61833C30.381 6.82934 31.0203 6.18987 31.8095 6.18987ZM31.2943 12.39C31.5583 11.9343 32.1443 11.7826 32.5963 12.0477C33.0502 12.3127 33.2046 12.8959 32.9385 13.3498C31.9174 15.1009 30.024 16.1889 28.0004 16.1889C25.9618 16.1889 24.0628 15.0897 23.0435 13.3208C22.7813 12.8652 22.9393 12.2831 23.395 12.0198C23.8433 11.7594 24.4291 11.9146 24.6951 12.3704C25.374 13.5515 26.6407 14.2843 28.0004 14.2843C29.3506 14.2845 30.6116 13.5581 31.2943 12.39ZM24.191 6.18987C24.9796 6.18987 25.6195 6.82934 25.6195 7.61833C25.6195 8.40719 24.9796 9.04678 24.191 9.04678C23.4019 9.04678 22.7626 8.40719 22.7626 7.61833C22.7626 6.82934 23.4019 6.18987 24.191 6.18987ZM28.0002 38.0921C26.9484 38.0921 26.0956 37.2393 26.0956 36.1874C26.0956 35.1355 26.9484 34.2828 28.0002 34.2828C29.0521 34.2828 29.9048 35.1355 29.9048 36.1874C29.9048 37.2393 29.0521 38.0921 28.0002 38.0921ZM28.0002 30.4736C26.9484 30.4736 26.0956 29.6208 26.0956 28.569C26.0956 27.5171 26.9484 26.6644 28.0002 26.6644C29.0521 26.6644 29.9048 27.5171 29.9048 28.569C29.9048 29.6208 29.0521 30.4736 28.0002 30.4736ZM33.6824 23.5744C33.6824 24.2777 32.9464 24.7384 32.3139 24.4309L29.2329 23.3269C28.899 23.6162 28.4764 23.8081 28.0002 23.8081C27.5138 23.8081 27.0819 23.6118 26.7452 23.3122L23.6233 24.4309C22.9909 24.7383 22.2549 24.2777 22.2549 23.5744V20.2323C22.2549 19.5291 22.9909 19.0684 23.6233 19.3758L26.7332 20.503C27.0713 20.1975 27.5088 19.999 28.0004 19.999C28.4821 19.999 28.9099 20.1934 29.2451 20.4882L32.3142 19.3759C32.9466 19.0686 33.6826 19.5293 33.6826 20.2324V23.5744H33.6824ZM49.9795 15.9813C48.332 13.7629 45.2385 13.1801 42.7494 14.3805L41.3424 15.0592L46.3289 25.3417L47.9047 24.5817C51.0796 23.0503 52.197 18.9666 49.9795 15.9813Z" fill="white"/>
</g>
<defs>
<clipPath id="clip0_283_3306">
<rect width="56" height="56" fill="white"/>
</clipPath>
</defs>
</svg>
