<svg width="56" height="56" viewBox="0 0 56 56" fill="none" xmlns="http://www.w3.org/2000/svg">
<g clip-path="url(#clip0_283_3310)">
<path d="M54.8832 25.8435C51.2812 24.55 49.0657 20.8843 49.344 17.9897C49.344 17.5138 49.0589 17.0716 48.6984 16.7592C48.3379 16.4484 47.7788 16.3138 47.3109 16.3891C41.8218 17.1944 36.7956 13.1787 36.2976 7.53391C36.2756 7.28269 36.196 7.03994 36.0648 6.82456C35.9336 6.60918 35.7545 6.42699 35.5414 6.29218C35.1105 6.01984 34.5736 5.96056 34.0979 6.1384C29.6486 7.76775 25.4446 4.82164 23.7671 0.982811C23.4531 0.264986 22.6745 -0.130731 21.907 0.0391273C9.27716 2.85738 0.00012207 15.0561 0.00012207 28.0001C0.00012207 43.3792 12.6209 56 28 56C43.3792 56 55.9999 43.3792 55.9999 28.0001C55.9543 27.0229 55.9475 26.2248 54.8832 25.8435ZM11.5118 29.7642C10.6057 29.7642 9.87118 29.0296 9.87118 28.1236C9.87118 27.2173 10.6057 26.4829 11.5118 26.4829C12.4179 26.4829 13.1524 27.2173 13.1524 28.1236C13.1524 29.0296 12.4177 29.7642 11.5118 29.7642ZM18.1563 42.7656C15.4423 42.7656 13.2344 40.5578 13.2344 37.8438C13.2344 35.1298 15.4423 32.9219 18.1563 32.9219C20.8703 32.9219 23.0782 35.1298 23.0782 37.8438C23.0782 40.5578 20.8704 42.7656 18.1563 42.7656ZM19.7969 23.0782C17.9881 23.0782 16.5157 21.6058 16.5157 19.797C16.5157 17.9881 17.9881 16.5158 19.7969 16.5158C21.6058 16.5158 23.0782 17.9881 23.0782 19.797C23.0782 21.6058 21.6058 23.0782 19.7969 23.0782ZM32.9219 46.0469C31.113 46.0469 29.6406 44.5745 29.6406 42.7656C29.6406 40.9568 31.113 39.4844 32.9219 39.4844C34.7307 39.4844 36.2031 40.9568 36.2031 42.7656C36.2031 44.5745 34.7307 46.0469 32.9219 46.0469ZM34.5625 32.9219C31.8485 32.9219 29.6406 30.7141 29.6406 28.0001C29.6406 25.2861 31.8485 23.0782 34.5625 23.0782C37.2765 23.0782 39.4843 25.2861 39.4843 28.0001C39.4843 30.7141 37.2766 32.9219 34.5625 32.9219ZM44.3242 36.3267C43.4181 36.3267 42.6835 35.5921 42.6835 34.686C42.6835 33.7798 43.4181 33.0454 44.3242 33.0454C45.2302 33.0454 45.9648 33.7798 45.9648 34.686C45.9648 35.5921 45.2301 36.3267 44.3242 36.3267Z" fill="white"/>
</g>
<defs>
<clipPath id="clip0_283_3310">
<rect width="56" height="56" fill="white"/>
</clipPath>
</defs>
</svg>
