<svg width="56" height="56" viewBox="0 0 56 56" fill="none" xmlns="http://www.w3.org/2000/svg">
<g clip-path="url(#clip0_283_3314)">
<path d="M26.0035 35.9214C26.0035 39.1181 27.4179 41.9905 29.6534 43.9464L35.2343 34.2804H26.0035V35.9214ZM40.887 45.7119L36.6553 38.3827L32.4279 45.7044C34.9901 46.8649 38.3224 46.8679 40.887 45.7119ZM47.3286 35.9214V34.2804H38.0765L43.6646 43.959C45.9082 42.0027 47.3286 39.1248 47.3286 35.9214ZM27.8181 11.329C27.91 11.3819 28.0005 11.4372 28.0904 11.4936C31.1583 9.21883 33.1508 5.57221 33.1508 1.46821C33.1508 0.657363 32.4935 0 31.6826 0C25.9961 0 21.1882 3.82504 19.6911 9.03669C21.0266 9.1148 22.3512 9.51147 23.5094 10.1724C25.0228 10.1756 26.5123 10.5752 27.8181 11.329ZM12.1759 8.55491C13.4863 8.55491 14.6884 9.02531 15.6235 9.80564C16.776 9.28447 18.0481 9.0042 19.3111 9.02345C17.7449 6.75949 15.131 5.27301 12.1759 5.27301C11.2697 5.27301 10.535 6.00772 10.535 6.91396C10.535 7.8202 11.2696 8.55491 12.1759 8.55491Z" fill="white"/>
<path d="M19.1719 52.4064C18.0807 51.3165 17.2422 49.9713 16.7409 48.5278C15.5936 47.5097 14.6676 46.2146 14.0771 44.7818C13.4904 43.3589 13.2329 41.7962 13.3226 40.2715C12.653 38.8939 12.2925 37.3457 12.2925 35.7983C12.2925 33.1518 14.4457 30.9987 17.0922 30.9987H37.3953C37.314 30.4648 37.1699 29.9374 36.9623 29.4377C36.4696 28.2524 35.6207 27.2059 34.6081 26.5045C34.3479 25.3005 33.7036 24.1148 32.7928 23.2046C32.5399 22.9515 32.267 22.7193 31.9768 22.5101C32.0942 21.4277 31.8579 20.2787 31.2809 19.2793C30.6575 18.1879 29.642 17.3472 28.5143 16.9376C28.1068 15.815 27.2682 14.8001 26.1776 14.1714C25.0873 13.5422 23.789 13.323 22.6149 13.5302C20.7642 11.9143 17.6486 11.9145 15.7981 13.5302C14.624 13.323 13.3256 13.5422 12.2354 14.1714C11.1446 14.8001 10.3061 15.815 9.89873 16.9376C8.77096 17.3472 7.75555 18.188 7.1321 19.2793C6.55514 20.2787 6.31873 21.4278 6.43623 22.5101C6.14599 22.7193 5.87311 22.9515 5.62024 23.2046C4.7094 24.1148 4.06506 25.3005 3.80491 26.5045C2.79234 27.2058 1.94343 28.2524 1.4507 29.4377C0.957874 30.6235 0.81894 31.9651 1.04331 33.18C-0.347663 35.2605 -0.347553 38.3271 1.04331 40.4075C0.818831 41.6225 0.957874 42.964 1.45081 44.1501C1.94343 45.3352 2.79234 46.3816 3.8048 47.0829C4.06495 48.287 4.70929 49.4726 5.6198 50.3823C6.52779 51.2902 7.71277 51.9333 8.91723 52.1935C9.6259 53.2129 10.6757 54.0629 11.8552 54.5484C13.0392 55.0393 14.3792 55.1793 15.592 54.9582C17.6849 56.3473 20.7283 56.3473 22.8212 54.9582C22.9536 54.982 23.0868 55.0015 23.2205 55.0166C23.168 54.9606 23.1162 54.9039 23.065 54.8467C21.6144 54.3454 20.2641 53.5036 19.1719 52.4064Z" fill="white"/>
<path d="M56 35.798C56 34.9598 55.3206 34.2803 54.4823 34.2803H50.6104V35.9212C49.9071 54.3997 23.4183 54.3856 22.7215 35.9212V34.2803H17.0921C16.2539 34.2803 15.5743 34.9598 15.5743 35.798C15.5743 37.153 15.9887 38.5169 16.708 39.5954C16.4588 40.8668 16.597 42.2832 17.1114 43.5308C17.6279 44.7842 18.532 45.8861 19.6102 46.6073C19.8656 47.8775 20.5379 49.1331 21.4943 50.0872C22.4488 51.0472 23.7062 51.7199 24.9808 51.9744C25.7055 53.0528 26.8069 53.9567 28.0546 54.4724C29.3042 54.9891 30.7214 55.1279 31.9919 54.8781C34.1575 56.3723 37.417 56.3723 39.5826 54.8781C40.8535 55.1278 42.2703 54.9888 43.5199 54.4724C44.7674 53.9569 45.8688 53.0527 46.5937 51.9744C47.868 51.72 49.1248 51.048 50.0758 50.0916C51.0357 49.134 51.7086 47.8776 51.9642 46.6073C53.0424 45.886 53.9465 44.7841 54.4631 43.5309C54.9775 42.2829 55.1157 40.8668 54.8665 39.5954C55.5856 38.5168 56 37.1531 56 35.798Z" fill="white"/>
</g>
<defs>
<clipPath id="clip0_283_3314">
<rect width="56" height="56" fill="white"/>
</clipPath>
</defs>
</svg>
