<svg width="56" height="56" viewBox="0 0 56 56" fill="none" xmlns="http://www.w3.org/2000/svg">
<g clip-path="url(#clip0_283_3320)">
<path d="M36.0021 20.8103C36.7585 20.0311 38.0174 20.948 37.4959 21.9006C32.277 31.4336 21.7705 36.2881 10.6201 34.9956C9.80383 34.9008 8.97676 35.0111 8.21386 35.3165C7.45096 35.622 6.77635 36.1131 6.25114 36.7451C5.92797 37.1345 5.34321 37.1835 4.95365 36.8604C3.39935 35.5716 1.97165 34.1232 0.684536 32.5279C-0.186996 31.4487 -0.230165 29.9145 0.578366 28.7956L1.24222 27.8786C2.06242 26.7457 3.54648 26.3117 4.85203 26.8227C15.8573 31.1392 27.9749 29.081 36.0021 20.8103ZM41.8176 21.4567C41.9024 20.4186 40.4718 20.0456 40.0394 20.9931C34.8315 32.4022 22.9484 38.3047 10.4055 36.8495C9.0124 36.6885 7.68818 37.4877 7.18533 38.7933L6.77815 39.8492C6.2823 41.1372 6.71631 42.6096 7.83402 43.4298C10.2425 45.1984 12.9041 46.6053 15.6855 47.5914C17.0807 48.086 16.8351 45.557 20.0343 44.9033C31.6549 42.525 40.8183 33.688 41.8176 21.4567ZM49.8986 10.6487C48.8972 9.30923 50.1065 8.68702 49.9173 4.33916C49.7928 1.62737 46.9354 -0.090844 44.4687 1.0607L43.1958 1.65455C41.3279 2.52725 40.4727 4.702 41.2486 6.60724C48.8995 25.3867 38.615 43.0022 20.4088 46.7327C19.0344 47.0139 18.0264 48.1865 17.9564 49.583L17.8992 50.7136C17.8292 52.0926 18.7008 53.3562 20.0191 53.7867C30.4781 57.2057 41.5653 54.7023 48.5382 47.6708C57.7541 38.3784 58.694 22.4051 49.8986 10.6487Z" fill="white"/>
</g>
<defs>
<clipPath id="clip0_283_3320">
<rect width="56" height="56" fill="white"/>
</clipPath>
</defs>
</svg>
