<svg width="56" height="56" viewBox="0 0 56 56" fill="none" xmlns="http://www.w3.org/2000/svg">
<path d="M15.6989 3.28125H40.301C41.3343 3.28125 42.1749 4.12191 42.1749 5.15517C42.1749 6.19161 41.3355 7.02909 40.301 7.02909H22.7281C19.8552 7.02909 17.5729 9.35998 17.5729 12.1843C17.5729 15.0268 19.8855 17.3394 22.7281 17.3394C23.6341 17.3394 24.3687 16.6049 24.3687 15.6988C24.3687 14.7927 23.6341 14.0582 22.7281 14.0582C21.6948 14.0582 20.8541 13.2175 20.8541 12.1843C20.8541 11.1478 21.6936 10.3103 22.7281 10.3103H40.301C43.1739 10.3103 45.4562 7.97956 45.4562 5.15517C45.4562 2.31262 43.1436 0 40.301 0H15.6989C14.7928 0 14.0582 0.734562 14.0582 1.64062C14.0582 2.54669 14.7928 3.28125 15.6989 3.28125Z" fill="white"/>
<path d="M32.1118 14.0723L28.3777 17.8064H38.1659L34.432 14.0724C33.7913 13.4316 32.7524 13.4316 32.1118 14.0723ZM43.8156 21.0876H12.1843C11.2783 21.0876 10.5437 21.8222 10.5437 22.7283V26.2428C10.5437 28.5374 12.0506 30.4866 14.1266 31.1529C14.8136 38.1184 20.6854 43.6991 28 43.6991C33.9555 43.6991 39.0504 39.945 41.044 34.6792H22.7281C21.822 34.6792 21.0875 33.9447 21.0875 33.0386C21.0875 32.1325 21.822 31.398 22.7281 31.398H40.301C40.8343 31.3984 41.3644 31.3159 41.8723 31.1532C43.9488 30.4871 45.4562 28.5376 45.4562 26.2428V22.7283C45.4562 21.8222 44.7216 21.0876 43.8156 21.0876ZM31.7247 50.7096C31.3981 50.6006 31.114 50.3917 30.9127 50.1124C30.7114 49.8331 30.6031 49.4976 30.6031 49.1533V46.7844C28.8775 47.046 27.1224 47.0457 25.3969 46.7834V49.1533C25.3969 49.865 24.9357 50.4881 24.2611 50.7144C21.6668 51.5848 20.4017 53.1924 19.7837 54.4221C19.4196 55.1466 19.9538 56.0001 20.7647 56.0001H35.2372C36.0548 56.0001 36.5794 55.1384 36.2114 54.4083C35.5912 53.1782 34.3238 51.5767 31.7247 50.7096Z" fill="white"/>
</svg>
