<svg width="56" height="56" viewBox="0 0 56 56" fill="none" xmlns="http://www.w3.org/2000/svg">
<g clip-path="url(#clip0_284_3329)">
<path d="M32.6753 19.2417L37.3957 12.4737C42.1981 4.98051 35.89 -0.69277 30.8055 2.60243C29.1297 3.79492 26.8384 3.78342 25.104 2.57374C18.0941 -1.17662 14.7028 7.22764 18.5 12.2506L23.287 19.2663C24.2281 18.7541 25.2466 18.3992 26.3023 18.2156V13.8019C26.3023 12.8619 27.0644 12.0999 28.0044 12.0999C28.9444 12.0999 29.7064 12.8619 29.7064 13.8019V18.2156C30.7447 18.3962 31.7471 18.7427 32.6753 19.2417ZM7.97979 45.5193C8.81183 46.2286 9.82487 46.6538 10.9096 46.7487C12.9586 46.9284 14.6949 48.4234 15.2301 50.469C17.8658 57.5153 26.1145 54.0707 26.3026 47.4718V37.7274C25.4168 37.5734 24.5563 37.2985 23.7453 36.9104L20.6917 40.3718C20.068 41.0786 18.9916 41.1423 18.2894 40.5221C17.5844 39.9003 17.5171 38.8248 18.1389 38.1199L20.9591 34.923C20.3722 34.3283 19.8623 33.6622 19.4415 32.9404L12.2704 34.771C7.36192 36.2527 3.81215 41.6404 7.97979 45.5193ZM0.46341 28.8965C1.88638 32.0552 6.08348 32.7967 9.22178 32.0362L18.2579 29.7295C18.0943 28.8304 18.0578 27.8566 18.1554 26.938L13.9126 25.2679C13.0378 24.9236 12.6079 23.9353 12.9522 23.0607C13.2966 22.1861 14.2851 21.7561 15.1595 22.1003L19.0959 23.6498C19.4957 22.8298 20.0065 22.0688 20.6139 21.3882L15.896 14.4739C10.4623 7.20147 2.99172 11.3766 4.27279 17.0494C4.79584 19.0982 4.00157 21.2475 2.296 22.3974C0.289972 23.6963 -0.624297 26.6086 0.46341 28.8965ZM55.6804 24.8924C55.2962 23.8688 54.6159 23.006 53.7133 22.3974C52.0078 21.2475 51.2135 19.0982 51.7366 17.0494C52.7844 9.07764 43.4488 9.03187 40.1879 14.421L35.358 21.346C36.0028 22.0606 36.5404 22.8651 36.9539 23.7342L40.902 22.18C41.7771 21.8357 42.7648 22.2657 43.1093 23.1404C43.4535 24.015 43.0237 25.0033 42.1489 25.3476L37.8628 27.0346C37.949 27.9236 37.9089 28.8615 37.7511 29.7294L46.7873 32.0361C51.9372 33.3164 57.3882 30.2649 55.6804 24.8924ZM32.2048 52.4399C34.3181 54.9229 38.4213 54.9662 40.4166 52.3279C42.1475 49.1667 42.1432 47.2331 45.6479 46.7488C53.7444 44.9571 50.3391 36.2366 44.2525 34.9023L36.5678 32.9406C36.1361 33.6817 35.6105 34.364 35.004 34.9706L37.7824 38.1202C38.4041 38.8251 38.3369 39.9007 37.632 40.5225C36.9297 41.1425 35.8535 41.0789 35.2296 40.3721L32.2018 36.9398C31.409 37.3126 30.5699 37.5776 29.7068 37.7278V45.7302C29.7058 48.1917 30.5794 50.5906 32.2048 52.4399ZM31.4543 33.4753C33.2246 32.3769 34.5163 30.2571 34.5033 27.9716C34.5033 24.3882 31.5881 21.4728 28.0046 21.4728C24.4091 21.4783 21.5161 24.4133 21.5058 27.9716C21.4566 33.0292 27.2331 36.1995 31.4543 33.4753Z" fill="white"/>
</g>
<defs>
<clipPath id="clip0_284_3329">
<rect width="56" height="56" fill="white"/>
</clipPath>
</defs>
</svg>
