<svg width="56" height="56" viewBox="0 0 56 56" fill="none" xmlns="http://www.w3.org/2000/svg">
<path d="M48.5538 7.44646C44.45 3.34271 37.8088 3.34271 33.705 7.44646C32.6484 8.50487 31.8335 9.77948 31.3162 11.1827L31.3075 11.174C29.6887 10.7365 28 10.5002 26.25 10.5002C15.6188 10.5002 7 19.119 7 29.7502C7 34.6765 8.855 39.174 11.9 42.5777C11.095 45.2377 8.95125 48.869 3.5 52.5002C3.5 52.5002 15.33 52.5002 18.48 47.364C20.86 48.414 23.485 49.0002 26.25 49.0002C36.8812 49.0002 45.5 40.3815 45.5 29.7502C45.5 28.0002 45.2637 26.3115 44.8262 24.7015L44.8175 24.6927C46.1738 24.1852 47.46 23.3977 48.5538 22.304C52.6488 18.2002 52.6488 11.5502 48.5538 7.44646Z" fill="white"/>
<path d="M27.125 14C27.125 14.4812 26.7313 14.875 26.25 14.875C18.0513 14.875 11.375 21.5513 11.375 29.75C11.375 30.2313 10.9813 30.625 10.5 30.625C10.0187 30.625 9.625 30.2313 9.625 29.75C9.625 20.58 17.08 13.125 26.25 13.125C26.7313 13.125 27.125 13.5188 27.125 14ZM42 7.875C42 7.39375 41.6063 7 41.125 7C36.785 7 33.25 10.535 33.25 14.875C33.25 15.3562 33.6437 15.75 34.125 15.75C34.6063 15.75 35 15.3562 35 14.875C35 11.4975 37.7475 8.75 41.125 8.75C41.6063 8.75 42 8.35625 42 7.875Z" fill="#3C6558"/>
<path d="M10.5 11.375C11.9497 11.375 13.125 10.1997 13.125 8.75C13.125 7.30025 11.9497 6.125 10.5 6.125C9.05025 6.125 7.875 7.30025 7.875 8.75C7.875 10.1997 9.05025 11.375 10.5 11.375Z" fill="white"/>
<path d="M47.25 51.625C49.6662 51.625 51.625 49.6662 51.625 47.25C51.625 44.8338 49.6662 42.875 47.25 42.875C44.8338 42.875 42.875 44.8338 42.875 47.25C42.875 49.6662 44.8338 51.625 47.25 51.625Z" fill="white"/>
</svg>
