<svg width="56" height="56" viewBox="0 0 56 56" fill="none" xmlns="http://www.w3.org/2000/svg">
<path d="M28.8488 6.84246C30.2838 6.84246 31.4475 7.20121 32.3925 7.74371C34.2125 8.24246 36.365 9.02121 38.465 10.2025C36.89 6.27371 33.0663 3.49121 28.5775 3.49121H27.44C22.96 3.49121 19.1363 6.26496 17.5613 10.1762C22.575 7.34996 27.93 6.87746 28.2363 6.85121C28.4638 6.83371 28.665 6.83371 28.8575 6.83371L28.8488 6.84246Z" fill="white"/>
<path d="M9.97513 31.3073C10.4039 30.8173 11.0251 30.5286 11.6989 30.5286C12.5651 30.5286 13.3614 31.0098 13.7726 31.7798C14.1401 32.4536 14.5951 33.0398 15.0764 33.5386L15.2601 30.8523C15.2601 30.8523 14.6564 21.8661 30.5639 18.5148C30.9576 18.4273 31.3339 18.2873 31.6751 18.0686C32.6901 17.4298 34.4051 15.8286 33.9151 12.4686C33.9151 12.4686 32.9876 8.3036 28.3589 8.60985C28.3589 8.60985 18.7339 9.37985 13.6414 15.6273C13.6414 15.6273 8.09388 21.4811 9.63388 29.6448C9.63388 29.6448 9.73013 30.3098 9.97513 31.3073Z" fill="white"/>
<path d="M46.3664 29.6449C47.9064 21.4812 42.3589 15.6274 42.3589 15.6274C40.3289 13.1337 37.5814 11.5324 35.0001 10.4824C35.3151 11.0687 35.5164 11.6287 35.6214 12.0837L35.6389 12.2062C36.3039 16.6949 33.7401 18.8387 32.6114 19.5474C32.1476 19.8362 31.6314 20.0462 31.0801 20.1774C41.1776 24.1674 40.7401 30.8524 40.7401 30.8524L41.0989 36.1287L40.4426 38.4299C38.7714 43.9862 33.5389 47.8012 27.7551 47.6874C22.8989 47.5999 18.5764 44.7124 16.4326 40.3287C15.9339 40.7137 15.4964 41.1424 15.1201 41.5712C16.3539 43.8899 18.1301 45.8062 20.2476 47.1624V51.2312C20.2476 51.9312 20.8164 52.4999 21.5164 52.4999H34.0814C34.7726 52.4999 35.3414 51.9312 35.3414 51.2312V47.4512C38.4564 45.6487 40.8889 42.7437 42.0351 39.1649C42.0701 39.1474 42.1139 39.1387 42.1489 39.1037C45.4301 35.8574 46.3664 29.6449 46.3664 29.6449Z" fill="white"/>
<path d="M26.6263 31.7014C26.915 31.3164 26.845 30.7652 26.46 30.4764C26.075 30.1877 25.5238 30.2577 25.235 30.6427C24.745 31.2902 24.01 31.6577 23.205 31.6577C22.4 31.6577 21.665 31.2902 21.175 30.6427C21.106 30.5507 21.0194 30.4733 20.9202 30.415C20.821 30.3567 20.7113 30.3188 20.5973 30.3033C20.4833 30.2878 20.3674 30.2952 20.2563 30.3249C20.1452 30.3546 20.0411 30.4061 19.95 30.4764C19.565 30.7652 19.4863 31.3164 19.7838 31.7014C20.6063 32.7864 21.8575 33.4077 23.205 33.4077C24.5525 33.4077 25.8125 32.7864 26.6263 31.7014ZM37.1263 31.7014C37.415 31.3164 37.345 30.7652 36.96 30.4764C36.575 30.1877 36.0238 30.2577 35.735 30.6427C35.245 31.2902 34.51 31.6577 33.705 31.6577C32.9 31.6577 32.165 31.2902 31.675 30.6427C31.606 30.5507 31.5194 30.4733 31.4202 30.415C31.321 30.3567 31.2113 30.3188 31.0973 30.3033C30.9833 30.2878 30.8674 30.2952 30.7563 30.3249C30.6452 30.3546 30.5411 30.4061 30.45 30.4764C30.065 30.7652 29.9863 31.3164 30.2838 31.7014C31.1063 32.7864 32.3575 33.4077 33.705 33.4077C35.0525 33.4077 36.3125 32.7864 37.1263 31.7014ZM28.4463 42.0702C29.6625 42.0702 30.7913 41.6764 31.5525 40.9852C31.7243 40.8297 31.8272 40.6124 31.8387 40.381C31.8502 40.1496 31.7693 39.9232 31.6138 39.7514C31.4583 39.5797 31.241 39.4768 31.0096 39.4653C30.7782 39.4538 30.5518 39.5347 30.38 39.6902C29.9425 40.0927 29.2163 40.3289 28.4463 40.3289C27.6763 40.3289 26.95 40.0927 26.5125 39.6902C26.4275 39.6132 26.3281 39.5537 26.2201 39.5151C26.1121 39.4765 25.9975 39.4596 25.883 39.4653C25.7684 39.471 25.6561 39.4992 25.5524 39.5483C25.4487 39.5974 25.3558 39.6664 25.2788 39.7514C25.2018 39.8365 25.1423 39.9358 25.1037 40.0438C25.0651 40.1519 25.0482 40.2664 25.0539 40.381C25.0596 40.4956 25.0878 40.6079 25.1369 40.7115C25.186 40.8152 25.255 40.9082 25.34 40.9852C26.1013 41.6764 27.2388 42.0702 28.4463 42.0702ZM16.7475 37.0214C15.505 36.3127 13.4575 34.8864 12.2325 32.6027C12.005 32.1827 11.4188 32.1564 11.1913 32.5764C10.535 33.7577 9.17877 35.6302 6.66752 37.0302C6.26502 37.2577 6.24752 37.8352 6.65877 38.0539C7.87502 38.7189 9.88752 40.1189 11.2175 42.5952C11.4363 43.0064 12.0225 43.0327 12.25 42.6214C12.9588 41.3702 14.4025 39.2964 16.73 38.0452C17.1413 37.8264 17.1675 37.2402 16.765 37.0127L16.7475 37.0214ZM49.385 45.8327C48.5013 45.2989 47.2413 44.3627 46.4013 42.9277C46.165 42.5252 45.5963 42.5077 45.36 42.9102C44.8613 43.7414 43.9425 44.9052 42.3763 45.8414C41.9825 46.0777 41.9738 46.6289 42.3675 46.8652C43.2338 47.3727 44.485 48.3177 45.3863 49.8664C45.6138 50.2602 46.1738 50.2864 46.41 49.8927C46.9438 49.0089 47.9063 47.7227 49.3588 46.8564C49.7525 46.6202 49.7788 46.0689 49.385 45.8327Z" fill="white"/>
</svg>
