<svg width="56" height="56" viewBox="0 0 56 56" fill="none" xmlns="http://www.w3.org/2000/svg">
<path d="M19.642 18.2925L20.0629 14.5098L18.6882 13.8247C17.0436 18.0038 14.9611 21.9971 12.4757 25.7378C10.8167 28.2257 9.844 31.1075 9.65594 34.0919C9.46788 37.0763 10.0711 40.0574 11.4047 42.7338C13.0633 43.4049 14.8358 43.7498 16.625 43.7497H18.025L17.6969 42.5475C16.1167 36.7538 16.2869 30.622 18.186 24.925C18.9035 22.7716 19.3915 20.5484 19.642 18.2925Z" fill="white"/>
<path d="M11.025 24.7624C13.3103 21.3206 15.245 17.6585 16.8 13.831C16.2744 14.3621 15.6806 14.8211 15.0342 15.196L9.01162 18.682C7.07249 19.8076 5.46232 21.4219 4.3417 23.3639C3.22108 25.3059 2.62917 27.5077 2.625 29.7499C2.62671 32.0748 3.20768 34.3627 4.31541 36.4067C5.42314 38.4508 7.02273 40.1866 8.96963 41.4574C7.98534 38.7073 7.65857 35.7649 8.01548 32.8659C8.37239 29.9668 9.40307 27.1916 11.025 24.7624ZM22.7194 12.1624C22.1672 11.0204 21.8786 9.76897 21.875 8.50051V5.44238L19.25 5.96738V7.87488C19.2438 9.19922 18.9258 10.5035 18.3216 11.682L21 13.0216L22.7194 12.1624ZM27.6299 23.3991L31.6348 20.1459L25.2 15.2249C24.89 14.9835 24.5976 14.7203 24.325 14.4374L24.5096 15.0499C25.3669 17.8979 26.4092 20.6869 27.6299 23.3991ZM25.1641 25.4029L26.2237 24.5419C24.8872 21.6265 23.7523 18.6229 22.827 15.5521L22.4394 14.2624L21.8172 14.573L21.3797 18.4895C21.1147 20.868 20.5996 23.212 19.8433 25.4825C18.0554 30.851 17.8959 36.6284 19.3848 42.0874L19.8389 43.7499H20.4094C19.1309 40.586 18.9029 37.095 19.759 33.7917C20.615 30.4884 22.5099 27.5476 25.1641 25.4029Z" fill="white"/>
<path d="M52.2376 30.7019C51.2808 28.3892 49.8773 26.2878 48.1076 24.5179C46.3379 22.7481 44.2366 21.3445 41.924 20.3874L41.084 20.0374C40.1567 19.6508 39.3987 18.9445 38.9475 18.0467C38.4964 17.149 38.3821 16.1193 38.6252 15.1444L39.0286 13.5301C39.2601 12.6108 39.3776 11.6666 39.3786 10.7187C39.3774 10.453 39.2794 10.1969 39.1029 9.99841C38.9264 9.79989 38.6835 9.67259 38.4198 9.64038C38.1561 9.60817 37.8897 9.67326 37.6706 9.82346C37.4515 9.97365 37.2947 10.1986 37.2296 10.4562L34.9774 19.4687C34.9316 19.6524 34.8276 19.8164 34.6807 19.9359L26.272 26.7688C24.6682 28.0725 23.367 29.7091 22.4583 31.5654C21.5496 33.4217 21.0552 35.4533 21.0094 37.5196C20.9635 39.5859 21.3673 41.6374 22.1927 43.5322C23.0181 45.427 24.2455 47.1198 25.7899 48.4933C27.4301 49.9486 29.5471 50.7515 31.7399 50.7499H40.3464C41.8855 50.7476 43.406 50.4137 44.8045 49.7708C48.2701 48.1718 50.9812 45.2919 52.3681 41.736C53.755 38.1801 53.7098 34.2252 52.242 30.7019H52.2376ZM47.7979 45.3144L47.6229 45.4938C46.5101 46.606 45.1891 47.4881 43.7353 48.0897C42.2816 48.6912 40.7235 49.0006 39.1502 48.9999H31.9219C30.57 48.9982 29.2379 48.6746 28.0359 48.0559C26.8339 47.4373 25.7964 46.5413 25.0094 45.4422C24.0647 44.1199 23.3956 42.6213 23.0416 41.0353C22.6877 39.4493 22.6562 37.8083 22.9491 36.2099C23.242 34.6115 23.8532 33.0883 24.7465 31.7309C25.6397 30.3734 26.7968 29.2093 28.1489 28.3079L28.7544 27.9037C31.8272 25.8529 34.313 23.0372 35.967 19.7338C36.0198 19.6282 36.0935 19.5343 36.1835 19.4579C36.2736 19.3815 36.3781 19.3241 36.491 19.2892C36.6038 19.2543 36.7225 19.2426 36.84 19.2548C36.9575 19.267 37.0712 19.3028 37.1745 19.3602L40.9212 21.4418C43.7423 23.0076 46.2708 25.0503 48.3946 27.4793C50.5759 29.9728 51.7281 33.2021 51.6178 36.5133C51.5075 39.8244 50.1429 42.9699 47.8005 45.3127L47.7979 45.3144Z" fill="white"/>
<path d="M40.0751 22.9715L37.1115 21.3247C35.3298 24.5557 32.7979 27.3114 29.7291 29.3598L29.1227 29.7641C27.9659 30.5354 26.9759 31.5314 26.2116 32.6928C25.4473 33.8543 24.9243 35.1576 24.6736 36.5252C24.423 37.8928 24.4498 39.2968 24.7525 40.6539C25.0552 42.0109 25.6275 43.2933 26.4356 44.4247C27.0602 45.2973 27.8835 46.0087 28.8375 46.5C29.7915 46.9913 30.8488 47.2484 31.9219 47.2501H39.1502C40.4937 47.2503 41.8239 46.9858 43.0651 46.4717C44.3063 45.9577 45.434 45.2041 46.3839 44.2541L46.5632 44.0791C48.5919 42.0502 49.7735 39.3261 49.8689 36.4586C49.9643 33.5911 48.9662 30.7945 47.0769 28.6353C45.0878 26.3569 42.7188 24.4406 40.0751 22.9715ZM30.3722 30.0065L32.1222 31.7565L30.885 32.9937L29.135 31.2437L30.3722 30.0065ZM27.1251 35.0001H29.7501V36.7501H27.1251V35.0001ZM31.4546 45.7766L29.7921 45.2236L30.6671 42.5986L32.3296 43.1516L31.4546 45.7766ZM30.0266 40.2046L29.4736 38.5421L32.0986 37.6671L32.6516 39.3296L30.0266 40.2046ZM43.4937 28.6187L40.8687 31.2437L39.6315 30.0065L42.2565 27.3815L43.4937 28.6187ZM45.0162 35.0937L44.234 36.66L42.484 35.785L43.2662 34.2187L45.0162 35.0937ZM41.6107 33.9798L38.9857 35.7298L38.0145 34.2738L40.6395 32.5238L41.6107 33.9798ZM38.5482 25.9753L40.2107 26.5283L39.3357 29.1533L37.6732 28.6003L38.5482 25.9753ZM34.1251 26.2501H35.8751V28.8751H34.1251V26.2501ZM34.9739 41.3368L33.2764 40.9133L34.1514 37.4133L35.8489 37.8368L34.9739 41.3368ZM35.8751 35.8751H33.2501V34.1251H35.8751V35.8751ZM35.8751 30.6251H37.6251V33.2501H35.8751V30.6251ZM38.5001 43.7501H36.7501V42.0001H38.5001V43.7501ZM38.6471 39.8607L36.8971 37.2357L38.3531 36.2645L40.1031 38.8895L38.6471 39.8607ZM40.342 45.8912L39.467 44.1412L41.0332 43.359L41.9082 45.109L40.342 45.8912ZM42.0456 43.1516L41.1706 40.5266L42.8331 39.9736L43.7081 42.5986L42.0456 43.1516ZM45.1081 40.1582L43.3581 39.2832L44.1404 37.717L45.8904 38.592L45.1081 40.1582ZM45.0154 33.1582L44.2331 31.592L45.9831 30.717L46.7654 32.2832L45.0154 33.1582Z" fill="white"/>
</svg>
