<svg width="56" height="56" viewBox="0 0 56 56" fill="none" xmlns="http://www.w3.org/2000/svg">
<path d="M28.0001 0C18.049 0 9.95319 8.2052 9.95319 18.1562C9.95319 28.2708 13.2665 35.1237 13.4075 35.4057C13.5438 35.6782 13.7533 35.9073 14.0125 36.0675C14.2717 36.2276 14.5704 36.3125 14.8751 36.3125H19.4111C16.6549 33.9048 14.8751 30.298 14.8751 26.3594V24.653C14.8751 22.0767 16.889 19.9186 19.4605 19.7424C23.6486 19.4604 28.7611 18.2459 30.5716 15.6842C32.8607 12.4395 37.9011 13.0914 39.2377 16.8954C40.2503 19.7969 41.1251 22.2995 41.1251 25.97C41.1251 30.126 39.3531 33.8525 36.5733 36.3125H41.1251C41.4298 36.3125 41.7284 36.2276 41.9876 36.0675C42.2468 35.9073 42.4563 35.6782 42.5927 35.4057C42.7336 35.1237 46.0469 28.2708 46.0469 18.1562C46.0469 8.2052 37.9511 0 28.0001 0ZM12.1582 44.5607C22.588 46.6903 33.379 46.6782 43.8181 44.5491C42.529 43.9092 41.1658 43.4941 39.8818 43.1106C37.2748 42.3324 34.3076 41.5651 32.6226 38.7148C31.1856 39.2579 29.6421 39.5938 28.0001 39.5938C26.3861 39.5938 24.857 39.2615 23.4276 38.7262C21.7651 41.5416 18.7617 42.3224 16.1167 43.1121C14.8256 43.4975 13.454 43.9142 12.1582 44.5607ZM8.36681 56L47.6333 55.9998C48.5604 55.9998 49.335 55.2241 49.2771 54.2991C49.0723 51.0222 48.2645 48.8003 47.126 47.238C40.8558 48.734 34.4346 49.484 28.0145 49.484C21.5942 49.484 15.1897 48.6661 8.92583 47.1761C7.76109 48.7418 6.93094 50.975 6.72302 54.2991C6.66516 55.2241 7.43975 56 8.36681 56Z" fill="white"/>
<path d="M37.8439 25.9702C37.8439 22.8571 37.0925 20.7054 36.1408 17.9817C35.708 16.7483 34.0372 16.4647 33.2521 17.5764C30.2239 21.8638 22.7563 22.8091 19.6865 23.0157C18.8246 23.075 18.1565 23.7896 18.1565 24.6532V26.3595C18.1565 31.7877 22.5721 36.3127 28.0002 36.3127C33.8006 36.3127 37.8439 31.3906 37.8439 25.9702Z" fill="white"/>
</svg>
