<svg width="56" height="56" viewBox="0 0 56 56" fill="none" xmlns="http://www.w3.org/2000/svg">
<path d="M11.3766 1.74951C10.6816 1.75212 10.0157 2.02916 9.52388 2.52033C9.03209 3.0115 8.75422 3.67704 8.75073 4.37208V14.062C12.0248 12.9707 14.1844 11.7007 15.5337 9.85203C16.8731 8.02318 17.5114 5.50644 17.5312 1.74951H11.3766ZM19.2807 1.74951C19.2576 5.72802 18.5796 8.65484 16.9492 10.8839C15.2162 13.2551 12.4845 14.7003 8.75073 15.8843V24.086C11.9388 21.8405 15.5172 19.2774 18.4275 16.3043C20.6433 14.0455 22.4291 11.5883 23.3353 8.96572C24.1684 6.64149 24.2195 4.10875 23.4808 1.75282L19.2807 1.74951ZM25.2865 1.74951C25.9706 4.31561 25.8669 7.02817 24.9888 9.53455C23.9636 12.5044 22.0058 15.1501 19.6809 17.5246C16.3043 20.974 12.1406 23.8611 8.75073 26.2357V38.8491C10.2555 35.8165 12.4051 32.9492 14.7532 30.191C19.4361 24.6945 24.969 19.5453 28.1306 14.4126C29.1823 12.6995 30.0819 11.4825 30.7102 9.36588C31.2096 7.66601 31.5337 5.33116 31.5469 1.74951H25.2865ZM33.2964 1.74951C33.2832 5.4436 32.9459 7.94711 32.3803 9.85865C31.6825 12.2233 30.6507 13.6619 29.6453 15.2923C25.9777 22.7698 25.4386 29.4535 27.3039 36.3357C28.845 42.024 32.0992 47.8644 36.6631 54.2505H41.5841C40.5523 51.9521 39.0376 49.6073 37.437 46.9484C34.5267 42.1133 31.5039 36.2663 31.5039 27.9951C31.5039 21.0501 33.3096 16.8136 35.5651 12.8682C37.47 9.53785 39.6561 6.38614 41.4651 1.74951H33.2964ZM43.3435 1.74951C41.4122 6.93843 39.0145 10.358 37.0831 13.7379C34.8905 17.5742 33.2534 21.3444 33.2534 27.9918C33.2534 35.8462 36.0711 41.2865 38.9351 46.0488C40.6548 48.9029 42.4076 51.5188 43.5122 54.2505H44.6267C46.0653 54.2505 47.2493 53.06 47.2493 51.6214V48.2249C41.6602 40.8301 38.3597 35.4825 38.5052 27.9851C38.5845 23.8578 39.2857 20.6433 40.8665 17.3956C42.2654 14.525 44.3721 11.585 47.2493 7.90081V4.37208C47.2458 3.67761 46.9684 3.01256 46.4773 2.52149C45.9862 2.03041 45.3212 1.75299 44.6267 1.74951H43.3435ZM47.2493 10.7549C45.1029 13.5924 43.532 15.9273 42.444 18.1629C40.9657 21.1956 40.3241 24.0695 40.248 28.0149C40.1257 34.368 42.6358 39.0046 47.2493 45.2849V10.7549ZM25.7098 20.6069C22.7003 24.1852 19.1815 27.704 16.0893 31.3287C12.6366 35.3799 9.78256 39.5139 8.75073 43.9091V51.6214C8.75073 52.6697 9.3824 53.5792 10.2819 54.0025C12.0248 46.3167 15.2427 38.9153 20.3191 32.6978C20.3964 32.6023 20.4928 32.5241 20.6022 32.4683C20.7116 32.4125 20.8315 32.3803 20.9541 32.3737C21.1761 32.3621 21.3941 32.4352 21.5642 32.5782C21.7343 32.7213 21.8437 32.9236 21.8702 33.1443C22.8227 40.8863 26.4936 47.1699 27.2774 54.2505H34.5101C30.2505 48.1555 27.1583 42.4639 25.6172 36.7855C24.1316 31.4905 24.1637 25.8846 25.7098 20.6069ZM20.6829 35.4692C16.5225 41.0682 13.6387 47.494 12.038 54.2505H15.7024C15.752 50.8541 16.5159 47.7024 18.487 44.1968C18.5616 44.0642 18.6694 43.9533 18.7999 43.875C18.9304 43.7967 19.079 43.7538 19.2311 43.7503C19.4366 43.7464 19.637 43.8147 19.7972 43.9435C19.9574 44.0722 20.0672 44.2532 20.1075 44.4548C20.7458 47.7222 21.4138 50.9864 22.0918 54.2505H25.5114C24.8136 48.2844 21.986 42.4672 20.6829 35.4659V35.4692ZM18.9764 47.6825C18.0934 49.8818 17.5742 51.9818 17.475 54.2505H20.3191C19.8661 52.0612 19.413 49.8719 18.9764 47.6825Z" fill="white"/>
</svg>
