<svg width="56" height="56" viewBox="0 0 56 56" fill="none" xmlns="http://www.w3.org/2000/svg">
<g clip-path="url(#clip0_284_3367)">
<path d="M44.5789 28.5723C41.5091 24.1658 39.4985 19.893 38.0597 14.7182C37.3575 12.1925 35.7232 10.1716 33.5804 8.97217C32.4214 17.3303 25.2304 23.7867 16.5585 23.7867H16.0281C15.1709 25.3975 14.1995 26.9771 13.0875 28.5738C4.77357 40.3654 14.3183 56.1775 28.8338 55.9986C43.3481 56.1772 52.8959 40.3631 44.5789 28.5723Z" fill="white"/>
<path d="M30.4134 7.77314C30.4551 7.62855 30.4787 1.63031 30.4787 1.63031C30.398 -0.544256 27.2773 -0.542616 27.1973 1.63031V5.62264H21.919C14.4257 5.62264 8.32935 11.7189 8.32935 19.2122V19.6847C8.32935 19.9023 8.41577 20.111 8.56962 20.2648C8.72346 20.4187 8.93212 20.5051 9.14969 20.5051H16.5584C23.8307 20.5051 29.8159 14.8934 30.4134 7.77314Z" fill="white"/>
</g>
<defs>
<clipPath id="clip0_284_3367">
<rect width="56" height="56" fill="white"/>
</clipPath>
</defs>
</svg>
