<svg width="56" height="56" viewBox="0 0 56 56" fill="none" xmlns="http://www.w3.org/2000/svg">
<g clip-path="url(#clip0_284_3372)">
<path d="M11.5266 32.6164C11.5266 33.4996 11.5829 34.3684 11.6917 35.2137H18.0154V30.0189H11.6917C11.5814 30.8803 11.5262 31.7479 11.5266 32.6164ZM21.2963 30.0189V35.2137H27.6201C27.7289 34.3684 27.7852 33.4996 27.7852 32.6164C27.7852 31.7331 27.7289 30.8643 27.6201 30.0189H21.2963ZM45.4393 14.8202C44.1958 13.6609 43.4826 12.0143 43.4826 10.3025C43.4826 8.26599 41.8258 6.60923 39.7892 6.60923H38.2779C38.9727 4.6712 40.8275 3.28072 43.0016 3.28072H44.82V0H43.0016C39.0047 0 35.6593 2.84077 34.8771 6.60933H32.8996C31.5925 6.60933 30.4426 7.29249 29.786 8.3199C29.9775 8.9634 30.0748 9.63126 30.0748 10.3027C30.0748 11.1076 30.4076 11.8796 30.9879 12.4206C33.3857 14.6558 35.3711 17.6158 36.7296 20.9804C38.119 24.4217 38.8535 28.3032 38.8535 32.2055C38.8535 37.5037 37.5543 42.5437 35.0966 46.7806C33.9088 48.8284 32.4683 50.6254 30.8516 52.1052C31.3148 52.334 31.791 52.5353 32.2778 52.7082C33.9438 53.2971 35.294 54.4711 36.0988 56H37.0545C37.811 54.4405 39.1347 53.2165 40.8127 52.5596C47.5535 49.9204 52.2612 41.5505 52.2612 32.2055C52.2612 25.3016 49.711 18.8025 45.4393 14.8202ZM25.2 23.1845C24.0844 21.5143 22.7363 20.3915 21.2963 19.9047V26.7382H26.8901C26.4667 25.4339 25.9004 24.2331 25.2 23.1845Z" fill="white"/>
<path d="M28.7508 14.8204C27.5073 13.6611 26.794 12.0145 26.794 10.3027C26.794 8.26614 25.1372 6.60938 23.1007 6.60938H16.2111C14.1745 6.60938 12.5178 8.26614 12.5178 10.3027C12.5178 12.0145 11.8047 13.6611 10.5612 14.8204C6.28923 18.8027 3.73901 25.3017 3.73901 32.2056C3.73901 41.8113 8.61197 50.2423 15.589 52.7084C17.2549 53.2973 18.6053 54.4713 19.4099 56.0002H20.3657C21.1221 54.4406 22.4459 53.2167 24.1239 52.5598C30.8646 49.9207 35.5725 41.5507 35.5725 32.2056C35.5726 25.3018 33.0224 18.8027 28.7508 14.8204ZM27.9281 43.8706C25.7687 47.1035 22.8309 48.8841 19.6559 48.8841C16.4808 48.8841 13.543 47.1036 11.3836 43.8706C9.36031 40.841 8.24595 36.8443 8.24595 32.6165C8.24595 28.3888 9.36031 24.392 11.3836 21.3624C13.543 18.1295 16.4808 16.349 19.6559 16.349C22.8309 16.349 25.7687 18.1294 27.9281 21.3624C29.9515 24.392 31.0659 28.3888 31.0659 32.6165C31.0659 36.8443 29.9515 40.841 27.9281 43.8706Z" fill="white"/>
<path d="M21.2962 45.3282C22.7363 44.8413 24.0844 43.7185 25.1999 42.0483C25.9004 40.9997 26.4666 39.7988 26.89 38.4945H21.2961L21.2962 45.3282ZM14.1117 42.0483C15.2273 43.7185 16.5753 44.8413 18.0155 45.3282V38.4945H12.4216C12.845 39.7988 13.4113 40.9997 14.1117 42.0483ZM14.1117 23.1846C13.4113 24.2333 12.8451 25.434 12.4216 26.7383H18.0155V19.9048C16.5753 20.3916 15.2273 21.5144 14.1117 23.1846Z" fill="white"/>
</g>
<defs>
<clipPath id="clip0_284_3372">
<rect width="56" height="56" fill="white"/>
</clipPath>
</defs>
</svg>
