<svg width="56" height="56" viewBox="0 0 56 56" fill="none" xmlns="http://www.w3.org/2000/svg">
<path d="M46.2542 23.961L46.2525 23.9575H30.0387C29.6926 23.9576 29.3544 24.0602 29.0667 24.2525C28.7789 24.4448 28.5547 24.7181 28.4223 25.0378C28.2899 25.3576 28.2552 25.7094 28.3227 26.0488C28.3902 26.3882 28.5568 26.7 28.8015 26.9447L40.642 38.7852C44.2881 34.7125 46.2886 29.4272 46.2542 23.961ZM46.0827 21.3325C45.3959 15.8505 42.6837 10.8236 38.479 7.23975L27.3735 18.3452C27.1288 18.59 26.9622 18.9018 26.8947 19.2412C26.8272 19.5806 26.8619 19.9324 26.9943 20.2521C27.1267 20.5719 27.3509 20.8452 27.6387 21.0374C27.9264 21.2297 28.2647 21.3324 28.6107 21.3325H46.0827ZM38.787 40.642L26.9447 28.8015C26.7 28.5568 26.3882 28.3902 26.0488 28.3227C25.7093 28.2552 25.3575 28.2899 25.0378 28.4223C24.7181 28.5547 24.4448 28.779 24.2525 29.0667C24.0602 29.3544 23.9575 29.6927 23.9575 30.0387V46.249L23.9645 46.256C29.4309 46.2899 34.7145 44.2887 38.787 40.642ZM21.3325 46.0915V28.609C21.332 28.2631 21.2291 27.9251 21.0367 27.6376C20.8443 27.3502 20.571 27.1262 20.2513 26.994C19.9316 26.8618 19.58 26.8273 19.2407 26.8948C18.9015 26.9624 18.5898 27.1289 18.3452 27.3735L7.20996 38.507C10.7947 42.722 15.8388 45.4304 21.3325 46.0915Z" fill="white"/>
<path d="M44.1806 4.01286C43.8524 3.68479 43.4074 3.50049 42.9434 3.50049C42.4793 3.50049 42.0343 3.68479 41.7061 4.01286L40.3639 5.35511C42.927 7.59071 45.0032 10.3293 46.4636 13.4009C47.924 16.4726 48.7373 19.8116 48.8532 23.2107C48.9691 26.6098 48.385 29.9965 47.1371 33.1604C45.8893 36.3244 44.0044 39.198 41.5995 41.603C39.1945 44.0079 36.3209 45.8928 33.1569 47.1406C29.993 48.3885 26.6063 48.9726 23.2072 48.8567C19.8081 48.7408 16.4691 47.9275 13.3974 46.4671C10.3258 45.0067 7.58721 42.9305 5.35161 40.3674L4.01286 41.7061C3.68479 42.0343 3.50049 42.4793 3.50049 42.9434C3.50049 43.4074 3.68479 43.8524 4.01286 44.1806C9.33944 49.5072 16.5638 52.4996 24.0967 52.4996C31.6297 52.4996 38.854 49.5072 44.1806 44.1806C49.5072 38.854 52.4996 31.6297 52.4996 24.0967C52.4996 16.5638 49.5072 9.33944 44.1806 4.01286Z" fill="white"/>
</svg>
