<svg width="56" height="56" viewBox="0 0 56 56" fill="none" xmlns="http://www.w3.org/2000/svg">
<path d="M52.3978 20.9016C49.7416 19.7589 45.7687 19.5243 41.826 24.7308C41.6141 24.7535 41.4022 24.761 41.1903 24.761C41.3492 23.7318 41.4249 22.7026 41.4173 21.681C41.8335 21.3935 42.2195 21.0756 42.5751 20.7426C46.147 20.3794 47.7968 18.1167 47.6 15.5967C47.3276 12.0626 48.8638 11.2908 48.1676 10.5113C48.0768 10.404 47.9578 10.3245 47.8239 10.2816C47.6901 10.2388 47.547 10.2345 47.4108 10.2691C44.6108 10.9881 41.3265 13.2356 41.387 19.7664C41.3643 19.7967 41.3341 19.8194 41.3038 19.8497C41.1146 18.1772 40.7059 16.5275 40.0627 14.8854C43.2638 8.86157 41.3416 5.1913 39.1243 3.16319C38.6703 2.75454 37.9287 3.0194 37.8605 3.65508C37.5276 7.11346 36.1881 7.71886 35.7568 9.53508C31.5189 7.63562 30.5351 11.3664 25.6843 12.3805C25.4043 12.441 25.1849 12.6529 25.1092 12.9254C25.0411 13.2053 25.1319 13.5005 25.3438 13.6897C28.4087 16.3762 32.5859 16.9589 37.8076 13.5459C38.0951 14.1286 38.2919 14.5524 38.5492 15.1502L38.5568 15.1578C39.1092 16.4972 39.4876 17.8443 39.707 19.1989C39.586 19.1686 39.4724 19.1535 39.3514 19.1308C36.9146 16.4897 34.0919 16.5578 32.2076 18.2151C31.1027 19.1913 29.8087 19.8799 28.3632 20.2508C28.2267 20.2853 28.1025 20.3572 28.0047 20.4584C27.9068 20.5597 27.8391 20.6862 27.8092 20.8238C27.7794 20.9615 27.7885 21.1047 27.8355 21.2374C27.8826 21.3701 27.9658 21.4871 28.0757 21.5751C30.9135 23.8454 34.72 24.1783 39.2832 20.6518C39.4876 20.6897 39.6843 20.7351 39.8887 20.7881C39.9643 22.2713 38.0497 34.0162 39.8584 29.6043C40.2945 28.5206 40.6462 27.4049 40.9103 26.267C41.266 26.3048 41.8184 26.2594 42.1741 26.2216C45.1935 28.1135 47.88 27.3718 49.2876 25.2302C51.2173 22.3167 52.9049 22.5816 52.8519 21.5599C52.8368 21.2724 52.6551 21.0151 52.3978 20.9016ZM34.5838 20.8486C34.5989 20.8486 35.5297 20.5913 36.8087 20.5232C34.4249 21.9232 32.2378 22.1502 30.2778 21.1967C33.1687 19.9783 34.0919 17.5264 36.8087 19.0021C35.333 19.0778 34.2508 19.3729 34.1751 19.3956C33.2141 19.6681 33.6227 21.121 34.5838 20.8486ZM39.3514 12.8951C38.9957 11.601 38.7687 9.98913 39.3892 9.04319C39.6162 8.69508 39.5178 8.22589 39.1622 7.99886C38.0649 7.27994 37.4746 9.36103 37.4897 10.6929C37.3762 10.5945 37.2627 10.4886 37.1492 10.3978C37.2627 8.75562 38.3978 8.42265 39.1092 5.38805C40.5773 7.40103 40.653 9.87562 39.3514 12.8951ZM44.6411 25.6767C46.0487 25.2151 47.0097 24.6475 47.0778 24.6097C47.2504 24.5073 47.3753 24.3406 47.4249 24.1461C47.4746 23.9517 47.445 23.7455 47.3427 23.5729C46.813 22.6951 46.2076 23.5502 44.2551 24.2086C46.1849 22.2335 48.2357 21.4464 50.3697 21.8475C47.6984 23.9437 47.7135 26.3956 44.6411 25.6767Z" fill="white"/>
<path d="M51.6106 46.9944C51.603 46.9793 51.5954 46.9642 51.5954 46.949C50.99 44.8301 36.7706 28.9306 35.6733 26.3879C35.2419 25.6842 34.5381 26.1609 28.9835 26.1912C28.8763 26.1799 28.768 26.192 28.6658 26.2265C28.5637 26.2611 28.4703 26.3173 28.392 26.3913C28.3136 26.4654 28.2522 26.5555 28.2119 26.6555C28.1717 26.7555 28.1535 26.863 28.1587 26.9706C28.7262 37.5804 25.9868 25.4193 42.6354 52.5188C42.9987 53.2377 51.3079 53.1015 51.7695 52.7306C52.8365 51.8906 51.6181 47.0852 51.6106 46.9944ZM43.0668 50.3317C37.2776 40.9782 35.7035 38.7912 29.8841 31.7306L29.7857 29.5058C29.7857 29.4982 29.7857 29.4982 29.7781 29.4982H29.7857V29.4679C29.9673 29.7101 30.0203 29.7933 30.0127 29.7933C30.7695 30.7771 33.6981 34.5912 43.3619 47.2366C43.0138 48.2733 42.8473 49.2496 43.0668 50.3317ZM50.71 51.5501C50.6343 51.5577 44.5879 51.3988 44.5122 51.3988C44.5122 51.3988 44.0506 50.0063 44.7392 47.895L50.2181 47.8723C50.5511 50.029 50.7479 50.8842 50.71 51.5501ZM11.6235 38.4885C11.6235 40.1836 12.9933 41.5609 14.6884 41.5609C16.3835 41.5609 17.7533 40.1836 17.7533 38.4885C17.7533 36.8009 14.6884 30.8982 14.6884 30.8982C14.6884 30.8982 11.6235 36.8009 11.6235 38.4885Z" fill="white"/>
<path d="M20.0085 12.5925C20.909 12.2898 21.5598 11.4574 21.5598 10.4585V5.47901C21.5598 4.23036 20.5458 3.21631 19.2971 3.21631H10.0647C8.81606 3.21631 7.802 4.23036 7.802 5.47901V10.4585C7.802 11.4574 8.45281 12.2974 9.35335 12.5925C8.96741 19.479 3.13281 18.0412 3.13281 23.9817V45.905C3.13281 49.3558 5.94038 52.1633 9.39119 52.1633H19.9631C23.4139 52.1633 26.2215 49.3558 26.2215 45.905V23.9817C26.229 18.1168 20.402 19.4033 20.0085 12.5925ZM9.29281 10.4585C9.52741 6.64442 8.72524 4.69955 10.0723 4.69955H10.5188C10.7079 7.18171 9.9966 9.08874 11.2604 9.08874C12.5166 9.08874 11.8128 7.17415 12.002 4.69955H15.0896C15.2788 7.18171 14.5674 9.08874 15.8312 9.08874C17.0874 9.08874 16.3836 7.17415 16.5728 4.69955C18.2377 4.86604 20.0842 4.23036 20.0842 5.47901V10.4585C20.0842 10.8898 19.7361 11.2379 19.3047 11.2379H18.8582C18.669 8.75577 19.3728 6.84874 18.1166 6.84874C16.8604 6.84874 17.5642 8.76334 17.375 11.2379H14.2874V7.59036C14.2874 6.60658 12.8042 6.60658 12.8042 7.59036V11.2379H10.0723C9.64092 11.2304 9.29281 10.8823 9.29281 10.4585ZM22.2258 45.905C22.2258 47.146 21.2117 48.1525 19.9707 48.1525H9.39876C8.15768 48.1525 7.14362 47.146 7.14362 45.905V24.8217C7.14362 23.5806 8.15768 22.5666 9.39876 22.5666H19.9707C21.2117 22.5666 22.2258 23.5806 22.2258 24.8217V45.905Z" fill="white"/>
</svg>
