<svg width="56" height="56" viewBox="0 0 56 56" fill="none" xmlns="http://www.w3.org/2000/svg">
<path d="M31.8941 8.73822e-09H24.1064C24.0165 -1.43587e-05 23.9274 0.0176886 23.8443 0.0520978C23.7612 0.086507 23.6857 0.136948 23.6221 0.20054C23.5586 0.264132 23.5081 0.33963 23.4737 0.422719C23.4393 0.505809 23.4216 0.594864 23.4216 0.684797V3.90075C23.4216 3.99067 23.4393 4.07972 23.4737 4.1628C23.5081 4.24588 23.5585 4.32138 23.6221 4.38497C23.6857 4.44856 23.7612 4.499 23.8442 4.53342C23.9273 4.56783 24.0164 4.58555 24.1063 4.58555H24.1451V9.59656C24.1451 10.9017 24.061 12.2013 23.8964 13.4877L28.0003 17.5915L32.1041 13.4877C31.9387 12.1972 31.8557 10.8976 31.8554 9.59656V4.58555H31.8942C31.9842 4.58556 32.0732 4.56786 32.1563 4.53345C32.2394 4.49904 32.3149 4.4486 32.3785 4.38501C32.4421 4.32141 32.4925 4.24592 32.5269 4.16283C32.5613 4.07974 32.579 3.99068 32.579 3.90075V0.684797C32.579 0.503167 32.5068 0.328987 32.3784 0.200566C32.2499 0.0721446 32.0757 6.42227e-09 31.8941 8.73822e-09ZM36.0033 24.9962C34.9207 23.132 34.0377 21.1588 33.369 19.1093L29.7218 22.7566C29.496 22.983 29.2276 23.1625 28.9321 23.2849C28.6367 23.4073 28.32 23.4701 28.0001 23.4697C27.6803 23.4701 27.3636 23.4073 27.0682 23.2849C26.7727 23.1625 26.5043 22.983 26.2785 22.7566L22.6313 19.1093C21.9626 21.1588 21.0796 23.132 19.997 24.9962C18.0359 28.3724 17.0029 32.2072 17.0029 36.1116V54.025C17.0029 55.1157 17.8871 55.9999 18.9778 55.9999H37.0222C38.1129 55.9999 38.997 55.1157 38.997 54.025V36.1116C38.9972 32.2072 37.9643 28.3724 36.0033 24.9962ZM20.778 32.7917C20.8766 30.2324 21.6497 27.7447 23.0191 25.5803C23.3788 25.0121 24.1311 24.8435 24.6989 25.203C25.2669 25.5627 25.4359 26.3146 25.0763 26.8827C23.9366 28.6841 23.2931 30.7547 23.2111 32.8848C23.186 33.5408 22.6464 34.0557 21.9954 34.0557C21.9796 34.0557 21.9639 34.0554 21.948 34.0548C21.2762 34.0291 20.7523 33.4636 20.778 32.7917ZM34.5063 49.1827C34.5063 49.8774 33.9431 50.4406 33.2484 50.4406H22.7522C22.0575 50.4406 21.4943 49.8774 21.4943 49.1827V42.3653C21.4943 41.6706 22.0575 41.1074 22.7522 41.1074H33.2484C33.9431 41.1074 34.5063 41.6706 34.5063 42.3653V49.1827Z" fill="white"/>
</svg>
