<svg width="56" height="56" viewBox="0 0 56 56" fill="none" xmlns="http://www.w3.org/2000/svg">
<g clip-path="url(#clip0_284_3398)">
<path d="M14.4258 14.8903L16.4197 15.4994C18.5839 16.153 20.8929 16.153 23.0571 15.4994C25.4281 14.7766 27.9532 14.7264 30.351 15.3543L31.0906 15.5478C33.4592 16.1659 35.9638 16.0052 38.234 15.0896L40.2583 14.2656C40.5451 14.1717 40.8059 14.0117 41.0196 13.7986C41.2333 13.5855 41.394 13.3252 41.4888 13.0386C41.5717 12.6116 41.559 12.1716 41.4516 11.7501C41.3441 11.3287 41.1446 10.9362 40.8674 10.6011C38.2619 6.93417 32.7598 2.98779 26.837 2.98779C20.7682 2.98779 16.2332 5.10043 16.2332 6.98932C16.2332 8.8782 20.7681 10.9908 26.837 10.9908C26.936 10.9955 27.0338 11.0152 27.1269 11.0494C27.22 11.0152 27.3178 10.9955 27.4169 10.9908C29.8328 10.9908 31.6382 9.93474 31.6382 8.99002C31.6382 8.04531 29.8328 6.98921 27.4169 6.98921C26.1902 6.95135 24.9795 7.2746 23.935 7.91882C23.7188 8.07206 23.4505 8.1332 23.1893 8.0888C22.928 8.04441 22.695 7.8981 22.5415 7.68204C22.388 7.46602 22.3265 7.1979 22.3706 6.93657C22.4146 6.67524 22.5605 6.44207 22.7764 6.28828C24.1577 5.39915 25.7747 4.94626 27.4169 4.9885C30.906 4.9885 33.639 6.74608 33.639 8.99002C33.639 11.234 30.906 12.9915 27.4169 12.9915C27.3178 12.9869 27.22 12.9672 27.1269 12.933C27.0338 12.9672 26.936 12.9869 26.837 12.9915C21.4486 12.9915 17.0538 11.5403 15.1923 9.37146L13.3004 11.4518C13.0659 11.698 12.8987 12.0004 12.8151 12.33C12.7315 12.6596 12.7343 13.0052 12.8232 13.3334C12.9368 13.7072 13.1435 14.0461 13.4238 14.3184C13.7041 14.5907 14.0488 14.7874 14.4258 14.8903Z" fill="white"/>
<path d="M6.15694 20.22C6.8958 20.7313 7.7746 21.0019 8.67311 20.9947H10.5219C12.2093 20.9936 13.8827 21.3003 15.46 21.8998L19.27 23.3618C21.9211 24.3552 24.8371 24.3846 27.5077 23.4449L33.2174 21.3938C35.8458 20.457 38.6947 20.3292 41.3964 21.0269L44.3658 21.7972C45.5422 22.1227 46.786 22.1145 47.9581 21.7736C49.1302 21.4327 50.1843 20.7725 51.0026 19.8668C51.0197 19.8458 51.0965 19.7657 51.1155 19.7461C51.4119 19.3833 51.6328 18.9649 51.7651 18.5154C51.8974 18.066 51.9385 17.5946 51.886 17.1291C51.8335 16.6635 51.6884 16.2132 51.4593 15.8045C51.2301 15.3959 50.9216 15.0372 50.5517 14.7495C49.1117 13.5332 47.3627 12.7401 45.4989 12.4581L43.542 12.1421C43.5878 12.6313 43.543 13.1248 43.4097 13.5977C43.2302 14.1736 42.9206 14.7005 42.5049 15.1377C42.0891 15.5748 41.5784 15.9105 41.0122 16.1187L38.9884 16.9427C36.3174 18.0198 33.3707 18.2092 30.5837 17.4829L29.8442 17.2894C27.8052 16.7546 25.6576 16.7974 23.6415 17.4131C21.096 18.181 18.3806 18.181 15.8352 17.4131L13.8413 16.804C13.1411 16.6035 12.5033 16.2285 11.9877 15.7142C11.4721 15.1999 11.0955 14.563 10.8933 13.8633C10.7401 13.3053 10.7121 12.7204 10.8114 12.1503L7.14673 12.6681C6.64057 12.7242 6.15348 12.8933 5.72138 13.1628C5.28929 13.4323 4.9232 13.7954 4.65014 14.2253C3.46733 16.3047 4.13128 18.9471 6.15694 20.22Z" fill="white"/>
<path d="M1.95246 27.4058C2.63295 28.1364 3.50417 28.6622 4.46774 28.9237C5.4313 29.1852 6.4488 29.1721 7.4053 28.8859C7.43167 28.8785 7.45804 28.8722 7.48496 28.8668C8.52512 28.5737 9.6166 28.5103 10.6837 28.6811C11.7508 28.8519 12.768 29.2528 13.6647 29.856L14.6084 30.4865C15.2745 30.9271 16.0282 31.2178 16.8175 31.3389C17.6069 31.4599 18.4131 31.4082 19.1805 31.1875C19.2079 31.1797 19.2357 31.1728 19.2636 31.1674C20.3476 30.8591 21.4878 30.8028 22.5969 31.0028C23.706 31.2029 24.7546 31.654 25.6626 32.3217C26.3744 32.8342 26.9564 33.5062 27.362 34.2839C27.7677 35.0616 27.9856 35.9235 27.9985 36.8005V39.0015C28.0053 39.2642 28.0695 39.5221 28.1865 39.7573C28.3036 39.9924 28.4707 40.1992 28.676 40.3629C29.1902 40.7834 29.8359 41.0098 30.5 41.0024C31.7382 41.1233 32.8475 40.2361 33.0016 39.0015V33.9996C33.1703 32.2964 34.6029 30.9987 36.3144 30.9987C38.0259 30.9987 39.4585 32.2965 39.6272 33.9996V36.0004C39.6306 36.1255 39.6616 36.2483 39.718 36.3599C39.7744 36.4716 39.8549 36.5694 39.9536 36.6462C40.228 36.8807 40.5785 37.0068 40.9394 37.0008C41.2443 37.0322 41.5497 36.9463 41.7935 36.7604C42.0372 36.5745 42.201 36.3028 42.2514 36.0004V31.2783C42.297 30.1761 43.2245 29.3178 44.327 29.3576C44.5294 29.3558 44.7312 29.3823 44.9264 29.4362C46.3288 29.8488 47.8176 29.868 49.2302 29.4916C50.6427 29.1152 51.9247 28.3578 52.9359 27.3021C53.3107 26.8838 53.5977 26.3945 53.7801 25.8632C53.9624 25.3319 54.0363 24.7695 53.9973 24.2091C53.8829 23.0592 53.3213 22.0003 52.4336 21.2604C51.3687 22.4171 50.0068 23.2594 48.4963 23.6956C46.9858 24.1319 45.3845 24.1453 43.8669 23.7344L40.8935 22.9631C38.5817 22.3658 36.144 22.4748 33.8947 23.2762L28.1845 25.3274C26.6849 25.861 25.1045 26.132 23.5128 26.1284C21.8199 26.1315 20.1405 25.8273 18.5563 25.2306L14.7471 23.7691C13.3976 23.2566 11.9659 22.9945 10.5223 22.9955H8.67291C7.35849 23.0017 6.07428 22.6014 4.99614 21.8495C4.43004 21.4467 3.92403 20.9655 3.49329 20.4204C3.43695 20.5428 3.35632 20.6524 3.25628 20.7426C3.15625 20.8329 3.03891 20.9018 2.9114 20.9453L2.45808 21.3342C2.01692 21.6794 1.65027 22.1104 1.38026 22.6012C1.11025 23.092 0.942468 23.6324 0.887046 24.1898C0.831624 24.7472 0.889709 25.3101 1.0578 25.8444C1.22588 26.3788 1.50049 26.8735 1.86504 27.2989L1.95246 27.4058Z" fill="white"/>
<path d="M55.7488 33.8101L54.6762 28.3223C54.6011 28.4192 54.5297 28.518 54.4485 28.6118C51.8723 31.3444 47.9837 32.4055 44.3767 31.3605C44.3348 31.3599 44.293 31.3642 44.2521 31.3732V36.0005C44.1601 37.7412 42.6807 39.0814 40.9393 39.0017C40.097 39.0112 39.2804 38.7114 38.6444 38.159C38.3281 37.8947 38.0733 37.5647 37.8975 37.1919C37.7217 36.8192 37.6292 36.4126 37.6263 36.0005V33.9996C37.5475 33.7121 37.3764 33.4585 37.1393 33.2777C36.9023 33.097 36.6124 32.9991 36.3143 32.9991C36.0162 32.9991 35.7263 33.097 35.4893 33.2777C35.2522 33.4585 35.0811 33.7121 35.0023 33.9996V39.0016C34.8535 41.3446 32.8444 43.1303 30.5001 43.0031C29.3578 43.014 28.2492 42.6164 27.3743 41.882C26.948 41.5319 26.6037 41.0925 26.3658 40.5947C26.128 40.097 26.0023 39.5531 25.9977 39.0015V36.8004C25.9871 36.2327 25.8421 35.6757 25.5745 35.1749C25.307 34.6741 24.9246 34.2439 24.4586 33.9194C23.7882 33.4307 23.0139 33.1034 22.1962 32.9631C21.3785 32.8228 20.5394 32.8733 19.7444 33.1105C19.7175 33.1182 19.6902 33.1247 19.6627 33.1301C18.6226 33.4231 17.5311 33.4865 16.464 33.3157C15.3969 33.1449 14.3798 32.744 13.483 32.141L12.5393 31.5104C11.8734 31.0695 11.1197 30.7784 10.3303 30.6574C9.54086 30.5364 8.73458 30.5883 7.96717 30.8094C7.93919 30.8177 7.91082 30.8246 7.88215 30.83C6.67676 31.1705 5.40457 31.1987 4.18527 30.912C2.96597 30.6253 1.83964 30.0332 0.91223 29.1913L0.137879 34.4751C-0.153445 36.5784 0.018146 38.7201 0.640656 40.7502C1.26317 42.7804 2.32157 44.6501 3.74189 46.2286C5.72843 48.4218 8.16336 50.1622 10.8816 51.3318C13.5998 52.5013 16.5377 53.0727 19.4961 53.0072H36.5028C39.5236 53.0633 42.5203 52.4595 45.2837 51.2379C48.047 50.0164 50.5105 48.2065 52.5023 45.9346C53.9182 44.2866 54.9451 42.3411 55.5071 40.2423C56.0691 38.1435 56.1517 35.9452 55.7488 33.8101Z" fill="white"/>
</g>
<defs>
<clipPath id="clip0_284_3398">
<rect width="56" height="56" fill="white"/>
</clipPath>
</defs>
</svg>
