<svg width="56" height="56" viewBox="0 0 56 56" fill="none" xmlns="http://www.w3.org/2000/svg">
<g clip-path="url(#clip0_284_3405)">
<path d="M18.407 40.1633L17 39.5383V43.4883L19 44.4073V41.0774C19.0001 40.884 18.9442 40.6947 18.8389 40.5325C18.7337 40.3702 18.5836 40.242 18.407 40.1633ZM19.0001 23.1183V26.0553L21 25.0193V23.1194C21.0018 22.1636 21.2772 21.2282 21.7936 20.4239C22.3099 19.6196 23.0457 18.9799 23.914 18.5803L38.161 11.9993C38.4711 11.8535 38.8139 11.7911 39.1556 11.8183C39.4972 11.8454 39.8258 11.9613 40.109 12.1543C40.3874 12.3302 40.6157 12.5749 40.7718 12.8648C40.9279 13.1548 41.0065 13.4801 41 13.8093V19.6993L42.9999 20.6223V13.8093C42.9973 12.4457 42.3002 11.1773 41.1504 10.4441C40.0005 9.71092 38.5564 9.6142 37.319 10.1873L23.069 16.7673C20.5906 17.9101 19.0023 20.3891 19.0001 23.1183Z" fill="white"/>
<path d="M27.217 41.8931L32.9999 44.46V43.1181C32.9985 42.5465 32.8341 41.9871 32.5261 41.5055C32.2182 41.024 31.7793 40.6402 31.261 40.3991L17 33.8162V37.3481L19.2189 38.3361C19.749 38.5718 20.1994 38.9562 20.5155 39.4427C20.8316 39.9292 20.9999 40.4969 20.9999 41.0771V52.999C20.9999 53.1452 21.032 53.2896 21.0939 53.422C21.1558 53.5545 21.246 53.6717 21.3581 53.7656C21.4702 53.8594 21.6016 53.9275 21.7429 53.965C21.8841 54.0026 22.0319 54.0088 22.1758 53.9831C22.4189 53.9202 22.6331 53.7762 22.783 53.5748C22.9329 53.3735 23.0094 53.1269 22.9998 52.8761V44.6351C22.9999 44.1353 23.1247 43.6436 23.363 43.2044C23.6014 42.7651 23.9456 42.3924 24.3645 42.12C24.7835 41.8476 25.2638 41.6842 25.7619 41.6446C26.2601 41.6049 26.7602 41.6903 27.217 41.8931ZM23 23.1181V23.9831L33.458 18.5661C34.2493 18.1953 35.1121 18.0023 35.9859 18.0006C36.8597 17.9988 37.7233 18.1885 38.516 18.5562L39.0001 18.7792V13.8092L24.7491 20.3993C24.2284 20.6381 23.7869 21.0211 23.4769 21.5029C23.167 21.9847 23.0015 22.5452 23 23.1181ZM13.762 28.7652C13.862 28.7001 16.896 27.1431 17 27.0912V23.1181C17.002 19.6073 19.0453 16.4182 22.2339 14.9491L36.4809 8.37111C36.601 8.31613 36.7249 8.27712 36.8469 8.23013L21.62 0.34721C21.0994 0.117324 20.5357 0.00117573 19.9667 0.00652433C19.3976 0.0118729 18.8362 0.138595 18.32 0.378226L4.06906 6.95716C1.59024 8.10005 0.00194062 10.5796 6.08682e-05 13.3091V24.1881C-0.00316649 24.5979 0.12202 24.9984 0.358048 25.3334C0.594076 25.6685 0.929094 25.9212 1.31607 26.0561C1.44108 26.102 0.737111 25.7501 11.5421 31.3391C12.0163 30.2837 12.7877 29.3893 13.762 28.7652ZM3.58004 13.9061C3.09704 13.6641 2.89356 13.0821 3.12063 12.5919C3.22984 12.3561 3.42656 12.172 3.66912 12.0788C3.91168 11.9855 4.18103 11.9903 4.4201 12.0922L15.4201 17.1871C15.5885 17.2547 15.7354 17.3669 15.8449 17.5115C15.9545 17.6562 16.0226 17.828 16.042 18.0084C16.0614 18.1889 16.0313 18.3712 15.955 18.5358C15.8787 18.7005 15.7591 18.8413 15.6088 18.9431C15.4586 19.0449 15.2835 19.1039 15.1023 19.1138C14.9211 19.1237 14.7406 19.0841 14.5802 18.9992L3.58004 13.9061Z" fill="white"/>
<path d="M51.9338 26.9542L37.6808 20.3732C37.158 20.1299 36.5887 20.0029 36.012 20.001C35.4354 19.9991 34.8652 20.1223 34.3408 20.3622L34.3258 20.3691L19.1519 28.2282C19.2739 28.2752 19.3978 28.3152 19.5189 28.3702L33.7689 34.9502C36.956 36.42 38.998 39.6085 38.9999 43.1182V53.9992C38.9999 54.0561 38.9919 54.1112 38.9899 54.1671L54.4999 46.1431C54.9281 46.023 55.3058 45.7673 55.5763 45.4142C55.8468 45.0611 55.9954 44.6298 55.9999 44.1851V33.3051C55.9981 30.5767 54.4111 28.0978 51.9338 26.9542ZM52.4198 32.2541L41.4197 37.3541C40.9194 37.5816 40.3291 37.3626 40.0983 36.8639C39.8674 36.365 40.0825 35.7733 40.5798 35.5391L51.5798 30.4441C51.6995 30.3842 51.8301 30.3489 51.9637 30.3403C52.0973 30.3318 52.2313 30.3502 52.3577 30.3944C52.4841 30.4386 52.6003 30.5077 52.6994 30.5977C52.7986 30.6876 52.8787 30.7966 52.935 30.9181C52.9912 31.0396 53.0225 31.1712 53.027 31.305C53.0315 31.4388 53.009 31.5722 52.961 31.6971C52.9129 31.8221 52.8403 31.9362 52.7473 32.0326C52.6544 32.1289 52.543 32.2057 52.4199 32.2582V32.2541H52.4198ZM25.4548 43.7992C25.3141 43.889 25.1985 44.0131 25.1189 44.1599C25.0393 44.3067 24.9984 44.4713 24.9999 44.6382V47.1812L32.9999 50.8733V46.6482L26.4049 43.7213C26.2529 43.6525 26.086 43.6236 25.9198 43.6372C25.7535 43.6508 25.5935 43.7066 25.4548 43.7992Z" fill="white"/>
<path d="M32.934 36.7682L18.681 30.1872C18.0721 29.9052 17.402 29.781 16.7325 29.8259C16.0629 29.8708 15.4155 30.0834 14.8497 30.4441C14.2838 30.8048 13.8179 31.3021 13.4946 31.8902C13.1714 32.4782 13.0013 33.1382 13 33.8092V44.7692C13.0008 45.1502 13.1104 45.523 13.3159 45.8438C13.5214 46.1646 13.8142 46.4201 14.16 46.5801L19 48.8151V46.6081L16.161 45.2992C15.8145 45.14 15.5209 44.8848 15.3151 44.5638C15.1094 44.2428 15 43.8695 15 43.4882V33.8092C15.0011 33.4712 15.088 33.139 15.2523 32.8436C15.4167 32.5482 15.6533 32.2994 15.9399 32.1202C16.2265 31.941 16.5539 31.8374 16.8914 31.8191C17.2289 31.8007 17.5656 31.8682 17.87 32.0153L32.0999 38.5803C32.965 38.9824 33.6974 39.6229 34.2111 40.4268C34.7248 41.2306 34.9984 42.1643 34.9999 43.1183V50.8683C35.0003 51.2036 34.9163 51.5336 34.7557 51.828C34.5951 52.1223 34.3631 52.3716 34.081 52.5528C33.7989 52.7341 33.4758 52.8415 33.1413 52.8652C32.8068 52.8888 32.4718 52.828 32.167 52.6884L24.9999 49.3814V51.5814L34.1589 55.8134C34.4638 55.9521 34.7986 56.0123 35.1327 55.9887C35.4669 55.965 35.7898 55.8582 36.0721 55.6779C36.3544 55.4977 36.5872 55.2497 36.7492 54.9565C36.9113 54.6633 36.9974 54.3343 36.9999 53.9993V43.1182C36.9979 40.39 35.4109 37.9117 32.934 36.7682Z" fill="white"/>
</g>
<defs>
<clipPath id="clip0_284_3405">
<rect width="56" height="56" fill="white"/>
</clipPath>
</defs>
</svg>
