<svg width="56" height="56" viewBox="0 0 56 56" fill="none" xmlns="http://www.w3.org/2000/svg">
<g clip-path="url(#clip0_284_3412)">
<path d="M21.0084 44.0029V35.3751L16.0096 29.5435L11.0107 35.3751V44.0031H13.0103V38.0045C13.0103 37.7393 13.1156 37.485 13.3031 37.2975C13.4906 37.11 13.7449 37.0047 14.01 37.0047H18.0091C18.2743 37.0047 18.5286 37.11 18.716 37.2975C18.9035 37.485 19.0089 37.7393 19.0089 38.0045V44.0031L21.0084 44.0029ZM35.0051 41.0036H37.0047V44.0029H35.0051V41.0036Z" fill="white"/>
<path d="M15.0098 39.0042H17.0093V44.003H15.0098V39.0042ZM31.8314 34.0053L27.5468 29.0065H18.1828L22.468 34.0053H31.8314ZM39.0559 34.3213C39.0059 34.1711 38.9922 34.0112 39.0161 33.8547C39.0399 33.6982 39.1005 33.5496 39.193 33.4211C39.2856 33.2926 39.4075 33.188 39.5484 33.1157C39.6894 33.0435 39.8455 33.0058 40.0039 33.0056H40.5267L39.0749 29.3785C39.0141 29.2267 38.9914 29.0624 39.0089 28.8998C39.0264 28.7372 39.0835 28.5814 39.1752 28.446C39.2669 28.3106 39.3904 28.1998 39.5349 28.1232C39.6793 28.0466 39.8404 28.0066 40.0039 28.0067H40.2797L38.0044 24.0239L35.7285 28.0067H36.0047C36.1682 28.0067 36.3292 28.0468 36.4736 28.1234C36.618 28.2 36.7414 28.3108 36.8331 28.4462C36.9247 28.5816 36.9817 28.7374 36.9992 28.8999C37.0167 29.0624 36.994 29.2268 36.9333 29.3785L35.482 33.0056H36.0048C36.1632 33.0058 36.3192 33.0436 36.46 33.1158C36.6009 33.188 36.7226 33.2927 36.8152 33.4211C36.9076 33.5496 36.9683 33.6982 36.9921 33.8547C37.016 34.0112 37.0024 34.1711 36.9524 34.3213L35.3927 39.0042H40.6155L39.0559 34.3213Z" fill="white"/>
<path d="M9.01115 44.0028V35.0049C9.01115 34.7662 9.09651 34.5354 9.25172 34.3542L15.2503 27.3558C15.3438 27.2523 15.4579 27.1695 15.5852 27.1127H15.5975C15.7253 27.0473 15.866 27.0111 16.0095 27.0068H23.0079V24.0075C23.0079 23.7423 23.1132 23.488 23.3007 23.3005C23.4882 23.113 23.7425 23.0077 24.0076 23.0077H28.0067C28.2719 23.0077 28.5261 23.113 28.7136 23.3005C28.9011 23.488 29.0065 23.7423 29.0065 24.0075V27.6375L33.4171 32.7833L34.5281 30.0061H34.0053C33.8296 30.0064 33.6569 29.9605 33.5046 29.8729C33.3523 29.7854 33.2258 29.6592 33.1378 29.5072C33.0498 29.3551 33.0034 29.1825 33.0033 29.0069C33.0032 28.8312 33.0494 28.6586 33.1373 28.5064L37.1363 21.508C37.2311 21.3645 37.36 21.2466 37.5115 21.1651C37.663 21.0836 37.8323 21.0409 38.0044 21.0409C38.1763 21.041 38.3455 21.0837 38.4969 21.1652C38.6483 21.2468 38.7771 21.3645 38.8718 21.508L42.8708 28.5064C42.9587 28.6585 43.0049 28.8311 43.0048 29.0067C43.0047 29.1823 42.9584 29.3548 42.8704 29.5069C42.7825 29.6589 42.6561 29.7851 42.5039 29.8727C42.3517 29.9603 42.1791 30.0063 42.0034 30.0061H41.4805L42.9318 33.6332C42.9926 33.785 43.0152 33.9493 42.9977 34.1118C42.9802 34.2743 42.9232 34.4301 42.8316 34.5654C42.7399 34.7008 42.6165 34.8116 42.4721 34.8883C42.3277 34.9649 42.1668 35.0049 42.0033 35.0049H41.3912L42.9508 39.6879C43.0008 39.8381 43.0145 39.998 42.9906 40.1545C42.9668 40.311 42.9062 40.4596 42.8137 40.5881C42.7212 40.7166 42.5995 40.8212 42.4587 40.8935C42.3178 40.9657 42.1617 41.0034 42.0034 41.0035H39.0041V44.0028H44.7518C52.8593 35.5644 54.3282 22.7485 48.3408 12.6939C42.3535 2.63934 30.3855 -2.1744 19.1035 0.933242C7.82143 4.04139 0.00738911 14.3047 0.0132627 26.007C-0.00335327 32.7202 2.5971 39.1756 7.26256 44.0028H9.01115ZM46.0025 24.0075H48.002V26.007H46.0025V24.0075ZM41.0037 14.0098H43.0032V16.0093H41.0037V14.0098ZM31.006 12.0103H33.0055V14.0098H31.006V12.0103ZM27.0069 3.01238H29.0065V5.01191H27.0069V3.01238ZM11.0107 23.0077H9.01115V21.0082H11.0107V23.0077ZM22.0081 16.0093H24.0076V18.0089H22.0081V16.0093ZM18.009 10.0107H20.0086V12.0103H18.009V10.0107ZM15.5726 4.4023L16.4464 6.20163C15.4674 6.67702 14.5246 7.22378 13.6258 7.8375L12.4971 6.18651C13.4768 5.51672 14.5048 4.92036 15.5726 4.4023ZM5.01209 31.0058H3.01256V29.0063H5.01209V31.0058ZM3.14915 18.709C4.50356 14.4895 6.99824 10.7268 10.3575 7.8365L11.6634 9.35077C8.58294 12.0003 6.29519 15.4501 5.05308 19.3187L3.14915 18.709ZM34.0053 46.0023H7.73208L4.39986 56H47.614L44.2818 46.0023H34.0053ZM36.0048 53.0007C36.0048 53.2658 35.8995 53.5201 35.712 53.7076C35.5245 53.8951 35.2702 54.0004 35.0051 54.0004H17.0093C16.7441 54.0004 16.4898 53.8951 16.3023 53.7076C16.1148 53.5201 16.0095 53.2658 16.0095 53.0007V49.0016C16.0095 48.7365 16.1148 48.4822 16.3023 48.2947C16.4898 48.1072 16.7441 48.0018 17.0093 48.0018H35.0051C35.2702 48.0018 35.5245 48.1072 35.712 48.2947C35.8995 48.4822 36.0048 48.7365 36.0048 49.0016V53.0007Z" fill="white"/>
<path d="M33.0058 36.0047H23.0081V44.0029H33.0058V36.0047ZM27.0072 41.0036H25.0076V38.0043H27.0072V41.0036ZM31.0062 41.0036H29.0067V38.0043H31.0062V41.0036ZM18.0093 50.0015H34.0055V52.001H18.0093V50.0015ZM25.0076 25.0073H27.0072V27.0069H25.0076V25.0073Z" fill="white"/>
</g>
<defs>
<clipPath id="clip0_284_3412">
<rect width="56" height="56" fill="white"/>
</clipPath>
</defs>
</svg>
