<svg width="56" height="56" viewBox="0 0 56 56" fill="none" xmlns="http://www.w3.org/2000/svg">
<g clip-path="url(#clip0_284_3419)">
<path d="M26.0032 35.9214C26.0032 39.1181 27.4176 41.9905 29.6531 43.9464L35.234 34.2804H26.0032V35.9214ZM40.8867 45.7119L36.655 38.3827L32.4276 45.7044C34.9898 46.8649 38.3221 46.8679 40.8867 45.7119ZM47.3283 35.9214V34.2804H38.0762L43.6643 43.959C45.9079 42.0027 47.3283 39.1248 47.3283 35.9214ZM27.8178 11.329C27.9097 11.3819 28.0002 11.4372 28.0901 11.4936C31.158 9.21883 33.1505 5.57221 33.1505 1.46821C33.1505 0.657363 32.4931 0 31.6823 0C25.9958 0 21.1879 3.82504 19.6908 9.03669C21.0263 9.1148 22.3509 9.51147 23.5091 10.1724C25.0225 10.1756 26.512 10.5752 27.8178 11.329ZM12.1756 8.55491C13.486 8.55491 14.6881 9.02531 15.6232 9.80564C16.7757 9.28447 18.0478 9.0042 19.3108 9.02345C17.7445 6.75949 15.1307 5.27301 12.1756 5.27301C11.2694 5.27301 10.5347 6.00772 10.5347 6.91396C10.5347 7.8202 11.2693 8.55491 12.1756 8.55491Z" fill="white"/>
<path d="M19.1718 52.4064C18.0806 51.3165 17.2421 49.9713 16.7408 48.5278C15.5935 47.5097 14.6675 46.2146 14.077 44.7818C13.4903 43.3589 13.2328 41.7962 13.3225 40.2715C12.6529 38.8939 12.2924 37.3457 12.2924 35.7983C12.2924 33.1518 14.4456 30.9987 17.0921 30.9987H37.3952C37.3139 30.4648 37.1698 29.9374 36.9622 29.4377C36.4695 28.2524 35.6205 27.2059 34.608 26.5045C34.3478 25.3005 33.7035 24.1148 32.7926 23.2046C32.5398 22.9515 32.2669 22.7193 31.9767 22.5101C32.094 21.4277 31.8577 20.2787 31.2808 19.2793C30.6573 18.1879 29.6419 17.3472 28.5142 16.9376C28.1066 15.815 27.2681 14.8001 26.1774 14.1714C25.0872 13.5422 23.7889 13.323 22.6147 13.5302C20.7641 11.9143 17.6485 11.9145 15.798 13.5302C14.6239 13.323 13.3254 13.5422 12.2353 14.1714C11.1445 14.8001 10.306 15.815 9.89861 16.9376C8.77084 17.3472 7.75542 18.188 7.13197 19.2793C6.55502 20.2787 6.31861 21.4278 6.4361 22.5101C6.14587 22.7193 5.87299 22.9515 5.62012 23.2046C4.70928 24.1148 4.06494 25.3005 3.80479 26.5045C2.79222 27.2058 1.9433 28.2524 1.45058 29.4377C0.957752 30.6235 0.818818 31.9651 1.04319 33.18C-0.347785 35.2605 -0.347675 38.3271 1.04319 40.4075C0.818709 41.6225 0.957752 42.964 1.45069 44.1501C1.9433 45.3352 2.79222 46.3816 3.80468 47.0829C4.06483 48.287 4.70917 49.4726 5.61968 50.3823C6.52767 51.2902 7.71265 51.9333 8.9171 52.1935C9.62577 53.2129 10.6755 54.0629 11.8551 54.5484C13.0391 55.0393 14.379 55.1793 15.5919 54.9582C17.6848 56.3473 20.7282 56.3473 22.8211 54.9582C22.9535 54.982 23.0867 55.0015 23.2204 55.0166C23.1679 54.9606 23.1161 54.9039 23.0649 54.8467C21.6143 54.3454 20.264 53.5036 19.1718 52.4064Z" fill="white"/>
<path d="M55.9999 35.798C55.9999 34.9598 55.3204 34.2803 54.4821 34.2803H50.6103V35.9212C49.907 54.3997 23.4182 54.3856 22.7214 35.9212V34.2803H17.092C16.2538 34.2803 15.5742 34.9598 15.5742 35.798C15.5742 37.153 15.9886 38.5169 16.7079 39.5954C16.4587 40.8668 16.5969 42.2832 17.1112 43.5308C17.6278 44.7842 18.5319 45.8861 19.6101 46.6073C19.8655 47.8775 20.5378 49.1331 21.4942 50.0872C22.4487 51.0472 23.7061 51.7199 24.9807 51.9744C25.7054 53.0528 26.8068 53.9567 28.0545 54.4724C29.3041 54.9891 30.7212 55.1279 31.9918 54.8781C34.1574 56.3723 37.4168 56.3723 39.5825 54.8781C40.8534 55.1278 42.2702 54.9888 43.5197 54.4724C44.7673 53.9569 45.8687 53.0527 46.5936 51.9744C47.8679 51.72 49.1247 51.048 50.0756 50.0916C51.0356 49.134 51.7085 47.8776 51.964 46.6073C53.0423 45.886 53.9464 44.7841 54.463 43.5309C54.9774 42.2829 55.1155 40.8668 54.8663 39.5954C55.5855 38.5168 55.9999 37.1531 55.9999 35.798Z" fill="white"/>
</g>
<defs>
<clipPath id="clip0_284_3419">
<rect width="56" height="56" fill="white"/>
</clipPath>
</defs>
</svg>
