<svg width="56" height="56" viewBox="0 0 56 56" fill="none" xmlns="http://www.w3.org/2000/svg">
<g clip-path="url(#clip0_57_237)">
<path d="M15.2819 28L13.8735 26.5915C11.6392 24.3573 10.1605 21.4529 9.65716 18.3428L0 28L9.65716 37.6572C10.1604 34.547 11.6392 31.6426 13.8733 29.4085L15.2819 28ZM28 15.2819L29.4085 13.8735C31.6427 11.6392 34.5471 10.1605 37.6572 9.65716L28 0L18.3428 9.65716C21.453 10.1604 24.3574 11.6392 26.5915 13.8733L28 15.2819ZM28 40.7181L26.5915 42.1265C24.3573 44.3608 21.4529 45.8395 18.3428 46.3428L28 56L37.6572 46.3428C34.547 45.8396 31.6426 44.3607 29.4085 42.1267L28 40.7181Z" fill="white"/>
<path d="M43.1974 38.7964C42.9113 36.1303 41.7096 33.6177 39.8135 31.7216L36.0919 28L39.8135 24.2784C41.7095 22.3823 42.9113 19.8697 43.1974 17.2035L43.337 15.9024C43.4928 14.4559 43.8265 13.0342 44.3304 11.6694C42.9657 12.1734 41.544 12.5071 40.0975 12.6629L38.7964 12.8024C36.1303 13.0886 33.6177 14.2903 31.7216 16.1864L28 19.9081L24.2784 16.1865C22.3823 14.2905 19.8697 13.0887 17.2035 12.8026L15.9024 12.663C14.4559 12.5072 13.0342 12.1735 11.6694 11.6695C12.1734 13.0343 12.5071 14.456 12.6629 15.9025L12.8024 17.2036C13.0886 19.8697 14.2903 22.3823 16.1864 24.2784L19.9081 28L16.1865 31.7216C14.2905 33.6177 13.0887 36.1303 12.8026 38.7965L12.663 40.0976C12.5072 41.5441 12.1735 42.9658 11.6695 44.3306C13.0343 43.8266 14.456 43.4929 15.9025 43.3371L17.2036 43.1975C19.8697 42.9114 22.3823 41.7097 24.2784 39.8136L28 36.0919L31.7216 39.8135C33.6177 41.7095 36.1303 42.9113 38.7965 43.1974L40.0976 43.337C41.5441 43.4928 42.9658 43.8265 44.3306 44.3304C43.8266 42.9657 43.4929 41.544 43.3371 40.0975L43.1974 38.7964ZM34.7668 32.4537L32.4537 34.7668L28 30.3131L23.5462 34.7668L21.2332 32.4537L25.6869 28L21.2332 23.5462L23.5462 21.2332L28 25.6869L32.4537 21.2332L34.7668 23.5462L30.3131 28L34.7668 32.4537Z" fill="white"/>
<path d="M46.3427 18.3428C45.8395 21.453 44.3606 24.3573 42.1265 26.5914L40.718 27.9999L42.1264 29.4085C44.3606 31.6427 45.8394 34.547 46.3427 37.6571L55.9999 27.9999L46.3427 18.3428Z" fill="white"/>
</g>
<defs>
<clipPath id="clip0_57_237">
<rect width="56" height="56" fill="white"/>
</clipPath>
</defs>
</svg>
