<svg width="56" height="56" viewBox="0 0 56 56" fill="none" xmlns="http://www.w3.org/2000/svg">
<g clip-path="url(#clip0_284_3425)">
<path d="M28.8132 45.3828C28.3081 45.7142 28.2536 47.8778 28.2692 48.4862C28.2702 48.5242 28.2625 48.5619 28.2467 48.5964C28.2309 48.631 28.2074 48.6615 28.1781 48.6857C28.1487 48.7099 28.1143 48.727 28.0773 48.7359C28.0403 48.7447 28.0018 48.745 27.9647 48.7367C27.2099 48.5683 26.5647 48.2363 26.019 47.8291C26.0148 50.7792 25.8219 54.2313 25.0225 55.6157C27.2108 56.1253 30.5602 56.2801 31.7663 55.1116C30.3245 52.9136 30.0463 48.7574 30.0149 46.3428C29.4097 45.9743 28.9963 45.5763 28.8132 45.3828Z" fill="white"/>
<path d="M38.4843 37.3792C37.6981 37.2874 36.9732 37.008 36.3233 36.5409C36.2544 37.6069 36.3313 39.4028 37.2351 39.6332C37.4453 39.6868 37.492 39.9655 37.3107 40.0845C35.9426 40.9848 33.4705 40.8582 31.6732 37.6113C31.6411 37.5533 31.6333 37.4848 31.6516 37.4211C31.6699 37.3573 31.7128 37.3034 31.7709 37.2713C31.8289 37.2392 31.8973 37.2314 31.9611 37.2497C32.0249 37.268 32.0788 37.3109 32.1109 37.369C33.1163 39.1856 34.6751 40.5792 36.6139 39.8656C35.5302 38.9732 35.8266 36.358 35.8689 36.0271C35.8942 35.8295 36.1302 35.739 36.2809 35.87C38.2718 37.5984 40.8626 36.9767 43.0722 35.5044C39.6083 35.3794 37.6798 32.6051 37.5935 32.4783C37.4851 32.3189 37.5907 32.1015 37.783 32.0882C39.7536 31.9509 40.5831 30.8898 40.8661 30.3929C37.1161 29.3461 35.372 24.7628 34.9991 23.6487C34.0221 23.9111 33.1283 23.8631 32.3716 23.5097C32.5872 24.2198 33.0623 25.3882 33.9288 25.7673C34.1179 25.8501 34.1308 26.1142 33.9505 26.2149C32.1128 27.2423 29.6397 25.3306 28.2644 23.6207C28.2228 23.569 28.2035 23.503 28.2106 23.437C28.2178 23.3711 28.2508 23.3107 28.3025 23.2691C28.3542 23.2275 28.4203 23.2082 28.4862 23.2153C28.5522 23.2225 28.6126 23.2555 28.6542 23.3072C30.7524 25.9159 32.445 26.0509 33.2312 25.9205C32.1118 25.0178 31.7509 23.1228 31.7342 23.0321C31.6933 22.8097 31.9467 22.6512 32.1286 22.7857C33.4283 23.7442 35.1516 23.2708 36.5412 22.437C33.4288 21.5942 32.4575 18.6113 32.4475 18.5794C32.3824 18.3719 32.5961 18.1854 32.7928 18.2783C33.6617 18.6879 34.7627 18.1317 35.3563 17.7521C33.0146 16.9981 31.9726 14.5423 31.711 13.8168C31.4315 13.8408 31.1399 13.8228 30.839 13.7592C30.7011 14.1165 30.7351 14.6048 30.9408 15.2142C31.009 15.4163 30.8081 15.6056 30.6108 15.5263C29.0126 14.8861 28.3224 13.2404 28.2939 13.1706C28.2687 13.1093 28.2689 13.0404 28.2945 12.9792C28.32 12.918 28.3688 12.8695 28.4302 12.8443C28.4916 12.8191 28.5604 12.8193 28.6216 12.8448C28.6828 12.8704 28.7314 12.9192 28.7566 12.9806C28.7621 12.9938 29.2521 14.1545 30.3161 14.8174C30.198 14.2192 30.256 13.7235 30.4903 13.3392C30.5185 13.2929 30.5609 13.2571 30.6113 13.237C30.6617 13.217 30.7172 13.2138 30.7695 13.228C32.3834 13.6673 33.4535 12.5924 34.0444 11.0357C31.7432 11.9816 29.7467 9.79595 29.7252 9.77194C29.5581 9.58549 29.7405 9.29513 29.9809 9.36491C31.313 9.75006 32.0434 9.18321 32.3273 8.87259C29.9861 7.11203 28.5071 2.32603 27.9052 0C27.212 3.66893 25.3171 7.24933 21.6711 8.1283C22.0491 8.46418 22.8396 9.02227 24.2652 9.46382C24.2982 9.47406 24.3288 9.49104 24.355 9.51369C24.3811 9.53634 24.4023 9.56417 24.4171 9.59542C24.432 9.62667 24.4402 9.66066 24.4412 9.69524C24.4422 9.72982 24.4361 9.76424 24.4231 9.79633C24.3945 9.86723 23.7037 11.5389 22.132 11.9584C21.1921 12.2093 20.1573 11.9555 19.0494 11.204C19.1272 11.6828 19.339 12.4042 19.9146 12.9696C20.5856 13.6287 21.5902 13.9293 22.9017 13.8639C23.1156 13.8557 23.2374 14.0929 23.1171 14.2599C23.0569 14.3435 21.8217 16.036 20.3244 16.5235C22.0763 17.3046 23.7621 17.2529 24.6035 15.5078C24.6175 15.4779 24.6374 15.4511 24.6619 15.429C24.6864 15.4068 24.715 15.3897 24.7461 15.3787C24.7773 15.3677 24.8103 15.3629 24.8433 15.3647C24.8762 15.3665 24.9085 15.3748 24.9383 15.3892C24.968 15.4035 24.9947 15.4236 25.0166 15.4483C25.0385 15.473 25.0554 15.5017 25.0661 15.533C25.0769 15.5642 25.0814 15.5972 25.0793 15.6302C25.0772 15.6632 25.0686 15.6954 25.054 15.725C24.4393 16.9998 23.3675 17.6436 21.8604 17.4753C20.7711 20.0696 18.6424 21.7226 15.7515 21.2455C16.2526 21.9662 17.5101 23.2143 19.9443 22.5551C20.1557 22.4968 20.3364 22.7245 20.228 22.9185C20.0866 23.1716 19.0933 24.9085 18.0385 25.7458C19.8644 25.7444 21.944 25.2889 22.8753 23.7184C22.892 23.6901 22.9142 23.6655 22.9405 23.6458C22.9667 23.6261 22.9966 23.6118 23.0285 23.6037C23.0603 23.5955 23.0934 23.5938 23.1259 23.5984C23.1584 23.6031 23.1897 23.6141 23.2179 23.6309C23.2462 23.6476 23.2708 23.6698 23.2905 23.696C23.3102 23.7223 23.3245 23.7522 23.3326 23.784C23.3408 23.8159 23.3426 23.849 23.3379 23.8815C23.3332 23.914 23.3222 23.9452 23.3054 23.9735C22.6778 25.032 21.5716 25.7294 20.0187 26.0502C19.2241 29.3077 16.7146 31.442 13.0487 30.9446C13.0483 31.6441 13.2997 33.5404 15.9831 33.9029C16.1765 33.9289 16.2669 34.1578 16.1433 34.3089C16.0411 34.434 13.9424 36.9632 11.486 36.9879C14.1075 38.4872 16.8653 38.8412 18.5475 36.3331C18.5688 36.3014 18.5971 36.2751 18.6301 36.256C18.6632 36.2369 18.7002 36.2257 18.7382 36.2231C18.7763 36.2205 18.8145 36.2267 18.8498 36.2411C18.8851 36.2555 18.9167 36.2778 18.9421 36.3063C18.9551 36.3208 20.1381 37.6416 21.4072 38.2492C21.3722 37.2698 21.449 34.852 22.9907 34.1836C23.0514 34.1583 23.1196 34.1579 23.1805 34.1825C23.2415 34.2071 23.2903 34.2547 23.3165 34.315C23.3426 34.3753 23.3439 34.4435 23.3202 34.5048C23.2964 34.5661 23.2495 34.6156 23.1895 34.6425C21.6178 35.3241 21.9273 38.5772 21.9305 38.61C21.9489 38.7927 21.7705 38.9325 21.5975 38.8707C20.4021 38.4435 19.2476 37.3465 18.7817 36.8666C18.1724 37.6771 17.4201 38.2188 16.5408 38.4808C16.0261 41.6369 12.28 45.5207 8.82129 45.3061C11.6123 46.602 14.5888 46.4358 17.4059 44.5594C17.4387 44.5376 17.4763 44.5238 17.5155 44.5192C17.5546 44.5146 17.5943 44.5194 17.6313 44.5331C17.6683 44.5468 17.7015 44.569 17.7283 44.598C17.7551 44.627 17.7746 44.6619 17.7853 44.6998C17.8207 44.8254 18.5143 47.3805 17.1685 49.3043C18.8648 48.5143 22.056 46.7713 23.5801 44.2602C23.6896 44.0796 23.9583 44.1087 24.0292 44.3053C24.0407 44.3372 25.1652 47.3803 27.7659 48.1679C27.7694 47.4086 27.8406 45.655 28.4042 45.0766C28.5893 44.8865 28.9345 44.7585 29.0907 44.9448C29.1022 44.9584 30.2018 46.2408 31.9461 46.5652C31.6958 45.7801 31.7577 44.8888 32.9726 43.765C33.0015 43.7383 33.0362 43.7188 33.074 43.7081C33.1117 43.6973 33.1515 43.6956 33.1901 43.7031C33.2286 43.7106 33.2649 43.7271 33.2959 43.7512C33.3269 43.7753 33.3518 43.8064 33.3686 43.8419C33.88 44.926 36.2065 46.1274 37.0054 46.5148L37.6348 44.0418C37.6833 43.851 37.9238 43.7887 38.0591 43.9318C41.0539 47.1045 45.5496 45.6868 47.1785 45.0185C40.3063 42.991 38.7852 38.6387 38.4843 37.3792Z" fill="white"/>
</g>
<defs>
<clipPath id="clip0_284_3425">
<rect width="56" height="56" fill="white"/>
</clipPath>
</defs>
</svg>
