<svg width="56" height="56" viewBox="0 0 56 56" fill="none" xmlns="http://www.w3.org/2000/svg">
<g clip-path="url(#clip0_284_3430)">
<path d="M10.7295 33.4461L22.3362 28.6528C22.2987 28.2776 22.2985 27.8996 22.3357 27.5244L10.7296 22.7312C9.02484 23.9803 8.02723 25.932 8.02734 28.0887C8.02734 30.2454 9.02484 32.1971 10.7295 33.4461ZM24.3897 32.4824C24.0988 32.2429 23.8321 31.9754 23.5935 31.6837L11.9842 36.478C11.2228 40.7762 15.2656 44.8159 19.5627 44.0522L24.3897 32.4824ZM23.5892 24.4919C23.8282 24.1988 24.0956 23.9301 24.3874 23.6896L19.5626 12.125C17.4733 11.8022 15.3874 12.477 13.862 14.0023C12.3375 15.5268 11.6628 17.6114 11.9841 19.6993L23.5892 24.4919ZM30.4113 28.0851C30.4113 27.7675 30.3489 27.4644 30.2368 27.1864C30.2335 27.1787 30.2296 27.1716 30.2264 27.1639C30.2229 27.1554 30.2206 27.1468 30.2173 27.1384C29.1701 24.7617 25.6311 25.4529 25.5891 28.085C25.7103 31.2792 30.2905 31.2785 30.4113 28.0851ZM31.5907 23.6721C31.8882 23.9144 32.1606 24.186 32.4039 24.4827L43.9122 19.7014C44.6748 15.4047 40.6355 11.3641 36.3393 12.1242L31.5907 23.6721ZM27.4144 22.4229C27.7944 22.3839 28.1773 22.3831 28.5575 22.4205L33.3068 10.871C30.8081 7.2925 25.0939 7.29097 22.593 10.8669L27.4144 22.4229Z" fill="white"/>
<path d="M28 0.0888672C12.536 0.0888672 0 12.6249 0 28.0889C1.37266 65.1903 54.6329 65.1803 56 28.0885C56 12.6249 43.464 0.0888672 28 0.0888672ZM47.168 36.0499C48.2579 42.4194 42.2775 48.3984 35.9092 47.3086C32.1758 52.583 23.7197 52.5822 19.9871 47.3086C16.8896 47.7666 13.8029 46.7568 11.5416 44.4953C9.28014 42.2339 8.27006 39.1471 8.72845 36.0499C6.21436 34.1839 4.74578 31.287 4.74578 28.0889C4.74578 24.8907 6.21425 21.9937 8.72834 20.1277C7.63864 13.7582 13.6188 7.77935 19.9871 8.86905C23.7204 3.59455 32.1767 3.59554 35.9092 8.86905C42.2785 7.77935 48.2577 13.7593 47.1679 20.1277C49.682 21.9937 51.1505 24.8907 51.1505 28.0889C51.1505 31.287 49.682 34.184 47.168 36.0499Z" fill="white"/>
<path d="M45.1685 22.7324L33.6633 27.5124C33.7018 27.8956 33.7016 28.2816 33.6627 28.6647L45.1685 33.4448C48.745 30.9447 48.7443 25.2319 45.1685 22.7324ZM28.5543 33.7499C28.176 33.787 27.795 33.7862 27.4169 33.7476L22.5928 45.3104C23.8419 47.0132 25.7926 48.0096 27.9481 48.0096C30.1053 48.0096 32.0574 47.0117 33.3065 45.3062L28.5543 33.7499ZM32.3992 31.6929C32.1564 31.9882 31.8846 32.2585 31.588 32.4998L36.3389 44.053C38.4264 44.3739 40.5103 43.699 42.0344 42.1748C43.5594 40.6498 44.234 38.5643 43.9118 36.4757L32.3992 31.6929Z" fill="white"/>
</g>
<defs>
<clipPath id="clip0_284_3430">
<rect width="56" height="56" fill="white"/>
</clipPath>
</defs>
</svg>
