<svg width="56" height="56" viewBox="0 0 56 56" fill="none" xmlns="http://www.w3.org/2000/svg">
<g clip-path="url(#clip0_284_3436)">
<path d="M28.0002 36.8792C30.1595 36.8792 31.91 35.1287 31.91 32.9694C31.91 30.8101 30.1595 29.0596 28.0002 29.0596C25.8408 29.0596 24.0903 30.8101 24.0903 32.9694C24.0903 35.1287 25.8408 36.8792 28.0002 36.8792Z" fill="white"/>
<path d="M29.9217 39.9065C29.31 40.0765 28.6654 40.1674 28 40.1674C27.3346 40.1674 26.6899 40.0764 26.0783 39.9065L21.8473 47.6462C21.9517 48.8582 22.4646 49.9988 23.302 50.8812L28 55.8391L32.6979 50.8816C33.5353 49.9991 34.0483 48.8584 34.1528 47.6463L29.9217 39.9065ZM21.7512 36.5442L9.12428 35.4545C8.44122 35.396 7.76492 35.2752 7.1038 35.0938C5.67536 36.1156 4.64483 37.635 4.23598 39.354L2.107 48.2842L11.1381 49.9298C14.0761 50.4636 17.0591 49.1415 18.6388 46.6288L18.7737 46.4063C18.8055 46.3526 18.8372 46.3001 18.8658 46.2462L23.1949 38.3267C22.6225 37.8126 22.1352 37.211 21.7512 36.5442ZM51.764 39.3541C51.3551 37.6351 50.3246 36.1157 48.8962 35.0939C48.2351 35.2753 47.5588 35.396 46.8757 35.4546L34.2488 36.5443C33.8649 37.2112 33.3776 37.8128 32.8051 38.3269L37.131 46.241C37.1628 46.3002 37.1945 46.3528 37.2263 46.4065L37.371 46.6455C38.9529 49.1482 41.9293 50.4625 44.8619 49.9299L53.893 48.2843L51.764 39.3541ZM46.1577 14.5431C44.5049 14.2402 42.7987 14.4666 41.2821 15.1902C39.7656 15.9139 38.5162 17.0977 37.712 18.573L32.7864 27.5866C34.2674 28.9066 35.2026 30.8283 35.2026 32.9649C35.2026 33.0307 35.2015 33.0965 35.2004 33.1612L46.594 32.1789C48.2682 32.0361 49.8546 31.3685 51.1273 30.2713C52.3999 29.1741 53.2937 27.7032 53.6814 26.0682L56 16.3367L46.1577 14.5431ZM23.2136 27.5865L18.288 18.5729C17.4837 17.0977 16.2343 15.9139 14.7178 15.1904C13.2013 14.4668 11.4951 14.2403 9.84233 14.5431L0 16.3365L2.31864 26.0682C2.70632 27.7032 3.60014 29.1741 4.87275 30.2713C6.14535 31.3685 7.7318 32.0361 9.40603 32.1789L20.7996 33.1612C20.7985 33.0965 20.7974 33.0307 20.7974 32.9649C20.7974 30.8282 21.7326 28.9065 23.2136 27.5865ZM35.3811 7.9488L28 0.160645L20.6186 7.94913C19.1809 9.46704 18.3484 11.4761 18.2727 13.5539C19.4366 14.4747 20.4294 15.6343 21.1735 16.9965L26.1034 26.0167C26.7075 25.8501 27.3433 25.7624 28 25.7624C28.6567 25.7624 29.2925 25.8501 29.8966 26.0167L34.8265 16.9965C35.5521 15.6657 36.5387 14.4948 37.7273 13.5541C37.6515 11.4761 36.8191 9.46693 35.3811 7.9488Z" fill="white"/>
</g>
<defs>
<clipPath id="clip0_284_3436">
<rect width="56" height="56" fill="white"/>
</clipPath>
</defs>
</svg>
