<svg width="56" height="56" viewBox="0 0 56 56" fill="none" xmlns="http://www.w3.org/2000/svg">
<path d="M43.2191 22.4636L26.7061 38.9761C26.6194 39.0628 26.5558 39.1697 26.521 39.2872C26.4862 39.4047 26.4813 39.5291 26.5068 39.649C26.5324 39.7688 26.5875 39.8804 26.6671 39.9736C26.7467 40.0667 26.8484 40.1385 26.9629 40.1823L30.7219 41.6217C32.9663 42.4114 35.7562 43.3936 37.4659 43.4815C37.9058 43.5012 38.3452 43.4327 38.7583 43.2802C39.1713 43.1277 39.5498 42.8942 39.8713 42.5934C40.3963 42.1099 40.9104 41.6164 41.4043 41.1229C44.0294 38.4922 46.3748 35.5965 48.403 32.4823C48.7926 31.8904 49.0053 31.1996 49.0163 30.4911C49.0273 29.7826 48.8361 29.0856 48.4651 28.4818C48.0543 27.8347 45.4508 24.1357 44.3382 22.5585C44.2764 22.4711 44.1964 22.3983 44.1035 22.3451C44.0107 22.292 43.9073 22.2597 43.8007 22.2507C43.6941 22.2416 43.5868 22.256 43.4863 22.2928C43.3859 22.3295 43.2947 22.3878 43.2191 22.4636Z" fill="white"/>
<path d="M53.2763 25.4366C52.1335 23.6301 50.9078 21.8774 49.6031 20.184C49.1778 19.6293 48.7858 19.0815 48.3343 18.5128C48.2698 18.4314 48.1888 18.3645 48.0966 18.3166C48.0044 18.2686 47.9032 18.2406 47.7995 18.2344C47.6958 18.2282 47.5919 18.244 47.4947 18.2806C47.3975 18.3173 47.3091 18.374 47.2353 18.4472L45.9666 19.7159C45.8442 19.8372 45.7689 19.998 45.7541 20.1697C45.7394 20.3413 45.7862 20.5127 45.8861 20.653C46.9615 22.1589 49.8385 26.183 50.4811 27.2033C51.0979 28.1935 51.4184 29.3396 51.4046 30.5062C51.3908 31.6727 51.0433 32.811 50.4033 33.7863C48.2826 37.0375 45.8328 40.0617 43.0926 42.8111C42.5713 43.3326 42.0396 43.8437 41.498 44.3441C40.94 44.8595 40.2853 45.259 39.5717 45.5194C38.8582 45.7798 38.1 45.8959 37.3413 45.8609C35.2995 45.7625 32.3376 44.7234 29.9633 43.8869L24.5173 41.7834C24.3845 41.7322 24.2396 41.7206 24.1004 41.7501C23.9611 41.7796 23.8334 41.849 23.7328 41.9496L16.3098 49.3723C16.2061 49.4753 16.1355 49.6069 16.107 49.7502C16.0785 49.8935 16.0934 50.0421 16.1499 50.1769C16.2063 50.3118 16.3016 50.4267 16.4237 50.507C16.5458 50.5873 16.6891 50.6294 16.8352 50.6279C18.2674 50.6115 19.6728 50.2375 20.9236 49.5398C21.0151 49.487 21.117 49.4547 21.2222 49.4452C21.3274 49.4356 21.4335 49.4491 21.533 49.4846C21.6325 49.5201 21.723 49.5768 21.7985 49.6508C21.8739 49.7247 21.9323 49.8142 21.9697 49.913C23.1772 53.0998 25.9965 54.8108 27.3343 55.4693C27.5287 55.5657 27.7515 55.5878 27.961 55.5316C28.1705 55.4754 28.3523 55.3446 28.4723 55.1639C28.5422 55.0576 28.5887 54.9376 28.6089 54.812C28.6292 54.6864 28.6225 54.5579 28.5895 54.435C27.7766 51.4119 27.1996 49.2087 27.3339 47.6791C27.3469 47.5395 27.3916 47.4046 27.4646 47.2848C27.5376 47.165 27.637 47.0635 27.7552 46.9879C27.8719 46.9109 28.0051 46.8623 28.144 46.8462C28.2829 46.83 28.4237 46.8466 28.555 46.8947L28.7475 46.9621C31.3659 47.887 34.6288 49.0402 37.175 49.1653C38.3731 49.2193 39.57 49.036 40.697 48.6258C41.824 48.2156 42.8588 47.5867 43.7419 46.7753C44.3083 46.2503 44.8644 45.7151 45.4101 45.1697C48.3188 42.2536 50.9182 39.0447 53.167 35.5941C54.1528 34.0879 54.6869 32.3311 54.7063 30.5311C54.7257 28.7312 54.2295 26.9637 53.2763 25.4366ZM37.0398 12.1025C38.0382 11.1041 39.6653 7.85877 38.6673 6.85996C37.6694 5.86115 34.4227 7.48865 33.4243 8.48703C32.9549 8.96853 32.694 9.6156 32.6983 10.2881C32.7026 10.9605 32.9716 11.6042 33.4471 12.0798C33.9226 12.5553 34.5663 12.8243 35.2388 12.8286C35.9113 12.8328 36.5583 12.572 37.0398 12.1025ZM41.011 18.4695C42.4233 18.4695 45.8686 17.3245 45.8686 15.9127C45.8686 14.5009 42.4233 13.356 41.011 13.356C40.3329 13.356 39.6826 13.6253 39.2031 14.1048C38.7236 14.5843 38.4543 15.2346 38.4543 15.9127C38.4543 16.5908 38.7236 17.2411 39.2031 17.7206C39.6826 18.2001 40.3329 18.4695 41.011 18.4695ZM44.718 10.633C46.1302 10.633 49.5755 9.48846 49.5755 8.07665C49.5755 6.66484 46.1302 5.5199 44.718 5.5199C44.3794 5.51547 44.0434 5.57833 43.7293 5.70482C43.4152 5.83131 43.1294 6.01891 42.8885 6.25675C42.6475 6.49458 42.4562 6.77791 42.3256 7.09029C42.195 7.40266 42.1278 7.73786 42.1278 8.07643C42.1278 8.415 42.195 8.7502 42.3256 9.06258C42.4562 9.37495 42.6475 9.65828 42.8885 9.89611C43.1294 10.1339 43.4152 10.3216 43.7293 10.448C44.0434 10.5745 44.3794 10.6374 44.718 10.633ZM35.3673 26.6743C35.4115 25.3662 35.404 24.0432 35.3528 22.7136C35.3085 21.5892 35.0415 20.4848 34.5673 19.4643C34.093 18.4439 33.421 17.5277 32.59 16.7689C30.7162 15.0644 27.5859 13.5948 25.0143 12.3676C24.8119 12.271 24.6343 12.1294 24.4951 11.9535C24.3559 11.7776 24.2588 11.5722 24.2113 11.353C24.1638 11.1339 24.1671 10.9067 24.221 10.689C24.2748 10.4713 24.3778 10.2688 24.5221 10.097C25.5139 8.91403 27.3728 7.79009 29.9077 6.32752C30.0038 6.27191 30.0816 6.18967 30.1319 6.09073C30.1822 5.9918 30.2028 5.88041 30.1911 5.77003C30.1795 5.65966 30.1361 5.55503 30.0662 5.46879C29.9964 5.38255 29.903 5.3184 29.7975 5.28409C28.2032 4.78446 25.2055 4.23365 22.5087 5.83534C22.3846 5.91664 22.2444 5.97034 22.0977 5.99282C21.951 6.01529 21.8012 6.00602 21.6584 5.96562C21.5156 5.92523 21.3832 5.85465 21.27 5.75866C21.1568 5.66267 21.0656 5.5435 21.0024 5.40921C20.4696 4.05362 20.3821 2.5636 20.7526 1.15496C20.778 1.05474 20.7758 0.949503 20.7463 0.8504C20.7169 0.751297 20.6611 0.662009 20.585 0.591984C20.509 0.521959 20.4154 0.473802 20.3142 0.452608C20.213 0.431414 20.1079 0.437972 20.0101 0.471587C17.4971 1.40477 16.3658 2.58034 15.4912 5.10034C15.4429 5.24234 15.3653 5.37258 15.2633 5.48259C15.1614 5.5926 15.0374 5.67991 14.8995 5.73884C14.7616 5.79778 14.6128 5.82701 14.4628 5.82464C14.3129 5.82227 14.1651 5.78835 14.0291 5.72509C11.3546 4.38765 8.51833 4.85096 6.95295 5.29896C6.84388 5.32926 6.7462 5.39113 6.6722 5.4768C6.5982 5.56246 6.55119 5.6681 6.53707 5.78042C6.52294 5.89273 6.54235 6.00672 6.59284 6.10804C6.64333 6.20936 6.72265 6.29348 6.82083 6.34984C9.33383 7.79752 11.1853 8.91403 12.1701 10.097C12.3143 10.2688 12.4172 10.4713 12.471 10.689C12.5248 10.9067 12.5281 11.1338 12.4806 11.353C12.4331 11.5721 12.3361 11.7775 12.197 11.9534C12.0578 12.1293 11.8803 12.271 11.678 12.3676C9.10589 13.5948 5.98345 15.0644 4.1092 16.7689C3.27602 17.5263 2.60199 18.4421 2.12644 19.4627C1.65089 20.4834 1.38334 21.5885 1.33939 22.7136C1.14826 27.5587 1.56049 32.4087 2.56658 37.152C2.91045 38.8114 3.7232 40.3373 4.90838 41.5487C6.09355 42.76 7.60137 43.6058 9.25289 43.9858C11.2663 44.4408 13.3606 44.8083 15.521 45.0953C15.9544 45.1536 16.3878 45.1977 16.8212 45.2274L35.3673 26.6743ZM26.3578 18.13C26.5388 17.8432 26.8008 17.6165 27.1106 17.4785C27.4204 17.3406 27.7642 17.2977 28.0984 17.3551C28.4326 17.4126 28.7423 17.5679 28.9883 17.8014C29.2342 18.0349 29.4054 18.336 29.4802 18.6668C29.555 18.9976 29.53 19.3431 29.4084 19.6597C29.2868 19.9763 29.0741 20.2497 28.7971 20.4453C28.5201 20.641 28.1912 20.7501 27.8522 20.7589C27.5132 20.7677 27.1792 20.6757 26.8925 20.4946C26.508 20.2519 26.2358 19.8664 26.1355 19.423C26.0353 18.9796 26.1152 18.5145 26.3578 18.13ZM24.1139 22.6524C23.9329 22.9392 23.671 23.1659 23.3611 23.3038C23.0513 23.4417 22.7076 23.4847 22.3733 23.4272C22.0391 23.3698 21.7294 23.2145 21.4835 22.981C21.2375 22.7475 21.0663 22.4463 20.9915 22.1156C20.9167 21.7848 20.9417 21.4392 21.0633 21.1227C21.1849 20.8061 21.3977 20.5327 21.6747 20.337C21.9517 20.1414 22.2805 20.0322 22.6195 20.0235C22.9585 20.0147 23.2925 20.1066 23.5793 20.2877C23.9637 20.5304 24.236 20.9159 24.3362 21.3594C24.4365 21.8028 24.3565 22.2679 24.1139 22.6524ZM21.0374 15.4161C21.2184 15.1294 21.4804 14.9028 21.7902 14.7649C22.1 14.6271 22.4438 14.5842 22.778 14.6417C23.1122 14.6992 23.4218 14.8545 23.6677 15.088C23.9137 15.3215 24.0848 15.6226 24.1596 15.9534C24.2344 16.2841 24.2094 16.6296 24.0878 16.9462C23.9662 17.2628 23.7535 17.5361 23.4765 17.7318C23.1995 17.9275 22.8707 18.0366 22.5318 18.0454C22.1928 18.0542 21.8588 17.9623 21.572 17.7813C21.3816 17.6611 21.2167 17.5046 21.0868 17.3207C20.9569 17.1368 20.8645 16.9291 20.8149 16.7094C20.7652 16.4898 20.7593 16.2626 20.7975 16.0407C20.8357 15.8188 20.9172 15.6065 21.0374 15.4161ZM12.4178 40.8843C11.6122 40.7356 10.8267 40.574 10.0614 40.3996C9.09694 40.1736 8.21721 39.6765 7.52593 38.967C6.83465 38.2575 6.36063 37.3652 6.15977 36.3951C5.22163 31.9481 4.83662 27.4021 5.01352 22.8606C5.03641 22.2243 5.18594 21.5989 5.45337 21.021C5.7208 20.4431 6.10075 19.9243 6.57102 19.495C7.43073 18.7732 8.36756 18.1486 9.36445 17.6325C9.57467 17.515 9.81405 17.4598 10.0545 17.4734C10.295 17.487 10.5266 17.5689 10.7222 17.7094C10.9178 17.85 11.0693 18.0434 11.1589 18.2669C11.2485 18.4905 11.2726 18.735 11.2282 18.9717C10.3961 23.2496 9.47383 31.9838 13.75 38.9991C13.8735 39.2092 13.9338 39.4505 13.9237 39.6941C13.9135 39.9376 13.8333 40.173 13.6927 40.3721C13.552 40.5711 13.3569 40.7254 13.1308 40.8163C12.9046 40.9073 12.6571 40.9306 12.4178 40.8843Z" fill="white"/>
</svg>
