<svg width="56" height="56" viewBox="0 0 56 56" fill="none" xmlns="http://www.w3.org/2000/svg">
<path d="M27.4675 25.2083C27.0083 25.0591 26.5241 25.0023 26.0428 25.0411C25.5615 25.0799 25.0927 25.2136 24.6633 25.4344C24.2328 25.6534 23.85 25.9557 23.5372 26.3237C23.2243 26.6917 22.9876 27.1181 22.8407 27.5782C22.6913 28.0373 22.6344 28.5213 22.6732 29.0024C22.712 29.4836 22.8458 29.9523 23.0668 30.3814C23.2857 30.8121 23.588 31.195 23.956 31.508C24.324 31.8211 24.7504 32.058 25.2106 32.2051C26.1457 32.5073 27.141 32.4259 28.0148 31.9779C28.8887 31.5299 29.5363 30.7692 29.8375 29.8351C30.1386 28.9011 30.0583 27.9047 29.6103 27.0309C29.3912 26.6007 29.089 26.2181 28.7212 25.9052C28.3535 25.5924 27.9274 25.3555 27.4675 25.2083Z" fill="white"/>
<path d="M24.0271 32.8372C23.2118 32.3827 22.5504 31.6956 22.1273 30.8635C21.8421 30.311 21.6694 29.7074 21.6192 29.0876C21.569 28.4679 21.6422 27.8443 21.8347 27.2531C21.9055 27.0333 22.0069 26.8304 22.1062 26.6276C20.3399 26.4883 18.5634 26.6947 16.876 27.2351C16.8092 27.2591 16.7383 27.2694 16.6674 27.2654C16.5966 27.2614 16.5273 27.2431 16.4636 27.2117C16.4 27.1803 16.3433 27.1364 16.297 27.0826C16.2507 27.0288 16.2157 26.9662 16.1941 26.8986C16.1726 26.831 16.1648 26.7598 16.1714 26.6891C16.1779 26.6184 16.1987 26.5498 16.2323 26.4873C16.266 26.4249 16.3119 26.3698 16.3673 26.3255C16.4227 26.2811 16.4865 26.2484 16.5548 26.2292C17.8567 25.8155 19.2098 25.5847 20.5752 25.5435C18.845 24.2117 17.4312 22.5132 16.4354 20.5701C15.9961 19.6998 15.6432 18.7885 15.382 17.8493C11.1851 17.0463 6.92175 17.8736 3.29126 20.2066C4.86326 24.076 7.8374 27.2097 11.6194 28.9817C11.7259 28.8931 11.8632 28.8505 12.0011 28.8632C12.139 28.8759 12.2663 28.9428 12.3548 29.0493C12.4434 29.1558 12.486 29.2931 12.4733 29.431C12.4606 29.5689 12.3937 29.6962 12.2872 29.7847C10.4888 31.5366 8.32809 34.5817 7.63813 37.3056C9.49489 38.0898 11.501 38.4573 13.5152 38.382C15.5294 38.3068 17.5025 37.7908 19.2956 36.8703C21.1618 35.9075 22.7809 34.5274 24.0271 32.8372Z" fill="white"/>
<path d="M16.3139 17.3134C16.5653 18.2622 16.9161 19.1931 17.3757 20.0891C18.557 22.4018 20.3703 24.332 22.6049 25.6553C22.626 25.6679 22.6387 25.687 22.6577 25.7028L22.6767 25.7187C23.0873 25.2102 23.5999 24.7934 24.1813 24.4951C24.7338 24.2098 25.3375 24.0371 25.9573 23.9871C26.5771 23.937 27.2006 24.0106 27.7917 24.2035C28.6786 24.4895 29.4613 25.0311 30.0415 25.7602C30.6218 26.4894 30.9738 27.3736 31.0535 28.3021C31.1317 28.3443 31.2099 28.3855 31.2859 28.431C33.834 28.6374 36.3891 28.128 38.6631 26.9602C39.659 26.4531 40.5881 25.8246 41.4293 25.0889C43.6292 23.1638 45.1687 20.5962 45.8301 17.7487C43.8394 16.9488 41.0754 16.6107 39.2305 16.653H39.22C39.0799 16.6544 38.9449 16.6001 38.8449 16.502C38.7448 16.4039 38.6878 16.2701 38.6864 16.13C38.685 15.9899 38.7393 15.8549 38.8374 15.7549C38.9355 15.6548 39.0693 15.5978 39.2094 15.5964H39.2126C40.12 11.645 39.5478 7.49804 37.6044 3.93994C35.0859 4.74978 32.7969 6.14895 30.9278 8.0212C29.0587 9.89345 27.6633 12.1847 26.8577 14.7046C26.9338 14.842 27.0246 14.9719 27.0965 15.1125C28.087 17.0499 28.64 19.1813 28.7163 21.3559C30.0494 19.6312 31.7464 18.2217 33.6865 17.2278C33.8114 17.164 33.9564 17.1525 34.0898 17.1957C34.2231 17.2389 34.3339 17.3333 34.3976 17.4581C34.4614 17.583 34.4729 17.728 34.4297 17.8614C34.3865 17.9947 34.2921 18.1055 34.1673 18.1692C31.8588 19.3492 29.9291 21.1551 28.599 23.3804C28.5958 23.3878 28.5874 23.3899 28.5831 23.3973C28.5306 23.4743 28.4588 23.5362 28.375 23.5769C28.3173 23.6055 28.2544 23.6221 28.1901 23.6255C28.1753 23.6276 28.1616 23.6361 28.1468 23.6361C28.1404 23.6361 28.1351 23.6319 28.1288 23.6319C28.1182 23.6308 28.1108 23.6361 28.1003 23.635C28.0245 23.6271 27.9514 23.603 27.8858 23.5642C27.8826 23.5632 27.8794 23.5642 27.8752 23.5621C27.8541 23.5484 27.8403 23.5273 27.8213 23.5114C27.7896 23.4861 27.7579 23.4628 27.7336 23.4322C27.7125 23.4058 27.7009 23.3751 27.6861 23.3455C27.6702 23.3138 27.6512 23.2864 27.6428 23.2525C27.6322 23.2156 27.6322 23.1786 27.6301 23.1405C27.628 23.1141 27.6185 23.0877 27.6216 23.0613C27.8469 20.4838 27.3385 17.8951 26.1551 15.5943C25.2409 13.7975 23.9425 12.2238 22.3521 10.9851C20.7616 9.74628 18.918 8.87269 16.952 8.42628C15.7715 11.203 15.5376 14.2911 16.2864 17.2141C16.2969 17.2458 16.3096 17.2775 16.3139 17.3134ZM24.7625 33.6104C23.4352 35.365 21.7318 36.8002 19.7774 37.8104C18.9533 38.2331 18.0974 38.5469 17.2289 38.8058C16.5036 40.9763 16.2319 43.2727 16.4306 45.5526C16.6292 47.8325 17.294 50.0474 18.3837 52.0598C22.9071 50.5837 26.5439 47.3093 28.4659 43.01C27.6368 42.078 26.9279 41.0458 26.3558 39.9374C25.3489 37.9784 24.8237 35.8061 24.7625 33.6104ZM42.2746 26.1804L42.039 26.1096C41.9893 26.0938 41.9386 26.0811 41.8879 26.0663C41.0457 26.7798 40.1252 27.3951 39.1439 27.9005C37.2008 28.8922 35.0619 29.4407 32.8814 29.5066C35.4908 31.5143 37.3535 34.3374 38.1729 37.5262H38.1803C38.3356 37.5811 38.4909 37.6319 38.6494 37.6826C43.4052 39.1808 48.5043 38.4909 52.7086 35.7944C50.8141 31.1718 47.0325 27.6797 42.2736 26.1793M30.988 29.4897C30.9499 29.7126 30.914 29.9377 30.8422 30.1585C30.6532 30.7507 30.3486 31.2995 29.9459 31.7731C29.5433 32.2466 29.0506 32.6356 28.4965 32.9173C27.8306 33.2606 27.0923 33.4399 26.3431 33.4403C26.1656 33.4403 25.9881 33.4192 25.8106 33.3991C25.8325 35.5054 26.341 37.5782 27.2962 39.4556C28.212 41.2533 29.5123 42.8275 31.1048 44.0663C32.6974 45.3051 34.543 46.1782 36.5108 46.6236C37.2967 44.7664 37.6652 42.7593 37.5903 40.744C37.5155 38.7288 36.9991 36.7546 36.0776 34.9608C34.9214 32.7 33.1592 30.8064 30.988 29.4897Z" fill="white"/>
</svg>
