<svg width="56" height="56" viewBox="0 0 56 56" fill="none" xmlns="http://www.w3.org/2000/svg">
<g clip-path="url(#clip0_57_255)">
<path d="M54.3594 33.0312H37.8438C36.9369 33.0312 36.2031 33.765 36.2031 34.6719V39.5938H55.9169C55.966 39.0526 56 38.5069 56 37.9531V34.6719C56 33.765 55.2662 33.0312 54.3594 33.0312Z" fill="white"/>
<path d="M19.7053 36.303C18.8824 28.9346 12.5064 23.1875 4.92188 23.1875H1.64062C0.733797 23.1875 0 22.4537 0 21.5469C0 20.64 0.733797 19.9062 1.64062 19.9062H9.95312C20.8095 19.9062 29.6406 28.7374 29.6406 39.5938C29.6406 41.4026 31.113 42.875 32.9219 42.875H55.3005C53.1508 50.4383 46.0869 56 37.8438 56C27.8927 56 19.7969 47.9042 19.7969 37.9531C19.7969 37.3954 19.7658 36.8448 19.7053 36.303ZM39.4844 6.5625C40.3912 6.5625 41.125 7.2963 41.125 8.20312C41.125 9.10995 40.3912 9.84375 39.4844 9.84375C36.3559 9.84375 33.7422 12.0466 33.0881 14.9803C32.984 15.4483 32.9219 15.926 32.9219 16.4062C32.9219 20.0256 35.865 22.9688 39.4844 22.9688H41.125C43.839 22.9688 46.0469 25.1766 46.0469 27.8906C46.0469 28.7975 46.7807 29.5312 47.6875 29.5312C48.5943 29.5312 49.3281 28.7975 49.3281 27.8906V20.1666C49.3275 18.9676 49.7651 17.8097 50.5586 16.9109V16.9094C51.8805 15.4114 52.6098 13.4822 52.6094 11.4844C52.6094 6.96139 48.9292 3.28125 44.4062 3.28125C42.8682 1.23528 40.4392 0 37.8438 0C33.3208 0 29.6406 3.68014 29.6406 8.20312C29.6406 9.60105 30.0156 10.9383 30.6631 12.1227C32.2623 8.84483 35.5981 6.5625 39.4844 6.5625Z" fill="white"/>
</g>
<defs>
<clipPath id="clip0_57_255">
<rect width="56" height="56" fill="white"/>
</clipPath>
</defs>
</svg>
