<svg width="56" height="56" viewBox="0 0 56 56" fill="none" xmlns="http://www.w3.org/2000/svg">
<g clip-path="url(#clip0_57_270)">
<mask id="mask0_57_270" style="mask-type:luminance" maskUnits="userSpaceOnUse" x="0" y="0" width="56" height="56">
<path d="M0 0.000164032H55.9998V56H0V0.000164032Z" fill="white"/>
</mask>
<g mask="url(#mask0_57_270)">
<path d="M20.9209 35.6132C18.4518 33.8758 15.2608 32.2457 13.7147 29.5133C13.0185 31.9874 12.9519 34.5329 13.8554 37.0703C15.182 40.7958 17.8675 42.984 20.8861 45.2885C24.2348 47.8449 27.8274 50.6392 29.6524 56C31.8949 51.0183 31.3609 45.8412 27.8995 41.563C25.9446 39.1468 23.4437 37.3884 20.9209 35.6132Z" fill="white"/>
<path d="M28.7329 14.0064C30.0174 15.1633 31.4104 16.2063 32.8853 17.3105C35.1613 19.0146 37.5053 20.7706 39.5533 23.0483C40.653 19.3443 39.9677 15.61 37.4109 12.4499C35.7411 10.386 33.4079 9.13118 31.45 7.36773C29.1392 5.28655 26.9525 2.76689 26.0866 3.43323e-05C25.2195 1.92175 23.8993 6.16537 24.7301 10.0032C25.8927 11.315 27.2273 12.6504 28.7329 14.0064Z" fill="white"/>
<path d="M26.4809 32.0683C31.8919 36.1992 37.6816 40.7145 40.6295 49.3823C44.2595 41.3326 43.3997 32.9656 37.8063 26.0524C34.6493 22.1505 30.2384 19.7783 26.537 16.4445C22.1683 12.5098 18.0343 7.74644 16.3973 2.5156C14.0319 7.7588 13.1662 13.2901 15.1274 18.7973C17.2697 24.8135 21.6063 28.3469 26.4809 32.0683Z" fill="white"/>
</g>
</g>
<defs>
<clipPath id="clip0_57_270">
<rect width="56" height="56" fill="white"/>
</clipPath>
</defs>
</svg>
