<svg width="56" height="56" viewBox="0 0 56 56" fill="none" xmlns="http://www.w3.org/2000/svg">
<g clip-path="url(#clip0_283_3290)">
<path d="M51.0394 16.5785C51.0394 12.3295 47.815 8.83465 43.6795 8.4054C42.5188 5.27539 39.5149 3.04013 35.9801 3.04013C34.4328 3.04013 32.9908 3.47574 31.7556 4.21902C30.3508 1.70342 27.6656 0 24.5791 0C20.4872 0 17.103 2.99477 16.475 6.90982C16.1411 6.86901 15.8035 6.84082 15.4586 6.84082C10.9201 6.84082 7.24017 10.5199 7.24017 15.0593C7.24017 15.2816 7.25649 15.4994 7.27377 15.7172C4.97236 17.1738 3.44043 19.7348 3.44043 22.6597C3.44043 25.2452 4.63659 27.5484 6.50325 29.0549C6.49508 29.2029 6.48056 29.3498 6.48056 29.4997C6.48056 34.0381 10.1597 37.7181 14.699 37.7181C16.0593 37.7181 17.3389 37.3823 18.4688 36.7979C20.0343 37.9223 22.2759 39.329 23.3612 39.0485C23.3612 39.0485 23.765 45.3032 23.6779 46.8914C23.5118 49.9134 22.6052 53.2775 21.9673 56.0001H31.8483C31.8483 56.0001 30.3917 49.9306 30.3282 47.9042C30.2647 45.8776 30.9616 42.1459 30.9616 42.1459L34.3894 38.6003C35.7088 39.5024 37.3024 40.0151 39.0213 40.0151C43.2702 40.0151 46.7651 36.7825 47.1944 32.6469C50.3243 31.4863 52.5596 28.4742 52.5596 24.9395C52.5596 22.8522 51.7755 20.9536 50.494 19.5035C50.8407 18.594 51.0394 17.6104 51.0394 16.5785ZM20.3673 35.4411C21.0287 34.8099 21.5807 34.0733 22.0008 33.2612L23.6143 36.6417C23.6135 36.6418 22.7359 37.0293 20.3673 35.4411ZM26.4005 37.5284C25.5655 37.6799 24.1435 35.1089 23.1343 33.0189C24.2533 33.5897 25.5166 33.9183 26.8596 33.9183C27.2045 33.9183 27.543 33.8902 27.877 33.8484C27.6174 35.521 27.1601 37.3895 26.4005 37.5284ZM29.948 39.1737C28.0167 39.71 29.1729 35.7097 29.7265 33.3937C30.1268 33.2449 30.5143 33.0698 30.8827 32.8619C31.105 34.5498 31.8383 36.0727 32.9246 37.2769C31.9835 38.1129 30.8999 38.9096 29.948 39.1737Z" fill="white"/>
</g>
<defs>
<clipPath id="clip0_283_3290">
<rect width="56" height="56" fill="white"/>
</clipPath>
</defs>
</svg>
