<svg width="56" height="56" viewBox="0 0 56 56" fill="none" xmlns="http://www.w3.org/2000/svg">
<path d="M41.0855 19.1722C39.1063 19.1722 37.0731 19.653 35.0306 20.6026C34.7998 16.6667 33.1266 13.5826 31.7067 11.638C30.0538 9.37415 28.4129 8.14916 28.3439 8.09819C28.2444 8.02459 28.1238 7.98486 28 7.98486C27.8762 7.98486 27.7557 8.02459 27.6561 8.09819C27.5871 8.14916 25.9463 9.37415 24.2933 11.638C22.8735 13.5826 21.2003 16.6669 20.9695 20.6026C18.9269 19.653 16.8938 19.1722 14.9145 19.1722C10.1475 19.1722 7.34545 21.9207 7.22842 22.0378C7.12002 22.1463 7.05913 22.2933 7.05911 22.4467C7.05911 22.5468 7.0742 24.928 8.38866 27.5431C9.52877 29.8112 11.8829 32.6534 16.6793 33.746C14.7631 36.105 13.759 39.1283 13.7647 42.5561C13.7695 45.4158 14.4637 47.5312 14.4932 47.6198C14.5316 47.735 14.6053 47.8352 14.7037 47.9062C14.8022 47.9772 14.9206 48.0154 15.042 48.0154C15.1492 48.0154 17.7024 48.0057 20.6393 47.1629C24.0945 46.1713 26.6134 44.4272 27.9999 42.083C29.3864 44.4272 31.9053 46.1714 35.3605 47.1629C38.2973 48.0057 40.8506 48.0154 40.9579 48.0154C41.0793 48.0155 41.1976 47.9772 41.2961 47.9062C41.3946 47.8352 41.4682 47.735 41.5066 47.6198C41.5362 47.5312 42.2303 45.4158 42.2351 42.5561C42.2408 39.1283 41.2368 36.105 39.3205 33.746C44.1169 32.6534 46.4711 29.8112 47.6112 27.5431C48.9256 24.928 48.9407 22.5468 48.9407 22.4467C48.9407 22.2933 48.8798 22.1463 48.7714 22.0378C48.6545 21.9207 45.8518 19.1722 41.0855 19.1722ZM28 34.8906C25.4068 34.8906 23.2969 32.7808 23.2969 30.1875C23.2969 27.5943 25.4068 25.4845 28 25.4845C30.5933 25.4845 32.7031 27.5943 32.7031 30.1875C32.7031 32.7808 30.5934 34.8906 28 34.8906ZM53.5895 16.0512L49.316 18.321C50.3368 18.9878 50.9438 19.5695 51.0917 19.7174C51.3827 20.0083 51.6255 20.3438 51.8108 20.7113L55.1286 18.949C55.9288 18.524 56.233 17.5308 55.808 16.7305C55.383 15.9303 54.3895 15.6263 53.5895 16.0512ZM0.8714 44.0509C0.0712223 44.4759 -0.232946 45.4691 0.19208 46.2694C0.619185 47.0736 1.61405 47.3718 2.41062 46.9487L10.4846 42.6604C10.4758 41.3092 10.5991 40.0082 10.8522 38.7498L0.8714 44.0509Z" fill="white"/>
<path d="M0.8714 37.051C0.0712223 37.476 -0.232946 38.4692 0.19208 39.2695C0.619185 40.0737 1.61405 40.3719 2.41062 39.9488L11.3487 35.2016C10.2029 34.5565 9.23641 33.8177 8.42267 33.0404L0.8714 37.051ZM46.1057 16.7415L55.1286 11.9493C55.9288 11.5242 56.233 10.531 55.808 9.73074C55.3829 8.93045 54.3895 8.62639 53.5894 9.05142L40.7017 15.8964C42.5668 15.8504 44.3788 16.1347 46.1057 16.7415Z" fill="white"/>
<path d="M28 31.6094C28.7853 31.6094 29.4219 30.9728 29.4219 30.1875C29.4219 29.4022 28.7853 28.7656 28 28.7656C27.2147 28.7656 26.5782 29.4022 26.5782 30.1875C26.5782 30.9728 27.2147 31.6094 28 31.6094Z" fill="white"/>
</svg>
