<svg width="56" height="56" viewBox="0 0 56 56" fill="none" xmlns="http://www.w3.org/2000/svg">
<path d="M46.2542 23.961L46.2525 23.9575H30.0387C29.6927 23.9576 29.3544 24.0602 29.0667 24.2525C28.779 24.4448 28.5547 24.7181 28.4223 25.0378C28.2899 25.3576 28.2552 25.7094 28.3227 26.0488C28.3902 26.3882 28.5568 26.7 28.8015 26.9447L40.642 38.7852C44.2881 34.7125 46.2886 29.4272 46.2542 23.961ZM46.0827 21.3325C45.396 15.8505 42.6837 10.8236 38.479 7.23975L27.3735 18.3452C27.1288 18.59 26.9622 18.9018 26.8947 19.2412C26.8272 19.5806 26.8619 19.9324 26.9943 20.2521C27.1267 20.5719 27.351 20.8452 27.6387 21.0374C27.9264 21.2297 28.2647 21.3324 28.6107 21.3325H46.0827ZM38.787 40.642L26.9447 28.8015C26.7 28.5568 26.3882 28.3902 26.0488 28.3227C25.7094 28.2552 25.3576 28.2899 25.0378 28.4223C24.7181 28.5547 24.4448 28.779 24.2525 29.0667C24.0602 29.3544 23.9576 29.6927 23.9575 30.0387V46.249L23.9645 46.256C29.431 46.2899 34.7145 44.2887 38.787 40.642ZM21.3325 46.0915V28.609C21.3321 28.2631 21.2291 27.9251 21.0367 27.6376C20.8443 27.3502 20.571 27.1262 20.2513 26.994C19.9317 26.8618 19.58 26.8273 19.2408 26.8948C18.9015 26.9624 18.5899 27.1289 18.3452 27.3735L7.20999 38.507C10.7948 42.722 15.8388 45.4304 21.3325 46.0915Z" fill="white"/>
<path d="M44.1805 4.01286C43.8523 3.68479 43.4073 3.50049 42.9432 3.50049C42.4792 3.50049 42.0342 3.68479 41.706 4.01286L40.3637 5.35511C42.9269 7.59071 45.0031 10.3293 46.4635 13.4009C47.9238 16.4726 48.7372 19.8116 48.8531 23.2107C48.9689 26.6098 48.3848 29.9965 47.137 33.1604C45.8892 36.3244 44.0043 39.198 41.5993 41.603C39.1944 44.0079 36.3207 45.8928 33.1568 47.1406C29.9929 48.3885 26.6062 48.9726 23.2071 48.8567C19.808 48.7408 16.4689 47.9275 13.3973 46.4671C10.3257 45.0067 7.58709 42.9305 5.35149 40.3674L4.01274 41.7061C3.68467 42.0343 3.50037 42.4793 3.50037 42.9434C3.50037 43.4074 3.68467 43.8524 4.01274 44.1806C9.33932 49.5072 16.5637 52.4996 24.0966 52.4996C31.6295 52.4996 38.8539 49.5072 44.1805 44.1806C49.5071 38.854 52.4995 31.6297 52.4995 24.0967C52.4995 16.5638 49.5071 9.33944 44.1805 4.01286Z" fill="white"/>
</svg>
