<svg width="57" height="56" viewBox="0 0 57 56" fill="none" xmlns="http://www.w3.org/2000/svg">
<g clip-path="url(#clip0_56_905)">
<path d="M4.1692 12.2522C6.20624 16.9901 9.64518 21.6764 14.4574 23.6963C15.0067 23.9252 15.6304 24.0968 16.2713 24.2399C17.553 22.3287 19.0236 20.778 20.7459 19.5078C22.2279 18.4206 23.7786 17.568 25.375 16.8985C24.9172 16.578 24.4366 16.2862 23.933 16.023C21.9303 14.9759 19.7617 14.0546 17.6503 13.0647C19.6358 13.6026 21.9132 13.8028 23.8129 14.4952C24.9973 14.9301 26.0903 15.5309 27.1088 16.2462C30.1472 15.2105 33.323 14.7126 36.4929 14.335C33.9238 10.0664 28.442 6.63891 24.3107 5.08824C19.9963 3.46884 15.1097 3.26857 10.3089 2.77081C7.36776 2.46749 4.16914 1.36891 1.82883 0.0871789C1.29668 -0.204645 0.7302 0.281728 0.913306 0.871098C2.06349 4.55031 2.64714 8.71595 4.1692 12.2522Z" fill="white"/>
<path d="M54.8949 11.6918C49.4818 14.6329 43.2734 14.9934 37.1909 15.6915C34.2212 16.0348 31.28 16.4582 28.4819 17.3051C27.8754 17.4881 27.2689 17.6942 26.6737 17.9231C24.9056 18.5983 23.2005 19.4852 21.5926 20.6696C20.082 21.7796 18.846 23.0958 17.8046 24.5434C16.1452 26.8551 14.9894 29.5158 14.0395 32.2796C12.3057 37.2978 11.5104 42.6307 11.6648 47.9351C11.7278 50.0866 11.7621 52.3239 12.2943 54.4239C12.4144 54.8874 12.5289 55.4767 12.8894 55.82C13.3586 56.2721 14.1997 55.8086 14.0109 55.1505C12.649 50.51 13.4959 45.0855 15.3784 40.651C17.5414 35.5526 21.7185 32.5199 26.8225 30.6717C28.1786 30.1796 29.5634 29.7505 30.971 29.3442C30.9996 29.3328 31.0282 29.3328 31.0568 29.3328C31.3372 29.3328 31.4574 29.7448 31.1655 29.8764C29.5061 30.626 27.8582 31.3813 26.2903 32.1996C18.6113 36.205 15.2582 45.5319 18.1364 45.5319C18.3711 45.5319 18.6457 45.469 18.9604 45.3374C23.4007 43.5006 28.6764 43.4835 33.5573 42.5794C35.2739 42.2647 36.9447 41.8355 38.5126 41.1832C44.7382 38.5854 49.1899 33.5043 51.8392 27.3931C53.8133 22.8327 54.58 17.4482 56.0735 12.7103C56.268 12.1038 55.8389 11.5832 55.3125 11.5832C55.181 11.5773 55.0379 11.6117 54.8949 11.6918Z" fill="white"/>
</g>
<defs>
<clipPath id="clip0_56_905">
<rect width="56" height="56" fill="white" transform="translate(0.5)"/>
</clipPath>
</defs>
</svg>
