<svg width="57" height="56" viewBox="0 0 57 56" fill="none" xmlns="http://www.w3.org/2000/svg">
<mask id="mask0_2001_8" style="mask-type:luminance" maskUnits="userSpaceOnUse" x="0" y="0" width="57" height="56">
<path d="M0.5 0.000164032H56.4998V56H0.5V0.000164032Z" fill="white"/>
</mask>
<g mask="url(#mask0_2001_8)">
<path d="M21.4209 35.6132C18.9518 33.8758 15.7608 32.2457 14.2147 29.5133C13.5185 31.9874 13.4519 34.5329 14.3554 37.0703C15.682 40.7958 18.3675 42.984 21.3861 45.2885C24.7348 47.8449 28.3274 50.6392 30.1524 56C32.3949 51.0183 31.8609 45.8412 28.3995 41.563C26.4446 39.1468 23.9437 37.3884 21.4209 35.6132Z" fill="white"/>
<path d="M29.2329 14.0064C30.5174 15.1633 31.9104 16.2063 33.3853 17.3105C35.6613 19.0146 38.0053 20.7706 40.0533 23.0483C41.153 19.3443 40.4677 15.61 37.9109 12.4499C36.2411 10.386 33.9079 9.13118 31.95 7.36773C29.6392 5.28655 27.4525 2.76689 26.5866 3.43323e-05C25.7195 1.92175 24.3993 6.16537 25.2301 10.0032C26.3927 11.315 27.7273 12.6504 29.2329 14.0064Z" fill="white"/>
<path d="M26.9809 32.0683C32.3919 36.1992 38.1816 40.7145 41.1295 49.3823C44.7595 41.3326 43.8997 32.9656 38.3063 26.0524C35.1493 22.1505 30.7384 19.7783 27.037 16.4445C22.6683 12.5098 18.5343 7.74644 16.8973 2.5156C14.5319 7.7588 13.6662 13.2901 15.6274 18.7973C17.7697 24.8135 22.1063 28.3469 26.9809 32.0683Z" fill="white"/>
</g>
</svg>
