<svg width="57" height="56" viewBox="0 0 57 56" fill="none" xmlns="http://www.w3.org/2000/svg">
<path d="M56.5 31.2745H31.7744V56H56.5V31.2745ZM55.0756 7.36312C52.8744 2.99972 48.3507 0 43.1387 0C35.7712 0 29.7779 5.99375 29.7779 13.3612C29.7779 20.7288 35.7712 26.7221 43.1387 26.7221C48.3507 26.7221 52.8744 23.7225 55.0756 19.3589C55.986 17.5543 56.5 15.5167 56.5 13.3608C56.5 11.2054 55.9859 9.16781 55.0756 7.36312ZM14.8666 0L0.5 25.2999H29.2328L14.8666 0ZM0.5 43.9423L7.4615 56H21.3846L28.3462 43.9423L21.3846 31.8841H7.4615L0.5 43.9423Z" fill="white"/>
</svg>
