<svg width="57" height="56" viewBox="0 0 57 56" fill="none" xmlns="http://www.w3.org/2000/svg">
<g clip-path="url(#clip0_2001_221)">
<path d="M18 35.3211C15.2822 35.3211 13.0797 37.5228 13.0797 40.2408C13.0797 42.959 15.2822 45.1607 18 45.1607C20.7188 45.1607 22.9208 42.959 22.9208 40.2408C22.9208 37.5228 20.7188 35.3211 18 35.3211ZM18 42.3797C16.8186 42.3797 15.8613 41.4223 15.8613 40.2408C15.8613 39.0588 16.8186 38.1019 18 38.1019C19.1816 38.1019 20.1396 39.0588 20.1396 40.2408C20.1396 41.4223 19.1816 42.3797 18 42.3797ZM43.9456 35.3211C41.2278 35.3211 39.0254 37.5228 39.0254 40.2408C39.0254 42.959 41.2278 45.1607 43.9456 45.1607C46.6645 45.1607 48.8663 42.959 48.8663 40.2408C48.8663 37.5228 46.6645 35.3211 43.9456 35.3211ZM43.9456 42.3797C42.7641 42.3797 41.807 41.4223 41.807 40.2408C41.807 39.0588 42.7641 38.1019 43.9456 38.1019C45.1273 38.1019 46.0853 39.0588 46.0853 40.2408C46.0853 41.4223 45.1273 42.3797 43.9456 42.3797ZM23.5354 20.2036C23.5354 20.893 22.9713 21.4571 22.282 21.4571H4.985C4.29557 21.4571 3.73169 20.893 3.73169 20.2036V19.4515C3.73169 18.7623 4.2957 18.1982 4.985 18.1982H22.282C22.9714 18.1982 23.5354 18.7623 23.5354 19.4515V20.2036Z" fill="white"/>
<path d="M53.587 27.5423C51.7829 27.0733 50.7506 26.7784 50.0421 25.4103L47.6733 20.6142C46.9646 19.246 45.124 18.1265 43.5837 18.1265H40.3437C40.3437 18.1265 39.9079 18.1356 39.9079 17.697V13.6746C39.9079 12.1152 39.0255 10.8394 37.1484 10.8394H10.743C8.05567 10.8394 6.77979 12.1154 6.77979 13.6746V16.1954C6.77979 16.1954 6.77979 16.9451 7.50542 16.9451H22.282C23.6643 16.9451 24.7889 18.0695 24.7889 19.4518V20.2039C24.7889 21.5862 23.6643 22.7107 22.282 22.7107H7.50542C7.50542 22.7107 6.77979 22.6504 6.77979 23.4337V24.3006C6.77979 24.99 7.72472 24.9896 7.72472 24.9896H17.6716C19.0539 24.9896 20.1785 26.1142 20.1785 27.4963V28.2484C20.1785 29.6307 19.0539 30.7552 17.6716 30.7552H7.88166C7.88166 30.7552 6.77979 30.7348 6.77979 31.6121V37.7033C6.77979 39.2625 8.05567 40.5385 9.61501 40.5385H11.1811C11.5363 40.5385 11.5886 40.3407 11.5886 40.2413C11.5886 36.7062 14.465 33.8305 18.0002 33.8305C21.5357 33.8305 24.412 36.7064 24.412 40.2413C24.412 40.3411 24.3836 40.5385 24.6552 40.5385H37.2938C37.5443 40.5385 37.5341 40.3273 37.5341 40.2413C37.5341 36.7062 40.4104 33.8305 43.9458 33.8305C47.4812 33.8305 50.3574 36.7064 50.3574 40.2413C50.3574 40.3411 50.3549 40.5385 50.5117 40.5385H53.6981C55.2393 40.5385 56.4999 39.2779 56.4999 37.7369V32.4142C56.5 27.9316 55.0847 27.9316 53.587 27.5423ZM48.2557 27.293H40.281C39.9515 27.293 39.9078 26.9722 39.9078 26.9722V20.3292C39.9078 20.3292 39.8892 20.0741 40.3122 20.0741H42.5877C43.9587 20.0741 45.5964 21.0702 46.2267 22.2876L48.3347 26.5553C48.4171 26.7164 48.5125 26.8706 48.6199 27.0163C48.6948 27.1165 48.5693 27.293 48.2557 27.293Z" fill="white"/>
<path d="M18.9249 28.2485C18.9249 28.938 18.3609 29.502 17.6716 29.502H1.75331C1.06388 29.502 0.5 28.938 0.5 28.2485V27.4965C0.5 26.8072 1.06402 26.2432 1.75331 26.2432H17.6716C18.361 26.2432 18.9249 26.8072 18.9249 27.4965V28.2485Z" fill="white"/>
</g>
<defs>
<clipPath id="clip0_2001_221">
<rect width="56" height="56" fill="white" transform="translate(0.5)"/>
</clipPath>
</defs>
</svg>
