<svg width="32" height="32" viewBox="0 0 32 32" fill="none" xmlns="http://www.w3.org/2000/svg">
<path d="M16 32C24.8366 32 32 24.8366 32 16C32 7.16344 24.8366 0 16 0C7.16344 0 0 7.16344 0 16C0 24.8366 7.16344 32 16 32Z" fill="#F0F0F0"/>
<path d="M3.30758 6.25888C2.05077 7.89407 1.10308 9.77876 0.55127 11.8262H8.87489L3.30758 6.25888ZM31.4489 11.8262C30.8971 9.77882 29.9493 7.89413 28.6926 6.25894L23.1254 11.8262H31.4489ZM0.55127 20.174C1.10314 22.2214 2.05083 24.1061 3.30758 25.7412L8.87471 20.174H0.55127ZM25.7412 3.30757C24.106 2.05076 22.2214 1.10307 20.174 0.551193V8.87476L25.7412 3.30757ZM6.25896 28.6924C7.89414 29.9493 9.77883 30.8969 11.8262 31.4488V23.1253L6.25896 28.6924ZM11.8261 0.551193C9.77877 1.10307 7.89408 2.05076 6.25896 3.30751L11.8261 8.87469V0.551193ZM20.174 31.4488C22.2214 30.8969 24.1061 29.9493 25.7412 28.6925L20.174 23.1253V31.4488ZM23.1254 20.174L28.6926 25.7413C29.9493 24.1061 30.8971 22.2214 31.4489 20.174H23.1254Z" fill="#0052B4"/>
<path d="M31.8646 13.9131H18.087V0.135438C17.395 0.0452753 16.6979 3.47629e-05 16 0C15.2926 0 14.5962 0.0465 13.9131 0.135438V13.913H0.135438C0.0452753 14.605 3.47629e-05 15.3021 0 16C0 16.7074 0.0465 17.4038 0.135438 18.0869H13.913V31.8646C15.2985 32.0451 16.7015 32.0451 18.0869 31.8646V18.087H31.8646C31.9547 17.395 32 16.6979 32 16C32 15.2927 31.9535 14.5962 31.8646 13.9131Z" fill="#D80027"/>
<path d="M20.1737 20.174L27.3135 27.3138C27.6417 26.9851 27.9555 26.6424 28.254 26.2866L22.1414 20.1739H20.1737V20.174ZM11.8259 20.174H11.8257L4.68604 27.3137C5.01466 27.6419 5.35738 27.9557 5.71323 28.2542L11.8259 22.1414V20.174ZM11.8259 11.8262V11.8261L4.68611 4.68626C4.35788 5.01487 4.04409 5.35759 3.74561 5.71344L9.85829 11.8261H11.8259V11.8262ZM20.1737 11.8262L27.3135 4.68632C26.9849 4.3581 26.6422 4.04432 26.2864 3.74588L20.1737 9.85857V11.8262Z" fill="#D80027"/>
</svg>
