<svg width="32" height="32" viewBox="0 0 32 32" fill="none" xmlns="http://www.w3.org/2000/svg">
<g clip-path="url(#clip0_98_714)">
<path d="M16 32C24.8366 32 32 24.8366 32 16C32 7.16344 24.8366 0 16 0C7.16344 0 0 7.16344 0 16C0 24.8366 7.16344 32 16 32Z" fill="#F0F0F0"/>
<path d="M22.0243 12.5218H18.0079L15.9998 9.04351L13.9917 12.5218H9.97521L11.9836 16L9.97521 19.4783H13.9917L15.9998 22.9565L18.0079 19.4783H22.0243L20.016 16L22.0243 12.5218ZM18.467 16L17.2335 18.1368H14.7663L13.5326 16L14.7662 13.8633H17.2334L18.467 16ZM15.9998 11.7264L16.4589 12.5217H15.5408L15.9998 11.7264ZM12.2989 13.8633H13.2171L12.758 14.6585L12.2989 13.8633ZM12.2989 18.1368L12.7581 17.3415L13.2172 18.1368H12.2989ZM15.9998 20.2735L15.5407 19.4783H16.4589L15.9998 20.2735ZM19.7006 18.1368H18.7824L19.2416 17.3415L19.7006 18.1368ZM18.7824 13.8633H19.7006L19.2415 14.6585L18.7824 13.8633ZM25.9596 3.47826H6.03996C4.57583 4.64413 3.32647 6.05664 2.34814 7.65219H29.6514C28.673 6.05668 27.4237 4.64418 25.9596 3.47826ZM6.03996 28.5218H25.9595C27.4236 27.3559 28.673 25.9434 29.6513 24.3478H2.34814C3.32653 25.9433 4.57588 27.3558 6.03996 28.5218Z" fill="#0052B4"/>
</g>
<defs>
<clipPath id="clip0_98_714">
<rect width="32" height="32" fill="white"/>
</clipPath>
</defs>
</svg>
