<svg width="681" height="227" viewBox="0 0 681 227" fill="none" xmlns="http://www.w3.org/2000/svg">
<path opacity="0.15" d="M679.052 0.6829C679.227 0.159117 679.793 -0.123522 680.317 0.051608C680.841 0.226738 681.124 0.793318 680.948 1.3171L679.052 0.6829ZM483 130.5L483.777 131.13L483 130.5ZM415 225.5L414.955 224.501L415 225.5ZM298 67.5L297.96 68.4992L298 67.5ZM4.28009 146.96C3.74994 147.115 3.1947 146.81 3.04004 146.28L0.519226 137.64C0.364502 137.11 0.668884 136.555 1.1991 136.4C1.72925 136.246 2.28448 136.55 2.43915 137.08L4.67987 144.76L12.3597 142.519C12.8898 142.365 13.4451 142.669 13.5997 143.199C13.7544 143.729 13.45 144.284 12.9199 144.439L4.28009 146.96ZM182.5 146L182.241 145.034L182.5 146ZM678.254 9.08795C678.067 9.60765 677.494 9.87743 676.975 9.69053C676.455 9.50363 676.185 8.93082 676.372 8.41112L678.254 9.08795ZM670.584 23.3194C670.798 22.8101 671.384 22.5706 671.893 22.7844C672.402 22.9981 672.642 23.5842 672.428 24.0935L670.584 23.3194ZM665.744 38.7038C665.497 39.1978 664.897 39.3982 664.403 39.1513C663.909 38.9044 663.708 38.3038 663.955 37.8098L665.744 38.7038ZM656.242 51.7852C656.53 51.3141 657.146 51.1658 657.617 51.4541C658.088 51.7423 658.236 52.3579 657.948 52.829L656.242 51.7852ZM648.77 66.1633C648.431 66.599 647.802 66.6771 647.367 66.3377C646.931 65.9984 646.853 65.37 647.192 64.9343L648.77 66.1633ZM636.566 76.7619C636.965 76.3804 637.598 76.3949 637.98 76.7943C638.361 77.1937 638.347 77.8267 637.947 78.2081L636.566 76.7619ZM625.293 88.3277C624.831 88.6312 624.211 88.5031 623.908 88.0417C623.604 87.5803 623.732 86.9602 624.194 86.6567L625.293 88.3277ZM610.182 94.0151C610.693 93.8074 611.277 94.0539 611.484 94.5656C611.692 95.0774 611.445 95.6606 610.934 95.8683L610.182 94.0151ZM595.429 100.576C594.889 100.692 594.358 100.348 594.242 99.8076C594.127 99.2675 594.471 98.736 595.011 98.6205L595.429 100.576ZM579.241 100.912C579.791 100.863 580.276 101.27 580.325 101.82C580.374 102.37 579.967 102.856 579.417 102.904L579.241 100.912ZM563.318 103.774C562.766 103.791 562.305 103.357 562.288 102.805C562.271 102.253 562.705 101.792 563.257 101.775L563.318 103.774ZM547.186 102.27C547.738 102.247 548.204 102.675 548.228 103.226C548.252 103.778 547.823 104.245 547.272 104.268L547.186 102.27ZM531.35 105.557C530.803 105.63 530.3 105.245 530.227 104.698C530.154 104.15 530.538 103.647 531.086 103.574L531.35 105.557ZM515.239 107.002C515.765 106.835 516.328 107.126 516.495 107.652C516.662 108.179 516.37 108.741 515.844 108.908L515.239 107.002ZM501.468 115.398C500.996 115.685 500.381 115.536 500.093 115.064C499.806 114.592 499.956 113.977 500.427 113.69L501.468 115.398ZM487.659 123.809C488.049 123.417 488.682 123.416 489.073 123.806C489.465 124.195 489.466 124.828 489.076 125.22L487.659 123.809ZM479.175 137.373C478.868 137.832 478.247 137.955 477.788 137.648C477.329 137.341 477.206 136.72 477.513 136.261L479.175 137.373ZM469.847 150.093C470.077 149.591 470.67 149.37 471.173 149.6C471.675 149.829 471.896 150.423 471.666 150.925L469.847 150.093ZM466.058 165.439C465.885 165.964 465.319 166.248 464.795 166.075C464.27 165.901 463.986 165.336 464.159 164.811L466.058 165.439ZM459.604 179.852C459.759 179.322 460.313 179.017 460.844 179.171C461.374 179.325 461.679 179.88 461.525 180.411L459.604 179.852ZM456.77 195.416C456.579 195.934 456.004 196.199 455.486 196.009C454.967 195.818 454.702 195.243 454.893 194.724L456.77 195.416ZM448.08 208.522C448.393 208.068 449.016 207.953 449.471 208.266C449.926 208.579 450.04 209.202 449.727 209.657L448.08 208.522ZM438.083 220.587C437.605 220.864 436.993 220.701 436.716 220.223C436.439 219.745 436.602 219.133 437.08 218.857L438.083 220.587ZM422.674 223.731C423.219 223.643 423.732 224.013 423.821 224.559C423.909 225.104 423.538 225.617 422.993 225.705L422.674 223.731ZM407.193 226.138C406.646 226.059 406.268 225.551 406.347 225.005C406.427 224.458 406.934 224.079 407.481 224.159L407.193 226.138ZM393.843 218.801C394.296 219.118 394.407 219.741 394.09 220.194C393.774 220.646 393.15 220.757 392.698 220.441L393.843 218.801ZM381.948 209.212C381.637 208.755 381.755 208.133 382.211 207.822C382.668 207.511 383.29 207.629 383.601 208.086L381.948 209.212ZM376.519 194.803C376.736 195.311 376.5 195.899 375.993 196.116C375.485 196.333 374.897 196.097 374.68 195.589L376.519 194.803ZM369.422 181.146C369.256 180.619 369.548 180.058 370.075 179.891C370.601 179.725 371.163 180.017 371.329 180.544L369.422 181.146ZM367.118 165.896C367.261 166.43 366.943 166.978 366.41 167.12C365.876 167.263 365.328 166.945 365.186 166.412L367.118 165.896ZM361.355 151.603C361.218 151.068 361.54 150.523 362.076 150.386C362.611 150.249 363.155 150.572 363.292 151.107L361.355 151.603ZM359.396 136.308C359.543 136.84 359.23 137.391 358.698 137.537C358.165 137.684 357.615 137.372 357.468 136.839L359.396 136.308ZM353.099 122.246C352.926 121.722 353.211 121.156 353.735 120.983C354.26 120.81 354.825 121.095 354.998 121.62L353.099 122.246ZM349.599 107.237C349.818 107.744 349.585 108.332 349.078 108.551C348.571 108.77 347.982 108.537 347.763 108.03L349.599 107.237ZM340.851 94.6005C340.56 94.1311 340.705 93.5147 341.174 93.2237C341.644 92.9327 342.26 93.0773 342.551 93.5467L340.851 94.6005ZM333.024 81.3394C333.415 81.7299 333.415 82.363 333.024 82.7536C332.634 83.1442 332.001 83.1444 331.61 82.7539L333.024 81.3394ZM319.621 73.9175C319.13 73.6644 318.937 73.0612 319.19 72.5704C319.443 72.0795 320.047 71.8869 320.537 72.1401L319.621 73.9175ZM305.769 67.2886C306.313 67.3805 306.68 67.8965 306.588 68.4411C306.497 68.9856 305.981 69.3526 305.436 69.2608L305.769 67.2886ZM289.284 69.1449C288.742 69.2495 288.217 68.8946 288.113 68.3523C288.008 67.8101 288.363 67.2857 288.905 67.1811L289.284 69.1449ZM272.198 74.2647C272.66 73.9617 273.28 74.0904 273.583 74.5521C273.886 75.0139 273.757 75.6338 273.295 75.9368L272.198 74.2647ZM259.682 87.1878C259.286 87.5726 258.653 87.5634 258.268 87.1673C257.883 86.7711 257.893 86.138 258.289 85.7532L259.682 87.1878ZM245.879 98.7048C246.253 98.2988 246.886 98.2732 247.292 98.6476C247.698 99.022 247.723 99.6547 247.349 100.061L245.879 98.7048ZM235.098 113.127C234.713 113.522 234.079 113.53 233.684 113.144C233.289 112.758 233.281 112.125 233.667 111.73L235.098 113.127ZM220.731 123.935C221.152 123.577 221.783 123.628 222.141 124.049C222.499 124.469 222.448 125.1 222.027 125.458L220.731 123.935ZM207.517 136.135C207.047 136.426 206.431 136.281 206.14 135.812C205.849 135.343 205.993 134.726 206.463 134.435L207.517 136.135ZM190.658 142.306C191.174 142.11 191.752 142.369 191.949 142.885C192.146 143.401 191.887 143.979 191.371 144.175L190.658 142.306ZM174.834 148.214C174.283 148.241 173.813 147.815 173.786 147.264C173.759 146.712 174.185 146.243 174.736 146.216L174.834 148.214ZM159.755 143.997C160.28 144.171 160.565 144.736 160.391 145.26C160.218 145.785 159.653 146.07 159.128 145.897L159.755 143.997ZM144.815 139.2C144.339 138.919 144.181 138.306 144.462 137.831C144.742 137.355 145.355 137.197 145.831 137.478L144.815 139.2ZM132.958 128.837C133.403 129.165 133.498 129.791 133.17 130.236C132.843 130.68 132.217 130.775 131.772 130.448L132.958 128.837ZM119.363 120.908C118.929 120.566 118.853 119.938 119.194 119.504C119.536 119.069 120.164 118.994 120.598 119.335L119.363 120.908ZM108.217 109.774C108.66 110.104 108.752 110.73 108.423 111.173C108.093 111.617 107.467 111.709 107.024 111.379L108.217 109.774ZM94.1998 102.618C93.7278 102.331 93.5776 101.716 93.8644 101.244C94.1511 100.772 94.7662 100.622 95.2382 100.909L94.1998 102.618ZM81.0986 93.9207C81.6171 94.1107 81.8835 94.6851 81.6935 95.2037C81.5035 95.7223 80.9291 95.9886 80.4105 95.7986L81.0986 93.9207ZM65.4945 92.8579C64.9423 92.8501 64.501 92.3961 64.5087 91.8439C64.5165 91.2917 64.9705 90.8503 65.5228 90.8581L65.4945 92.8579ZM49.9391 93.8145C50.4515 93.6083 51.034 93.8566 51.2401 94.369C51.4462 94.8814 51.1979 95.4638 50.6855 95.67L49.9391 93.8145ZM37.5945 103.524C37.1635 103.869 36.5341 103.8 36.1889 103.369C35.8438 102.937 35.9134 102.308 36.3445 101.963L37.5945 103.524ZM25.0782 112.916C25.4415 112.5 26.0732 112.457 26.4893 112.821C26.9052 113.184 26.948 113.816 26.5847 114.232L25.0782 112.916ZM17.077 126.54C16.7626 126.994 16.1396 127.107 15.6856 126.793C15.2316 126.478 15.1184 125.855 15.4329 125.401L17.077 126.54ZM7.07336 138.554C7.35303 138.078 7.96582 137.918 8.44208 138.198C8.91827 138.478 9.07758 139.091 8.79785 139.567L7.07336 138.554ZM680.948 1.3171C680.059 3.97637 679.161 6.56604 678.254 9.08795L676.372 8.41112C677.274 5.9038 678.167 3.32835 679.052 0.6829L680.948 1.3171ZM672.428 24.0935C670.243 29.2988 668.014 34.1613 665.744 38.7038L663.955 37.8098C666.204 33.3094 668.415 28.487 670.584 23.3194L672.428 24.0935ZM657.948 52.829C654.947 57.7347 651.885 62.1639 648.77 66.1633L647.192 64.9343C650.258 60.9984 653.277 56.6316 656.242 51.7852L657.948 52.829ZM637.947 78.2081C633.797 82.1727 629.573 85.5124 625.293 88.3277L624.194 86.6567C628.371 83.9092 632.5 80.6452 636.566 76.7619L637.947 78.2081ZM610.934 95.8683C605.8 97.9521 600.622 99.4656 595.429 100.576L595.011 98.6205C600.106 97.5308 605.17 96.0493 610.182 94.0151L610.934 95.8683ZM579.417 102.904C574.028 103.381 568.649 103.609 563.318 103.774L563.257 101.775C568.575 101.611 573.909 101.384 579.241 100.912L579.417 102.904ZM547.272 104.268C541.873 104.5 536.558 104.863 531.35 105.557L531.086 103.574C536.377 102.869 541.757 102.503 547.186 102.27L547.272 104.268ZM515.844 108.908C510.907 110.475 506.106 112.572 501.468 115.398L500.427 113.69C505.217 110.773 510.166 108.612 515.239 107.002L515.844 108.908ZM489.076 125.22C487.278 127.025 485.511 128.99 483.777 131.13L482.223 129.87C483.999 127.68 485.811 125.664 487.659 123.809L489.076 125.22ZM483.777 131.13C482.115 133.18 480.587 135.264 479.175 137.373L477.513 136.261C478.957 134.103 480.522 131.97 482.223 129.87L483.777 131.13ZM471.666 150.925C469.46 155.753 467.651 160.62 466.058 165.439L464.159 164.811C465.767 159.946 467.602 155.007 469.847 150.093L471.666 150.925ZM461.525 180.411C460.003 185.644 458.507 190.702 456.77 195.416L454.893 194.724C456.602 190.085 458.081 185.091 459.604 179.852L461.525 180.411ZM449.727 209.657C446.714 214.034 442.969 217.757 438.083 220.587L437.08 218.857C441.677 216.194 445.211 212.69 448.08 208.522L449.727 209.657ZM422.993 225.705C420.525 226.105 417.881 226.372 415.045 226.499L414.955 224.501C417.722 224.377 420.288 224.117 422.674 223.731L422.993 225.705ZM415.045 226.499C412.276 226.623 409.663 226.497 407.193 226.138L407.481 224.159C409.817 224.499 412.303 224.62 414.955 224.501L415.045 226.499ZM392.698 220.441C388.549 217.54 385.018 213.718 381.948 209.212L383.601 208.086C386.567 212.44 389.936 216.07 393.843 218.801L392.698 220.441ZM374.68 195.589C372.751 191.072 371.024 186.219 369.422 181.146L371.329 180.544C372.918 185.576 374.623 190.363 376.519 194.803L374.68 195.589ZM365.186 166.412C363.889 161.552 362.629 156.585 361.355 151.603L363.292 151.107C364.569 156.096 365.824 161.049 367.118 165.896L365.186 166.412ZM357.468 136.839C356.103 131.89 354.665 127 353.099 122.246L354.998 121.62C356.578 126.414 358.025 131.338 359.396 136.308L357.468 136.839ZM347.763 108.03C345.702 103.255 343.422 98.746 340.851 94.6005L342.551 93.5467C345.184 97.7923 347.508 102.392 349.599 107.237L347.763 108.03ZM331.61 82.7539C328.073 79.2179 324.107 76.2317 319.621 73.9175L320.537 72.1401C325.224 74.5573 329.354 77.6712 333.024 81.3394L331.61 82.7539ZM305.436 69.2608C303.062 68.8602 300.572 68.6027 297.96 68.4992L298.04 66.5008C300.733 66.6075 303.307 66.8733 305.769 67.2886L305.436 69.2608ZM297.96 68.4992C294.94 68.3796 292.057 68.61 289.284 69.1449L288.905 67.1811C291.829 66.6172 294.865 66.375 298.04 66.5008L297.96 68.4992ZM273.295 75.9368C268.63 78.9981 264.152 82.8455 259.682 87.1878L258.289 85.7532C262.808 81.363 267.387 77.4215 272.198 74.2647L273.295 75.9368ZM247.349 100.061C243.408 104.334 239.357 108.762 235.098 113.127L233.667 111.73C237.901 107.39 241.93 102.987 245.879 98.7048L247.349 100.061ZM222.027 125.458C217.513 129.298 212.708 132.915 207.517 136.135L206.463 134.435C211.553 131.277 216.278 127.723 220.731 123.935L222.027 125.458ZM191.371 144.175C188.603 145.23 185.736 146.166 182.759 146.966L182.241 145.034C185.15 144.252 187.953 143.338 190.658 142.306L191.371 144.175ZM182.759 146.966C180.096 147.681 177.455 148.085 174.834 148.214L174.736 146.216C177.217 146.095 179.717 145.712 182.241 145.034L182.759 146.966ZM159.128 145.897C154.291 144.3 149.525 141.979 144.815 139.2L145.831 137.478C150.457 140.207 155.09 142.458 159.755 143.997L159.128 145.897ZM131.772 130.448C127.625 127.392 123.489 124.15 119.363 120.908L120.598 119.335C124.728 122.579 128.839 125.803 132.958 128.837L131.772 130.448ZM107.024 111.379C102.763 108.21 98.4946 105.227 94.1998 102.618L95.2382 100.909C99.6055 103.562 103.928 106.584 108.217 109.774L107.024 111.379ZM80.4105 95.7986C75.4877 93.9951 70.5256 92.9289 65.4945 92.8579L65.5228 90.8581C70.8209 90.9329 76.0075 92.0555 81.0986 93.9207L80.4105 95.7986ZM50.6855 95.67C46.4187 97.3864 42.0589 99.9495 37.5945 103.524L36.3445 101.963C40.9411 98.2824 45.4683 95.613 49.9391 93.8145L50.6855 95.67ZM26.5847 114.232C23.4653 117.804 20.2972 121.89 17.077 126.54L15.4329 125.401C18.6899 120.698 21.9036 116.551 25.0782 112.916L26.5847 114.232ZM8.79785 139.567C7.49915 141.778 6.1922 144.082 4.87683 146.481L3.12317 145.519C4.44751 143.104 5.76416 140.783 7.07336 138.554L8.79785 139.567Z" fill="#540011"/>
</svg>
