<svg width="173" height="9" viewBox="0 0 173 9" fill="none" xmlns="http://www.w3.org/2000/svg">
<path d="M1.3125 7.16562C1.3125 7.16562 7.70024 3.89244 13.5 3.04062C20.9855 1.94122 24.8766 6.68818 32.4375 6.41562C39.082 6.17608 41.9506 3.74055 48.5625 3.04062C56.5557 2.19445 61.2085 6.44938 69.1875 5.47812C74.799 4.79504 77.4502 2.95495 83.25 2.10313C90.7355 1.00372 94.2516 5.75068 101.812 5.47812C108.457 5.23859 111.326 2.80306 117.938 2.10312C125.931 1.25696 131.73 5.71765 138.375 5.47812C145.02 5.23859 148.076 2.80306 154.688 2.10312C162.681 1.25696 171.375 6.41562 171.375 6.41562" stroke="#FB0738" stroke-width="2.25" stroke-linecap="round"/>
</svg>
