<svg width="460" height="20" viewBox="0 0 460 20" fill="none" xmlns="http://www.w3.org/2000/svg">
<path d="M3.5 16.9417C3.5 16.9417 20.534 8.2132 36 5.94168C55.9613 3.00994 66.3377 15.6685 86.5 14.9417C104.219 14.3029 111.868 7.80817 129.5 5.94168C150.815 3.68524 163.223 15.0317 184.5 12.4417C199.464 10.6202 206.534 5.71322 222 3.4417C241.961 0.509957 251.338 13.1685 271.5 12.4417C289.219 11.8029 296.868 5.30818 314.5 3.44169C335.815 1.18525 351.281 13.0804 369 12.4417C386.719 11.8029 394.868 5.30818 412.5 3.4417C433.815 1.18526 457 14.9417 457 14.9417" stroke="#FB0738" stroke-width="6" stroke-linecap="round"/>
</svg>
