<svg width="1024" height="522" viewBox="0 0 1024 522" fill="none" xmlns="http://www.w3.org/2000/svg">
<path d="M754.069 -139.704C725.355 -154.312 690.23 -142.866 675.626 -114.139L241.733 739.263C227.129 767.986 238.575 803.103 267.297 817.707C275.471 821.877 284.515 824.052 293.69 824.055C314.949 824.055 335.442 812.394 345.741 792.143L779.634 -61.26C794.238 -89.9827 782.792 -125.099 754.069 -139.704ZM442.519 141.327C442.519 19.3228 343.26 -79.9366 221.256 -79.9366C99.2594 -79.9366 0 19.3228 0 141.327C0 263.327 99.2594 362.587 221.26 362.587C343.264 362.587 442.519 263.327 442.519 141.327ZM221.26 245.907C163.597 245.907 116.68 198.99 116.68 141.327C116.68 83.66 163.597 36.7431 221.26 36.7431C278.927 36.7431 325.843 83.6561 325.843 141.327C325.84 198.99 278.927 245.907 221.26 245.907ZM802.74 315.421C680.736 315.421 581.477 414.68 581.477 536.68C581.477 658.681 680.732 757.94 802.74 757.94C924.741 757.94 1024 658.685 1024 536.68C1024 414.676 924.744 315.421 802.74 315.421ZM802.74 641.256C745.073 641.256 698.156 594.34 698.156 536.677C698.156 479.013 745.073 432.096 802.74 432.096C860.403 432.096 907.32 479.013 907.32 536.677C907.32 594.34 860.407 641.256 802.74 641.256Z" fill="#FEFBF2"/>
</svg>
