<svg width="1024" height="971" viewBox="0 0 1024 971" fill="none" xmlns="http://www.w3.org/2000/svg">
<path d="M754.069 6.3514C725.355 -8.25689 690.23 3.18938 675.626 31.9159L241.733 885.319C227.129 914.041 238.575 949.158 267.297 963.762C275.471 967.932 284.515 970.107 293.69 970.11C314.949 970.11 335.442 958.45 345.741 938.198L779.634 84.7951C794.238 56.0725 782.792 20.9558 754.069 6.3514ZM442.519 287.382C442.519 165.378 343.26 66.1186 221.256 66.1186C99.2594 66.1186 0 165.378 0 287.382C0 409.382 99.2594 508.642 221.26 508.642C343.264 508.642 442.519 409.382 442.519 287.382ZM221.26 391.962C163.597 391.962 116.68 345.045 116.68 287.382C116.68 229.715 163.597 182.798 221.26 182.798C278.927 182.798 325.843 229.711 325.843 287.382C325.84 345.045 278.927 391.962 221.26 391.962ZM802.74 461.476C680.736 461.476 581.477 560.735 581.477 682.736C581.477 804.736 680.732 903.995 802.74 903.995C924.741 903.995 1024 804.74 1024 682.736C1024 560.731 924.744 461.476 802.74 461.476ZM802.74 787.312C745.073 787.312 698.157 740.395 698.157 682.732C698.157 625.069 745.073 578.152 802.74 578.152C860.403 578.152 907.32 625.069 907.32 682.732C907.32 740.395 860.407 787.312 802.74 787.312Z" fill="#FEFBF2"/>
</svg>
