<svg width="550" height="599" viewBox="0 0 550 599" fill="none" xmlns="http://www.w3.org/2000/svg">
<g opacity="0.05" clip-path="url(#clip0_2033_890)">
<path d="M400.303 281.95C367.785 287.287 339.415 271.951 312.53 255.39C300.359 247.908 251.842 216.322 266.884 196.913C284.422 174.276 331.625 205.017 349.583 214.709C370.704 226.122 414.455 249.213 404.741 279.837C402.405 287.212 390.784 284.24 393.121 276.865C404.248 241.842 310.645 207.516 287.766 201.826C277.245 207.875 277.183 214.017 287.574 220.341C290.7 223.655 293.995 226.834 297.465 229.79C307.282 238.644 319.042 245.476 330.38 252.158C350.682 264.116 373.159 274.37 397.232 270.416C404.809 269.18 408.005 280.739 400.373 281.99L400.303 281.95Z" fill="white"/>
<path d="M277.198 206.189C249.983 274.592 215.087 339.101 172.473 399.139C163.124 412.315 153.259 425.103 143.241 437.757C126.738 458.589 141.286 477.852 155.977 493.326C178.833 517.397 212.869 528.881 244.819 533.868C252.473 535.073 249.412 546.689 241.847 545.489C210.359 540.582 181.378 529.367 156.194 509.679C137.89 495.362 111.588 464.752 125.654 440.771C135.534 423.935 150.551 409.074 162.061 393.173C175.754 374.188 188.465 354.502 200.621 334.498C226.036 292.725 247.465 248.576 265.562 203.162C268.384 196.066 280.045 198.968 277.183 206.134L277.198 206.189Z" fill="white"/>
<path d="M404.468 280.234C378.363 322.165 347.316 360.572 318.539 400.648C287.66 443.669 265.274 490.775 249.171 541.157C246.8 548.512 235.179 545.54 237.55 538.185C252.369 491.815 272.234 448.061 299.251 407.436C329.424 362.028 365.173 320.645 394.057 274.268C398.138 267.709 408.57 273.641 404.468 280.234Z" fill="white"/>
<path d="M401.898 284.155C383.041 303.223 357.59 306.202 331.867 304.83C302.805 303.251 243.084 276.171 227.744 311.546C224.688 318.647 214.282 312.591 217.332 305.579C228.344 280.171 255.876 279.352 279.58 284.085C315.189 291.215 364.076 305.263 393.425 275.611C398.88 270.115 407.318 278.64 401.864 284.135L401.898 284.155Z" fill="white"/>
<path d="M371.407 329.475C354.286 348.569 329.426 351.565 305.063 349.267C276.995 346.597 230.853 323.979 206.915 347.005C201.361 352.351 192.868 343.842 198.476 338.48C243.431 295.274 318.606 370.444 362.969 320.95C368.116 315.187 376.589 323.731 371.407 329.475Z" fill="white"/>
<path d="M327.287 387.313C309.613 401.019 292.938 404.372 271.018 400.707C242.496 395.933 203.04 378.623 176.143 395.711C169.618 399.855 163.633 389.464 170.158 385.319C216.758 355.733 274.466 413.195 318.829 378.823C324.863 374.167 333.396 382.607 327.268 387.348L327.287 387.313Z" fill="white"/>
<path d="M297.861 430.937C277.874 441.197 258.273 435.819 237.85 429.463C207.319 419.988 157.484 418.536 138.052 448.662C133.886 455.126 123.455 449.194 127.641 442.695C142.927 418.999 168.024 413.419 194.707 412.391C208.391 411.842 221.439 412.727 234.706 416.043C253.856 420.84 272.479 430.499 291.876 420.546C298.742 417.012 304.762 427.423 297.861 430.937Z" fill="white"/>
<path d="M268.658 482.617C228.335 500.125 183.669 471.069 144.881 491.208C138.049 494.762 132.01 484.385 138.896 480.816C178.995 459.999 222.663 489.589 262.673 472.225C269.673 469.183 275.767 479.545 268.658 482.617Z" fill="white"/>
<path d="M253.074 518.82C231.283 522.975 208.778 515.748 187.342 521.858C179.892 523.997 176.771 512.389 184.201 510.284C205.91 504.1 228.053 511.396 249.933 507.246C257.486 505.812 260.682 517.371 253.074 518.82Z" fill="white"/>
<path d="M335.085 239.364L355.014 204.589C358.852 197.891 369.264 203.858 365.425 210.556L345.496 245.33C341.658 252.028 331.246 246.062 335.085 239.364Z" fill="white"/>
<path d="M144.044 422.359C157.994 387.801 139.583 355.811 135.295 321.543C131.527 291.353 138.122 262.952 154.814 237.526C159.049 231.101 169.481 237.033 165.226 243.493C143.533 276.518 143.51 310.023 153.208 347.161C160.022 373.242 166.151 399.391 155.679 425.385C152.822 432.462 141.162 429.559 144.058 422.414L144.044 422.359Z" fill="white"/>
<path d="M166.26 241.687C156.655 265.044 167.715 287.979 190.302 297.881C193.292 299.179 194.051 303.487 192.524 306.07C183.947 320.794 185.127 337.56 196.269 350.538C201.277 356.36 192.803 364.873 187.744 358.977C173.125 341.931 170.776 319.562 182.078 300.083L184.3 308.272C155.02 295.41 143.86 264.764 155.814 235.701C158.745 228.575 169.117 234.611 166.226 241.668L166.26 241.687Z" fill="white"/>
<path d="M165.866 243.581C148.431 263.787 123.681 273.669 97.0966 270.743L102.248 261.754C117.407 291.695 119.213 326.755 96.5263 353.309C96.1135 350.168 95.7206 346.993 95.2731 343.832C115.682 353.269 124.494 372.888 118.93 394.502C118.331 396.833 110.837 407.015 113.926 408.785C118.888 411.629 123.102 414.413 127.463 418.065C135.022 424.425 138.28 433.622 138.436 443.163C138.551 450.928 126.579 450.982 126.444 443.252C126.234 428.978 115.143 423.313 104.454 417.187C101.885 415.716 99.4145 411.902 99.3687 408.925C99.3409 403.423 103.047 399.369 105.786 394.992C115.908 378.94 103.884 360.984 89.3063 354.243C85.518 352.487 85.7476 347.501 88.0531 344.765C107.113 322.448 104.372 292.478 91.8214 267.719C90.0002 264.14 92.1659 258.189 96.9728 258.731C120.779 261.356 141.702 253.245 157.373 235.072C162.436 229.214 170.854 237.773 165.811 243.596L165.866 243.581Z" fill="white"/>
<path d="M270.824 457.119C280.265 441.691 294.723 437.298 311.7 433.658C334.663 428.746 353.927 417.656 370.068 400.674C375.404 395.064 383.842 403.589 378.507 409.198C367.07 421.27 354.238 430.467 339.182 437.513C320.61 446.187 293.028 443.796 281.235 463.086C277.188 469.664 266.757 463.732 270.824 457.119Z" fill="white"/>
<path d="M377.348 410.978C357.085 418.822 333.725 412.764 319.725 396.166C314.791 390.295 323.265 381.782 328.249 387.727C339.782 401.39 357.553 405.858 374.207 399.404C381.424 396.625 384.51 408.214 377.348 410.978Z" fill="white"/>
<path d="M379.909 410.37C367.292 430.294 365.224 453.129 375.05 474.758C377.405 479.98 372.402 486.057 366.844 482.964C352.867 475.092 339.601 474.589 325.278 481.964C315.662 486.918 314.193 498.893 305.748 503.735C303.747 504.893 299.971 505.449 297.858 504.792C282.087 499.81 267.697 501.429 256.967 515.566C252.375 521.648 241.89 515.73 246.556 509.599C253.588 500.305 261.245 494.828 272.369 491.106C283.383 487.413 297.521 496.53 303.462 486.565C317.98 462.198 350.237 459.892 372.811 472.552C370.093 475.283 367.376 478.013 364.604 480.758C353.041 455.321 354.425 428.13 369.443 404.418C373.594 397.899 384.025 403.831 379.855 410.385L379.909 410.37Z" fill="white"/>
<path d="M366.145 202.625C379.795 209.295 393.024 207.933 405.502 199.593C406.51 203.306 407.532 207.073 408.54 210.785C404.338 210.313 400.171 209.862 395.969 209.39C389.436 208.642 387.453 199.714 394.347 197.58C414.607 191.349 426.787 175.969 428.342 154.592C431.739 155.986 435.17 157.399 438.567 158.793C434.201 162.791 430.348 165.009 424.66 166.728C420.302 168.057 416.16 163.701 417.262 159.446C421.689 142.389 420.359 126.689 412.734 110.793C416.192 110.793 419.65 110.792 423.163 110.777C419.735 118.448 415.83 126.629 408.382 131.259C398.019 137.676 378.779 141.402 377.426 156.071C376.984 160.705 370.906 164.875 367.185 160.345C362.742 154.986 360.971 150.836 360.513 143.751C363.91 145.144 367.342 146.558 370.738 147.951C356.167 163.804 348.996 185.005 365.093 202.852C370.25 208.574 361.795 217.052 356.568 211.29C336.121 188.645 343.013 160.369 362.3 139.427C366.006 135.373 372.228 138.754 372.525 143.627C373.588 146.357 374.686 149.107 375.73 151.872C372.334 153.291 368.884 154.726 365.489 156.146C366.399 146.432 369.805 140.731 377.478 134.34C391.251 122.778 404.452 123.474 412.806 104.795C414.632 100.724 421.359 100.891 423.235 104.779C432.206 123.474 434.236 142.296 428.992 162.388C426.514 159.953 424.071 157.539 421.594 155.105C424.463 153.476 427.333 151.847 430.183 150.253C433.734 147.033 440.792 148.957 440.408 154.454C438.489 181.292 423.401 201.184 397.562 209.104L395.94 197.294C400.141 197.766 404.308 198.217 408.51 198.689C414.438 199.366 416.836 206.365 411.547 209.881C395.419 220.647 377.532 221.368 360.258 212.897C353.301 209.51 359.322 199.084 366.224 202.486L366.145 202.625Z" fill="white"/>
<path d="M347.328 327.568C319.642 364.536 291.585 399.815 271.994 441.883C270.363 445.374 265.157 442.391 266.789 438.9C286.38 396.832 314.436 361.552 342.122 324.585C344.428 321.527 349.654 324.475 347.328 327.568Z" fill="white"/>
<path d="M264.081 456.252C261.62 460.789 259.158 465.325 256.711 469.917C254.851 473.323 249.646 470.339 251.506 466.933C253.967 462.397 256.429 457.86 258.876 453.269C260.735 449.863 265.941 452.846 264.081 456.252Z" fill="white"/>
<path d="M353.481 275.08C350.114 273.151 353.098 267.945 356.464 269.874C359.83 271.803 356.847 277.009 353.481 275.08Z" fill="white"/>
<path d="M389.585 287.379C374.301 281.709 360.194 294.74 344.438 290.136C333.175 286.862 332.986 270.941 326.029 263.773C323.339 260.986 327.591 256.784 330.302 259.536C333.027 262.343 334.656 264.89 336.368 268.499C336.902 269.819 337.436 271.14 337.916 272.475C341.862 282.805 350.465 286.859 361.051 284.396C371.835 281.91 380.151 277.455 391.135 281.537C394.75 282.871 393.255 288.699 389.64 287.365L389.585 287.379Z" fill="white"/>
<path d="M326.049 264.06C316.87 256.264 306.874 255.607 295.968 259.914C291.808 261.541 287.218 262.553 283.053 260.166C281.075 259.032 279.674 256.892 278.321 255.149C275.335 251.27 267.332 254.937 263.465 256.455C259.271 258.062 255.735 257.234 252.031 255.25C248.605 253.425 251.588 248.219 255.014 250.044C260.875 253.172 268.949 247.288 275.31 246.969C284.618 246.494 281.632 258.383 294.398 254.127C307.804 249.639 319.175 250.393 330.321 259.824C333.26 262.338 329.008 266.54 326.049 264.06Z" fill="white"/>
<path d="M163.824 407.876C161.575 416.546 162.467 425.447 166.476 433.415C168.198 436.846 163.009 439.866 161.252 436.415C156.536 427.028 155.339 416.567 157.996 406.38C158.943 402.635 164.771 404.131 163.824 407.876Z" fill="white"/>
<path d="M152.146 421.977C151.366 427.201 153.675 433.227 155.296 438.121C156.972 443 159.308 447.612 161.942 452.026C163.922 455.328 158.734 458.348 156.719 455.026C150.976 445.418 144.538 431.955 146.318 420.482C146.894 416.662 152.702 418.192 152.146 421.977Z" fill="white"/>
<path d="M142.378 433.39C142.443 452.745 149.207 470.867 162.034 485.411C164.575 488.296 160.338 492.553 157.762 489.647C143.944 473.937 136.437 454.375 136.389 433.462C136.394 429.592 142.363 429.555 142.413 433.41L142.378 433.39Z" fill="white"/>
<path d="M155.744 386.096C147.341 400.92 139.443 415.987 132.086 431.319C130.4 434.824 125.214 431.806 126.88 428.335C134.292 412.989 142.135 397.936 150.538 383.112C152.468 379.746 157.673 382.729 155.744 386.096Z" fill="white"/>
<path d="M153.77 369.428L137.362 398.059C135.432 401.425 130.227 398.442 132.156 395.076L148.565 366.444C150.494 363.078 155.7 366.061 153.77 369.428Z" fill="white"/>
<path d="M150.888 357.402L140.446 375.622C138.516 378.989 133.311 376.005 135.24 372.639L145.682 354.419C147.611 351.052 152.817 354.036 150.888 357.402Z" fill="white"/>
<path d="M147.837 345.833C145.337 349.794 142.821 353.7 140.321 357.661C138.272 360.913 133.047 357.965 135.115 354.678C137.615 350.717 140.131 346.811 142.631 342.85C144.68 339.597 149.905 342.546 147.837 345.833Z" fill="white"/>
<path d="M274.898 467.707C276.751 477.99 277.472 488.315 276.968 498.768C276.784 502.628 270.761 502.68 270.945 498.82C271.418 488.903 270.83 479.069 269.091 469.312C268.411 465.511 274.198 463.941 274.878 467.742L274.898 467.707Z" fill="white"/>
<path d="M279.154 460.602C283.889 471.245 287.928 482.136 291.144 493.337C292.241 497.055 286.419 498.605 285.357 494.908C282.275 484.197 278.478 473.769 273.966 463.622C272.407 460.147 277.615 457.092 279.189 460.622L279.154 460.602Z" fill="white"/>
<path d="M286.638 450.922C296.66 462.798 303.385 476.564 306.427 491.77C307.162 495.556 301.41 497.146 300.641 493.34C297.811 479.132 291.734 466.245 282.386 455.124C279.919 452.189 284.156 447.932 286.658 450.888L286.638 450.922Z" fill="white"/>
<path d="M292.639 440.853C300.566 445.765 305.229 454.845 310.374 462.358C312.558 465.546 307.355 468.511 305.151 465.358C300.684 458.833 296.507 450.354 289.636 446.093C286.364 444.08 289.313 438.854 292.619 440.888L292.639 440.853Z" fill="white"/>
<path d="M305.989 441.772C309.524 443.245 312.697 445.432 315.447 448.115C318.177 450.832 313.96 455.054 311.175 452.352C308.782 450.012 306.085 448.282 303.005 446.978C301.483 446.336 301.158 444.168 301.894 442.884C302.789 441.322 304.466 441.13 305.989 441.772Z" fill="white"/>
<path d="M151.956 388.443C154.774 376.366 160.131 365.651 167.828 356.001C170.238 353.002 174.44 357.254 172.065 360.273C165.043 369.065 160.322 378.992 157.783 389.939C156.905 393.723 151.098 392.193 151.956 388.443Z" fill="white"/>
<path d="M148.103 350.598C151.682 341.215 156.466 332.708 162.598 324.743C164.939 321.704 169.141 325.956 166.835 329.015C161.418 336.053 157.126 343.782 153.931 352.094C152.562 355.689 146.734 354.193 148.103 350.598Z" fill="white"/>
<path d="M144.437 326.506C147.853 316.523 152.756 307.485 159.231 299.163C161.572 296.124 165.809 300.396 163.468 303.435C157.723 310.884 153.332 319.11 150.264 328.002C149.02 331.622 143.207 330.181 144.437 326.506Z" fill="white"/>
<path d="M148.639 382.485C139.577 376.416 130.013 371.304 119.927 367.183C116.337 365.725 119.409 360.524 122.91 361.977C133.011 366.153 142.561 371.21 151.622 377.28C154.815 379.432 151.866 384.658 148.639 382.485Z" fill="white"/>
<path d="M140.474 344.843C134.913 340.55 128.78 337.173 122.239 334.669C118.644 333.3 120.12 327.507 123.735 328.842C131.382 331.749 138.258 335.597 144.746 340.607C147.785 342.947 143.513 347.184 140.474 344.843Z" fill="white"/>
<path d="M138.617 310.354C135.187 300.412 129.055 291.965 120.539 285.748C117.441 283.511 120.41 278.251 123.523 280.542C133.417 287.734 140.44 297.199 144.404 308.784C145.665 312.457 139.843 314.008 138.617 310.354Z" fill="white"/>
<path d="M299.811 437.911C306.627 430.845 311.921 422.814 315.485 413.699C316.888 410.124 322.716 411.62 321.313 415.195C317.296 425.341 311.644 434.319 304.048 442.183C301.345 444.968 297.143 440.716 299.811 437.911Z" fill="white"/>
<path d="M285.794 451.269C295.559 450.641 304.928 453.198 312.998 458.745C316.171 460.932 313.187 466.138 310.015 463.951C302.738 458.951 294.658 456.718 285.846 457.292C281.961 457.555 281.944 451.552 285.794 451.269Z" fill="white"/>
<path d="M318.77 437.895C328.336 437.292 337.541 439.893 345.338 445.514C348.436 447.751 345.488 452.976 342.355 450.72C335.351 445.646 327.455 443.334 318.842 443.883C314.956 444.146 314.939 438.143 318.79 437.86L318.77 437.895Z" fill="white"/>
<path d="M329.366 249.182C321.71 245.164 303.496 234.633 306.268 223.359C309.904 208.569 327.204 220.696 334.496 225.106C337.823 227.105 334.84 232.31 331.513 230.312C328.395 228.432 325.217 226.657 321.944 224.966C320.655 224.32 319.331 223.653 318.022 223.041C314.254 221.25 311.456 225.087 313.267 228.523C316.885 235.483 325.685 240.48 332.334 243.922C335.78 245.712 332.762 250.898 329.351 249.128L329.366 249.182Z" fill="white"/>
<path d="M375.052 252.405C374.094 256.328 370.454 259.221 366.346 258.987C362.486 258.804 362.434 252.781 366.294 252.964C367.778 253.031 368.855 252.357 369.244 250.874C370.157 247.11 375.984 248.605 375.072 252.37L375.052 252.405Z" fill="white"/>
<path d="M376.51 204.971C386.401 202.756 393.473 197.496 398.629 188.74C402.278 182.533 402.464 184.945 395.908 185.844C392.911 186.247 392.762 186.347 390.158 185.822C389.097 185.583 388.304 184.714 388.003 183.711C386.693 179.319 388.287 174.607 389.686 170.476C390.657 167.575 399.313 149.898 390.438 156.292C387.504 158.437 385.082 158.801 381.675 157.909C378.619 157.126 377.588 149.112 374.191 151.177C370.87 153.192 367.87 147.969 371.191 145.953C374.697 143.859 379.322 142.545 381.867 146.954C386.253 154.585 390.991 146.881 397.921 147.58C401.111 147.886 402.208 151.604 401.728 154.372C400.744 159.709 398.853 164.296 396.674 169.225C393.841 172.719 393.569 176.251 395.856 179.821C398.313 179.477 400.913 178.801 403.404 179.121C404.614 179.262 406.136 179.904 406.323 181.348C408.443 196.071 390.239 208.044 378.061 210.793C374.304 211.636 372.699 205.829 376.49 205.006L376.51 204.971Z" fill="white"/>
<path d="M351.015 192.02C352.988 185.037 356.614 177.986 363.618 175.177C369.724 172.729 375.963 178.656 374.739 184.732C373.896 188.859 372.042 191.53 374.89 195.329C377.138 198.324 377.914 201.396 376.971 205.051C374.892 213.265 365.381 209.428 360.646 206.668C357.28 204.739 360.283 199.498 363.63 201.462C365.365 202.457 366.952 203.228 368.866 203.91C371.532 202.718 372.084 201.19 370.519 199.417C369.969 198.687 369.419 197.957 368.884 197.282C367.517 195.161 366.731 192.913 367.126 190.373C367.511 188.012 371.565 179.732 365.223 180.984C360.603 181.886 357.894 189.831 356.877 193.536C355.841 197.275 350.013 195.779 351.049 192.04L351.015 192.02Z" fill="white"/>
<path d="M393.929 205.549C393.137 207.815 391.86 209.48 389.849 210.818C386.611 212.927 383.611 207.704 386.849 205.594C387.445 205.198 387.847 204.737 388.101 204.053C389.4 200.418 395.193 201.894 393.929 205.549Z" fill="white"/>
<path d="M308.163 310.796C294.495 306.651 280.581 304.302 266.258 303.793C262.413 303.664 262.341 297.675 266.206 297.769C280.995 298.269 295.48 300.669 309.624 304.949C313.324 306.055 311.828 311.882 308.128 310.776L308.163 310.796Z" fill="white"/>
<path d="M254.95 304.135C253.189 303.91 251.394 303.665 249.613 303.474C247.976 303.273 247.105 301.253 247.454 299.839C247.893 298.108 249.506 297.465 251.089 297.681C252.85 297.906 254.645 298.152 256.426 298.342C258.063 298.543 258.934 300.563 258.585 301.977C258.146 303.708 256.533 304.351 254.95 304.135Z" fill="white"/>
<path d="M263.453 352.206C253.855 347.074 243.003 347.909 232.543 348.784C228.673 349.101 228.656 343.098 232.491 342.76C244.122 341.773 255.866 341.311 266.457 346.966C269.883 348.791 266.899 353.997 263.473 352.171L263.453 352.206Z" fill="white"/>
<path d="M230.162 399.839C221.471 398.915 212.754 398.437 204.012 398.407C200.143 398.402 200.071 392.413 203.961 392.383C212.722 392.38 221.439 392.857 230.11 393.815C233.92 394.247 233.992 400.235 230.162 399.839Z" fill="white"/>
<path d="M203.965 435.815C201.367 434.557 198.381 434.136 195.523 434.619C191.741 435.264 190.116 429.492 193.952 428.832C198.493 428.069 202.779 428.635 206.949 430.61C210.454 432.296 207.436 437.482 203.965 435.815Z" fill="white"/>
<path d="M184.153 492.509C182.192 492.953 180.232 493.397 178.272 493.841C174.515 494.684 172.91 488.878 176.701 488.054C178.662 487.61 180.622 487.166 182.582 486.722C186.339 485.878 187.944 491.685 184.153 492.509Z" fill="white"/>
</g>
<defs>
<clipPath id="clip0_2033_890">
<rect width="354.32" height="486.56" fill="white" transform="matrix(-0.867618 -0.497231 -0.497231 0.867618 549.347 176.179)"/>
</clipPath>
</defs>
</svg>
