<svg width="789" height="208" viewBox="0 0 789 208" fill="none" xmlns="http://www.w3.org/2000/svg">
<path opacity="0.15" d="M2.44839 0.6829C2.27326 0.159117 1.70668 -0.123522 1.1829 0.051608C0.659117 0.226738 0.376478 0.793318 0.551608 1.3171L2.44839 0.6829ZM201 67.5L200.223 68.1297L201 67.5ZM278 206.5L278.045 205.501L278 206.5ZM491 105L491.04 105.999L491 105ZM784.72 197.96C785.25 198.115 785.805 197.81 785.96 197.28L788.481 188.64C788.635 188.11 788.331 187.555 787.801 187.4C787.271 187.246 786.716 187.55 786.561 188.08L784.32 195.76L776.64 193.519C776.11 193.365 775.555 193.669 775.4 194.199C775.246 194.729 775.55 195.284 776.08 195.439L784.72 197.96ZM606.5 183.5L606.759 182.534L606.5 183.5ZM3.19267 8.88709C3.38168 9.40602 3.95559 9.67347 4.47452 9.48445C4.99346 9.29544 5.26091 8.72153 5.07189 8.2026L3.19267 8.88709ZM10.8094 22.5704C10.5874 22.0648 9.99742 21.8349 9.49175 22.0569C8.98607 22.279 8.75616 22.8689 8.97822 23.3746L10.8094 22.5704ZM15.8256 37.3504C16.0915 37.8344 16.6995 38.0113 17.1836 37.7453C17.6676 37.4794 17.8444 36.8714 17.5785 36.3874L15.8256 37.3504ZM25.8069 49.4374C25.481 48.9916 24.8554 48.8943 24.4095 49.2202C23.9636 49.5461 23.8663 50.1717 24.1922 50.6176L25.8069 49.4374ZM34.5183 62.3804C34.9229 62.7563 35.5557 62.7329 35.9315 62.3282C36.3073 61.9235 36.284 61.2908 35.8793 60.915L34.5183 62.3804ZM48.2988 69.7408C47.8072 69.489 47.2046 69.6833 46.9528 70.1748C46.701 70.6664 46.8953 71.269 47.3868 71.5208L48.2988 69.7408ZM62.4363 76.4023C62.982 76.4875 63.4934 76.1143 63.5787 75.5686C63.6639 75.0229 63.2906 74.5115 62.745 74.4263L62.4363 76.4023ZM77.9896 74.6753C77.4404 74.7338 77.0427 75.2265 77.1012 75.7757C77.1597 76.3248 77.6524 76.7226 78.2016 76.664L77.9896 74.6753ZM93.6164 73.6087C94.1487 73.4615 94.4608 72.9106 94.3136 72.3783C94.1663 71.846 93.6154 71.5339 93.0831 71.6812L93.6164 73.6087ZM107.791 66.8476C107.273 67.0389 107.008 67.614 107.199 68.1321C107.39 68.6502 107.966 68.9151 108.484 68.7238L107.791 66.8476ZM123.019 63.0962C123.532 62.8936 123.785 62.3129 123.582 61.7991C123.38 61.2853 122.799 61.033 122.285 61.2356L123.019 63.0962ZM136.883 55.7055C136.362 55.8887 136.088 56.4595 136.272 56.9805C136.455 57.5016 137.025 57.7755 137.547 57.5924L136.883 55.7055ZM152.354 53.2015C152.893 53.0796 153.231 52.544 153.109 52.0054C152.987 51.4667 152.451 51.1289 151.913 51.2509L152.354 53.2015ZM167.549 49.4113C166.997 49.4044 166.544 49.8466 166.537 50.3988C166.53 50.9511 166.972 51.4043 167.524 51.4111L167.549 49.4113ZM182.34 54.2574C182.852 54.4643 183.435 54.217 183.642 53.7049C183.849 53.1929 183.601 52.61 183.089 52.4031L182.34 54.2574ZM196.395 61.0574C195.992 60.6799 195.359 60.7007 194.981 61.1038C194.604 61.507 194.624 62.1398 195.028 62.5173L196.395 61.0574ZM204.973 74.8427C205.265 75.3117 205.882 75.4556 206.351 75.164C206.82 74.8724 206.963 74.2558 206.672 73.7867L204.973 74.8427ZM214.26 88.8723C214.049 88.3619 213.464 88.1191 212.954 88.3301C212.443 88.541 212.201 89.1258 212.411 89.6362L214.26 88.8723ZM218.006 105.307C218.171 105.835 218.732 106.128 219.259 105.963C219.786 105.798 220.079 105.237 219.914 104.71L218.006 105.307ZM224.545 120.832C224.402 120.298 223.853 119.982 223.32 120.126C222.786 120.269 222.47 120.817 222.613 121.351L224.545 120.832ZM226.869 137.535C227.01 138.069 227.557 138.388 228.091 138.247C228.625 138.106 228.944 137.559 228.803 137.025L226.869 137.535ZM233.255 153.129C233.098 152.599 232.541 152.297 232.012 152.455C231.482 152.612 231.181 153.168 231.338 153.698L233.255 153.129ZM236.683 169.639C236.881 170.155 237.46 170.411 237.976 170.212C238.491 170.013 238.747 169.434 238.548 168.919L236.683 169.639ZM245.606 183.888C245.326 183.412 244.713 183.253 244.237 183.533C243.761 183.813 243.602 184.426 243.882 184.902L245.606 183.888ZM254.477 198.165C254.891 198.53 255.523 198.49 255.888 198.076C256.253 197.662 256.214 197.03 255.8 196.665L254.477 198.165ZM269.971 204.304C269.437 204.163 268.89 204.483 268.75 205.017C268.609 205.551 268.928 206.098 269.463 206.238L269.971 204.304ZM285.563 207.436C286.115 207.402 286.534 206.928 286.501 206.377C286.468 205.826 285.994 205.406 285.442 205.44L285.563 207.436ZM300.052 203.122C299.517 203.258 299.193 203.801 299.328 204.337C299.463 204.872 300.007 205.197 300.542 205.062L300.052 203.122ZM314.898 200.256C315.408 200.045 315.651 199.46 315.441 198.95C315.23 198.439 314.646 198.196 314.135 198.407L314.898 200.256ZM327.584 191.98C327.098 192.242 326.916 192.849 327.177 193.335C327.439 193.821 328.046 194.003 328.532 193.741L327.584 191.98ZM341.534 186.105C342.001 185.81 342.141 185.192 341.846 184.725C341.551 184.258 340.933 184.119 340.466 184.414L341.534 186.105ZM352.923 176.123C352.47 176.439 352.357 177.062 352.673 177.515C352.988 177.969 353.611 178.081 354.064 177.766L352.923 176.123ZM366.29 169.022C366.736 168.696 366.833 168.07 366.507 167.624C366.181 167.178 365.555 167.081 365.109 167.407L366.29 169.022ZM377.174 158.492C376.73 158.822 376.638 159.448 376.967 159.891C377.297 160.335 377.923 160.427 378.366 160.098L377.174 158.492ZM390.434 151.184C390.88 150.858 390.977 150.233 390.651 149.787C390.325 149.341 389.7 149.244 389.254 149.57L390.434 151.184ZM401.477 140.818C401.024 141.134 400.913 141.757 401.229 142.21C401.545 142.663 402.169 142.774 402.622 142.458L401.477 140.818ZM415.048 134.105C415.512 133.806 415.646 133.187 415.347 132.723C415.048 132.258 414.43 132.124 413.965 132.423L415.048 134.105ZM426.832 124.595C426.352 124.869 426.185 125.479 426.459 125.959C426.732 126.439 427.343 126.606 427.823 126.332L426.832 124.595ZM441.04 119.385C441.539 119.147 441.749 118.549 441.511 118.051C441.273 117.553 440.676 117.342 440.177 117.581L441.04 119.385ZM454.069 111.677C453.551 111.869 453.286 112.444 453.478 112.962C453.669 113.48 454.244 113.745 454.762 113.553L454.069 111.677ZM468.988 109.167C469.525 109.036 469.853 108.494 469.721 107.958C469.589 107.421 469.048 107.093 468.511 107.225L468.988 109.167ZM483.406 104.567C482.857 104.628 482.461 105.122 482.522 105.671C482.582 106.22 483.076 106.616 483.625 106.555L483.406 104.567ZM499.716 106.645C500.258 106.749 500.783 106.395 500.887 105.852C500.992 105.31 500.637 104.786 500.095 104.681L499.716 106.645ZM516.802 111.765C516.34 111.462 515.72 111.59 515.417 112.052C515.114 112.514 515.243 113.134 515.705 113.437L516.802 111.765ZM529.318 124.688C529.714 125.073 530.347 125.063 530.732 124.667C531.117 124.271 531.107 123.638 530.711 123.253L529.318 124.688ZM543.121 136.205C542.747 135.799 542.114 135.773 541.708 136.148C541.302 136.522 541.277 137.155 541.651 137.561L543.121 136.205ZM553.902 150.627C554.287 151.022 554.921 151.03 555.316 150.644C555.711 150.258 555.719 149.625 555.333 149.23L553.902 150.627ZM568.269 161.435C567.848 161.077 567.217 161.128 566.859 161.549C566.501 161.969 566.552 162.6 566.973 162.958L568.269 161.435ZM581.483 173.635C581.953 173.926 582.569 173.781 582.86 173.312C583.151 172.843 583.007 172.226 582.537 171.935L581.483 173.635ZM598.342 179.806C597.826 179.61 597.248 179.869 597.051 180.385C596.854 180.901 597.113 181.479 597.629 181.675L598.342 179.806ZM614.032 185.778C614.583 185.817 615.061 185.402 615.1 184.852C615.139 184.301 614.724 183.822 614.173 183.783L614.032 185.778ZM629.074 182.182C628.541 182.327 628.226 182.876 628.371 183.409C628.516 183.942 629.065 184.257 629.598 184.112L629.074 182.182ZM644.081 178.353C644.573 178.102 644.77 177.5 644.519 177.008C644.269 176.516 643.667 176.32 643.175 176.57L644.081 178.353ZM656.404 168.88C655.938 169.177 655.802 169.795 656.099 170.261C656.396 170.726 657.014 170.863 657.48 170.566L656.404 168.88ZM670.345 162.033C670.804 161.725 670.925 161.103 670.617 160.645C670.309 160.187 669.687 160.065 669.229 160.373L670.345 162.033ZM682.18 151.938C681.709 152.227 681.562 152.843 681.852 153.314C682.141 153.784 682.757 153.931 683.227 153.642L682.18 151.938ZM696.636 146.325C697.138 146.094 697.357 145.5 697.126 144.998C696.894 144.497 696.3 144.278 695.799 144.509L696.636 146.325ZM710.579 139.494C710.038 139.604 709.688 140.132 709.798 140.673C709.908 141.214 710.436 141.564 710.977 141.454L710.579 139.494ZM725.93 140.946C726.476 141.027 726.984 140.649 727.065 140.103C727.145 139.557 726.768 139.048 726.221 138.968L725.93 140.946ZM741.077 143.972C740.589 143.712 739.984 143.896 739.724 144.384C739.464 144.871 739.648 145.477 740.136 145.737L741.077 143.972ZM752.493 154.52C752.906 154.887 753.538 154.85 753.905 154.438C754.272 154.026 754.236 153.393 753.823 153.026L752.493 154.52ZM764.501 164.183C764.147 163.759 763.517 163.701 763.092 164.055C762.668 164.409 762.611 165.039 762.964 165.463L764.501 164.183ZM772.149 177.738C772.459 178.195 773.081 178.314 773.538 178.003C773.995 177.693 774.113 177.071 773.803 176.614L772.149 177.738ZM781.989 189.647C781.711 189.171 781.098 189.01 780.621 189.288C780.145 189.567 779.984 190.18 780.263 190.656L781.989 189.647ZM0.551608 1.3171C1.42267 3.92228 2.30311 6.44487 3.19267 8.88709L5.07189 8.2026C4.18866 5.77775 3.31405 3.27195 2.44839 0.6829L0.551608 1.3171ZM8.97822 23.3746C11.2117 28.4608 13.4954 33.1092 15.8256 37.3504L17.5785 36.3874C15.2795 32.203 13.0217 27.6082 10.8094 22.5704L8.97822 23.3746ZM24.1922 50.6176C27.5545 55.2177 30.9995 59.1125 34.5183 62.3804L35.8793 60.915C32.4642 57.7433 29.1026 53.9465 25.8069 49.4374L24.1922 50.6176ZM47.3868 71.5208C52.3192 74.0479 57.3463 75.6073 62.4363 76.4023L62.745 74.4263C57.855 73.6625 53.0328 72.1663 48.2988 69.7408L47.3868 71.5208ZM78.2016 76.664C83.3241 76.1181 88.4724 75.0319 93.6164 73.6087L93.0831 71.6812C88.015 73.0833 82.977 74.1438 77.9896 74.6753L78.2016 76.664ZM108.484 68.7238C113.352 66.9264 118.21 64.9921 123.019 63.0962L122.285 61.2356C117.467 63.1355 112.634 65.0597 107.791 66.8476L108.484 68.7238ZM137.547 57.5924C142.569 55.8274 147.511 54.2982 152.354 53.2015L151.913 51.2509C146.969 52.3704 141.948 53.9257 136.883 55.7055L137.547 57.5924ZM167.524 51.4111C172.635 51.4743 177.581 52.3341 182.34 54.2574L183.089 52.4031C178.069 50.3741 172.872 49.4771 167.549 49.4113L167.524 51.4111ZM195.028 62.5173C196.79 64.1675 198.523 66.0319 200.223 68.1297L201.777 66.8703C200.023 64.7064 198.228 62.7743 196.395 61.0574L195.028 62.5173ZM200.223 68.1297C201.912 70.2136 203.491 72.4581 204.973 74.8427L206.672 73.7867C205.151 71.3398 203.524 69.0262 201.777 66.8703L200.223 68.1297ZM212.411 89.6362C214.464 94.6028 216.301 99.8655 218.006 105.307L219.914 104.71C218.198 99.2295 216.341 93.9084 214.26 88.8723L212.411 89.6362ZM222.613 121.351C224.059 126.732 225.451 132.151 226.869 137.535L228.803 137.025C227.39 131.659 225.992 126.218 224.545 120.832L222.613 121.351ZM231.338 153.698C232.98 159.23 234.733 164.588 236.683 169.639L238.548 168.919C236.624 163.933 234.888 158.629 233.255 153.129L231.338 153.698ZM243.882 184.902C246.909 190.049 250.385 194.555 254.477 198.165L255.8 196.665C251.904 193.228 248.555 188.902 245.606 183.888L243.882 184.902ZM269.463 206.238C272.118 206.936 274.944 207.364 277.955 207.499L278.045 205.501C275.167 205.372 272.482 204.964 269.971 204.304L269.463 206.238ZM277.955 207.499C280.504 207.613 283.039 207.589 285.563 207.436L285.442 205.44C282.987 205.588 280.521 205.612 278.045 205.501L277.955 207.499ZM300.542 205.062C305.359 203.845 310.141 202.218 314.898 200.256L314.135 198.407C309.454 200.338 304.764 201.932 300.052 203.122L300.542 205.062ZM328.532 193.741C332.873 191.404 337.204 188.84 341.534 186.105L340.466 184.414C336.168 187.129 331.877 189.669 327.584 191.98L328.532 193.741ZM354.064 177.766C358.129 174.941 362.202 172.011 366.29 169.022L365.109 167.407C361.03 170.391 356.97 173.31 352.923 176.123L354.064 177.766ZM378.366 160.098C382.366 157.128 386.386 154.144 390.434 151.184L389.254 149.57C385.198 152.534 381.173 155.523 377.174 158.492L378.366 160.098ZM402.622 142.458C406.728 139.594 410.868 136.796 415.048 134.105L413.965 132.423C409.76 135.13 405.599 137.942 401.477 140.818L402.622 142.458ZM427.823 126.332C432.178 123.848 436.582 121.518 441.04 119.385L440.177 117.581C435.67 119.737 431.224 122.09 426.832 124.595L427.823 126.332ZM454.762 113.553C459.438 111.826 464.177 110.349 468.988 109.167L468.511 107.225C463.621 108.426 458.809 109.926 454.069 111.677L454.762 113.553ZM483.625 106.555C486.077 106.285 488.548 106.098 491.04 105.999L490.96 104.001C488.421 104.101 485.903 104.292 483.406 104.567L483.625 106.555ZM491.04 105.999C494.06 105.88 496.943 106.11 499.716 106.645L500.095 104.681C497.171 104.117 494.135 103.875 490.96 104.001L491.04 105.999ZM515.705 113.437C520.37 116.498 524.848 120.345 529.318 124.688L530.711 123.253C526.192 118.863 521.613 114.922 516.802 111.765L515.705 113.437ZM541.651 137.561C545.592 141.834 549.643 146.262 553.902 150.627L555.333 149.23C551.099 144.89 547.07 140.487 543.121 136.205L541.651 137.561ZM566.973 162.958C571.487 166.798 576.292 170.415 581.483 173.635L582.537 171.935C577.447 168.777 572.722 165.223 568.269 161.435L566.973 162.958ZM597.629 181.675C600.397 182.73 603.264 183.666 606.241 184.466L606.759 182.534C603.85 181.752 601.047 180.838 598.342 179.806L597.629 181.675ZM606.241 184.466C608.859 185.169 611.455 185.596 614.032 185.778L614.173 183.783C611.722 183.61 609.252 183.204 606.759 182.534L606.241 184.466ZM629.598 184.112C634.492 182.782 639.314 180.776 644.081 178.353L643.175 176.57C638.492 178.951 633.8 180.897 629.074 182.182L629.598 184.112ZM657.48 170.566C661.779 167.82 666.068 164.91 670.345 162.033L669.229 160.373C664.941 163.257 660.678 166.151 656.404 168.88L657.48 170.566ZM683.227 153.642C687.682 150.903 692.144 148.397 696.636 146.325L695.799 144.509C691.21 146.625 686.675 149.174 682.18 151.938L683.227 153.642ZM710.977 141.454C715.899 140.452 720.873 140.201 725.93 140.946L726.221 138.968C720.907 138.184 715.698 138.452 710.579 139.494L710.977 141.454ZM740.136 145.737C744.171 147.888 748.287 150.773 752.493 154.52L753.823 153.026C749.514 149.188 745.269 146.207 741.077 143.972L740.136 145.737ZM762.964 165.463C765.98 169.083 769.04 173.161 772.149 177.738L773.803 176.614C770.663 171.99 767.563 167.859 764.501 164.183L762.964 165.463ZM780.263 190.656C781.541 192.845 782.828 195.119 784.123 197.481L785.877 196.519C784.574 194.142 783.278 191.852 781.989 189.647L780.263 190.656Z" fill="#540011"/>
</svg>
