<svg width="492" height="208" viewBox="0 0 492 208" fill="none" xmlns="http://www.w3.org/2000/svg">
<path opacity="0.15" d="M489.581 1.10525C489.799 0.597702 490.387 0.362769 490.894 0.580513C491.402 0.798257 491.637 1.38622 491.419 1.89377L489.581 1.10525ZM273 42L273.777 42.6297L273 42ZM236 168.5L235.955 167.501L236 168.5ZM3.71078 207.978C3.1709 208.094 2.63889 207.751 2.52246 207.211L0.625519 198.413C0.509094 197.873 0.852386 197.341 1.39227 197.225C1.93213 197.108 2.46417 197.452 2.58057 197.991L4.26675 205.812L12.087 204.126C12.6269 204.009 13.1589 204.352 13.2754 204.892C13.3918 205.432 13.0485 205.964 12.5086 206.081L3.71078 207.978ZM487.951 9.64912C487.717 10.1496 487.122 10.366 486.622 10.1325C486.121 9.89893 485.905 9.30389 486.138 8.80341L487.951 9.64912ZM478.68 23.3796C478.952 22.8985 479.561 22.7283 480.043 22.9995C480.524 23.2707 480.694 23.8806 480.423 24.3617L478.68 23.3796ZM471.633 38.2731C471.312 38.7226 470.687 38.8268 470.238 38.5059C469.788 38.185 469.684 37.5604 470.005 37.1109L471.633 38.2731ZM459.512 49.7258C459.9 49.3325 460.533 49.3279 460.926 49.7156C461.32 50.1032 461.324 50.7364 460.937 51.1297L459.512 49.7258ZM448.057 61.6395C447.59 61.9341 446.973 61.7942 446.678 61.3271C446.384 60.8599 446.524 60.2424 446.991 59.9478L448.057 61.6395ZM432.255 66.4463C432.789 66.3045 433.337 66.6222 433.478 67.156C433.62 67.6897 433.302 68.2374 432.769 68.3792L432.255 66.4463ZM416.152 70.1267C415.601 70.1038 415.172 69.6379 415.195 69.0861C415.217 68.5343 415.683 68.1055 416.235 68.1284L416.152 70.1267ZM400.209 65.5428C400.742 65.6862 401.058 66.2348 400.915 66.7681C400.771 67.3015 400.223 67.6176 399.689 67.4743L400.209 65.5428ZM384 61.9852C383.491 61.771 383.252 61.1848 383.466 60.6757C383.68 60.1666 384.266 59.9275 384.775 60.1416L384 61.9852ZM369.908 53.1691C370.4 53.4191 370.597 54.021 370.347 54.5135C370.097 55.0059 369.495 55.2025 369.003 54.9524L369.908 53.1691ZM354.39 47.2579C353.903 46.9972 353.72 46.3911 353.98 45.9042C354.241 45.4174 354.847 45.2341 355.334 45.4949L354.39 47.2579ZM340.702 37.8307C341.196 38.078 341.396 38.6788 341.149 39.1726C340.901 39.6665 340.301 39.8663 339.807 39.6191L340.702 37.8307ZM324.844 32.8712C324.328 32.6723 324.072 32.0933 324.271 31.5781C324.47 31.0629 325.049 30.8066 325.564 31.0055L324.844 32.8712ZM309.502 26.5013C310.048 26.5845 310.423 27.0945 310.34 27.6405C310.257 28.1865 309.746 28.5617 309.201 28.4785L309.502 26.5013ZM293.279 29.0893C292.746 29.2321 292.197 28.9153 292.055 28.3818C291.912 27.8483 292.229 27.3001 292.762 27.1573L293.279 29.0893ZM278.035 35.2548C278.449 34.889 279.081 34.928 279.447 35.3417C279.812 35.7555 279.774 36.3875 279.36 36.7533L278.035 35.2548ZM269.795 48.4525C269.521 48.9317 268.91 49.0976 268.43 48.8231C267.951 48.5485 267.785 47.9375 268.06 47.4583L269.795 48.4525ZM262.623 61.0612C262.762 60.5269 263.309 60.2069 263.843 60.3465C264.377 60.4861 264.697 61.0325 264.558 61.5668L262.623 61.0612ZM262.253 75.6257C262.207 76.1761 261.723 76.5848 261.173 76.5385C260.623 76.4923 260.214 76.0087 260.26 75.4583L262.253 75.6257ZM259.835 89.9859C259.826 89.4337 260.267 88.9792 260.82 88.9709C261.372 88.9625 261.826 89.4034 261.835 89.9556L259.835 89.9859ZM262.437 104.333C262.47 104.885 262.051 105.359 261.499 105.392C260.948 105.425 260.474 105.006 260.441 104.454L262.437 104.333ZM261.353 118.86C261.321 118.309 261.743 117.836 262.294 117.804C262.846 117.773 263.318 118.194 263.35 118.745L261.353 118.86ZM263.791 133.238C263.785 133.791 263.332 134.234 262.78 134.228C262.228 134.222 261.785 133.77 261.791 133.218L263.791 133.238ZM260.469 147.387C260.583 146.847 261.114 146.502 261.654 146.616C262.195 146.731 262.54 147.262 262.425 147.802L260.469 147.387ZM256.26 161.219C255.897 161.635 255.265 161.677 254.849 161.314C254.433 160.951 254.39 160.319 254.754 159.903L256.26 161.219ZM242.976 166.585C243.514 166.46 244.052 166.795 244.177 167.333C244.302 167.871 243.967 168.408 243.429 168.533L242.976 166.585ZM228.01 169.45C227.459 169.417 227.038 168.944 227.071 168.393C227.104 167.841 227.578 167.421 228.129 167.454L228.01 169.45ZM212.895 164.673C213.422 164.841 213.712 165.404 213.543 165.93C213.375 166.456 212.812 166.746 212.286 166.578L212.895 164.673ZM197.818 159.708C197.354 159.409 197.22 158.79 197.52 158.326C197.819 157.861 198.438 157.728 198.902 158.028L197.818 159.708ZM186.84 148.197C187.233 148.586 187.235 149.219 186.846 149.611C186.458 150.004 185.824 150.006 185.432 149.617L186.84 148.197ZM174.935 137.656C174.594 137.221 174.671 136.593 175.105 136.252C175.54 135.911 176.169 135.988 176.509 136.423L174.935 137.656ZM167.166 123.738C167.486 124.189 167.38 124.813 166.93 125.133C166.48 125.453 165.855 125.347 165.536 124.897L167.166 123.738ZM156.296 112.121C155.963 111.681 156.05 111.053 156.49 110.72C156.93 110.386 157.557 110.473 157.891 110.913L156.296 112.121ZM147.602 98.7621C147.989 99.1563 147.983 99.7894 147.589 100.176C147.195 100.563 146.562 100.557 146.175 100.163L147.602 98.7621ZM134.097 90.4656C133.622 90.1848 133.464 89.5716 133.745 89.096C134.026 88.6205 134.639 88.4627 135.115 88.7436L134.097 90.4656ZM120.059 83.1714C120.604 83.265 120.969 83.7821 120.875 84.3264C120.782 84.8707 120.265 85.236 119.72 85.1424L120.059 83.1714ZM103.259 84.8548C102.709 84.9011 102.225 84.4926 102.179 83.9422C102.133 83.3919 102.541 82.9082 103.092 82.8618L103.259 84.8548ZM85.6521 86.2032C86.1785 86.036 86.7407 86.3273 86.9078 86.8537C87.075 87.3801 86.7837 87.9423 86.2574 88.1094L85.6521 86.2032ZM70.729 95.5495C70.2704 95.8574 69.6492 95.7352 69.3413 95.2767C69.0334 94.8182 69.1555 94.1969 69.6141 93.8891L70.729 95.5495ZM56.3387 105.733C56.7014 105.317 57.3331 105.273 57.7495 105.636C58.166 105.999 58.2095 106.631 57.8468 107.047L56.3387 105.733ZM47.7319 121.178C47.4471 121.652 46.8326 121.804 46.3594 121.519C45.8863 121.235 45.7336 120.62 46.0184 120.147L47.7319 121.178ZM37.6971 135.736C37.9376 135.239 38.5356 135.031 39.0328 135.271C39.5299 135.512 39.738 136.11 39.4976 136.607L37.6971 135.736ZM32.1739 152.563C31.9496 153.067 31.3586 153.295 30.8539 153.07C30.3492 152.846 30.122 152.255 30.3463 151.75L32.1739 152.563ZM23.1826 167.797C23.4115 167.294 24.0045 167.073 24.5071 167.302C25.0097 167.53 25.2316 168.123 25.0026 168.626L23.1826 167.797ZM17.4141 184.525C17.1651 185.018 16.5636 185.216 16.0706 184.967C15.5777 184.718 15.38 184.116 15.629 183.623L17.4141 184.525ZM7.25784 199.001C7.53842 198.526 8.15152 198.367 8.62723 198.648C9.10294 198.929 9.26111 199.542 8.98056 200.017L7.25784 199.001ZM491.419 1.89377C490.27 4.57286 489.113 7.15709 487.951 9.64912L486.138 8.80341C487.292 6.33112 488.44 3.76599 489.581 1.10525L491.419 1.89377ZM480.423 24.3617C477.528 29.4965 474.597 34.121 471.633 38.2731L470.005 37.1109C472.924 33.0228 475.817 28.4591 478.68 23.3796L480.423 24.3617ZM460.937 51.1297C456.699 55.4298 452.402 58.8997 448.057 61.6395L446.991 59.9478C451.193 57.2976 455.371 53.9274 459.512 49.7258L460.937 51.1297ZM432.769 68.3792C427.252 69.8452 421.704 70.3567 416.152 70.1267L416.235 68.1284C421.607 68.351 426.952 67.8555 432.255 66.4463L432.769 68.3792ZM399.689 67.4743C394.437 66.0625 389.2 64.1724 384 61.9852L384.775 60.1416C389.915 62.3033 395.065 64.1601 400.209 65.5428L399.689 67.4743ZM369.003 54.9524C364.083 52.4549 359.203 49.8362 354.39 47.2579L355.334 45.4949C360.152 48.0756 365.012 50.6834 369.908 53.1691L369.003 54.9524ZM339.807 39.6191C334.715 37.0692 329.722 34.7553 324.844 32.8712L325.564 31.0055C330.524 32.9211 335.579 35.2653 340.702 37.8307L339.807 39.6191ZM309.201 28.4785C303.663 27.6351 298.35 27.732 293.279 29.0893L292.762 27.1573C298.155 25.7141 303.753 25.6257 309.502 26.5013L309.201 28.4785ZM279.36 36.7533C277.462 38.4311 275.6 40.381 273.777 42.6297L272.223 41.3703C274.109 39.0434 276.047 37.0121 278.035 35.2548L279.36 36.7533ZM273.777 42.6297C272.279 44.4771 270.958 46.422 269.795 48.4525L268.06 47.4583C269.274 45.3388 270.655 43.3046 272.223 41.3703L273.777 42.6297ZM264.558 61.5668C263.385 66.0554 262.661 70.7714 262.253 75.6257L260.26 75.4583C260.675 70.5174 261.414 65.6846 262.623 61.0612L264.558 61.5668ZM261.835 89.9556C261.907 94.7404 262.148 99.5583 262.437 104.333L260.441 104.454C260.15 99.6673 259.908 94.8149 259.835 89.9859L261.835 89.9556ZM263.35 118.745C263.638 123.763 263.838 128.633 263.791 133.238L261.791 133.218C261.838 128.68 261.64 123.862 261.353 118.86L263.35 118.745ZM262.425 147.802C261.316 153.031 259.407 157.617 256.26 161.219L254.754 159.903C257.607 156.638 259.404 152.405 260.469 147.387L262.425 147.802ZM243.429 168.533C241.196 169.053 238.741 169.378 236.045 169.499L235.955 167.501C238.546 167.385 240.878 167.073 242.976 166.585L243.429 168.533ZM236.045 169.499C233.262 169.624 230.586 169.604 228.01 169.45L228.129 167.454C230.633 167.603 233.239 167.623 235.955 167.501L236.045 169.499ZM212.286 166.578C206.987 164.883 202.201 162.537 197.818 159.708L198.902 158.028C203.15 160.769 207.776 163.036 212.895 164.673L212.286 166.578ZM185.432 149.617C181.674 145.891 178.215 141.843 174.935 137.656L176.509 136.423C179.756 140.567 183.159 144.547 186.84 148.197L185.432 149.617ZM165.536 124.897C162.439 120.539 159.406 116.227 156.296 112.121L157.891 110.913C161.024 115.05 164.079 119.393 167.166 123.738L165.536 124.897ZM146.175 100.163C142.438 96.3545 138.468 93.047 134.097 90.4656L135.115 88.7436C139.672 91.4352 143.777 94.8637 147.602 98.7621L146.175 100.163ZM119.72 85.1424C117.278 84.7222 114.71 84.5 112 84.5V82.5C114.82 82.5 117.501 82.7313 120.059 83.1714L119.72 85.1424ZM112 84.5C108.954 84.5 106.044 84.6203 103.259 84.8548L103.092 82.8618C105.935 82.6224 108.901 82.5 112 82.5V84.5ZM86.2574 88.1094C80.4437 89.9553 75.319 92.4675 70.729 95.5495L69.6141 93.8891C74.3622 90.7009 79.6586 88.1061 85.6521 86.2032L86.2574 88.1094ZM57.8468 107.047C54.1484 111.293 50.8283 116.034 47.7319 121.178L46.0184 120.147C49.1595 114.928 52.5463 110.087 56.3387 105.733L57.8468 107.047ZM39.4976 136.607C37.0273 141.714 34.6227 147.053 32.1739 152.563L30.3463 151.75C32.7964 146.238 35.2119 140.874 37.6971 135.736L39.4976 136.607ZM25.0026 168.626C22.6185 173.86 20.1156 179.178 17.4141 184.525L15.629 183.623C18.3143 178.308 20.8052 173.016 23.1826 167.797L25.0026 168.626ZM8.98056 200.017C7.49753 202.532 5.95355 205.042 4.34027 207.542L2.65973 206.458C4.25757 203.982 5.78754 201.494 7.25784 199.001L8.98056 200.017Z" fill="#540011"/>
</svg>
