<svg width="693" height="256" viewBox="0 0 693 256" fill="none" xmlns="http://www.w3.org/2000/svg">
<path opacity="0.15" d="M658.234 0.359808C658.588 -0.0644655 659.218 -0.121783 659.642 0.231785C660.067 0.585354 660.124 1.21592 659.77 1.64019L658.234 0.359808ZM486.5 156L486.222 155.039L486.5 156ZM352 254L352.125 254.992L352 254ZM134.502 133.5L134.665 134.487L134.502 133.5ZM1.40765 205.996C0.857849 205.944 0.454285 205.456 0.506287 204.906L1.35376 195.946C1.40576 195.396 1.89362 194.992 2.44348 195.044C2.99329 195.096 3.39685 195.584 3.34485 196.134L2.59155 204.099L10.556 204.852C11.1058 204.904 11.5094 205.392 11.4574 205.942C11.4054 206.491 10.9175 206.895 10.3677 206.843L1.40765 205.996ZM654.533 8.03495C654.187 8.46536 653.558 8.53375 653.127 8.18769C652.697 7.84162 652.629 7.21216 652.975 6.78174L654.533 8.03495ZM643.116 19.5779C643.443 19.1326 644.069 19.0366 644.514 19.3634C644.959 19.6902 645.055 20.316 644.728 20.7613L643.116 19.5779ZM635.637 33.967C635.34 34.4325 634.721 34.5691 634.256 34.272C633.79 33.975 633.654 33.3567 633.951 32.8911L635.637 33.967ZM625.877 47.0259C626.122 46.531 626.722 46.3286 627.217 46.5737C627.712 46.8189 627.914 47.4188 627.669 47.9137L625.877 47.0259ZM621.95 62.7002C621.813 63.235 621.267 63.5569 620.732 63.4191C620.198 63.2814 619.876 62.7361 620.014 62.2013L621.95 62.7002ZM619.205 78.6829C619.089 78.1429 619.433 77.6112 619.973 77.4955C620.513 77.3797 621.045 77.7236 621.161 78.2636L619.205 78.6829ZM628.945 91.4452C629.349 91.822 629.371 92.4548 628.994 92.8585C628.617 93.2623 627.984 93.2842 627.581 92.9074L628.945 91.4452ZM641.231 101.979C640.74 101.727 640.546 101.124 640.798 100.633C641.05 100.141 641.652 99.9472 642.144 100.199L641.231 101.979ZM656.774 106.981C657.278 107.207 657.503 107.799 657.278 108.303C657.052 108.807 656.46 109.032 655.956 108.806L656.774 106.981ZM670.372 115.909C669.893 115.634 669.728 115.023 670.003 114.544C670.279 114.065 670.89 113.9 671.369 114.175L670.372 115.909ZM684.383 124.166C684.756 124.573 684.727 125.206 684.319 125.578C683.912 125.951 683.279 125.922 682.906 125.515L684.383 124.166ZM690.152 139.152C690.029 138.613 690.365 138.077 690.904 137.953C691.442 137.83 691.978 138.166 692.102 138.704L690.152 139.152ZM692.079 155.184C691.946 155.72 691.404 156.046 690.868 155.913C690.332 155.78 690.005 155.237 690.139 154.701L692.079 155.184ZM681.639 166.637C682.107 166.345 682.724 166.488 683.016 166.957C683.308 167.426 683.165 168.042 682.696 168.334L681.639 166.637ZM667.231 173.04C666.681 173.098 666.189 172.701 666.13 172.152C666.071 171.603 666.469 171.11 667.018 171.051L667.231 173.04ZM651.306 171.18C651.857 171.216 652.275 171.692 652.238 172.243C652.202 172.794 651.726 173.212 651.175 173.176L651.306 171.18ZM635.335 171.44C634.788 171.361 634.409 170.854 634.488 170.307C634.567 169.76 635.074 169.381 635.621 169.46L635.335 171.44ZM619.991 166.861C620.534 166.96 620.894 167.482 620.794 168.025C620.695 168.568 620.174 168.928 619.63 168.828L619.991 166.861ZM604.018 165.817C603.477 165.709 603.125 165.182 603.233 164.641C603.341 164.099 603.867 163.747 604.409 163.855L604.018 165.817ZM588.833 160.735C589.374 160.843 589.726 161.369 589.618 161.911C589.511 162.452 588.984 162.804 588.442 162.696L588.833 160.735ZM572.862 159.688C572.319 159.587 571.96 159.065 572.061 158.522C572.161 157.979 572.683 157.62 573.226 157.721L572.862 159.688ZM557.556 155.02C558.101 155.106 558.474 155.618 558.388 156.163C558.302 156.709 557.79 157.081 557.245 156.996L557.556 155.02ZM541.552 154.845C541.004 154.782 540.61 154.287 540.672 153.738C540.735 153.189 541.23 152.795 541.779 152.857L541.552 154.845ZM525.89 151.526C526.442 151.553 526.867 152.022 526.839 152.574C526.812 153.126 526.342 153.551 525.791 153.523L525.89 151.526ZM510.012 153.433C509.461 153.457 508.993 153.03 508.969 152.478C508.944 151.926 509.372 151.459 509.923 151.435L510.012 153.433ZM494.026 153.196C494.569 153.094 495.091 153.452 495.193 153.994C495.295 154.537 494.938 155.06 494.395 155.162L494.026 153.196ZM478.892 159.739C478.382 159.951 477.797 159.71 477.585 159.2C477.372 158.691 477.613 158.105 478.123 157.893L478.892 159.739ZM463.066 166.022C463.527 165.717 464.147 165.842 464.453 166.302C464.758 166.762 464.633 167.383 464.173 167.688L463.066 166.022ZM450.866 177.952C450.45 178.315 449.819 178.273 449.455 177.857C449.092 177.441 449.134 176.809 449.55 176.446L450.866 177.952ZM437.225 188.185C437.611 187.79 438.244 187.784 438.639 188.17C439.033 188.556 439.04 189.19 438.654 189.584L437.225 188.185ZM427.055 201.9C426.682 202.306 426.049 202.333 425.642 201.96C425.235 201.586 425.209 200.954 425.582 200.547L427.055 201.9ZM414.108 213.012C414.485 212.608 415.118 212.587 415.521 212.965C415.925 213.342 415.946 213.975 415.568 214.378L414.108 213.012ZM403.675 226.528C403.277 226.911 402.644 226.898 402.261 226.5C401.878 226.102 401.891 225.469 402.289 225.086L403.675 226.528ZM389.605 236.154C390.041 235.816 390.67 235.895 391.008 236.332C391.346 236.768 391.267 237.397 390.83 237.735L389.605 236.154ZM376.525 247.093C376.037 247.352 375.431 247.166 375.173 246.678C374.914 246.19 375.099 245.585 375.587 245.326L376.525 247.093ZM360.075 251.433C360.61 251.294 361.155 251.615 361.294 252.149C361.433 252.684 361.112 253.23 360.577 253.369L360.075 251.433ZM343.907 255.643C343.355 255.66 342.894 255.227 342.876 254.675C342.859 254.123 343.293 253.661 343.845 253.644L343.907 255.643ZM327.84 252.532C328.384 252.626 328.749 253.144 328.654 253.688C328.559 254.233 328.042 254.597 327.498 254.502L327.84 252.532ZM311.666 250.059C311.152 249.858 310.897 249.279 311.098 248.764C311.298 248.249 311.878 247.995 312.393 248.195L311.666 250.059ZM297.969 241.071C298.443 241.355 298.597 241.969 298.314 242.443C298.03 242.917 297.416 243.071 296.942 242.788L297.969 241.071ZM283.463 233.471C283.028 233.13 282.951 232.502 283.291 232.067C283.631 231.632 284.26 231.555 284.695 231.895L283.463 233.471ZM272.412 221.355C272.817 221.731 272.84 222.364 272.464 222.769C272.088 223.173 271.456 223.197 271.051 222.821L272.412 221.355ZM259.412 211.371C259.027 210.975 259.037 210.342 259.434 209.957C259.83 209.573 260.463 209.583 260.848 209.979L259.412 211.371ZM249.705 198.152C250.08 198.558 250.055 199.191 249.649 199.565C249.243 199.94 248.61 199.915 248.236 199.509L249.705 198.152ZM237.219 187.531C236.844 187.126 236.869 186.493 237.274 186.118C237.68 185.743 238.313 185.768 238.688 186.174L237.219 187.531ZM227.497 174.319C227.882 174.715 227.873 175.348 227.477 175.733C227.082 176.118 226.448 176.11 226.063 175.714L227.497 174.319ZM214.471 164.367C214.065 163.993 214.04 163.36 214.414 162.954C214.789 162.548 215.421 162.523 215.827 162.897L214.471 164.367ZM203.357 152.311C203.795 152.648 203.876 153.276 203.539 153.713C203.202 154.151 202.574 154.232 202.137 153.895L203.357 152.311ZM188.778 144.859C188.3 144.582 188.137 143.97 188.414 143.493C188.691 143.015 189.303 142.852 189.781 143.129L188.778 144.859ZM174.925 136.121C175.444 136.31 175.711 136.884 175.523 137.403C175.334 137.922 174.76 138.19 174.241 138.001L174.925 136.121ZM158.69 134.093C158.144 134.016 157.763 133.51 157.84 132.963C157.917 132.416 158.423 132.036 158.97 132.113L158.69 134.093ZM142.527 131.55C143.078 131.512 143.556 131.928 143.594 132.479C143.632 133.03 143.216 133.508 142.665 133.546L142.527 131.55ZM127.273 135.963C126.736 136.088 126.198 135.754 126.073 135.216C125.948 134.678 126.282 134.14 126.82 134.015L127.273 135.963ZM112.08 138.276C112.603 138.097 113.171 138.377 113.349 138.899C113.528 139.422 113.248 139.99 112.726 140.169L112.08 138.276ZM98.5787 145.607C98.0704 145.823 97.4832 145.586 97.2672 145.078C97.0511 144.569 97.2881 143.982 97.7963 143.766L98.5787 145.607ZM83.8995 150.16C84.3948 149.916 84.9944 150.119 85.2388 150.615C85.4832 151.11 85.2798 151.71 84.7845 151.954L83.8995 150.16ZM71.3187 158.995C70.835 159.262 70.2268 159.086 69.9602 158.602C69.6936 158.118 69.8696 157.51 70.3533 157.244L71.3187 158.995ZM57.1183 164.877C57.5916 164.592 58.2061 164.745 58.4907 165.218C58.7754 165.691 58.6225 166.306 58.1492 166.591L57.1183 164.877ZM45.2469 174.648C44.7833 174.948 44.1641 174.815 43.8641 174.351C43.5642 173.887 43.6969 173.268 44.1606 172.968L45.2469 174.648ZM31.4751 181.445C31.9298 181.131 32.5526 181.246 32.866 181.701C33.1794 182.155 33.0649 182.778 32.6102 183.091L31.4751 181.445ZM20.1915 191.911C19.7457 192.237 19.12 192.14 18.794 191.694C18.468 191.248 18.5651 190.622 19.0109 190.296L20.1915 191.911ZM6.80762 199.497C7.24329 199.158 7.87164 199.236 8.211 199.672C8.55035 200.108 8.47229 200.736 8.03656 201.075L6.80762 199.497ZM659.77 1.64019C657.952 3.82213 656.207 5.95324 654.533 8.03495L652.975 6.78174C654.656 4.69048 656.409 2.55031 658.234 0.359808L659.77 1.64019ZM644.728 20.7613C641.29 25.4461 638.27 29.8406 635.637 33.967L633.951 32.8911C636.61 28.7234 639.655 24.293 643.116 19.5779L644.728 20.7613ZM627.669 47.9137C624.941 53.4207 623.079 58.32 621.95 62.7002L620.014 62.2013C621.184 57.6585 623.102 52.6279 625.877 47.0259L627.669 47.9137ZM621.161 78.2636C622.302 83.5888 625.077 87.8354 628.945 91.4452L627.581 92.9074C623.476 89.0768 620.449 84.4839 619.205 78.6829L621.161 78.2636ZM642.144 100.199C646.765 102.569 651.751 104.731 656.774 106.981L655.956 108.806C650.968 106.571 645.913 104.379 641.231 101.979L642.144 100.199ZM671.369 114.175C676.266 116.99 680.768 120.209 684.383 124.166L682.906 125.515C679.48 121.764 675.167 118.665 670.372 115.909L671.369 114.175ZM692.102 138.704C692.688 141.263 693 144.019 693 147H691C691 144.16 690.703 141.554 690.152 139.152L692.102 138.704ZM693 147C693 150.013 692.689 152.735 692.079 155.184L690.139 154.701C690.703 152.434 691 149.877 691 147H693ZM682.696 168.334C678.532 170.928 673.282 172.392 667.231 173.04L667.018 171.051C672.895 170.422 677.82 169.015 681.639 166.637L682.696 168.334ZM651.175 173.176C646.193 172.849 640.888 172.242 635.335 171.44L635.621 169.46C641.139 170.258 646.39 170.857 651.306 171.18L651.175 173.176ZM619.63 168.828C614.55 167.896 609.331 166.876 604.018 165.817L604.409 163.855C609.718 164.913 614.926 165.932 619.991 166.861L619.63 168.828ZM588.442 162.696C583.283 161.67 578.078 160.652 572.862 159.688L573.226 157.721C578.454 158.688 583.669 159.707 588.833 160.735L588.442 162.696ZM557.245 156.996C551.972 156.166 546.728 155.434 541.552 154.845L541.779 152.857C546.988 153.451 552.26 154.187 557.556 155.02L557.245 156.996ZM525.791 153.523C520.386 153.254 515.11 153.205 510.012 153.433L509.923 151.435C515.094 151.204 520.433 151.254 525.89 151.526L525.791 153.523ZM494.395 155.162C491.78 155.653 489.238 156.25 486.778 156.961L486.222 155.039C488.749 154.309 491.353 153.699 494.026 153.196L494.395 155.162ZM486.778 156.961C484.079 157.74 481.453 158.672 478.892 159.739L478.123 157.893C480.751 156.798 483.448 155.841 486.222 155.039L486.778 156.961ZM464.173 167.688C459.565 170.747 455.15 174.209 450.866 177.952L449.55 176.446C453.886 172.658 458.371 169.139 463.066 166.022L464.173 167.688ZM438.654 189.584C434.734 193.586 430.887 197.727 427.055 201.9L425.582 200.547C429.418 196.37 433.282 192.21 437.225 188.185L438.654 189.584ZM415.568 214.378C411.662 218.554 407.715 222.645 403.675 226.528L402.289 225.086C406.293 221.237 410.214 217.175 414.108 213.012L415.568 214.378ZM390.83 237.735C386.261 241.276 381.515 244.445 376.525 247.093L375.587 245.326C380.458 242.742 385.108 239.639 389.605 236.154L390.83 237.735ZM360.577 253.369C357.837 254.08 355.022 254.627 352.125 254.992L351.875 253.008C354.686 252.653 357.416 252.123 360.075 251.433L360.577 253.369ZM352.125 254.992C349.332 255.344 346.593 255.559 343.907 255.643L343.845 253.644C346.467 253.562 349.143 253.352 351.875 253.008L352.125 254.992ZM327.498 254.502C322.001 253.546 316.735 252.035 311.666 250.059L312.393 248.195C317.346 250.126 322.483 251.6 327.84 252.532L327.498 254.502ZM296.942 242.788C292.304 240.014 287.822 236.879 283.463 233.471L284.695 231.895C288.999 235.261 293.412 238.347 297.969 241.071L296.942 242.788ZM271.051 222.821C267.103 219.153 263.233 215.311 259.412 211.371L260.848 209.979C264.651 213.902 268.496 217.717 272.412 221.355L271.051 222.821ZM248.236 199.509C244.535 195.5 240.91 191.526 237.219 187.531L238.688 186.174C242.346 190.134 246.048 194.191 249.705 198.152L248.236 199.509ZM226.063 175.714C222.247 171.791 218.393 167.985 214.471 164.367L215.827 162.897C219.783 166.545 223.663 170.378 227.497 174.319L226.063 175.714ZM202.137 153.895C197.803 150.557 193.362 147.517 188.778 144.859L189.781 143.129C194.452 145.837 198.966 148.928 203.357 152.311L202.137 153.895ZM174.241 138.001C169.256 136.187 164.085 134.854 158.69 134.093L158.97 132.113C164.511 132.895 169.817 134.262 174.925 136.121L174.241 138.001ZM142.665 133.546C140.053 133.726 137.387 134.037 134.665 134.487L134.339 132.513C137.122 132.054 139.851 131.735 142.527 131.55L142.665 133.546ZM134.665 134.487C132.23 134.889 129.764 135.384 127.273 135.963L126.82 134.015C129.35 133.427 131.858 132.923 134.339 132.513L134.665 134.487ZM112.726 140.169C108.031 141.769 103.301 143.6 98.5787 145.607L97.7963 143.766C102.558 141.742 107.334 139.894 112.08 138.276L112.726 140.169ZM84.7845 151.954C80.2348 154.199 75.733 156.562 71.3187 158.995L70.3533 157.244C74.7914 154.798 79.32 152.42 83.8995 150.16L84.7845 151.954ZM58.1492 166.591C53.6874 169.274 49.3708 171.98 45.2469 174.648L44.1606 172.968C48.301 170.29 52.6362 167.573 57.1183 164.877L58.1492 166.591ZM32.6102 183.091C28.0601 186.228 23.8898 189.206 20.1915 191.911L19.0109 190.296C22.7227 187.582 26.9081 184.593 31.4751 181.445L32.6102 183.091ZM8.03656 201.075C6.1402 202.552 4.66418 203.728 3.66315 204.533C3.1626 204.935 2.78076 205.246 2.52454 205.455C2.39642 205.559 2.29968 205.639 2.23517 205.692C2.20288 205.718 2.17871 205.738 2.16266 205.751C2.15466 205.758 2.14868 205.763 2.14478 205.766C2.14282 205.768 2.14136 205.769 2.14044 205.77C2.14001 205.77 2.13965 205.77 2.13947 205.77C2.13934 205.77 2.13928 205.77 2.13922 205.771C2.13922 205.771 2.13922 205.771 2.13922 205.771C2.13922 205.771 2.13922 205.771 1.50183 205C0.864441 204.229 0.864502 204.229 0.864502 204.229C0.864563 204.229 0.864563 204.229 0.864624 204.229C0.864685 204.229 0.864807 204.229 0.86499 204.229C0.865295 204.229 0.865723 204.228 0.866333 204.228C0.867432 204.227 0.86908 204.226 0.871277 204.224C0.87561 204.22 0.881958 204.215 0.890442 204.208C0.907288 204.194 0.932312 204.173 0.965454 204.146C1.03162 204.092 1.13013 204.011 1.26001 203.905C1.51984 203.693 1.90527 203.38 2.40961 202.974C3.41827 202.163 4.9024 200.981 6.80762 199.497L8.03656 201.075Z" fill="#540011"/>
</svg>
