<svg width="32" height="33" viewBox="0 0 32 33" fill="none" xmlns="http://www.w3.org/2000/svg">
<path d="M4.6665 10.5H27.3332C27.8636 10.5 28.3723 10.2893 28.7474 9.91421C29.1225 9.53914 29.3332 9.03043 29.3332 8.5C29.3332 7.96957 29.1225 7.46086 28.7474 7.08579C28.3723 6.71071 27.8636 6.5 27.3332 6.5H4.6665C4.13607 6.5 3.62736 6.71071 3.25229 7.08579C2.87722 7.46086 2.6665 7.96957 2.6665 8.5C2.6665 9.03043 2.87722 9.53914 3.25229 9.91421C3.62736 10.2893 4.13607 10.5 4.6665 10.5ZM27.3332 14.5H4.6665C4.13607 14.5 3.62736 14.7107 3.25229 15.0858C2.87722 15.4609 2.6665 15.9696 2.6665 16.5C2.6665 17.0304 2.87722 17.5391 3.25229 17.9142C3.62736 18.2893 4.13607 18.5 4.6665 18.5H27.3332C27.8636 18.5 28.3723 18.2893 28.7474 17.9142C29.1225 17.5391 29.3332 17.0304 29.3332 16.5C29.3332 15.9696 29.1225 15.4609 28.7474 15.0858C28.3723 14.7107 27.8636 14.5 27.3332 14.5ZM27.3332 22.5H4.6665C4.13607 22.5 3.62736 22.7107 3.25229 23.0858C2.87722 23.4609 2.6665 23.9696 2.6665 24.5C2.6665 25.0304 2.87722 25.5391 3.25229 25.9142C3.62736 26.2893 4.13607 26.5 4.6665 26.5H27.3332C27.8636 26.5 28.3723 26.2893 28.7474 25.9142C29.1225 25.5391 29.3332 25.0304 29.3332 24.5C29.3332 23.9696 29.1225 23.4609 28.7474 23.0858C28.3723 22.7107 27.8636 22.5 27.3332 22.5Z" fill="#2B2726"/>
</svg>
