<svg width="56" height="56" viewBox="0 0 56 56" fill="none" xmlns="http://www.w3.org/2000/svg">
<rect width="56" height="56" rx="28" fill="#25D366"/>
<g clip-path="url(#clip0_98_226)">
<path d="M28.0045 12H27.9965C19.1745 12 12.0005 19.176 12.0005 28C12.0005 31.5 13.1285 34.744 15.0465 37.378L13.0525 43.322L19.2025 41.356C21.7325 43.032 24.7505 44 28.0045 44C36.8265 44 44.0005 36.822 44.0005 28C44.0005 19.178 36.8265 12 28.0045 12ZM37.3145 34.594C36.9285 35.684 35.3965 36.588 34.1745 36.852C33.3385 37.03 32.2465 37.172 28.5705 35.648C23.8685 33.7 20.8405 28.922 20.6045 28.612C20.3785 28.302 18.7045 26.082 18.7045 23.786C18.7045 21.49 19.8705 20.372 20.3405 19.892C20.7265 19.498 21.3645 19.318 21.9765 19.318C22.1745 19.318 22.3525 19.328 22.5125 19.336C22.9825 19.356 23.2185 19.384 23.5285 20.126C23.9145 21.056 24.8545 23.352 24.9665 23.588C25.0805 23.824 25.1945 24.144 25.0345 24.454C24.8845 24.774 24.7525 24.916 24.5165 25.188C24.2805 25.46 24.0565 25.668 23.8205 25.96C23.6045 26.214 23.3605 26.486 23.6325 26.956C23.9045 27.416 24.8445 28.95 26.2285 30.182C28.0145 31.772 29.4625 32.28 29.9805 32.496C30.3665 32.656 30.8265 32.618 31.1085 32.318C31.4665 31.932 31.9085 31.292 32.3585 30.662C32.6785 30.21 33.0825 30.154 33.5065 30.314C33.9385 30.464 36.2245 31.594 36.6945 31.828C37.1645 32.064 37.4745 32.176 37.5885 32.374C37.7005 32.572 37.7005 33.502 37.3145 34.594Z" fill="white"/>
</g>
<defs>
<clipPath id="clip0_98_226">
<rect width="32" height="32" fill="white" transform="translate(12 12)"/>
</clipPath>
</defs>
</svg>
