<svg width="32" height="32" viewBox="0 0 32 32" fill="none" xmlns="http://www.w3.org/2000/svg">
<g clip-path="url(#clip0_130_1315)">
<path d="M3.03345 31.7996C2.24893 31.8453 1.47736 31.5844 0.881422 31.0722C-0.293807 29.89 -0.293807 27.9806 0.881422 26.7984L26.6151 1.06461C27.8374 -0.0791771 29.7555 -0.0155946 30.8993 1.20675C31.9336 2.31211 31.9939 4.01107 31.0404 5.1869L5.15513 31.0722C4.56694 31.5771 3.80768 31.8374 3.03345 31.7996Z" fill="#262626"/>
<path d="M28.7367 31.7996C27.9416 31.7962 27.1796 31.4806 26.6149 30.9206L0.881177 5.18674C-0.207612 3.91529 -0.0595851 2.00182 1.21187 0.912936C2.34667 -0.0588692 4.02028 -0.0588692 5.15498 0.912936L31.0403 26.6467C32.2623 27.7908 32.3255 29.709 31.1814 30.931C31.1359 30.9796 31.0889 31.0266 31.0403 31.0721C30.7267 31.3448 30.3604 31.5501 29.9641 31.6752C29.5678 31.8004 29.1501 31.8427 28.7367 31.7996Z" fill="#262626"/>
</g>
<defs>
<clipPath id="clip0_130_1315">
<rect width="32" height="32" fill="white"/>
</clipPath>
</defs>
</svg>
