<svg width="32" height="20" viewBox="0 0 32 20" fill="none" xmlns="http://www.w3.org/2000/svg">
<path d="M10 14.1834C8.447 14.1834 7.18842 15.4415 7.18842 16.9947C7.18842 18.548 8.447 19.8061 10 19.8061C11.5536 19.8061 12.8119 18.548 12.8119 16.9947C12.8119 15.4415 11.5536 14.1834 10 14.1834ZM10 18.2169C9.32491 18.2169 8.77786 17.6698 8.77786 16.9947C8.77786 16.3193 9.32491 15.7725 10 15.7725C10.6752 15.7725 11.2226 16.3193 11.2226 16.9947C11.2226 17.6698 10.6752 18.2169 10 18.2169ZM24.826 14.1834C23.273 14.1834 22.0145 15.4415 22.0145 16.9947C22.0145 18.548 23.273 19.8061 24.826 19.8061C26.3797 19.8061 27.6379 18.548 27.6379 16.9947C27.6379 15.4415 26.3797 14.1834 24.826 14.1834ZM24.826 18.2169C24.1509 18.2169 23.604 17.6698 23.604 16.9947C23.604 16.3193 24.1509 15.7725 24.826 15.7725C25.5013 15.7725 26.0488 16.3193 26.0488 16.9947C26.0488 17.6698 25.5013 18.2169 24.826 18.2169ZM13.1631 5.54485C13.1631 5.93881 12.8407 6.26111 12.4468 6.26111H2.56286C2.1689 6.26111 1.84668 5.93881 1.84668 5.54485V5.1151C1.84668 4.72122 2.16897 4.39893 2.56286 4.39893H12.4468C12.8408 4.39893 13.1631 4.72122 13.1631 5.1151V5.54485Z" fill="white"/>
<path d="M30.3356 9.73839C29.3047 9.47038 28.7148 9.30188 28.31 8.52009L26.9564 5.77945C26.5514 4.99767 25.4996 4.35795 24.6194 4.35795H22.768C22.768 4.35795 22.519 4.36315 22.519 4.11252V1.81397C22.519 0.922924 22.0147 0.193848 20.9421 0.193848H5.85334C4.3177 0.193848 3.58862 0.923003 3.58862 1.81397V3.25443C3.58862 3.25443 3.58862 3.68284 4.00327 3.68284H12.447C13.2369 3.68284 13.8796 4.32539 13.8796 5.11527V5.54502C13.8796 6.33491 13.2369 6.97745 12.447 6.97745H4.00327C4.00327 6.97745 3.58862 6.943 3.58862 7.39061V7.88597C3.58862 8.27993 4.12859 8.27969 4.12859 8.27969H9.81252C10.6024 8.27969 11.245 8.92231 11.245 9.71212V10.1419C11.245 10.9318 10.6024 11.5743 9.81252 11.5743H4.21827C4.21827 11.5743 3.58862 11.5627 3.58862 12.064V15.5447C3.58862 16.4356 4.3177 17.1648 5.20875 17.1648H6.10365C6.30661 17.1648 6.33651 17.0517 6.33651 16.9949C6.33651 14.9749 7.98015 13.3316 10.0003 13.3316C12.0206 13.3316 13.6642 14.975 13.6642 16.9949C13.6642 17.052 13.648 17.1648 13.8032 17.1648H21.0252C21.1684 17.1648 21.1625 17.0441 21.1625 16.9949C21.1625 14.9749 22.8061 13.3316 24.8263 13.3316C26.8465 13.3316 28.4901 14.975 28.4901 16.9949C28.4901 17.052 28.4887 17.1648 28.5783 17.1648H30.3991C31.2798 17.1648 32.0001 16.4444 32.0001 15.5638V12.5223C32.0002 9.96086 31.1914 9.96086 30.3356 9.73839ZM27.2891 9.59593H22.7322C22.5439 9.59593 22.5189 9.41264 22.5189 9.41264V5.61661C22.5189 5.61661 22.5083 5.47084 22.75 5.47084H24.0503C24.8337 5.47084 25.7695 6.04007 26.1297 6.73571L27.3343 9.17436C27.3814 9.26645 27.4359 9.35456 27.4973 9.43781C27.5401 9.49508 27.4683 9.59593 27.2891 9.59593Z" fill="white"/>
<path d="M10.5285 10.142C10.5285 10.536 10.2062 10.8583 9.81233 10.8583H0.716175C0.322216 10.8583 0 10.536 0 10.142V9.71227C0 9.31839 0.322295 8.99609 0.716175 8.99609H9.81233C10.2063 8.99609 10.5285 9.31839 10.5285 9.71227V10.142Z" fill="white"/>
</svg>
