<svg width="56" height="56" viewBox="0 0 56 56" fill="none" xmlns="http://www.w3.org/2000/svg">
<g clip-path="url(#clip0_97_92)">
<path d="M56 28C56 41.9759 45.7603 53.5598 32.375 55.6598V36.0937H38.8992L40.1406 28H32.375V22.7478C32.375 20.533 33.46 18.375 36.9381 18.375H40.4688V11.4844C40.4688 11.4844 37.2641 10.9375 34.2005 10.9375C27.8053 10.9375 23.625 14.8137 23.625 21.8312V28H16.5156V36.0937H23.625V55.6598C10.2397 53.5598 0 41.9759 0 28C0 12.5366 12.5366 0 28 0C43.4634 0 56 12.5366 56 28Z" fill="#1877F2"/>
<path d="M38.8992 36.0938L40.1406 28H32.375V22.7477C32.375 20.5334 33.4598 18.375 36.938 18.375H40.4688V11.4844C40.4688 11.4844 37.2645 10.9375 34.201 10.9375C27.8052 10.9375 23.625 14.8138 23.625 21.8313V28H16.5156V36.0938H23.625V55.6597C25.0506 55.8834 26.5116 56 28 56C29.4884 56 30.9494 55.8834 32.375 55.6597V36.0938H38.8992Z" fill="white"/>
</g>
<defs>
<clipPath id="clip0_97_92">
<rect width="56" height="56" fill="white"/>
</clipPath>
</defs>
</svg>
