<svg width="56" height="56" viewBox="0 0 56 56" fill="none" xmlns="http://www.w3.org/2000/svg">
<g clip-path="url(#clip0_97_105)">
<path d="M28 56C12.5384 56 0 43.4616 0 28C0 12.5384 12.5384 0 28 0C43.4616 0 56 12.5384 56 28C56 43.4616 43.4616 56 28 56Z" fill="url(#paint0_linear_97_105)"/>
<path d="M28 12.3312C33.1016 12.3312 33.7064 12.348 35.7224 12.4432C37.5872 12.5272 38.6008 12.8408 39.2728 13.104C40.1632 13.4512 40.8016 13.8656 41.468 14.532C42.1344 15.1984 42.5488 15.8368 42.896 16.7272C43.1592 17.3992 43.4672 18.4128 43.5568 20.2776C43.6464 22.2936 43.6688 22.8984 43.6688 28C43.6688 33.1016 43.652 33.7064 43.5568 35.7224C43.4728 37.5872 43.1592 38.6008 42.896 39.2728C42.5488 40.1632 42.1344 40.8016 41.468 41.468C40.8016 42.1344 40.1632 42.5488 39.2728 42.896C38.6008 43.1592 37.5872 43.4672 35.7224 43.5568C33.7064 43.6464 33.1016 43.6688 28 43.6688C22.8984 43.6688 22.2936 43.652 20.2776 43.5568C18.4128 43.4728 17.3992 43.1592 16.7272 42.896C15.8368 42.5488 15.1984 42.1344 14.532 41.468C13.8656 40.8016 13.4512 40.1632 13.104 39.2728C12.8408 38.6008 12.5328 37.5872 12.4432 35.7224C12.3536 33.7064 12.3312 33.1016 12.3312 28C12.3312 22.8984 12.348 22.2936 12.4432 20.2776C12.5272 18.4128 12.8408 17.3992 13.104 16.7272C13.4512 15.8368 13.8656 15.1984 14.532 14.532C15.1984 13.8656 15.8368 13.4512 16.7272 13.104C17.3992 12.8408 18.4128 12.5328 20.2776 12.4432C22.2936 12.348 22.8984 12.3312 28 12.3312ZM28 8.88721C22.8088 8.88721 22.1592 8.90961 20.1208 9.00481C18.088 9.10001 16.6992 9.41921 15.4784 9.89521C14.224 10.3768 13.1544 11.032 12.096 12.096C11.032 13.16 10.3824 14.224 9.88959 15.484C9.41919 16.6992 9.09439 18.088 8.99919 20.1264C8.90399 22.1648 8.88159 22.8144 8.88159 28.0056C8.88159 33.1968 8.90399 33.8464 8.99919 35.8848C9.09439 37.9176 9.41359 39.3064 9.88959 40.5272C10.3768 41.776 11.032 42.8456 12.096 43.904C13.16 44.968 14.224 45.6176 15.484 46.1104C16.6992 46.5808 18.088 46.9056 20.1264 47.0008C22.1648 47.096 22.8144 47.1184 28.0056 47.1184C33.1968 47.1184 33.8464 47.096 35.8848 47.0008C37.9176 46.9056 39.3064 46.5864 40.5272 46.1104C41.776 45.6232 42.8456 44.968 43.904 43.904C44.968 42.84 45.6176 41.776 46.1104 40.516C46.5808 39.3008 46.9056 37.912 47.0008 35.8736C47.096 33.8352 47.1184 33.1856 47.1184 27.9944C47.1184 22.8032 47.096 22.1536 47.0008 20.1152C46.9056 18.0824 46.5864 16.6936 46.1104 15.4728C45.6232 14.224 44.968 13.1544 43.904 12.096C42.84 11.032 41.776 10.3824 40.516 9.88961C39.3008 9.41921 37.912 9.09441 35.8736 8.99921C33.8408 8.90961 33.1912 8.88721 28 8.88721Z" fill="white"/>
<path d="M27.9999 18.1832C22.5791 18.1832 18.1831 22.5792 18.1831 28C18.1831 33.4208 22.5791 37.8168 27.9999 37.8168C33.4207 37.8168 37.8167 33.4208 37.8167 28C37.8167 22.5792 33.4207 18.1832 27.9999 18.1832ZM27.9999 34.3728C24.4831 34.3728 21.6271 31.5224 21.6271 28C21.6271 24.4776 24.4831 21.6272 27.9999 21.6272C31.5167 21.6272 34.3727 24.4776 34.3727 28C34.3727 31.5224 31.5167 34.3728 27.9999 34.3728Z" fill="white"/>
<path d="M38.2032 20.0928C39.4713 20.0928 40.4992 19.0648 40.4992 17.7968C40.4992 16.5287 39.4713 15.5008 38.2032 15.5008C36.9352 15.5008 35.9072 16.5287 35.9072 17.7968C35.9072 19.0648 36.9352 20.0928 38.2032 20.0928Z" fill="white"/>
</g>
<defs>
<linearGradient id="paint0_linear_97_105" x1="8.20103" y1="47.799" x2="47.799" y2="8.20103" gradientUnits="userSpaceOnUse">
<stop stop-color="#FFD521"/>
<stop offset="0.055" stop-color="#FFD020"/>
<stop offset="0.124" stop-color="#FEC01E"/>
<stop offset="0.2" stop-color="#FCA71B"/>
<stop offset="0.282" stop-color="#FA8316"/>
<stop offset="0.368" stop-color="#F85510"/>
<stop offset="0.456" stop-color="#F51E09"/>
<stop offset="0.5" stop-color="#F30005"/>
<stop offset="0.503" stop-color="#F20007"/>
<stop offset="0.597" stop-color="#E1003B"/>
<stop offset="0.688" stop-color="#D30067"/>
<stop offset="0.776" stop-color="#C70088"/>
<stop offset="0.859" stop-color="#BF00A0"/>
<stop offset="0.936" stop-color="#BB00AF"/>
<stop offset="1" stop-color="#B900B4"/>
</linearGradient>
<clipPath id="clip0_97_105">
<rect width="56" height="56" fill="white"/>
</clipPath>
</defs>
</svg>
