<svg width="56" height="56" viewBox="0 0 56 56" fill="none" xmlns="http://www.w3.org/2000/svg">
<path fill-rule="evenodd" clip-rule="evenodd" d="M0 28C0 43.4616 12.5384 56 28 56C43.4616 56 56 43.4616 56 28C56 12.5384 43.4616 0 28 0C12.5384 0 0 12.5384 0 28ZM27.9967 12H28.0047C36.8267 12 44.0007 19.178 44.0007 28C44.0007 36.822 36.8267 44 28.0047 44C24.7507 44 21.7327 43.032 19.2027 41.356L13.0527 43.322L15.0467 37.378C13.1287 34.744 12.0007 31.5 12.0007 28C12.0007 19.176 19.1747 12 27.9967 12ZM34.1747 36.852C35.3967 36.588 36.9287 35.684 37.3147 34.594C37.7007 33.502 37.7007 32.572 37.5887 32.374C37.4983 32.2169 37.2844 32.1139 36.9652 31.9602C36.8821 31.9202 36.7918 31.8768 36.6947 31.828C36.2247 31.594 33.9387 30.464 33.5067 30.314C33.0827 30.154 32.6787 30.21 32.3587 30.662C32.2979 30.7472 32.2371 30.8327 32.1767 30.9176C31.7907 31.4605 31.4183 31.9842 31.1087 32.318C30.8267 32.618 30.3667 32.656 29.9807 32.496C29.9386 32.4785 29.8904 32.459 29.8364 32.4371C29.2252 32.1903 27.8696 31.6428 26.2287 30.182C24.8447 28.95 23.9047 27.416 23.6327 26.956C23.3657 26.4945 23.596 26.224 23.8089 25.9739L23.8207 25.96C23.958 25.7902 24.0912 25.6488 24.2251 25.5066C24.3214 25.4044 24.418 25.3018 24.5167 25.188C24.5314 25.1711 24.5457 25.1547 24.5596 25.1387C24.7692 24.8977 24.8941 24.7541 25.0347 24.454C25.1947 24.144 25.0807 23.824 24.9667 23.588C24.8883 23.4227 24.4038 22.2471 23.9878 21.2379C23.8098 20.806 23.6444 20.4047 23.5287 20.126C23.2187 19.384 22.9827 19.356 22.5127 19.336C22.4984 19.3353 22.4839 19.3345 22.4692 19.3338C22.3206 19.3263 22.157 19.318 21.9767 19.318C21.3647 19.318 20.7267 19.498 20.3407 19.892C20.3272 19.9058 20.3132 19.9201 20.2986 19.9349C19.8048 20.4371 18.7047 21.5559 18.7047 23.786C18.7047 26.0204 20.2901 28.1829 20.5835 28.583C20.5916 28.594 20.5987 28.6037 20.6047 28.612C20.6224 28.6352 20.6557 28.6834 20.7041 28.7535C21.303 29.6209 24.2204 33.8457 28.5707 35.648C32.2467 37.172 33.3387 37.03 34.1747 36.852Z" fill="white"/>
</svg>
