<svg width="56" height="56" viewBox="0 0 56 56" fill="none" xmlns="http://www.w3.org/2000/svg">
<rect width="56" height="56" rx="28" fill="#25D366"/>
<g clip-path="url(#clip0_31_186)">
<path fill-rule="evenodd" clip-rule="evenodd" d="M31.8202 29.8706C31.2146 30.1181 30.8277 31.0662 30.4352 31.5506C30.2339 31.7987 29.9939 31.8375 29.6846 31.7131C27.4114 30.8075 25.6689 29.2906 24.4146 27.1987C24.2021 26.8744 24.2402 26.6181 24.4964 26.3169C24.8752 25.8706 25.3514 25.3637 25.4539 24.7625C25.6814 23.4325 23.9427 19.3069 21.6464 21.1763C15.0389 26.5606 32.6689 40.8413 35.8508 33.1175C36.7508 30.9281 32.8239 29.4594 31.8202 29.8706ZM28.0002 41.205C25.6633 41.205 23.3639 40.5837 21.3508 39.4075C21.0277 39.2181 20.6371 39.1681 20.2758 39.2663L15.9014 40.4669L17.4252 37.11C17.5271 36.8859 17.5679 36.6388 17.5436 36.3938C17.5192 36.1488 17.4305 35.9146 17.2864 35.715C15.6564 33.4556 14.7946 30.7881 14.7946 28C14.7946 20.7181 20.7183 14.7944 28.0002 14.7944C35.2821 14.7944 41.2052 20.7181 41.2052 28C41.2052 35.2812 35.2814 41.205 28.0002 41.205ZM28.0002 12C19.1777 12 12.0002 19.1775 12.0002 28C12.0002 31.1038 12.8814 34.0844 14.5558 36.6712L12.1252 42.0244C12.0153 42.2662 11.9766 42.5342 12.0136 42.7972C12.0506 43.0602 12.1617 43.3072 12.3339 43.5094C12.4653 43.6631 12.6284 43.7866 12.812 43.8713C12.9957 43.956 13.1955 43.9999 13.3977 44C14.2989 44 19.2133 42.4556 20.4639 42.1125C22.7758 43.3494 25.3689 44 28.0002 44C36.8221 44 44.0002 36.8219 44.0002 28C44.0002 19.1775 36.8221 12 28.0002 12Z" fill="white"/>
</g>
<defs>
<clipPath id="clip0_31_186">
<rect width="32" height="32" fill="white" transform="translate(12 12)"/>
</clipPath>
</defs>
</svg>
