<svg width="564" height="97" fill="none" xmlns="http://www.w3.org/2000/svg"><path opacity=".15" d="M.187 80.418a1 1 0 0 0 1.626 1.164L.187 80.418ZM111 16.5l-.11-.994.11.994Zm129 46 .045-.999-.045.999ZM407.5 2l-.099.995L407.5 2Zm152.789 94.478a1 1 0 0 0 1.189-.767l1.897-8.798a1 1 0 0 0-1.956-.422l-1.686 7.82-7.82-1.686a1 1 0 1 0-.422 1.956l8.798 1.897ZM6.713 74.973a1 1 0 1 0-1.584-1.22l1.584 1.22Zm9.072-13.94a1 1 0 1 0 1.474 1.352l-1.474-1.352Zm13.166-10.14a1 1 0 1 0-1.321-1.502l1.32 1.502ZM40.76 39.2a1 1 0 1 0 1.123 1.655L40.761 39.2Zm15.241-6.624a1 1 0 1 0-.895-1.788l.895 1.788Zm14.41-8.27a1 1 0 0 0 .666 1.885l-.665-1.886ZM86.817 21.6a1 1 0 1 0-.46-1.947l.46 1.947Zm15.844-5.036a1 1 0 1 0 .291 1.979l-.291-1.979Zm17.056.448a1.001 1.001 0 0 0 .001-2l-.001 2Zm17.508.096a1 1 0 1 0-.47 1.944l.47-1.944Zm15.743 7.72a1 1 0 1 0 .842-1.814l-.842 1.814Zm16.257 6.556a1 1 0 1 0-1.035 1.711l1.035-1.71Zm13.729 10.964a1 1 0 1 0 1.063-1.694l-1.063 1.694Zm16.032 7.107a1 1 0 1 0-.939 1.765l.939-1.765Zm15.101 8.935a1 1 0 0 0 .669-1.885l-.669 1.885Zm17.37 2.294a1 1 0 1 0-.29 1.979l.29-1.979Zm16.174 2.865a1 1 0 1 0-.065-2l.065 2Zm14.829-3.68a1 1 0 1 0 .383 1.962l-.383-1.963Zm15.126-2.111a1 1 0 1 0-.672-1.884l.672 1.883Zm13.132-7.83a1 1 0 0 0 .896 1.788l-.896-1.788Zm14.21-5.633a1 1 0 1 0-1.038-1.709l1.038 1.71Zm11.706-9.856a1 1 0 0 0 1.104 1.667l-1.104-1.667Zm13.731-6.728a1 1 0 0 0-1.099-1.671l1.099 1.67Zm11.77-9.778a1 1 0 1 0 1.02 1.72l-1.02-1.72Zm14.291-5.419a1 1 0 1 0-.86-1.806l.86 1.806Zm13.328-7.486a1 1 0 1 0 .612 1.904l-.612-1.905Zm15.194-1.532a1 1 0 1 0-.296-1.978l.296 1.978ZM399.935.544a1 1 0 1 0-.04 2l.04-2Zm15.177 3.318a1 1 0 0 0 .249-1.985l-.249 1.985Zm15.677.392a1 1 0 1 0-.363 1.966l.363-1.966Zm14.759 5.27a1 1 0 0 0 .494-1.938l-.494 1.938Zm15.473 2.482a1 1 0 1 0-.64 1.894l.64-1.894Zm13.79 7.456a1 1 0 0 0 .8-1.834l-.8 1.834Zm14.837 5.053a1 1 0 0 0-.963 1.753l.963-1.753Zm12.221 9.81a1 1 0 1 0 1.121-1.656l-1.121 1.656Zm13.653 7.694a1 1 0 1 0-1.267 1.547l1.267-1.547Zm10.265 11.852a1 1 0 0 0 1.394-1.434l-1.394 1.434Zm12.16 9.88a1 1 0 1 0-1.499 1.323l1.499-1.324Zm8.339 13.273a1 1 0 1 0 1.585-1.22l-1.585 1.22Zm10.737 11.424a1 1 0 1 0-1.652 1.127l1.652-1.127ZM1.813 81.582a232.23 232.23 0 0 1 4.9-6.609l-1.584-1.22a234.153 234.153 0 0 0-4.942 6.665l1.626 1.164ZM17.26 62.385c3.806-4.15 7.693-7.975 11.692-11.492l-1.321-1.502c-4.056 3.568-7.994 7.443-11.845 11.642l1.474 1.352Zm24.625-21.53a123.668 123.668 0 0 1 14.118-8.279l-.895-1.788A125.65 125.65 0 0 0 40.76 39.2l1.123 1.655ZM71.078 26.19c5.022-1.77 10.257-3.296 15.738-4.59l-.46-1.947c-5.545 1.31-10.85 2.855-15.943 4.652l.665 1.886Zm31.873-7.648c2.664-.392 5.383-.74 8.159-1.05l-.22-1.987c-2.799.31-5.542.663-8.23 1.058l.291 1.979Zm8.159-1.05a77.565 77.565 0 0 1 8.606-.481l.001-2a79.545 79.545 0 0 0-8.827.494l.22 1.988Zm25.644 1.559c5.679 1.374 11.037 3.372 16.213 5.776l.842-1.814c-5.27-2.447-10.753-4.495-16.585-5.906l-.47 1.944Zm31.435 14.043c4.931 2.986 9.789 6.133 14.764 9.253l1.063-1.694c-4.94-3.098-9.844-6.275-14.792-9.27l-1.035 1.711Zm29.857 18.125c5.098 2.711 10.404 5.17 16.04 7.17l.669-1.885c-5.522-1.959-10.737-4.374-15.77-7.05l-.939 1.765Zm33.12 11.443c2.839.416 5.765.7 8.789.836l.09-1.998a85.66 85.66 0 0 1-8.589-.817l-.29 1.979Zm8.789.836a99.35 99.35 0 0 0 7.675.05l-.065-2c-2.453.08-4.958.067-7.52-.048l-.09 1.998Zm22.887-1.668c5.119-.998 10.018-2.386 14.743-4.074l-.672-1.883c-4.64 1.657-9.442 3.017-14.454 3.994l.383 1.963Zm28.771-10.115c4.557-2.282 8.979-4.788 13.314-7.42l-1.038-1.71c-4.302 2.612-8.675 5.09-13.172 7.342l.896 1.788Zm26.124-15.61c4.236-2.804 8.408-5.621 12.627-8.395l-1.099-1.671c-4.213 2.77-8.426 5.614-12.632 8.399l1.104 1.667Zm25.417-16.453c4.338-2.572 8.743-4.984 13.271-7.139l-.86-1.806c-4.595 2.188-9.055 4.63-13.431 7.225l1.02 1.72Zm27.211-12.721a91.967 91.967 0 0 1 14.582-3.436l-.296-1.978a93.979 93.979 0 0 0-14.898 3.51l.612 1.904Zm29.53-4.389c2.448.05 4.949.197 7.506.452l.198-1.99a96.796 96.796 0 0 0-7.664-.461l-.04 2Zm7.506.452c2.604.26 5.175.548 7.711.867l.249-1.985a306.5 306.5 0 0 0-7.762-.872l-.198 1.99Zm23.025 3.225a231.006 231.006 0 0 1 15.122 3.304l.494-1.938a233.022 233.022 0 0 0-15.253-3.332l-.363 1.966Zm29.955 7.68a181.677 181.677 0 0 1 14.43 5.562l.8-1.834a183.8 183.8 0 0 0-14.59-5.622l-.64 1.894Zm28.304 12.368a165.86 165.86 0 0 1 13.184 8.057l1.121-1.656a167.825 167.825 0 0 0-13.342-8.154l-.963 1.753Zm25.57 17.298a181.732 181.732 0 0 1 11.532 10.305l1.394-1.434a183.704 183.704 0 0 0-11.659-10.418l-1.267 1.547Zm22.193 21.508a231.413 231.413 0 0 1 9.838 11.95l1.585-1.22a233.523 233.523 0 0 0-9.924-12.054l-1.499 1.324Zm18.923 24.501a306.05 306.05 0 0 1 4.289 6.467l1.68-1.084a307.215 307.215 0 0 0-4.317-6.51l-1.652 1.127Z" fill="#540011"/></svg>