<svg width="681" height="227" fill="none" xmlns="http://www.w3.org/2000/svg"><path opacity=".15" d="M679.052.683a1 1 0 1 1 1.896.634l-1.896-.634ZM483 130.5l.777.63-.777-.63Zm-68 95-.045-.999.045.999Zm-117-158-.04 1 .04-1ZM4.28 146.96a1 1 0 0 1-1.24-.68l-2.52-8.64a1 1 0 0 1 1.92-.56l2.24 7.68 7.68-2.241a1 1 0 0 1 .56 1.92l-8.64 2.521ZM182.5 146l-.259-.966.259.966ZM678.254 9.088a1 1 0 1 1-1.882-.677l1.882.677Zm-7.67 14.231a1 1 0 1 1 1.844.774l-1.844-.774Zm-4.84 15.385a1 1 0 1 1-1.789-.894l1.789.894Zm-9.502 13.081a1 1 0 1 1 1.706 1.044l-1.706-1.044Zm-7.472 14.378a1 1 0 1 1-1.578-1.229l1.578 1.23Zm-12.204 10.599a1 1 0 1 1 1.381 1.446l-1.381-1.446Zm-11.273 11.566a1 1 0 1 1-1.099-1.671l1.099 1.67Zm-15.111 5.687a1 1 0 1 1 .752 1.853l-.752-1.853Zm-14.753 6.561a1 1 0 1 1-.418-1.955l.418 1.955Zm-16.188.336a1 1 0 0 1 .176 1.992l-.176-1.992Zm-15.923 2.862a1 1 0 0 1-.061-1.999l.061 1.999Zm-16.132-1.504a1 1 0 0 1 .086 1.998l-.086-1.998Zm-15.836 3.287a1 1 0 0 1-.264-1.983l.264 1.983Zm-16.111 1.445a1 1 0 0 1 .605 1.906l-.605-1.906Zm-13.771 8.396a1.001 1.001 0 0 1-1.041-1.708l1.041 1.708Zm-13.809 8.411a.999.999 0 1 1 1.417 1.411l-1.417-1.411Zm-8.484 13.564a1 1 0 1 1-1.662-1.112l1.662 1.112Zm-9.328 12.72a1 1 0 0 1 1.819.832l-1.819-.832Zm-3.789 15.346a1 1 0 1 1-1.899-.628l1.899.628Zm-6.454 14.413a1.001 1.001 0 0 1 1.921.559l-1.921-.559Zm-2.834 15.564a1.001 1.001 0 0 1-1.877-.692l1.877.692Zm-8.69 13.106a1.001 1.001 0 0 1 1.647 1.135l-1.647-1.135Zm-9.997 12.065a1 1 0 0 1-1.003-1.73l1.003 1.73Zm-15.409 3.144a1 1 0 0 1 .319 1.974l-.319-1.974Zm-15.481 2.407a1 1 0 1 1 .288-1.979l-.288 1.979Zm-13.35-7.337a1 1 0 1 1-1.145 1.64l1.145-1.64Zm-11.895-9.589a1 1 0 0 1 1.653-1.126l-1.653 1.126Zm-5.429-14.409a1.001 1.001 0 0 1-1.839.786l1.839-.786Zm-7.097-13.657a1 1 0 0 1 1.907-.602l-1.907.602Zm-2.304-15.25a1 1 0 1 1-1.932.516l1.932-.516Zm-5.763-14.293a1 1 0 1 1 1.937-.496l-1.937.496Zm-1.959-15.295a.999.999 0 1 1-1.928.531l1.928-.531Zm-6.297-14.062a1 1 0 0 1 1.899-.626l-1.899.626Zm-3.5-15.009a1 1 0 1 1-1.836.793l1.836-.793Zm-8.748-12.636a1 1 0 0 1 1.7-1.054l-1.7 1.053Zm-7.827-13.262a1 1 0 1 1-1.414 1.415l1.414-1.415Zm-13.403-7.421a1 1 0 1 1 .916-1.778l-.916 1.778Zm-13.852-6.63a1 1 0 0 1-.333 1.973l.333-1.972Zm-16.485 1.857a1 1 0 0 1-.379-1.964l.379 1.964Zm-17.086 5.12a1 1 0 1 1 1.097 1.672l-1.097-1.672Zm-12.516 12.923a1 1 0 1 1-1.393-1.435l1.393 1.435Zm-13.803 11.517a1 1 0 1 1 1.47 1.356l-1.47-1.356Zm-10.781 14.422a1 1 0 1 1-1.431-1.397l1.431 1.397Zm-14.367 10.808a1 1 0 0 1 1.296 1.523l-1.296-1.523Zm-13.214 12.2a1 1 0 0 1-1.054-1.7l1.054 1.7Zm-16.859 6.171a1.002 1.002 0 0 1 1.291.579.999.999 0 0 1-.578 1.29l-.713-1.869Zm-15.824 5.908a1.001 1.001 0 0 1-.098-1.998l.098 1.998Zm-15.079-4.217a1 1 0 1 1-.627 1.9l.627-1.9Zm-14.94-4.797a1 1 0 1 1 1.016-1.722l-1.016 1.722Zm-11.857-10.363a1 1 0 0 1-1.186 1.611l1.186-1.611Zm-13.595-7.929a1 1 0 0 1 1.235-1.573l-1.235 1.573Zm-11.146-11.134a1 1 0 0 1-1.193 1.605l1.193-1.605ZM94.2 102.618a1 1 0 0 1 1.038-1.709l-1.038 1.709Zm-13.101-8.697a1 1 0 0 1-.689 1.878l.689-1.878Zm-15.605-1.063a1 1 0 0 1 .029-2l-.028 2Zm-15.555.956a1 1 0 1 1 .746 1.856l-.746-1.856Zm-12.345 9.71a1 1 0 1 1-1.25-1.561l1.25 1.561Zm-12.516 9.392a1 1 0 1 1 1.507 1.316l-1.507-1.316Zm-8.001 13.624a1 1 0 0 1-1.644-1.139l1.644 1.139ZM7.073 138.554a1 1 0 1 1 1.725 1.013l-1.725-1.013ZM680.948 1.317a363.642 363.642 0 0 1-2.694 7.77l-1.882-.676a363.68 363.68 0 0 0 2.68-7.728l1.896.634Zm-8.52 22.776a243.629 243.629 0 0 1-6.684 14.61l-1.789-.893a241.5 241.5 0 0 0 6.629-14.49l1.844.773Zm-14.48 28.736c-3.001 4.906-6.063 9.335-9.178 13.334l-1.578-1.229c3.066-3.936 6.085-8.302 9.05-13.149l1.706 1.044Zm-20.001 25.38c-4.15 3.964-8.374 7.303-12.654 10.119l-1.099-1.671c4.177-2.748 8.306-6.012 12.372-9.895l1.381 1.446Zm-27.013 17.66c-5.134 2.083-10.312 3.597-15.505 4.707l-.418-1.955c5.095-1.09 10.159-2.572 15.171-4.606l.752 1.853Zm-31.517 7.035c-5.389.477-10.768.705-16.099.87l-.061-1.999c5.318-.164 10.652-.391 15.984-.863l.176 1.992Zm-32.145 1.364c-5.399.232-10.714.595-15.922 1.289l-.264-1.983c5.291-.705 10.671-1.071 16.1-1.304l.086 1.998Zm-31.428 4.64c-4.937 1.567-9.738 3.664-14.376 6.49l-1.041-1.708c4.79-2.917 9.739-5.078 14.812-6.688l.605 1.906Zm-26.768 16.312a77.44 77.44 0 0 0-5.299 5.91l-1.554-1.26a79.712 79.712 0 0 1 5.436-6.061l1.417 1.411Zm-5.299 5.91a84.911 84.911 0 0 0-4.602 6.243l-1.662-1.112a87.107 87.107 0 0 1 4.71-6.391l1.554 1.26Zm-12.111 19.795c-2.206 4.828-4.015 9.695-5.608 14.514l-1.899-.628c1.608-4.865 3.443-9.804 5.688-14.718l1.819.832Zm-10.141 29.486c-1.522 5.233-3.018 10.291-4.755 15.005l-1.877-.692c1.709-4.639 3.188-9.633 4.711-14.872l1.921.559Zm-11.798 29.246c-3.013 4.377-6.758 8.1-11.644 10.93l-1.003-1.73c4.597-2.663 8.131-6.167 11-10.335l1.647 1.135Zm-26.734 16.048c-2.468.4-5.112.667-7.948.794l-.09-1.998a67.17 67.17 0 0 0 7.719-.77l.319 1.974Zm-7.948.794c-2.769.124-5.382-.002-7.852-.361l.288-1.979c2.336.34 4.822.461 7.474.342l.09 1.998Zm-22.347-6.058c-4.149-2.901-7.68-6.723-10.75-11.229l1.653-1.126c2.966 4.354 6.335 7.984 10.242 10.715l-1.145 1.64Zm-18.018-24.852c-1.929-4.517-3.656-9.37-5.258-14.443l1.907-.602c1.589 5.032 3.294 9.819 5.19 14.259l-1.839.786Zm-9.494-29.177c-1.297-4.86-2.557-9.827-3.831-14.809l1.937-.496c1.277 4.989 2.532 9.942 3.826 14.789l-1.932.516Zm-7.718-29.573c-1.365-4.949-2.803-9.839-4.369-14.593l1.899-.626c1.58 4.794 3.027 9.718 4.398 14.688l-1.928.531Zm-9.705-28.809c-2.061-4.775-4.341-9.284-6.912-13.43l1.7-1.053c2.633 4.245 4.957 8.845 7.048 13.69l-1.836.793ZM331.61 82.754c-3.537-3.536-7.503-6.522-11.989-8.837l.916-1.777c4.687 2.417 8.817 5.531 12.487 9.2l-1.414 1.414ZM305.436 69.26a58.915 58.915 0 0 0-7.476-.762l.08-1.998c2.693.106 5.267.372 7.729.788l-.333 1.972Zm-7.476-.762c-3.02-.12-5.903.111-8.676.646l-.379-1.964a39.716 39.716 0 0 1 9.135-.68l-.08 1.998Zm-24.665 7.438c-4.665 3.061-9.143 6.909-13.613 11.25l-1.393-1.434c4.519-4.39 9.098-8.332 13.909-11.488l1.097 1.672Zm-25.946 24.124c-3.941 4.273-7.992 8.701-12.251 13.066l-1.431-1.397c4.234-4.34 8.263-8.743 12.212-13.025l1.47 1.356Zm-25.322 25.397c-4.514 3.84-9.319 7.457-14.51 10.677l-1.054-1.7c5.09-3.158 9.815-6.712 14.268-10.5l1.296 1.523Zm-30.656 18.717a89.031 89.031 0 0 1-8.612 2.791l-.518-1.932a86.827 86.827 0 0 0 8.417-2.728l.713 1.869Zm-8.612 2.791a37.587 37.587 0 0 1-7.925 1.248l-.098-1.998a35.496 35.496 0 0 0 7.505-1.182l.518 1.932Zm-23.631-1.069c-4.837-1.597-9.603-3.918-14.313-6.697l1.016-1.722c4.626 2.729 9.259 4.98 13.924 6.519l-.627 1.9Zm-27.356-15.449c-4.147-3.056-8.283-6.298-12.409-9.54l1.235-1.573c4.13 3.244 8.241 6.468 12.36 9.502l-1.186 1.611Zm-24.748-19.069c-4.261-3.169-8.53-6.152-12.824-8.761l1.038-1.709c4.368 2.653 8.69 5.675 12.979 8.865l-1.193 1.605ZM80.41 95.799c-4.922-1.804-9.884-2.87-14.915-2.941l.028-2c5.298.075 10.484 1.197 15.576 3.063l-.689 1.878Zm-29.724-.129c-4.267 1.716-8.627 4.28-13.092 7.854l-1.25-1.561c4.597-3.68 9.124-6.35 13.595-8.148l.746 1.855Zm-24.101 18.562c-3.12 3.572-6.288 7.658-9.508 12.308l-1.644-1.139c3.257-4.703 6.47-8.85 9.645-12.485l1.507 1.316ZM8.798 139.567a269.102 269.102 0 0 0-3.921 6.914l-1.754-.962a271.886 271.886 0 0 1 3.95-6.965l1.725 1.013Z" fill="#540011"/></svg>