<svg width="492" height="208" fill="none" xmlns="http://www.w3.org/2000/svg"><path opacity=".15" d="M489.581 1.105a1 1 0 0 1 1.838.789l-1.838-.789ZM273 42l.777.63L273 42Zm-37 126.5-.045-.999.045.999ZM3.71 207.978a1 1 0 0 1-1.188-.767l-1.896-8.798a1 1 0 1 1 1.955-.422l1.686 7.821 7.82-1.686a1 1 0 1 1 .422 1.955l-8.798 1.897ZM487.952 9.649a1 1 0 0 1-1.813-.846l1.813.846Zm-9.271 13.73a1 1 0 0 1 1.743.983l-1.743-.982Zm-7.047 14.894a1 1 0 0 1-1.628-1.162l1.628 1.162Zm-12.121 11.453a1 1 0 0 1 1.425 1.404l-1.425-1.404Zm-11.455 11.913a1 1 0 1 1-1.066-1.691l1.066 1.691Zm-15.802 4.807a1 1 0 1 1 .514 1.933l-.514-1.933Zm-16.103 3.68a1 1 0 0 1 .083-1.998l-.083 1.999Zm-15.943-4.583a1 1 0 0 1-.52 1.931l.52-1.931ZM384 61.985a1 1 0 0 1 .775-1.843L384 61.985Zm-14.092-8.816a1 1 0 0 1-.905 1.783l.905-1.783Zm-15.518-5.911a1 1 0 0 1 .944-1.763l-.944 1.763Zm-13.688-9.427a1 1 0 0 1-.895 1.788l.895-1.788Zm-15.858-4.96a1 1 0 1 1 .72-1.866l-.72 1.866Zm-15.342-6.37a1 1 0 0 1-.301 1.977l.301-1.977Zm-16.223 2.588a1 1 0 1 1-.517-1.932l.517 1.932Zm-15.244 6.166a1 1 0 0 1 1.325 1.498l-1.325-1.498Zm-8.24 13.197a1 1 0 1 1-1.735-.994l1.735.995Zm-7.172 12.61a1 1 0 1 1 1.935.505l-1.935-.506Zm-.37 14.564a1 1 0 1 1-1.993-.168l1.993.168Zm-2.418 14.36a1 1 0 1 1 2-.03l-2 .03Zm2.602 14.347a1 1 0 1 1-1.996.121l1.996-.121Zm-1.084 14.527a1 1 0 0 1 1.997-.115l-1.997.115Zm2.438 14.378a1 1 0 0 1-2-.02l2 .02Zm-3.322 14.149a1 1 0 1 1 1.956.415l-1.956-.415Zm-4.209 13.832a1 1 0 0 1-1.506-1.316l1.506 1.316Zm-13.284 5.366a1 1 0 0 1 .453 1.948l-.453-1.948Zm-14.966 2.865a1 1 0 1 1 .119-1.996l-.119 1.996Zm-15.115-4.777a1 1 0 0 1-.609 1.905l.609-1.905Zm-15.077-4.965a.999.999 0 1 1 1.084-1.68l-1.084 1.68Zm-10.978-11.511a.999.999 0 1 1-1.408 1.42l1.408-1.42Zm-11.905-10.541a1 1 0 1 1 1.574-1.233l-1.574 1.233Zm-7.769-13.918a1 1 0 0 1-1.63 1.159l1.63-1.159Zm-10.87-11.617a1 1 0 0 1 1.595-1.208l-1.595 1.208Zm-8.694-13.359a1 1 0 1 1-1.427 1.401l1.427-1.4Zm-13.505-8.296a1 1 0 0 1 1.018-1.722l-1.018 1.722Zm-14.038-7.295a1 1 0 1 1-.339 1.971l.339-1.97Zm-16.8 1.684a1 1 0 1 1-.167-1.993l.167 1.993Zm-17.607 1.348a1 1 0 1 1 .605 1.906l-.605-1.906ZM70.73 95.55a1 1 0 0 1-1.115-1.66l1.115 1.66Zm-14.39 10.184a1 1 0 0 1 1.508 1.314l-1.508-1.314Zm-8.607 15.445a1 1 0 1 1-1.714-1.031l1.714 1.031Zm-10.035 14.558a1 1 0 0 1 1.8.871l-1.8-.871Zm-5.523 16.827a1 1 0 0 1-1.828-.813l1.828.813Zm-8.991 15.234a1 1 0 1 1 1.82.829l-1.82-.829Zm-5.769 16.728a1 1 0 1 1-1.785-.902l1.785.902ZM7.258 199.001a1 1 0 0 1 1.723 1.016l-1.723-1.016ZM491.419 1.894a272.63 272.63 0 0 1-3.468 7.755l-1.813-.846a266.89 266.89 0 0 0 3.443-7.698l1.838.789Zm-10.996 22.468c-2.895 5.135-5.826 9.759-8.79 13.911l-1.628-1.162c2.919-4.088 5.812-8.652 8.675-13.731l1.743.982ZM460.937 51.13c-4.238 4.3-8.535 7.77-12.88 10.51l-1.066-1.692c4.202-2.65 8.38-6.02 12.521-10.222l1.425 1.404Zm-28.168 17.25c-5.517 1.465-11.065 1.977-16.617 1.747l.083-1.999c5.372.223 10.717-.272 16.02-1.682l.514 1.933Zm-33.08-.906c-5.252-1.412-10.489-3.302-15.689-5.489l.775-1.843c5.14 2.161 10.29 4.018 15.434 5.4l-.52 1.932Zm-30.686-12.522c-4.92-2.497-9.8-5.116-14.613-7.694l.944-1.763c4.818 2.58 9.678 5.188 14.574 7.674l-.905 1.783ZM339.807 39.62c-5.092-2.55-10.085-4.864-14.963-6.748l.72-1.866c4.96 1.916 10.015 4.26 15.138 6.826l-.895 1.788Zm-30.606-11.14c-5.538-.844-10.851-.747-15.922.61l-.517-1.932c5.393-1.443 10.991-1.531 16.74-.656l-.301 1.977Zm-29.841 8.274c-1.898 1.678-3.76 3.628-5.583 5.877l-1.554-1.26c1.886-2.327 3.824-4.358 5.812-6.115l1.325 1.498Zm-5.583 5.877a43.735 43.735 0 0 0-3.982 5.822l-1.735-.994a45.773 45.773 0 0 1 4.163-6.088l1.554 1.26Zm-9.219 18.937c-1.173 4.488-1.897 9.204-2.305 14.059l-1.993-.168c.415-4.94 1.154-9.773 2.363-14.397l1.935.506Zm-2.723 28.389c.072 4.784.313 9.602.602 14.377l-1.996.121c-.291-4.787-.533-9.64-.606-14.468l2-.03Zm1.515 28.789c.288 5.018.488 9.888.441 14.493l-2-.02c.047-4.538-.151-9.356-.438-14.358l1.997-.115Zm-.925 29.057c-1.109 5.229-3.018 9.815-6.165 13.417l-1.506-1.316c2.853-3.265 4.65-7.498 5.715-12.516l1.956.415Zm-18.996 20.731c-2.233.52-4.688.845-7.384.966l-.09-1.998c2.591-.116 4.923-.428 7.021-.916l.453 1.948Zm-7.384.966a76.815 76.815 0 0 1-8.035-.049l.119-1.996c2.504.149 5.11.169 7.826.047l.09 1.998Zm-23.759-2.921c-5.299-1.695-10.085-4.041-14.468-6.87l1.084-1.68c4.248 2.741 8.874 5.008 13.993 6.645l-.609 1.905Zm-26.854-16.961c-3.758-3.726-7.217-7.774-10.497-11.961l1.574-1.233c3.247 4.144 6.65 8.124 10.331 11.774l-1.408 1.42Zm-19.896-24.72c-3.097-4.358-6.13-8.67-9.24-12.776l1.595-1.208c3.133 4.137 6.188 8.48 9.275 12.825l-1.63 1.159Zm-19.361-24.734c-3.737-3.808-7.707-7.116-12.078-9.697l1.018-1.722c4.557 2.691 8.662 6.12 12.487 10.018l-1.427 1.401Zm-26.455-15.02A45.422 45.422 0 0 0 112 84.5v-2c2.82 0 5.501.231 8.059.671l-.339 1.971ZM112 84.5c-3.046 0-5.956.12-8.741.355l-.167-1.993c2.843-.24 5.809-.362 8.908-.362v2Zm-25.743 3.61c-5.813 1.845-10.938 4.358-15.528 7.44l-1.115-1.66c4.748-3.19 10.045-5.784 16.038-7.687l.605 1.906Zm-28.41 18.937c-3.699 4.246-7.019 8.987-10.115 14.131l-1.714-1.031c3.142-5.219 6.528-10.06 10.32-14.414l1.509 1.314Zm-18.35 29.56c-2.47 5.107-4.874 10.446-7.323 15.956l-1.828-.813c2.45-5.512 4.866-10.876 7.351-16.014l1.8.871Zm-14.494 32.019c-2.384 5.234-4.887 10.552-7.589 15.899l-1.785-.902c2.685-5.315 5.176-10.607 7.554-15.826l1.82.829ZM8.98 200.017a219.428 219.428 0 0 1-4.64 7.525l-1.681-1.084a217.777 217.777 0 0 0 4.598-7.457l1.723 1.016Z" fill="#540011"/></svg>