<svg width="550" height="599" fill="none" xmlns="http://www.w3.org/2000/svg"><g opacity=".05" clip-path="url(#a)" fill="#fff"><path d="M400.303 281.95c-32.518 5.337-60.888-9.999-87.773-26.56-12.171-7.482-60.688-39.068-45.646-58.477 17.538-22.637 64.741 8.104 82.699 17.796 21.121 11.413 64.872 34.504 55.158 65.128-2.336 7.375-13.957 4.403-11.62-2.972 11.127-35.023-82.476-69.349-105.355-75.039-10.521 6.049-10.583 12.191-.192 18.515 3.126 3.314 6.421 6.493 9.891 9.449 9.817 8.854 21.577 15.686 32.915 22.368 20.302 11.958 42.779 22.212 66.852 18.258 7.577-1.236 10.773 10.323 3.141 11.574l-.07-.04Z"/><path d="M277.198 206.189c-27.215 68.403-62.111 132.912-104.725 192.95-9.349 13.176-19.214 25.964-29.232 38.618-16.503 20.832-1.955 40.095 12.736 55.569 22.856 24.071 56.892 35.555 88.842 40.542 7.654 1.205 4.593 12.821-2.972 11.621-31.488-4.907-60.469-16.122-85.653-35.81-18.304-14.317-44.606-44.927-30.54-68.908 9.88-16.836 24.897-31.697 36.407-47.598 13.693-18.985 26.404-38.671 38.56-58.675 25.415-41.773 46.844-85.922 64.941-131.336 2.822-7.096 14.483-4.194 11.621 2.972l.015.055Z"/><path d="M404.468 280.234c-26.105 41.931-57.152 80.338-85.929 120.414-30.879 43.021-53.265 90.127-69.368 140.509-2.371 7.355-13.992 4.383-11.621-2.972 14.819-46.37 34.684-90.124 61.701-130.749 30.173-45.408 65.922-86.791 94.806-133.168 4.081-6.559 14.513-.627 10.411 5.966Z"/><path d="M401.898 284.155c-18.857 19.068-44.308 22.047-70.031 20.675-29.062-1.579-88.783-28.659-104.123 6.716-3.056 7.101-13.462 1.045-10.412-5.967 11.012-25.408 38.544-26.227 62.248-21.494 35.609 7.13 84.496 21.178 113.845-8.474 5.455-5.496 13.893 3.029 8.439 8.524l.034.02Zm-30.491 45.32c-17.121 19.094-41.981 22.09-66.344 19.792-28.068-2.67-74.21-25.288-98.148-2.262-5.554 5.346-14.047-3.163-8.439-8.525 44.955-43.206 120.13 31.964 164.493-17.53 5.147-5.763 13.62 2.781 8.438 8.525Zm-44.12 57.838c-17.674 13.706-34.349 17.059-56.269 13.394-28.522-4.774-67.978-22.084-94.875-4.996-6.525 4.144-12.51-6.247-5.985-10.392 46.6-29.586 104.308 27.876 148.671-6.496 6.034-4.656 14.567 3.784 8.439 8.525l.019-.035Zm-29.426 43.624c-19.987 10.26-39.588 4.882-60.011-1.474-30.531-9.475-80.366-10.927-99.798 19.199-4.166 6.464-14.597.532-10.411-5.967 15.286-23.696 40.383-29.276 67.066-30.304 13.684-.549 26.732.336 39.999 3.652 19.15 4.797 37.773 14.456 57.17 4.503 6.866-3.534 12.886 6.877 5.985 10.391Zm-29.203 51.68c-40.323 17.508-84.989-11.548-123.777 8.591-6.832 3.554-12.871-6.823-5.985-10.392 40.099-20.817 83.767 8.773 123.777-8.591 7-3.042 13.094 7.32 5.985 10.392Zm-15.584 36.203c-21.791 4.155-44.296-3.072-65.732 3.038-7.45 2.139-10.571-9.469-3.141-11.574 21.709-6.184 43.852 1.112 65.732-3.038 7.553-1.434 10.749 10.125 3.141 11.574Zm82.011-279.456 19.929-34.775c3.838-6.698 14.25-.731 10.411 5.967l-19.929 34.774c-3.838 6.698-14.25.732-10.411-5.966Z"/><path d="M144.044 422.359c13.95-34.558-4.461-66.548-8.749-100.816-3.768-30.19 2.827-58.591 19.519-84.017 4.235-6.425 14.667-.493 10.412 5.967-21.693 33.025-21.716 66.53-12.018 103.668 6.814 26.081 12.943 52.23 2.471 78.224-2.857 7.077-14.517 4.174-11.621-2.971l-.014-.055Z"/><path d="M166.26 241.687c-9.605 23.357 1.455 46.292 24.042 56.194 2.99 1.298 3.749 5.606 2.222 8.189-8.577 14.724-7.397 31.49 3.745 44.468 5.008 5.822-3.466 14.335-8.525 8.439-14.619-17.046-16.968-39.415-5.666-58.894l2.222 8.189c-29.28-12.862-40.44-43.508-28.486-72.571 2.931-7.126 13.303-1.09 10.412 5.967l.034.019Z"/><path d="M165.866 243.581c-17.435 20.206-42.185 30.088-68.77 27.162l5.152-8.989c15.159 29.941 16.965 65.001-5.722 91.555-.412-3.141-.805-6.316-1.253-9.477 20.409 9.437 29.221 29.056 23.657 50.67-.599 2.331-8.093 12.513-5.004 14.283 4.962 2.844 9.176 5.628 13.537 9.28 7.559 6.36 10.817 15.557 10.973 25.098.115 7.765-11.857 7.819-11.992.089-.21-14.274-11.301-19.939-21.99-26.065-2.569-1.471-5.04-5.285-5.085-8.262-.028-5.502 3.678-9.556 6.417-13.933 10.122-16.052-1.902-34.008-16.48-40.749-3.788-1.756-3.558-6.742-1.253-9.478 19.06-22.317 16.319-52.287 3.768-77.046-1.82-3.579.345-9.53 5.152-8.988 23.806 2.625 44.729-5.486 60.4-23.659 5.063-5.858 13.481 2.701 8.438 8.524l.055-.015Zm104.958 213.538c9.441-15.428 23.899-19.821 40.876-23.461 22.963-4.912 42.227-16.002 58.368-32.984 5.336-5.61 13.774 2.915 8.439 8.524-11.437 12.072-24.269 21.269-39.325 28.315-18.572 8.674-46.154 6.283-57.947 25.573-4.047 6.578-14.478.646-10.411-5.967Z"/><path d="M377.348 410.978c-20.263 7.844-43.623 1.786-57.623-14.812-4.934-5.871 3.54-14.384 8.524-8.439 11.533 13.663 29.304 18.131 45.958 11.677 7.217-2.779 10.303 8.81 3.141 11.574Z"/><path d="M379.909 410.37c-12.617 19.924-14.685 42.759-4.859 64.388 2.355 5.222-2.648 11.299-8.206 8.206-13.977-7.872-27.243-8.375-41.566-1-9.616 4.954-11.085 16.929-19.53 21.771-2.001 1.158-5.777 1.714-7.89 1.057-15.771-4.982-30.161-3.363-40.891 10.774-4.592 6.082-15.077.164-10.411-5.967 7.032-9.294 14.689-14.771 25.813-18.493 11.014-3.693 25.152 5.424 31.093-4.541 14.518-24.367 46.775-26.673 69.349-14.013-2.718 2.731-5.435 5.461-8.207 8.206-11.563-25.437-10.179-52.628 4.839-76.34 4.151-6.519 14.582-.587 10.412 5.967l.054-.015Zm-13.764-207.745c13.65 6.67 26.879 5.308 39.357-3.032l3.038 11.192c-4.202-.472-8.369-.923-12.571-1.395-6.533-.748-8.516-9.676-1.622-11.81 20.26-6.231 32.44-21.611 33.995-42.988 3.397 1.394 6.828 2.807 10.225 4.201-4.366 3.998-8.219 6.216-13.907 7.935-4.358 1.329-8.5-3.027-7.398-7.282 4.427-17.057 3.097-32.757-4.528-48.653 3.458 0 6.916-.001 10.429-.016-3.428 7.671-7.333 15.852-14.781 20.482-10.363 6.417-29.603 10.143-30.956 24.812-.442 4.634-6.52 8.804-10.241 4.274-4.443-5.359-6.214-9.509-6.672-16.594 3.397 1.393 6.829 2.807 10.225 4.2-14.571 15.853-21.742 37.054-5.645 54.901 5.157 5.722-3.298 14.2-8.525 8.438-20.447-22.645-13.555-50.921 5.732-71.863 3.706-4.054 9.928-.673 10.225 4.2 1.063 2.73 2.161 5.48 3.205 8.245-3.396 1.419-6.846 2.854-10.241 4.274.91-9.714 4.316-15.415 11.989-21.806 13.773-11.562 26.974-10.866 35.328-29.545 1.826-4.071 8.553-3.904 10.429-.016 8.971 18.695 11.001 37.517 5.757 57.609-2.478-2.435-4.921-4.849-7.398-7.283 2.869-1.629 5.739-3.258 8.589-4.852 3.551-3.22 10.609-1.296 10.225 4.201-1.919 26.838-17.007 46.73-42.846 54.65l-1.622-11.81c4.201.472 8.368.923 12.57 1.395 5.928.677 8.326 7.676 3.037 11.192-16.128 10.766-34.015 11.487-51.289 3.016-6.957-3.387-.936-13.813 5.966-10.411l-.079.139Zm-18.817 124.943c-27.686 36.968-55.743 72.247-75.334 114.315-1.631 3.491-6.837.508-5.205-2.983 19.591-42.068 47.647-77.348 75.333-114.315 2.306-3.058 7.532-.11 5.206 2.983Zm-83.247 128.684c-2.461 4.537-4.923 9.073-7.37 13.665-1.86 3.406-7.065.422-5.205-2.984 2.461-4.536 4.923-9.073 7.37-13.664 1.859-3.406 7.065-.423 5.205 2.983Zm89.4-181.172c-3.367-1.929-.383-7.135 2.983-5.206 3.366 1.929.383 7.135-2.983 5.206Z"/><path d="M389.585 287.379c-15.284-5.67-29.391 7.361-45.147 2.757-11.263-3.274-11.452-19.195-18.409-26.363-2.69-2.787 1.562-6.989 4.273-4.237 2.725 2.807 4.354 5.354 6.066 8.963.534 1.32 1.068 2.641 1.548 3.976 3.946 10.33 12.549 14.384 23.135 11.921 10.784-2.486 19.1-6.941 30.084-2.859 3.615 1.334 2.12 7.162-1.495 5.828l-.055.014Z"/><path d="M326.049 264.06c-9.179-7.796-19.175-8.453-30.081-4.146-4.16 1.627-8.75 2.639-12.915.252-1.978-1.134-3.379-3.274-4.732-5.017-2.986-3.879-10.989-.212-14.856 1.306-4.194 1.607-7.73.779-11.434-1.205-3.426-1.825-.443-7.031 2.983-5.206 5.861 3.128 13.935-2.756 20.296-3.075 9.308-.475 6.322 11.414 19.088 7.158 13.406-4.488 24.777-3.734 35.923 5.697 2.939 2.514-1.313 6.716-4.272 4.236ZM163.824 407.876c-2.249 8.67-1.357 17.571 2.652 25.539 1.722 3.431-3.467 6.451-5.224 3-4.716-9.387-5.913-19.848-3.256-30.035.947-3.745 6.775-2.249 5.828 1.496Zm-11.678 14.101c-.78 5.224 1.529 11.25 3.15 16.144 1.676 4.879 4.012 9.491 6.646 13.905 1.98 3.302-3.208 6.322-5.223 3-5.743-9.608-12.181-23.071-10.401-34.544.576-3.82 6.384-2.29 5.828 1.495Zm-9.768 11.413c.065 19.355 6.829 37.477 19.656 52.021 2.541 2.885-1.696 7.142-4.272 4.236-13.818-15.71-21.325-35.272-21.373-56.185.005-3.87 5.974-3.907 6.024-.052l-.035-.02Zm13.366-47.294a747.24 747.24 0 0 0-23.658 45.223c-1.686 3.505-6.872.487-5.206-2.984 7.412-15.346 15.255-30.399 23.658-45.223 1.93-3.366 7.135-.383 5.206 2.984Zm-1.974-16.668-16.408 28.631c-1.93 3.366-7.135.383-5.206-2.983l16.409-28.632c1.929-3.366 7.135-.383 5.205 2.984Zm-2.882-12.026-10.442 18.22c-1.93 3.367-7.135.383-5.206-2.983l10.442-18.22c1.929-3.367 7.135-.383 5.206 2.983Zm-3.051-11.569c-2.5 3.961-5.016 7.867-7.516 11.828-2.049 3.252-7.274.304-5.206-2.983 2.5-3.961 5.016-7.867 7.516-11.828 2.049-3.253 7.274-.304 5.206 2.983Zm127.061 121.874c1.853 10.283 2.574 20.608 2.07 31.061-.184 3.86-6.207 3.912-6.023.052.473-9.917-.115-19.751-1.854-29.508-.68-3.801 5.107-5.371 5.787-1.57l.02-.035Zm4.256-7.105c4.735 10.643 8.774 21.534 11.99 32.735 1.097 3.718-4.725 5.268-5.787 1.571a240.759 240.759 0 0 0-11.391-31.286c-1.559-3.475 3.649-6.53 5.223-3l-.035-.02Zm7.484-9.68c10.022 11.876 16.747 25.642 19.789 40.848.735 3.786-5.017 5.376-5.786 1.57-2.83-14.208-8.907-27.095-18.255-38.216-2.467-2.935 1.77-7.192 4.272-4.236l-.02.034Zm6.001-10.069c7.927 4.912 12.59 13.992 17.735 21.505 2.184 3.188-3.019 6.153-5.223 3-4.467-6.525-8.644-15.004-15.515-19.265-3.272-2.013-.323-7.239 2.983-5.205l.02-.035Zm13.35.919c3.535 1.473 6.708 3.66 9.458 6.343 2.73 2.717-1.487 6.939-4.272 4.237-2.393-2.34-5.09-4.07-8.17-5.374-1.522-.642-1.847-2.81-1.111-4.094.895-1.562 2.572-1.754 4.095-1.112Z"/><path d="M151.956 388.443c2.818-12.077 8.175-22.792 15.872-32.442 2.41-2.999 6.612 1.253 4.237 4.272-7.022 8.792-11.743 18.719-14.282 29.666-.878 3.784-6.685 2.254-5.827-1.496Zm-3.853-37.845c3.579-9.383 8.363-17.89 14.495-25.855 2.341-3.039 6.543 1.213 4.237 4.272-5.417 7.038-9.709 14.767-12.904 23.079-1.369 3.595-7.197 2.099-5.828-1.496Zm-3.666-24.092c3.416-9.983 8.319-19.021 14.794-27.343 2.341-3.039 6.578 1.233 4.237 4.272-5.745 7.449-10.136 15.675-13.204 24.567-1.244 3.62-7.057 2.179-5.827-1.496Zm4.202 55.979a160.744 160.744 0 0 0-28.712-15.302c-3.59-1.458-.518-6.659 2.983-5.206 10.101 4.176 19.651 9.233 28.712 15.303 3.193 2.152.244 7.378-2.983 5.205Zm-8.165-37.642c-5.561-4.293-11.694-7.67-18.235-10.174-3.595-1.369-2.119-7.162 1.496-5.827 7.647 2.907 14.523 6.755 21.011 11.765 3.039 2.34-1.233 6.577-4.272 4.236Zm-1.857-34.489c-3.43-9.942-9.562-18.389-18.078-24.606-3.098-2.237-.129-7.497 2.984-5.206 9.894 7.192 16.917 16.657 20.881 28.242 1.261 3.673-4.561 5.224-5.787 1.57Zm161.194 127.557c6.816-7.066 12.11-15.097 15.674-24.212 1.403-3.575 7.231-2.079 5.828 1.496-4.017 10.146-9.669 19.124-17.265 26.988-2.703 2.785-6.905-1.467-4.237-4.272Zm-14.017 13.358c9.765-.628 19.134 1.929 27.204 7.476 3.173 2.187.189 7.393-2.983 5.206-7.277-5-15.357-7.233-24.169-6.659-3.885.263-3.902-5.74-.052-6.023Zm32.976-13.374c9.566-.603 18.771 1.998 26.568 7.619 3.098 2.237.15 7.462-2.983 5.206-7.004-5.074-14.9-7.386-23.513-6.837-3.886.263-3.903-5.74-.052-6.023l-.02.035Zm10.596-188.713c-7.656-4.018-25.87-14.549-23.098-25.823 3.636-14.79 20.936-2.663 28.228 1.747 3.327 1.999.344 7.204-2.983 5.206a166.5 166.5 0 0 0-9.569-5.346c-1.289-.646-2.613-1.313-3.922-1.925-3.768-1.791-6.566 2.046-4.755 5.482 3.618 6.96 12.418 11.957 19.067 15.399 3.446 1.79.428 6.976-2.983 5.206l.015.054Zm45.686 3.223c-.958 3.923-4.598 6.816-8.706 6.582-3.86-.183-3.912-6.206-.052-6.023 1.484.067 2.561-.607 2.95-2.09.913-3.764 6.74-2.269 5.828 1.496l-.02.035Zm1.458-47.434c9.891-2.215 16.963-7.475 22.119-16.231 3.649-6.207 3.835-3.795-2.721-2.896-2.997.403-3.146.503-5.75-.022-1.061-.239-1.854-1.108-2.155-2.111-1.31-4.392.284-9.104 1.683-13.235.971-2.901 9.627-20.578.752-14.184-2.934 2.145-5.356 2.509-8.763 1.617-3.056-.783-4.087-8.797-7.484-6.732-3.321 2.015-6.321-3.208-3-5.224 3.506-2.094 8.131-3.408 10.676 1.001 4.386 7.631 9.124-.073 16.054.626 3.19.306 4.287 4.024 3.807 6.792-.984 5.337-2.875 9.924-5.054 14.853-2.833 3.494-3.105 7.026-.818 10.596 2.457-.344 5.057-1.02 7.548-.7 1.21.141 2.732.783 2.919 2.227 2.12 14.723-16.084 26.696-28.262 29.445-3.757.843-5.362-4.964-1.571-5.787l.02-.035Z"/><path d="M351.015 192.02c1.973-6.983 5.599-14.034 12.603-16.843 6.106-2.448 12.345 3.479 11.121 9.555-.843 4.127-2.697 6.798.151 10.597 2.248 2.995 3.024 6.067 2.081 9.722-2.079 8.214-11.59 4.377-16.325 1.617-3.366-1.929-.363-7.17 2.984-5.206 1.735.995 3.322 1.766 5.236 2.448 2.666-1.192 3.218-2.72 1.653-4.493-.55-.73-1.1-1.46-1.635-2.135-1.367-2.121-2.153-4.369-1.758-6.909.385-2.361 4.439-10.641-1.903-9.389-4.62.902-7.329 8.847-8.346 12.552-1.036 3.739-6.864 2.243-5.828-1.496l-.034-.02Zm42.914 13.529c-.792 2.266-2.069 3.931-4.08 5.269-3.238 2.109-6.238-3.114-3-5.224.596-.396.998-.857 1.252-1.541 1.299-3.635 7.092-2.159 5.828 1.496Zm-85.766 105.247c-13.668-4.145-27.582-6.494-41.905-7.003-3.845-.129-3.917-6.118-.052-6.024 14.789.5 29.274 2.9 43.418 7.18 3.7 1.106 2.204 6.933-1.496 5.827l.035.02Zm-53.213-6.661c-1.761-.225-3.556-.47-5.337-.661-1.637-.201-2.508-2.221-2.159-3.635.439-1.731 2.052-2.374 3.635-2.158 1.761.225 3.556.471 5.337.661 1.637.201 2.508 2.221 2.159 3.635-.439 1.731-2.052 2.374-3.635 2.158Zm8.503 48.071c-9.598-5.132-20.45-4.297-30.91-3.422-3.87.317-3.887-5.686-.052-6.024 11.631-.987 23.375-1.449 33.966 4.206 3.426 1.825.442 7.031-2.984 5.205l-.02.035Zm-33.291 47.633a255.485 255.485 0 0 0-26.15-1.432c-3.869-.005-3.941-5.994-.051-6.024 8.761-.003 17.478.474 26.149 1.432 3.81.432 3.882 6.42.052 6.024Zm-26.197 35.976a14.097 14.097 0 0 0-8.442-1.196c-3.782.645-5.407-5.127-1.571-5.787 4.541-.763 8.827-.197 12.997 1.778 3.505 1.686.487 6.872-2.984 5.205Zm-19.812 56.694-5.881 1.332c-3.757.843-5.362-4.963-1.571-5.787l5.881-1.332c3.757-.844 5.362 4.963 1.571 5.787Z"/></g><defs><clipPath id="a"><path fill="#fff" transform="scale(-1 1) rotate(-29.817 56.194 1119.773)" d="M0 0h354.32v486.56H0z"/></clipPath></defs></svg>