<svg width="789" height="208" fill="none" xmlns="http://www.w3.org/2000/svg"><path opacity=".15" d="M2.448.683a1 1 0 1 0-1.896.634L2.448.683ZM201 67.5l-.777.63.777-.63Zm77 139 .045-.999-.045.999ZM491 105l.04.999L491 105Zm293.72 92.96a1 1 0 0 0 1.24-.68l2.521-8.64a1 1 0 0 0-1.92-.56l-2.241 7.68-7.68-2.241a1 1 0 0 0-.56 1.92l8.64 2.521ZM606.5 183.5l.259-.966-.259.966ZM3.193 8.887a1 1 0 1 0 1.879-.684l-1.88.684Zm7.616 13.683a1 1 0 0 0-1.83.805l1.83-.805Zm5.017 14.78a1 1 0 0 0 1.752-.963l-1.752.963Zm9.98 12.087a1 1 0 0 0-1.614 1.18l1.615-1.18Zm8.712 12.943a1 1 0 1 0 1.361-1.465l-1.36 1.465Zm13.78 7.36a1 1 0 0 0-.911 1.78l.912-1.78Zm14.138 6.662a1 1 0 0 0 .309-1.976l-.309 1.976Zm15.554-1.727a1 1 0 1 0 .212 1.989l-.212-1.989Zm15.626-1.066a1 1 0 1 0-.533-1.928l.533 1.928Zm14.175-6.761a1 1 0 0 0 .693 1.876l-.693-1.876Zm15.228-3.752a1 1 0 0 0-.734-1.86l.734 1.86Zm13.864-7.39a.999.999 0 1 0 .664 1.886l-.664-1.886Zm15.471-2.505a1 1 0 1 0-.441-1.95l.441 1.95Zm15.195-3.79a1 1 0 0 0-.025 2l.025-2Zm14.791 4.846a1 1 0 1 0 .749-1.854l-.749 1.854Zm14.055 6.8a1 1 0 0 0-1.367 1.46l1.367-1.46Zm8.578 13.786a1.001 1.001 0 0 0 1.699-1.056l-1.699 1.056Zm9.287 14.03a1 1 0 0 0-1.849.763l1.849-.764Zm3.746 16.434a1 1 0 1 0 1.908-.597l-1.908.597Zm6.539 15.525a1 1 0 1 0-1.932.519l1.932-.519Zm2.324 16.703a1 1 0 0 0 1.934-.51l-1.934.51Zm6.386 15.594a.999.999 0 1 0-1.917.569l1.917-.569Zm3.428 16.51a.999.999 0 1 0 1.865-.72l-1.865.72Zm8.923 14.249a1 1 0 0 0-1.724 1.014l1.724-1.014Zm8.871 14.277a1 1 0 0 0 1.323-1.5l-1.323 1.5Zm15.494 6.139a1 1 0 1 0-.508 1.934l.508-1.934Zm15.592 3.132a1 1 0 0 0-.121-1.996l.121 1.996Zm14.489-4.314a1 1 0 0 0 .49 1.94l-.49-1.94Zm14.846-2.866a1 1 0 1 0-.763-1.849l.763 1.849Zm12.686-8.276a1 1 0 1 0 .948 1.761l-.948-1.761Zm13.95-5.875a1 1 0 1 0-1.068-1.691l1.068 1.691Zm11.389-9.982a1 1 0 0 0 1.141 1.643l-1.141-1.643Zm13.367-7.101a1 1 0 0 0-1.181-1.615l1.181 1.615Zm10.884-10.53a1 1 0 1 0 1.192 1.606l-1.192-1.606Zm13.26-7.308a1 1 0 1 0-1.18-1.614l1.18 1.614Zm11.043-10.366a1 1 0 1 0 1.145 1.64l-1.145-1.64Zm13.571-6.713a1 1 0 0 0-1.083-1.682l1.083 1.682Zm11.784-9.51a1 1 0 1 0 .991 1.737l-.991-1.737Zm14.208-5.21a1 1 0 1 0-.863-1.804l.863 1.804Zm13.029-7.708a1 1 0 0 0 .693 1.876l-.693-1.876Zm14.919-2.51a.999.999 0 1 0-.477-1.942l.477 1.942Zm14.418-4.6a1 1 0 0 0 .219 1.988l-.219-1.988Zm16.31 2.078a1 1 0 0 0 .379-1.964l-.379 1.964Zm17.086 5.12a1 1 0 1 0-1.097 1.672l1.097-1.672Zm12.516 12.923a1 1 0 1 0 1.393-1.435l-1.393 1.435Zm13.803 11.517a1 1 0 1 0-1.47 1.356l1.47-1.356Zm10.781 14.422a1 1 0 1 0 1.431-1.397l-1.431 1.397Zm14.367 10.808a1 1 0 0 0-1.296 1.523l1.296-1.523Zm13.214 12.2a1 1 0 0 0 1.054-1.7l-1.054 1.7Zm16.859 6.171a1.002 1.002 0 0 0-1.291.579.999.999 0 0 0 .578 1.29l.713-1.869Zm15.69 5.972a1 1 0 1 0 .141-1.995l-.141 1.995Zm15.042-3.596a1 1 0 1 0 .524 1.93l-.524-1.93Zm15.007-3.829a1 1 0 0 0-.906-1.783l.906 1.783Zm12.323-9.473a1 1 0 1 0 1.076 1.686l-1.076-1.686Zm13.941-6.847a1 1 0 1 0-1.116-1.66l1.116 1.66Zm11.835-10.095a1 1 0 1 0 1.047 1.704l-1.047-1.704Zm14.456-5.613a1 1 0 1 0-.837-1.816l.837 1.816Zm13.943-6.831a1 1 0 0 0 .398 1.96l-.398-1.96Zm15.351 1.452a1 1 0 1 0 .291-1.978l-.291 1.978Zm15.147 3.026a1 1 0 1 0-.941 1.765l.941-1.765Zm11.416 10.548a1 1 0 0 0 1.33-1.494l-1.33 1.494Zm12.008 9.663a1 1 0 0 0-1.537 1.28l1.537-1.28Zm7.648 13.555a.999.999 0 1 0 1.654-1.124l-1.654 1.124Zm9.84 11.909a1 1 0 0 0-1.726 1.009l1.726-1.009ZM.552 1.317a301.117 301.117 0 0 0 2.64 7.57l1.88-.684A299.095 299.095 0 0 1 2.448.683l-1.896.634Zm8.426 22.058c2.234 5.086 4.517 9.734 6.848 13.975l1.752-.963c-2.298-4.184-4.556-8.779-6.769-13.817l-1.83.805Zm15.214 27.243c3.363 4.6 6.808 8.494 10.326 11.762l1.361-1.465c-3.415-3.172-6.776-6.968-10.072-11.478l-1.615 1.18ZM47.387 71.52a49.493 49.493 0 0 0 15.05 4.881l.308-1.976a47.493 47.493 0 0 1-14.446-4.685l-.912 1.78Zm30.815 5.143c5.122-.546 10.27-1.632 15.414-3.055l-.533-1.928c-5.068 1.402-10.106 2.463-15.093 2.994l.212 1.989Zm30.282-7.94c4.868-1.798 9.726-3.732 14.535-5.628l-.734-1.86c-4.818 1.9-9.651 3.824-14.494 5.612l.693 1.876Zm29.063-11.132c5.022-1.765 9.964-3.294 14.807-4.39l-.441-1.951c-4.944 1.12-9.965 2.675-15.03 4.455l.664 1.886Zm29.977-6.18c5.111.062 10.057.922 14.816 2.845l.749-1.854c-5.02-2.029-10.217-2.926-15.54-2.992l-.025 2Zm27.504 11.105a55.795 55.795 0 0 1 5.195 5.613l1.554-1.26a57.87 57.87 0 0 0-5.382-5.813l-1.367 1.46Zm5.195 5.613a65.841 65.841 0 0 1 4.75 6.713l1.699-1.056a67.938 67.938 0 0 0-4.895-6.917l-1.554 1.26Zm12.188 21.506c2.053 4.967 3.89 10.23 5.595 15.671l1.908-.597c-1.716-5.48-3.573-10.802-5.654-15.838l-1.849.764Zm10.202 31.715c1.446 5.381 2.838 10.8 4.256 16.184l1.934-.51c-1.413-5.366-2.811-10.807-4.258-16.193l-1.932.519Zm8.725 32.347c1.642 5.532 3.395 10.89 5.345 15.941l1.865-.72c-1.924-4.986-3.66-10.29-5.293-15.79l-1.917.569Zm12.544 31.204c3.027 5.147 6.503 9.653 10.595 13.263l1.323-1.5c-3.896-3.437-7.245-7.763-10.194-12.777l-1.724 1.014Zm25.581 21.336c2.655.698 5.481 1.126 8.492 1.261l.09-1.998c-2.878-.129-5.563-.537-8.074-1.197l-.508 1.934Zm8.492 1.261c2.549.114 5.084.09 7.608-.063l-.121-1.996a70.428 70.428 0 0 1-7.397.061l-.09 1.998Zm22.587-2.437c4.817-1.217 9.599-2.844 14.356-4.806l-.763-1.849c-4.681 1.931-9.371 3.525-14.083 4.715l.49 1.94Zm27.99-11.321c4.341-2.337 8.672-4.901 13.002-7.636l-1.068-1.691c-4.298 2.715-8.589 5.255-12.882 7.566l.948 1.761Zm25.532-15.975a627.514 627.514 0 0 0 12.226-8.744l-1.181-1.615a621.09 621.09 0 0 1-12.186 8.716l1.141 1.643Zm24.302-17.668c4-2.97 8.02-5.954 12.068-8.914l-1.18-1.614c-4.056 2.964-8.081 5.953-12.08 8.922l1.192 1.606Zm24.256-17.64a404.265 404.265 0 0 1 12.426-8.353l-1.083-1.682a404.598 404.598 0 0 0-12.488 8.395l1.145 1.64Zm25.201-16.126a207.295 207.295 0 0 1 13.217-6.947l-.863-1.804a209.103 209.103 0 0 0-13.345 7.014l.991 1.737Zm26.939-12.779a131.882 131.882 0 0 1 14.226-4.386l-.477-1.942a133.72 133.72 0 0 0-14.442 4.452l.693 1.876Zm28.863-6.998c2.452-.27 4.923-.457 7.415-.556l-.08-1.998c-2.539.1-5.057.291-7.554.566l.219 1.988Zm7.415-.556c3.02-.119 5.903.111 8.676.646l.379-1.964a39.7 39.7 0 0 0-9.135-.68l.08 1.998Zm24.665 7.438c4.665 3.061 9.143 6.908 13.613 11.251l1.393-1.435c-4.519-4.39-9.098-8.331-13.909-11.488l-1.097 1.672Zm25.946 24.124c3.941 4.273 7.992 8.701 12.251 13.066l1.431-1.397c-4.234-4.34-8.263-8.743-12.212-13.025l-1.47 1.356Zm25.322 25.397c4.514 3.84 9.319 7.457 14.51 10.677l1.054-1.7c-5.09-3.158-9.815-6.712-14.268-10.5l-1.296 1.523Zm30.656 18.717a89.031 89.031 0 0 0 8.612 2.791l.518-1.932a86.827 86.827 0 0 1-8.417-2.728l-.713 1.869Zm8.612 2.791a41.132 41.132 0 0 0 7.791 1.312l.141-1.995a39.087 39.087 0 0 1-7.414-1.249l-.518 1.932Zm23.357-.354c4.894-1.33 9.716-3.336 14.483-5.759l-.906-1.783c-4.683 2.381-9.375 4.327-14.101 5.612l.524 1.93Zm27.882-13.546c4.299-2.746 8.588-5.656 12.865-8.533l-1.116-1.66c-4.288 2.884-8.551 5.778-12.825 8.507l1.076 1.686Zm25.747-16.924c4.455-2.739 8.917-5.245 13.409-7.317l-.837-1.816c-4.589 2.116-9.124 4.665-13.619 7.429l1.047 1.704Zm27.75-12.188c4.922-1.002 9.896-1.253 14.953-.508l.291-1.978c-5.314-.784-10.523-.516-15.642.526l.398 1.96Zm29.159 4.283c4.035 2.151 8.151 5.036 12.357 8.783l1.33-1.494c-4.309-3.838-8.554-6.819-12.746-9.054l-.941 1.765Zm22.828 19.726c3.016 3.62 6.076 7.698 9.185 12.275l1.654-1.124c-3.14-4.624-6.24-8.755-9.302-12.431l-1.537 1.28Zm17.299 25.193a291.176 291.176 0 0 1 3.86 6.825l1.754-.962a286.528 286.528 0 0 0-3.888-6.872l-1.726 1.009Z" fill="#540011"/></svg>