<svg width="56" height="56" fill="none" xmlns="http://www.w3.org/2000/svg"><g clip-path="url(#a)" fill="#fff"><path d="M18.407 40.163 17 39.538v3.95l2 .92v-3.33a1 1 0 0 0-.593-.915ZM19 23.118v2.937l2-1.036v-1.9a5.007 5.007 0 0 1 2.914-4.539L38.161 12a1.97 1.97 0 0 1 1.948.154A1.914 1.914 0 0 1 41 13.81v5.89l2 .923V13.81a4 4 0 0 0-5.681-3.622l-14.25 6.58A7 7 0 0 0 19 23.118Z"/><path d="M27.217 41.893 33 44.46v-1.342a3.007 3.007 0 0 0-1.74-2.718L17 33.816v3.532l2.219.988a3 3 0 0 1 1.78 2.741V53a.999.999 0 0 0 1.177.984A1.1 1.1 0 0 0 23 52.876v-8.24a3.001 3.001 0 0 1 4.217-2.743ZM23 23.118v.865l10.458-5.417a5.985 5.985 0 0 1 5.058-.01l.484.223v-4.97L24.75 20.4A3 3 0 0 0 23 23.12Zm-9.238 5.647c.1-.065 3.134-1.622 3.238-1.674v-3.973a9 9 0 0 1 5.234-8.169L36.48 8.371c.12-.055.244-.094.366-.14L21.62.346a4 4 0 0 0-3.3.031L4.07 6.958A7 7 0 0 0 0 13.308v10.88a1.962 1.962 0 0 0 1.316 1.867c.125.046-.579-.306 10.226 5.283a5.955 5.955 0 0 1 2.22-2.574ZM3.58 13.906a1 1 0 0 1 .84-1.814l11 5.095A1 1 0 1 1 14.58 19l-11-5.093Z"/><path d="m51.934 26.954-14.253-6.58a3.987 3.987 0 0 0-3.34-.012l-.015.007-15.174 7.86c.122.046.246.086.367.141l14.25 6.58A9 9 0 0 1 39 43.118V54c0 .057-.008.112-.01.168l15.51-8.024a2.055 2.055 0 0 0 1.5-1.958v-10.88a7 7 0 0 0-4.066-6.35Zm.486 5.3-11 5.1a1 1 0 0 1-.84-1.815l11-5.095a1.002 1.002 0 0 1 1.447.861 1 1 0 0 1-.607.953v-.004ZM25.455 43.8a.983.983 0 0 0-.455.84v2.542l8 3.692v-4.225l-6.595-2.927a.982.982 0 0 0-.95.078Z"/><path d="m32.934 36.768-14.253-6.58A4 4 0 0 0 13 33.808v10.96a2 2 0 0 0 1.16 1.811L19 48.815v-2.207L16.161 45.3A1.993 1.993 0 0 1 15 43.49v-9.68a2 2 0 0 1 2.87-1.794L32.1 38.58a5.013 5.013 0 0 1 2.9 4.538v7.75a1.999 1.999 0 0 1-2.833 1.82L25 49.381v2.2l9.159 4.232A2.01 2.01 0 0 0 36.999 54V43.12a7 7 0 0 0-4.065-6.35Z"/></g><defs><clipPath id="a"><path fill="#fff" d="M0 0h56v56H0z"/></clipPath></defs></svg>