<svg width="56" height="56" fill="none" xmlns="http://www.w3.org/2000/svg"><path d="M28.849 6.842c1.435 0 2.599.36 3.543.902 1.82.498 3.973 1.277 6.073 2.459-1.575-3.93-5.399-6.712-9.888-6.712H27.44c-4.48 0-8.304 2.774-9.879 6.685C22.575 7.35 27.93 6.877 28.236 6.851c.228-.017.429-.017.622-.017l-.01.008Z" fill="#fff"/><path d="M9.975 31.307a2.281 2.281 0 0 1 1.724-.778c.866 0 1.662.48 2.074 1.25.367.675.822 1.26 1.303 1.76l.184-2.687s-.604-8.986 15.304-12.337a3.43 3.43 0 0 0 1.111-.446c1.015-.64 2.73-2.24 2.24-5.6 0 0-.927-4.165-5.556-3.86 0 0-9.625.77-14.718 7.018 0 0-5.547 5.854-4.007 14.018 0 0 .096.665.341 1.662Z" fill="#fff"/><path d="M46.366 29.645c1.54-8.164-4.007-14.018-4.007-14.018-2.03-2.493-4.778-4.095-7.359-5.145a6.61 6.61 0 0 1 .621 1.602l.018.122c.665 4.489-1.899 6.633-3.028 7.341-.463.29-.98.5-1.53.63 10.097 3.99 9.66 10.675 9.66 10.675l.358 5.277-.656 2.3c-1.672 5.557-6.904 9.372-12.688 9.258-4.856-.087-9.179-2.975-11.322-7.358a9.406 9.406 0 0 0-1.313 1.242 14.979 14.979 0 0 0 5.128 5.591v4.07c0 .7.568 1.268 1.268 1.268h12.565c.692 0 1.26-.569 1.26-1.269v-3.78a14.78 14.78 0 0 0 6.694-8.286c.035-.018.079-.026.114-.061 3.281-3.247 4.217-9.46 4.217-9.46Z" fill="#fff"/><path d="M26.626 31.701a.876.876 0 0 0-.166-1.225.876.876 0 0 0-1.225.167 2.52 2.52 0 0 1-2.03 1.015 2.52 2.52 0 0 1-2.03-1.015.869.869 0 0 0-1.225-.167.868.868 0 0 0-.166 1.225 4.268 4.268 0 0 0 3.421 1.707 4.256 4.256 0 0 0 3.421-1.707Zm10.5 0a.876.876 0 0 0-.166-1.225.876.876 0 0 0-1.225.167 2.52 2.52 0 0 1-2.03 1.015 2.52 2.52 0 0 1-2.03-1.015.869.869 0 0 0-1.225-.167.868.868 0 0 0-.166 1.225 4.268 4.268 0 0 0 3.421 1.707 4.256 4.256 0 0 0 3.421-1.707Zm-8.68 10.37c1.216 0 2.345-.395 3.106-1.086a.873.873 0 1 0-1.172-1.295c-.438.403-1.164.639-1.934.639s-1.496-.236-1.934-.639a.873.873 0 1 0-1.172 1.295c.761.691 1.899 1.085 3.106 1.085Zm-11.699-5.05c-1.242-.708-3.29-2.135-4.514-4.418-.228-.42-.814-.447-1.042-.027-.656 1.182-2.012 3.054-4.523 4.454-.403.228-.42.805-.01 1.024 1.217.665 3.23 2.065 4.56 4.541.218.411.805.438 1.032.026.709-1.25 2.152-3.325 4.48-4.576.411-.219.438-.805.035-1.032l-.018.008Zm32.638 8.812c-.884-.534-2.144-1.47-2.984-2.905-.236-.403-.805-.42-1.041-.018-.499.831-1.417 1.995-2.984 2.931a.591.591 0 0 0-.008 1.024c.866.508 2.117 1.453 3.018 3.001.228.394.788.42 1.024.027.534-.884 1.496-2.17 2.949-3.037.393-.236.42-.787.026-1.023Z" fill="#fff"/></svg>