<svg width="56" height="56" fill="none" xmlns="http://www.w3.org/2000/svg"><path d="m19.642 18.293.42-3.783-1.374-.685a63.635 63.635 0 0 1-6.212 11.913 16.983 16.983 0 0 0-1.071 16.996 13.916 13.916 0 0 0 5.22 1.016h1.4l-.328-1.203a30.416 30.416 0 0 1 .489-17.622 32.237 32.237 0 0 0 1.456-6.633Z" fill="#fff"/><path d="M11.025 24.762A61.844 61.844 0 0 0 16.8 13.831c-.526.531-1.12.99-1.766 1.365l-6.022 3.486A12.825 12.825 0 0 0 2.625 29.75 13.993 13.993 0 0 0 8.97 41.457a18.711 18.711 0 0 1 2.055-16.695Zm11.694-12.6a8.467 8.467 0 0 1-.844-3.661V5.442l-2.625.525v1.908a8.431 8.431 0 0 1-.928 3.807L21 13.022l1.72-.86ZM27.63 23.4l4.006-3.253-6.435-4.921a8.279 8.279 0 0 1-.875-.788l.185.613a68.335 68.335 0 0 0 3.12 8.35Zm-2.465 2.004 1.06-.861a70.114 70.114 0 0 1-3.397-8.99l-.388-1.29-.622.311-.437 3.916a34.063 34.063 0 0 1-1.537 6.994 28.673 28.673 0 0 0-.458 16.604l.454 1.663h.57a15.92 15.92 0 0 1 4.755-18.347Z" fill="#fff"/><path d="M52.238 30.702a19.041 19.041 0 0 0-10.314-10.315l-.84-.35a4.2 4.2 0 0 1-2.459-4.893l.404-1.614c.231-.92.349-1.863.35-2.811a1.091 1.091 0 0 0-2.15-.263l-2.252 9.013a.875.875 0 0 1-.296.467l-8.409 6.833a14.263 14.263 0 0 0-.482 21.724 8.955 8.955 0 0 0 5.95 2.257h8.606c1.54-.002 3.06-.336 4.459-.98a14.752 14.752 0 0 0 7.437-19.068h-.004Zm-4.44 14.612-.175.18A11.978 11.978 0 0 1 39.15 49h-7.228a8.515 8.515 0 0 1-6.913-3.558 12.124 12.124 0 0 1 3.14-17.134l.605-.404a21.273 21.273 0 0 0 7.213-8.17.876.876 0 0 1 1.208-.374l3.746 2.082a27.935 27.935 0 0 1 7.474 6.037 13.06 13.06 0 0 1-.595 17.834l-.002.001Z" fill="#fff"/><path d="m40.075 22.971-2.964-1.646a23.034 23.034 0 0 1-7.382 8.035l-.606.404a10.375 10.375 0 0 0-2.687 14.66 6.76 6.76 0 0 0 5.486 2.826h7.228a10.226 10.226 0 0 0 7.234-2.996l.18-.175a11.31 11.31 0 0 0 .513-15.444 26.168 26.168 0 0 0-7.002-5.664Zm-9.703 7.035 1.75 1.75-1.237 1.238-1.75-1.75 1.237-1.238ZM27.125 35h2.625v1.75h-2.625V35Zm4.33 10.777-1.663-.553.875-2.625 1.663.553-.875 2.625Zm-1.428-5.572-.553-1.663 2.625-.875.553 1.663-2.625.875Zm13.467-11.586-2.625 2.625-1.237-1.238 2.625-2.625 1.237 1.238Zm1.522 6.475-.782 1.566-1.75-.875.782-1.566 1.75.875Zm-3.405-1.114-2.625 1.75-.971-1.456 2.624-1.75.972 1.456Zm-3.063-8.005 1.663.553-.875 2.625-1.663-.553.875-2.625Zm-4.423.275h1.75v2.625h-1.75V26.25Zm.849 15.087-1.698-.424.875-3.5 1.698.424-.875 3.5Zm.901-5.462H33.25v-1.75h2.625v1.75Zm0-5.25h1.75v2.625h-1.75v-2.625ZM38.5 43.75h-1.75V42h1.75v1.75Zm.147-3.89-1.75-2.624 1.456-.971 1.75 2.624-1.456.972Zm1.695 6.031-.875-1.75 1.566-.782.875 1.75-1.566.782Zm1.704-2.74-.875-2.624 1.662-.553.875 2.625-1.662.553Zm3.062-2.993-1.75-.875.782-1.566 1.75.875-.782 1.566Zm-.093-7-.782-1.566 1.75-.875.782 1.566-1.75.875Z" fill="#fff"/></svg>