<svg width="693" height="256" fill="none" xmlns="http://www.w3.org/2000/svg"><path opacity=".15" d="M658.234.36a1 1 0 1 1 1.536 1.28L658.234.36ZM486.5 156l-.278-.961.278.961ZM352 254l.125.992L352 254ZM134.502 133.5l.163.987-.163-.987ZM1.408 205.996a1 1 0 0 1-.902-1.09l.848-8.96a1 1 0 1 1 1.99.188l-.752 7.965 7.964.753a1 1 0 0 1-.188 1.991l-8.96-.847ZM654.533 8.035a1 1 0 1 1-1.558-1.253l1.558 1.253Zm-11.417 11.543a1 1 0 1 1 1.612 1.183l-1.612-1.183Zm-7.479 14.389a1 1 0 0 1-1.686-1.076l1.686 1.076Zm-9.76 13.059a1 1 0 1 1 1.792.888l-1.792-.888ZM621.95 62.7a1 1 0 1 1-1.936-.499l1.936.5Zm-2.745 15.983a1 1 0 1 1 1.956-.42l-1.956.42Zm9.74 12.762a1 1 0 1 1-1.364 1.462l1.364-1.462Zm12.286 10.534a1 1 0 0 1 .913-1.78l-.913 1.78Zm15.543 5.002c.504.226.729.818.504 1.322a1 1 0 0 1-1.322.503l.818-1.825Zm13.598 8.928a1 1 0 1 1 .997-1.734l-.997 1.734Zm14.011 8.257a1 1 0 0 1-1.477 1.349l1.477-1.349Zm5.769 14.986a1.001 1.001 0 0 1 1.95-.448l-1.95.448Zm1.927 16.032a1 1 0 1 1-1.94-.483l1.94.483Zm-10.44 11.453a1 1 0 1 1 1.057 1.697l-1.057-1.697Zm-14.408 6.403a1 1 0 0 1-.213-1.989l.213 1.989Zm-15.925-1.86a1 1 0 0 1-.131 1.996l.131-1.996Zm-15.971.26a1 1 0 1 1 .286-1.98l-.286 1.98Zm-15.344-4.579a1 1 0 1 1-.361 1.967l.361-1.967Zm-15.973-1.044a1 1 0 0 1 .391-1.962l-.391 1.962Zm-15.185-5.082a1 1 0 0 1-.391 1.961l.391-1.961Zm-15.971-1.047a1 1 0 0 1 .364-1.967l-.364 1.967Zm-15.306-4.668a1 1 0 0 1-.311 1.976l.311-1.976Zm-16.004-.175a1 1 0 0 1 .227-1.988l-.227 1.988Zm-15.662-3.319a.999.999 0 1 1-.099 1.997l.099-1.997Zm-15.878 1.907a1 1 0 0 1-.089-1.998l.089 1.998Zm-15.986-.237a1 1 0 0 1 .369 1.966l-.369-1.966Zm-15.134 6.543a1 1 0 0 1-.769-1.846l.769 1.846Zm-15.826 6.283a1 1 0 1 1 1.107 1.666l-1.107-1.666Zm-12.2 11.93a1 1 0 0 1-1.316-1.506l1.316 1.506Zm-13.641 10.233a1 1 0 1 1 1.429 1.399l-1.429-1.399Zm-10.17 13.715a1.001 1.001 0 0 1-1.473-1.353l1.473 1.353Zm-12.947 11.112a.998.998 0 0 1 1.413-.047.998.998 0 0 1 .047 1.413l-1.46-1.366Zm-10.433 13.516a1 1 0 1 1-1.386-1.442l1.386 1.442Zm-14.07 9.626a1 1 0 1 1 1.225 1.581l-1.225-1.581Zm-13.08 10.939a1 1 0 1 1-.938-1.767l.938 1.767Zm-16.45 4.34a1 1 0 1 1 .502 1.936l-.502-1.936Zm-16.168 4.21a1 1 0 0 1-.062-1.999l.062 1.999Zm-16.067-3.111a1 1 0 1 1-.342 1.97l.342-1.97Zm-16.174-2.473a1 1 0 0 1 .727-1.864l-.727 1.864Zm-13.697-8.988a1.001 1.001 0 0 1-1.027 1.717l1.027-1.717Zm-14.506-7.6a1 1 0 0 1 1.232-1.576l-1.232 1.576Zm-11.051-12.116a1 1 0 0 1-1.361 1.466l1.361-1.466Zm-13-9.984a.999.999 0 1 1 1.436-1.392l-1.436 1.392Zm-9.707-13.219a1 1 0 1 1-1.469 1.357l1.469-1.357Zm-12.486-10.621a1 1 0 1 1 1.469-1.357l-1.469 1.357Zm-9.722-13.212a1 1 0 0 1-1.434 1.395l1.434-1.395Zm-13.026-9.952a1 1 0 0 1 1.356-1.47l-1.356 1.47Zm-11.114-12.056a1 1 0 1 1-1.22 1.584l1.22-1.584Zm-14.579-7.452a1 1 0 1 1 1.003-1.73l-1.003 1.73Zm-13.853-8.738a1.001 1.001 0 0 1-.684 1.88l.684-1.88Zm-16.235-2.028a1 1 0 0 1 .28-1.98l-.28 1.98Zm-16.163-2.543a1 1 0 0 1 .138 1.996l-.138-1.996Zm-15.254 4.413a1 1 0 1 1-.453-1.948l.453 1.948Zm-15.193 2.313a1 1 0 1 1 .646 1.893l-.646-1.893Zm-13.501 7.331a1 1 0 0 1-.783-1.841l.783 1.841Zm-14.68 4.553a1 1 0 0 1 .885 1.794l-.885-1.794Zm-12.58 8.835a1 1 0 1 1-.966-1.751l.966 1.751Zm-14.2 5.882a1 1 0 1 1 1.03 1.714l-1.03-1.714Zm-11.872 9.771a1 1 0 1 1-1.086-1.68l1.086 1.68Zm-13.772 6.797a1 1 0 1 1 1.135 1.646l-1.135-1.646Zm-11.284 10.466a1 1 0 1 1-1.18-1.615l1.18 1.615Zm-13.383 7.586a1 1 0 0 1 1.229 1.578l-1.23-1.578ZM659.77 1.64a475.3 475.3 0 0 0-5.237 6.395l-1.558-1.253A473.11 473.11 0 0 1 658.234.36l1.536 1.28Zm-15.042 19.121c-3.438 4.685-6.458 9.08-9.091 13.206l-1.686-1.076c2.659-4.168 5.704-8.598 9.165-13.313l1.612 1.183Zm-17.059 27.153c-2.728 5.507-4.59 10.406-5.719 14.786l-1.936-.499c1.17-4.543 3.088-9.573 5.863-15.175l1.792.888Zm-6.508 30.35c1.141 5.325 3.916 9.571 7.784 13.181l-1.364 1.462c-4.105-3.83-7.132-8.423-8.376-14.224l1.956-.42Zm20.983 21.935c4.621 2.37 9.607 4.532 14.63 6.782l-.818 1.825c-4.988-2.235-10.043-4.427-14.725-6.827l.913-1.78Zm29.225 13.976c4.897 2.815 9.399 6.034 13.014 9.991l-1.477 1.349c-3.426-3.751-7.739-6.85-12.534-9.606l.997-1.734Zm20.733 24.529c.586 2.559.898 5.315.898 8.296h-2c0-2.84-.297-5.446-.848-7.848l1.95-.448ZM693 147c0 3.013-.311 5.735-.921 8.184l-1.94-.483c.564-2.267.861-4.824.861-7.701h2Zm-10.304 21.334c-4.164 2.594-9.414 4.058-15.465 4.706l-.213-1.989c5.877-.629 10.802-2.036 14.621-4.414l1.057 1.697Zm-31.521 4.842c-4.982-.327-10.287-.934-15.84-1.736l.286-1.98c5.518.798 10.769 1.397 15.685 1.72l-.131 1.996Zm-31.545-4.348c-5.08-.932-10.299-1.952-15.612-3.011l.391-1.962a1043.353 1043.353 0 0 0 15.582 3.006l-.361 1.967Zm-31.188-6.132a1170.862 1170.862 0 0 0-15.58-3.008l.364-1.967c5.228.967 10.443 1.986 15.607 3.014l-.391 1.961Zm-31.197-5.7a370.747 370.747 0 0 0-15.693-2.151l.227-1.988c5.209.594 10.481 1.33 15.777 2.163l-.311 1.976Zm-31.454-3.473c-5.405-.269-10.681-.318-15.779-.09l-.089-1.998c5.171-.231 10.51-.181 15.967.091l-.099 1.997Zm-31.396 1.639a81.799 81.799 0 0 0-7.617 1.799l-.556-1.922a84.265 84.265 0 0 1 7.804-1.843l.369 1.966Zm-7.617 1.799a73.454 73.454 0 0 0-7.886 2.778l-.769-1.846a75.72 75.72 0 0 1 8.099-2.854l.556 1.922Zm-22.605 10.727c-4.608 3.059-9.023 6.521-13.307 10.264l-1.316-1.506c4.336-3.788 8.821-7.307 13.516-10.424l1.107 1.666Zm-25.519 21.896c-3.92 4.002-7.767 8.143-11.599 12.316l-1.473-1.353c3.836-4.177 7.7-8.337 11.643-12.362l1.429 1.399Zm-23.086 24.794c-3.906 4.176-7.853 8.267-11.893 12.15l-1.386-1.442c4.004-3.849 7.925-7.911 11.819-12.074l1.46 1.366Zm-24.738 23.357c-4.569 3.541-9.315 6.71-14.305 9.358l-.938-1.767c4.871-2.584 9.521-5.687 14.018-9.172l1.225 1.581Zm-30.253 15.634a66.904 66.904 0 0 1-8.452 1.623l-.25-1.984a65.042 65.042 0 0 0 8.2-1.575l.502 1.936Zm-8.452 1.623a87.597 87.597 0 0 1-8.218.651l-.062-1.999a85.693 85.693 0 0 0 8.03-.636l.25 1.984Zm-24.627-.49c-5.497-.956-10.763-2.467-15.832-4.443l.727-1.864c4.953 1.931 10.09 3.405 15.447 4.337l-.342 1.97Zm-30.556-11.714c-4.638-2.774-9.12-5.909-13.479-9.317l1.232-1.576c4.304 3.366 8.717 6.452 13.274 9.176l-1.027 1.717Zm-25.891-19.967c-3.948-3.668-7.818-7.51-11.639-11.45l1.436-1.392c3.803 3.923 7.648 7.738 11.564 11.376l-1.361 1.466Zm-22.815-23.312c-3.701-4.009-7.326-7.983-11.017-11.978l1.469-1.357c3.658 3.96 7.36 8.017 11.017 11.978l-1.469 1.357Zm-22.173-23.795c-3.816-3.923-7.67-7.729-11.592-11.347l1.356-1.47c3.956 3.648 7.836 7.481 11.67 11.422l-1.434 1.395Zm-23.926-21.819c-4.334-3.338-8.775-6.378-13.359-9.036l1.003-1.73c4.671 2.708 9.185 5.799 13.576 9.182l-1.22 1.584Zm-27.896-15.894c-4.985-1.814-10.156-3.147-15.551-3.908l.28-1.98c5.541.782 10.847 2.149 15.955 4.008l-.684 1.88Zm-31.576-4.455a84.75 84.75 0 0 0-8 .941l-.326-1.974a87.302 87.302 0 0 1 8.188-.963l.138 1.996Zm-8 .941c-2.435.402-4.901.897-7.392 1.476l-.453-1.948c2.53-.588 5.038-1.092 7.519-1.502l.326 1.974Zm-21.939 5.682c-4.695 1.6-9.425 3.431-14.147 5.438l-.783-1.841a209.13 209.13 0 0 1 14.284-5.49l.646 1.893Zm-27.942 11.785a335.65 335.65 0 0 0-13.465 7.041l-.966-1.751A338.2 338.2 0 0 1 83.9 150.16l.884 1.794ZM58.15 166.591a463.855 463.855 0 0 0-12.902 8.057l-1.086-1.68a469.354 469.354 0 0 1 12.957-8.091l1.031 1.714Zm-25.539 16.5a547.273 547.273 0 0 0-12.418 8.82l-1.181-1.615a550.174 550.174 0 0 1 12.464-8.851l1.135 1.646ZM8.037 201.075a359.347 359.347 0 0 0-4.374 3.458c-.5.402-.882.713-1.138.922-.129.104-.225.184-.29.237l-.072.059a.409.409 0 0 1-.018.015l-.005.004v.001L1.501 205l-.637-.771.001-.001.005-.004.02-.016.074-.062.295-.241c.26-.212.645-.525 1.15-.931a364.628 364.628 0 0 1 4.398-3.477l1.229 1.578Z" fill="#540011"/></svg>