<svg width="56" height="56" fill="none" xmlns="http://www.w3.org/2000/svg"><path d="M52.398 20.902c-2.656-1.143-6.63-1.378-10.572 3.829-.212.022-.424.03-.636.03.16-1.03.235-2.058.227-3.08a10.19 10.19 0 0 0 1.158-.938c3.572-.364 5.222-2.626 5.025-5.146-.272-3.534 1.264-4.306.568-5.086a.75.75 0 0 0-.757-.242c-2.8.72-6.084 2.967-6.024 9.497-.023.03-.053.053-.083.084a19.572 19.572 0 0 0-1.241-4.965c3.2-6.023 1.279-9.694-.939-11.722a.76.76 0 0 0-1.264.492c-.332 3.458-1.672 4.064-2.103 5.88-4.238-1.9-5.222 1.831-10.073 2.845a.766.766 0 0 0-.575.545.78.78 0 0 0 .235.765c3.065 2.686 7.242 3.269 12.464-.144.287.583.484 1.006.741 1.604l.008.008c.552 1.34.93 2.686 1.15 4.04-.121-.03-.235-.044-.356-.067-2.436-2.641-5.26-2.573-7.143-.916a9.215 9.215 0 0 1-3.845 2.036.756.756 0 0 0-.287 1.324c2.837 2.27 6.644 2.603 11.207-.923.205.038.401.083.606.136.075 1.483-1.84 13.228-.03 8.816.435-1.083.787-2.2 1.051-3.337.356.038.908-.008 1.264-.045 3.02 1.891 5.706 1.15 7.114-.992 1.93-2.913 3.617-2.648 3.564-3.67a.77.77 0 0 0-.454-.658Zm-17.814-.053c.015 0 .946-.258 2.225-.326-2.384 1.4-4.571 1.627-6.531.674 2.89-1.219 3.814-3.67 6.53-2.195-1.475.076-2.557.37-2.633.394-.96.272-.552 1.725.409 1.453Zm4.767-7.954c-.355-1.294-.582-2.906.038-3.852A.751.751 0 0 0 39.162 8c-1.097-.72-1.687 1.362-1.672 2.694-.114-.098-.227-.204-.34-.295.113-1.642 1.248-1.975 1.96-5.01 1.467 2.013 1.543 4.488.241 7.507Zm5.29 12.782c1.408-.462 2.369-1.03 2.437-1.067a.756.756 0 0 0 .265-1.037c-.53-.878-1.135-.023-3.088.636 1.93-1.976 3.98-2.763 6.115-2.361-2.672 2.096-2.656 4.548-5.729 3.829Z" fill="#fff"/><path d="M51.61 46.994c-.007-.015-.015-.03-.015-.045-.605-2.119-14.824-18.018-15.922-20.561-.431-.704-1.135-.227-6.69-.197a.748.748 0 0 0-.824.78c.567 10.61-2.172-1.552 14.476 25.548.364.719 8.673.583 9.135.212 1.066-.84-.152-5.646-.16-5.737Zm-8.543 3.338c-5.79-9.354-7.364-11.54-13.183-18.601l-.098-2.225c0-.008 0-.008-.008-.008h.008v-.03c.181.242.234.325.227.325.756.984 3.685 4.798 13.349 17.444-.348 1.036-.515 2.013-.295 3.095Zm7.643 1.218c-.076.008-6.122-.151-6.198-.151 0 0-.461-1.393.227-3.504l5.48-.023c.332 2.157.529 3.012.491 3.678ZM11.623 38.49a3.068 3.068 0 0 0 3.065 3.072 3.068 3.068 0 0 0 3.065-3.072c0-1.688-3.065-7.59-3.065-7.59s-3.065 5.902-3.065 7.59Z" fill="#fff"/><path d="M20.009 12.592a2.252 2.252 0 0 0 1.55-2.133v-4.98a2.264 2.264 0 0 0-2.262-2.263h-9.232A2.264 2.264 0 0 0 7.802 5.48v4.98c0 .998.65 1.838 1.551 2.133-.386 6.887-6.22 5.45-6.22 11.39v21.923a6.265 6.265 0 0 0 6.258 6.258h10.572a6.266 6.266 0 0 0 6.258-6.258V23.982c.008-5.865-5.819-4.579-6.212-11.39ZM9.293 10.46c.234-3.815-.568-5.76.78-5.76h.446c.189 2.483-.522 4.39.741 4.39 1.257 0 .553-1.915.742-4.39h3.088c.189 2.483-.523 4.39.741 4.39 1.256 0 .553-1.915.742-4.39 1.665.167 3.511-.469 3.511.78v4.98c0 .43-.348.779-.78.779h-.446c-.189-2.482.515-4.39-.741-4.39-1.257 0-.553 1.915-.742 4.39h-3.088V7.59c0-.983-1.483-.983-1.483 0v3.648h-2.732a.788.788 0 0 1-.78-.78Zm12.933 35.446a2.254 2.254 0 0 1-2.255 2.248H9.399a2.254 2.254 0 0 1-2.255-2.248V24.822a2.26 2.26 0 0 1 2.255-2.255H19.97a2.26 2.26 0 0 1 2.255 2.255v21.083Z" fill="#fff"/></svg>