<svg width="56" height="56" fill="none" xmlns="http://www.w3.org/2000/svg"><g clip-path="url(#a)" fill="#fff"><path d="m14.426 14.89 1.994.61a11.48 11.48 0 0 0 6.637 0 13.385 13.385 0 0 1 7.294-.146l.74.194c2.368.618 4.873.457 7.143-.458l2.024-.824a1.928 1.928 0 0 0 1.23-1.227 2.945 2.945 0 0 0-.62-2.438c-2.606-3.667-8.108-7.613-14.031-7.613-6.069 0-10.604 2.112-10.604 4.001 0 1.89 4.535 4.002 10.604 4.002a.975.975 0 0 1 .29.058.975.975 0 0 1 .29-.058c2.416 0 4.221-1.056 4.221-2.001 0-.945-1.805-2-4.221-2a6.265 6.265 0 0 0-3.482.929 1 1 0 0 1-1.159-1.63 8.185 8.185 0 0 1 4.64-1.3c3.49 0 6.223 1.757 6.223 4.001 0 2.244-2.733 4.002-6.222 4.002a.972.972 0 0 1-.29-.059.972.972 0 0 1-.29.059c-5.388 0-9.783-1.452-11.645-3.62l-1.892 2.08a1.979 1.979 0 0 0-.477 1.881 2.31 2.31 0 0 0 1.603 1.557Z"/><path d="M6.157 20.22a4.36 4.36 0 0 0 2.516.775h1.849c1.687-.001 3.36.305 4.938.905l3.81 1.462a12.064 12.064 0 0 0 8.238.083l5.71-2.051a13.963 13.963 0 0 1 8.178-.367l2.97.77a6.58 6.58 0 0 0 6.637-1.93c.017-.021.093-.101.112-.12a3.513 3.513 0 0 0-.563-4.998 10.194 10.194 0 0 0-5.053-2.29l-1.957-.317c.046.49.001.983-.132 1.456a3.934 3.934 0 0 1-2.398 2.52l-2.024.825a13.422 13.422 0 0 1-8.404.54l-.74-.194a11.365 11.365 0 0 0-6.203.124c-2.545.768-5.26.768-7.806 0l-1.994-.609a4.301 4.301 0 0 1-2.948-2.94 3.926 3.926 0 0 1-.082-1.714l-3.664.518a3.401 3.401 0 0 0-2.497 1.557 4.47 4.47 0 0 0 1.507 5.995Z"/><path d="M1.952 27.406a5.354 5.354 0 0 0 5.453 1.48 1.08 1.08 0 0 1 .08-.02 7.452 7.452 0 0 1 6.18.99l.943.63a5.522 5.522 0 0 0 4.572.701.995.995 0 0 1 .084-.02 7.39 7.39 0 0 1 6.399 1.155 5.62 5.62 0 0 1 2.335 4.478v2.202a1.801 1.801 0 0 0 .678 1.36c.514.421 1.16.648 1.824.64a2.296 2.296 0 0 0 2.502-2V34a3.329 3.329 0 0 1 6.625 0v2a.848.848 0 0 0 .327.646c.274.235.624.36.985.355a1.205 1.205 0 0 0 1.312-1v-4.723a2.005 2.005 0 0 1 2.076-1.92 2.18 2.18 0 0 1 .6.078 7.974 7.974 0 0 0 8.009-2.134 4.2 4.2 0 0 0 1.061-3.093 4.407 4.407 0 0 0-1.563-2.949 8.592 8.592 0 0 1-8.567 2.474l-2.973-.77a11.948 11.948 0 0 0-7 .312l-5.71 2.051c-1.5.534-3.08.805-4.671.801a13.99 13.99 0 0 1-4.957-.897l-3.809-1.462a11.877 11.877 0 0 0-4.225-.773h-1.85a6.375 6.375 0 0 1-3.676-1.146 7.336 7.336 0 0 1-1.503-1.43.993.993 0 0 1-.582.525l-.453.39a4.147 4.147 0 0 0-.593 5.964l.087.107Z"/><path d="m55.749 33.81-1.073-5.488c-.075.097-.146.196-.227.29a10.013 10.013 0 0 1-10.072 2.748.544.544 0 0 0-.125.013v4.628a3.172 3.172 0 0 1-3.313 3 3.44 3.44 0 0 1-2.295-.842 2.837 2.837 0 0 1-1.018-2.158V34a1.36 1.36 0 0 0-2.624 0v5.002a4.28 4.28 0 0 1-4.502 4.001 4.79 4.79 0 0 1-3.126-1.121 3.768 3.768 0 0 1-1.376-2.88V36.8a3.591 3.591 0 0 0-1.54-2.88 5.387 5.387 0 0 0-4.714-.81.99.99 0 0 1-.081.02 7.453 7.453 0 0 1-6.18-.989l-.944-.63a5.515 5.515 0 0 0-4.572-.702.856.856 0 0 1-.085.021 7.383 7.383 0 0 1-6.97-1.639l-.774 5.284A14.581 14.581 0 0 0 3.742 46.23a20.64 20.64 0 0 0 15.754 6.778h17.007a20.764 20.764 0 0 0 16-7.072 14.484 14.484 0 0 0 3.246-12.125Z"/></g><defs><clipPath id="a"><path fill="#fff" d="M0 0h56v56H0z"/></clipPath></defs></svg>