<svg width="56" height="56" fill="none" xmlns="http://www.w3.org/2000/svg"><g clip-path="url(#a)" fill="#fff"><path d="M21.008 44.003v-8.628l-4.998-5.831-5 5.831v8.628h2v-5.998a1 1 0 0 1 1-1h4a1 1 0 0 1 .999 1v5.998h2Zm13.997-3h2v3h-2v-3Z"/><path d="M15.01 39.004h2v4.999h-2v-4.999Zm16.821-4.999-4.284-4.999h-9.364l4.285 5h9.363Zm7.225.316a1 1 0 0 1 .948-1.315h.523l-1.452-3.628a1 1 0 0 1 .929-1.371h.276l-2.276-3.983-2.276 3.983h.277a1 1 0 0 1 .928 1.371l-1.451 3.628h.523a1 1 0 0 1 .947 1.315l-1.56 4.683h5.223l-1.56-4.683Z"/><path d="M9.011 44.003v-8.998a1 1 0 0 1 .24-.65l6-7a.988.988 0 0 1 .334-.242h.012a.968.968 0 0 1 .412-.106h6.999v-3a1 1 0 0 1 1-1h3.999a1 1 0 0 1 1 1v3.63l4.41 5.146 1.111-2.777h-.523a1 1 0 0 1-.868-1.5l4-6.998a1.04 1.04 0 0 1 1.735 0l3.999 6.998a.999.999 0 0 1-.868 1.5h-.523l1.452 3.627a1 1 0 0 1-.929 1.372h-.612l1.56 4.683a1 1 0 0 1-.948 1.316h-2.999v2.999h5.748A25.994 25.994 0 1 0 .013 26.007a25.803 25.803 0 0 0 7.25 17.996H9.01Zm36.992-19.995h1.999v1.999h-2v-2Zm-5-9.998h2v2h-2v-2Zm-9.997-2h2v2h-2v-2Zm-4-8.998h2v2h-2v-2ZM11.012 23.008h-2v-2h2v2Zm10.997-6.999h2v2h-2v-2Zm-3.999-5.998h2v2h-2v-2Zm-2.436-5.609.873 1.8a22.194 22.194 0 0 0-2.82 1.636l-1.129-1.651c.98-.67 2.008-1.267 3.076-1.785ZM5.013 31.006h-2v-2h2v2ZM3.148 18.709a24.032 24.032 0 0 1 7.208-10.872l1.306 1.514a22.032 22.032 0 0 0-6.61 9.968l-1.904-.61Zm30.856 27.293H7.732L4.4 56h43.214l-3.332-9.998H34.005Zm2 6.999a1 1 0 0 1-1 1H17.01a1 1 0 0 1-1-1v-4a1 1 0 0 1 1-1h17.996a1 1 0 0 1 1 1v4Z"/><path d="M33.006 36.005h-9.998v7.998h9.998v-7.998Zm-5.999 4.999h-2v-3h2v3Zm4 0h-2v-3h2v3Zm-12.998 8.998h15.996V52H18.01v-2Zm6.999-24.995h2v2h-2v-2Z"/></g><defs><clipPath id="a"><path fill="#fff" d="M0 0h56v56H0z"/></clipPath></defs></svg>