<svg width="56" height="56" fill="none" xmlns="http://www.w3.org/2000/svg"><g clip-path="url(#a)" fill="#fff"><path d="M28.813 45.383c-.505.331-.56 2.495-.544 3.103a.249.249 0 0 1-.304.25c-.755-.168-1.4-.5-1.946-.907-.004 2.95-.197 6.402-.996 7.787 2.188.51 5.537.664 6.743-.504-1.441-2.198-1.72-6.355-1.751-8.77a5.963 5.963 0 0 1-1.202-.96Z"/><path d="M38.484 37.38a4.561 4.561 0 0 1-2.16-.84c-.07 1.067.007 2.863.911 3.093a.25.25 0 0 1 .076.451c-1.368.9-3.84.774-5.638-2.473a.25.25 0 0 1 .438-.242c1.005 1.817 2.564 3.21 4.503 2.497-1.084-.893-.787-3.508-.745-3.839a.25.25 0 0 1 .412-.157c1.99 1.728 4.582 1.107 6.791-.366-3.464-.125-5.392-2.899-5.479-3.026a.25.25 0 0 1 .19-.39c1.97-.137 2.8-1.198 3.083-1.695-3.75-1.047-5.494-5.63-5.867-6.744-.977.262-1.87.214-2.627-.14.215.71.69 1.88 1.557 2.258a.25.25 0 0 1 .021.448c-1.837 1.027-4.31-.884-5.686-2.594a.25.25 0 1 1 .39-.314c2.098 2.609 3.791 2.744 4.577 2.614-1.12-.903-1.48-2.798-1.497-2.889a.25.25 0 0 1 .395-.246c1.3.958 3.023.485 4.412-.349-3.112-.843-4.083-3.826-4.093-3.858a.25.25 0 0 1 .345-.3c.869.409 1.97-.147 2.563-.527-2.341-.754-3.383-3.21-3.645-3.935a2.96 2.96 0 0 1-.872-.058c-.138.357-.104.846.102 1.455a.25.25 0 0 1-.33.312c-1.598-.64-2.289-2.286-2.317-2.355a.25.25 0 1 1 .463-.19c.005.013.495 1.174 1.56 1.836-.119-.598-.061-1.094.173-1.478a.25.25 0 0 1 .28-.111c1.613.44 2.683-.636 3.274-2.192-2.3.946-4.297-1.24-4.319-1.264-.167-.187.015-.477.256-.407 1.332.385 2.062-.182 2.346-.492-2.34-1.761-3.82-6.547-4.422-8.873-.693 3.669-2.588 7.25-6.234 8.128.378.336 1.169.894 2.594 1.336a.251.251 0 0 1 .158.332c-.028.071-.72 1.743-2.291 2.162-.94.251-1.975-.002-3.083-.754.078.479.29 1.2.866 1.766.67.659 1.675.96 2.987.894a.25.25 0 0 1 .215.396c-.06.084-1.295 1.776-2.793 2.263 1.752.782 3.438.73 4.28-1.015a.248.248 0 0 1 .24-.143.25.25 0 0 1 .21.36c-.615 1.275-1.686 1.919-3.194 1.75-1.089 2.595-3.218 4.248-6.108 3.77.5.721 1.758 1.97 4.192 1.31a.25.25 0 0 1 .284.364c-.141.253-1.135 1.99-2.19 2.827 1.826-.002 3.906-.457 4.837-2.028a.249.249 0 0 1 .343-.087.25.25 0 0 1 .087.343c-.627 1.058-1.733 1.755-3.286 2.076-.795 3.258-3.304 5.392-6.97 4.895 0 .7.25 2.595 2.934 2.958a.25.25 0 0 1 .16.406c-.102.125-2.2 2.654-4.657 2.679 2.621 1.5 5.38 1.853 7.061-.655a.25.25 0 0 1 .395-.027c.013.015 1.196 1.336 2.465 1.943-.035-.98.042-3.397 1.584-4.065a.25.25 0 0 1 .198.459c-1.571.681-1.262 3.934-1.259 3.967a.25.25 0 0 1-.332.26c-1.196-.426-2.35-1.523-2.816-2.003-.61.81-1.362 1.352-2.241 1.614-.515 3.156-4.261 7.04-7.72 6.825 2.791 1.296 5.768 1.13 8.585-.747a.251.251 0 0 1 .38.14c.035.126.728 2.681-.617 4.605 1.696-.79 4.887-2.533 6.411-5.044a.25.25 0 0 1 .45.045c.01.032 1.135 3.075 3.736 3.863.003-.76.075-2.513.638-3.091.185-.19.53-.319.687-.132.011.013 1.11 1.296 2.855 1.62-.25-.785-.188-1.676 1.027-2.8a.25.25 0 0 1 .396.077c.511 1.084 2.837 2.285 3.636 2.673l.63-2.473a.25.25 0 0 1 .424-.11c2.995 3.172 7.49 1.755 9.12 1.087-6.873-2.028-8.394-6.38-8.695-7.64Z"/></g><defs><clipPath id="a"><path fill="#fff" d="M0 0h56v56H0z"/></clipPath></defs></svg>