<svg width="56" height="56" fill="none" xmlns="http://www.w3.org/2000/svg"><path d="M43.22 22.464 26.705 38.976a.735.735 0 0 0 .257 1.206l3.759 1.44c2.244.79 5.034 1.772 6.744 1.86a3.305 3.305 0 0 0 2.405-.889 52.33 52.33 0 0 0 1.533-1.47 53.797 53.797 0 0 0 6.999-8.64 3.727 3.727 0 0 0 .062-4.001c-.41-.647-3.014-4.346-4.127-5.924a.734.734 0 0 0-1.119-.094Z" fill="#fff"/><path d="M53.276 25.437a69.377 69.377 0 0 0-3.673-5.253c-.425-.555-.817-1.103-1.269-1.671a.737.737 0 0 0-1.099-.066l-1.268 1.269a.727.727 0 0 0-.08.937c1.075 1.506 3.952 5.53 4.594 6.55a6.11 6.11 0 0 1-.078 6.583 56.55 56.55 0 0 1-7.31 9.025 55.708 55.708 0 0 1-1.595 1.533 5.738 5.738 0 0 1-4.157 1.517c-2.041-.098-5.003-1.138-7.378-1.974l-5.446-2.104a.735.735 0 0 0-.784.167l-7.423 7.422a.735.735 0 0 0 .525 1.256 8.595 8.595 0 0 0 4.089-1.088.729.729 0 0 1 1.046.373c1.207 3.187 4.027 4.898 5.364 5.556a.89.89 0 0 0 1.256-1.034c-.813-3.023-1.39-5.226-1.256-6.756a.922.922 0 0 1 .421-.691.893.893 0 0 1 .8-.093l.192.067c2.619.925 5.882 2.078 8.428 2.203a9.1 9.1 0 0 0 6.567-2.39 59.768 59.768 0 0 0 9.425-11.181 9.43 9.43 0 0 0 .11-10.157ZM37.04 12.102c.998-.998 2.625-4.243 1.627-5.242-.998-.999-4.244.629-5.243 1.627a2.557 2.557 0 0 0 3.616 3.615Zm3.971 6.367c1.412 0 4.858-1.145 4.858-2.556 0-1.412-3.446-2.557-4.858-2.557a2.557 2.557 0 1 0 0 5.114Zm3.707-7.836c1.412 0 4.857-1.145 4.857-2.556 0-1.412-3.445-2.557-4.857-2.557a2.557 2.557 0 1 0 0 5.113Zm-9.35 16.041a54.875 54.875 0 0 0-.015-3.96 8.505 8.505 0 0 0-2.763-5.945c-1.874-1.705-5.004-3.174-7.576-4.401a1.469 1.469 0 0 1-.492-2.271c.992-1.183 2.85-2.307 5.386-3.77a.574.574 0 0 0-.11-1.043c-1.595-.5-4.592-1.05-7.29.551a1.037 1.037 0 0 1-1.506-.426 6.86 6.86 0 0 1-.25-4.254.574.574 0 0 0-.742-.683c-2.513.933-3.644 2.108-4.519 4.628a1.068 1.068 0 0 1-1.462.625c-2.674-1.337-5.51-.874-7.076-.426a.574.574 0 0 0-.132 1.05c2.513 1.449 4.364 2.565 5.35 3.748a1.469 1.469 0 0 1-.493 2.27c-2.572 1.228-5.695 2.697-7.569 4.402a8.482 8.482 0 0 0-2.77 5.945 58.476 58.476 0 0 0 1.228 14.438 8.857 8.857 0 0 0 6.686 6.834 70.72 70.72 0 0 0 6.268 1.11c.433.058.867.102 1.3.131l18.546-18.553Zm-9.01-8.544a1.716 1.716 0 1 1 2.901 1.832 1.716 1.716 0 0 1-2.901-1.832Zm-2.244 4.522a1.714 1.714 0 1 1-2.9-1.83 1.714 1.714 0 0 1 2.9 1.83Zm-3.077-7.236a1.715 1.715 0 1 1 2.9 1.831 1.715 1.715 0 0 1-2.9-1.83Zm-8.62 25.468a57.946 57.946 0 0 1-2.356-.484 5.195 5.195 0 0 1-3.901-4.005 55.167 55.167 0 0 1-1.146-13.534 4.79 4.79 0 0 1 1.557-3.366 15.243 15.243 0 0 1 2.793-1.863 1.268 1.268 0 0 1 1.864 1.34c-.832 4.278-1.754 13.012 2.522 20.027a1.268 1.268 0 0 1-1.332 1.885Z" fill="#fff"/></svg>