<svg width="56" height="56" fill="none" xmlns="http://www.w3.org/2000/svg"><path d="M27.468 25.208a3.659 3.659 0 0 0-2.805.226 3.65 3.65 0 0 0-1.822 2.144 3.653 3.653 0 0 0 .226 2.803 3.65 3.65 0 0 0 2.144 1.824c.935.302 1.93.22 2.804-.227a3.653 3.653 0 0 0 1.822-2.143 3.647 3.647 0 0 0-.227-2.804 3.657 3.657 0 0 0-2.142-1.823Z" fill="#fff"/><path d="M24.027 32.837a4.697 4.697 0 0 1-1.9-1.974 4.698 4.698 0 0 1-.292-3.61c.07-.22.172-.423.271-.625a13.634 13.634 0 0 0-5.23.607.529.529 0 1 1-.321-1.006 14.744 14.744 0 0 1 4.02-.685 14.786 14.786 0 0 1-4.14-4.974 14.918 14.918 0 0 1-1.053-2.72c-4.197-.804-8.46.024-12.09 2.357a16.584 16.584 0 0 0 8.327 8.775.522.522 0 1 1 .668.803c-1.798 1.752-3.959 4.797-4.649 7.52a13.782 13.782 0 0 0 11.658-.435 13.66 13.66 0 0 0 4.731-4.033Z" fill="#fff"/><path d="M16.314 17.313c.251.95.602 1.88 1.062 2.776a13.725 13.725 0 0 0 5.229 5.566c.021.013.034.032.053.048l.019.016a4.68 4.68 0 0 1 1.504-1.224 4.693 4.693 0 0 1 3.61-.292 4.73 4.73 0 0 1 3.262 4.1c.079.041.157.082.233.128a13.723 13.723 0 0 0 7.377-1.47 13.521 13.521 0 0 0 2.766-1.872 13.947 13.947 0 0 0 4.401-7.34c-1.99-.8-4.755-1.138-6.6-1.096h-.01a.528.528 0 1 1-.01-1.057h.003A16.577 16.577 0 0 0 37.604 3.94a16.626 16.626 0 0 0-10.746 10.765c.076.137.167.267.238.408a14.86 14.86 0 0 1 1.62 6.243 14.825 14.825 0 0 1 4.97-4.128.528.528 0 1 1 .481.941A13.81 13.81 0 0 0 28.6 23.38c-.003.008-.012.01-.016.017a.534.534 0 0 1-.208.18.473.473 0 0 1-.185.048c-.015.003-.028.011-.043.011-.007 0-.012-.004-.018-.004-.01-.001-.018.004-.029.003a.529.529 0 0 1-.214-.07c-.003-.002-.007 0-.01-.003-.022-.014-.036-.035-.055-.05-.031-.026-.063-.05-.087-.08-.022-.026-.033-.057-.048-.086-.016-.032-.035-.06-.043-.093-.01-.037-.01-.074-.013-.113-.002-.026-.011-.052-.008-.079a13.714 13.714 0 0 0-1.467-7.467 13.74 13.74 0 0 0-9.203-7.168 13.744 13.744 0 0 0-.666 8.788c.01.032.024.064.028.1Zm8.448 16.297a14.734 14.734 0 0 1-4.985 4.2 14.82 14.82 0 0 1-2.548.996 16.71 16.71 0 0 0 1.155 13.254c4.523-1.476 8.16-4.75 10.082-9.05a14.915 14.915 0 0 1-2.11-3.073c-1.007-1.959-1.532-4.13-1.594-6.327Zm17.513-7.43-.236-.07c-.05-.016-.1-.029-.151-.044a14.554 14.554 0 0 1-2.744 1.835 14.757 14.757 0 0 1-6.263 1.606 14.75 14.75 0 0 1 5.292 8.02h.007c.156.054.31.105.47.156 4.755 1.498 9.854.808 14.059-1.889-1.895-4.622-5.677-8.114-10.435-9.615m-11.286 3.31c-.038.224-.074.449-.146.67a4.697 4.697 0 0 1-2.345 2.758 4.705 4.705 0 0 1-2.154.523 4.76 4.76 0 0 1-.532-.04 13.67 13.67 0 0 0 1.485 6.056 13.748 13.748 0 0 0 9.215 7.168 13.774 13.774 0 0 0-.433-11.663 13.687 13.687 0 0 0-5.09-5.471Z" fill="#fff"/></svg>