<svg width="56" height="56" fill="none" xmlns="http://www.w3.org/2000/svg"><g clip-path="url(#a)"><path d="M28 56C12.538 56 0 43.462 0 28S12.538 0 28 0s28 12.538 28 28-12.538 28-28 28Z" fill="url(#b)"/><path d="M28 12.331c5.102 0 5.706.017 7.722.112 1.865.084 2.879.398 3.55.661.891.347 1.53.762 2.196 1.428.666.666 1.08 1.305 1.428 2.195.263.672.571 1.686.66 3.55.09 2.017.113 2.621.113 7.723s-.017 5.706-.112 7.722c-.084 1.865-.398 2.879-.661 3.55-.347.891-.762 1.53-1.428 2.196-.666.666-1.305 1.08-2.195 1.428-.672.263-1.686.571-3.55.66-2.017.09-2.621.113-7.723.113s-5.706-.017-7.722-.112c-1.865-.084-2.879-.398-3.55-.661-.891-.347-1.53-.762-2.196-1.428-.666-.666-1.08-1.305-1.428-2.195-.263-.672-.571-1.686-.66-3.55-.09-2.017-.113-2.621-.113-7.723s.017-5.706.112-7.722c.084-1.865.398-2.879.661-3.55.347-.891.762-1.53 1.428-2.196.666-.666 1.305-1.08 2.195-1.428.672-.263 1.686-.571 3.55-.66 2.017-.096 2.621-.113 7.723-.113Zm0-3.444c-5.191 0-5.84.023-7.88.118-2.032.095-3.42.414-4.642.89a9.226 9.226 0 0 0-3.382 2.201c-1.064 1.064-1.714 2.128-2.206 3.388-.47 1.215-.796 2.604-.89 4.642-.096 2.039-.118 2.688-.118 7.88 0 5.19.022 5.84.117 7.879.095 2.033.415 3.421.89 4.642a9.342 9.342 0 0 0 2.207 3.377c1.064 1.064 2.128 1.714 3.388 2.206 1.215.47 2.604.796 4.642.89 2.039.096 2.688.118 7.88.118 5.19 0 5.84-.022 7.879-.117 2.033-.095 3.421-.415 4.642-.89a9.342 9.342 0 0 0 3.377-2.207c1.064-1.064 1.714-2.128 2.206-3.388.47-1.215.796-2.604.89-4.642.096-2.039.118-2.688.118-7.88 0-5.19-.022-5.84-.117-7.879-.095-2.033-.415-3.421-.89-4.642a9.342 9.342 0 0 0-2.207-3.377c-1.064-1.064-2.128-1.714-3.388-2.206-1.215-.47-2.604-.796-4.642-.89-2.033-.09-2.683-.113-7.874-.113Z" fill="#fff"/><path d="M28 18.183c-5.42 0-9.817 4.396-9.817 9.817 0 5.42 4.396 9.817 9.817 9.817 5.42 0 9.817-4.396 9.817-9.817 0-5.42-4.396-9.817-9.817-9.817Zm0 16.19a6.373 6.373 0 1 1 0-12.746 6.373 6.373 0 0 1 0 12.746Zm10.203-14.28a2.296 2.296 0 1 0 0-4.592 2.296 2.296 0 0 0 0 4.592Z" fill="#fff"/></g><defs><linearGradient id="b" x1="8.201" y1="47.799" x2="47.799" y2="8.201" gradientUnits="userSpaceOnUse"><stop stop-color="#FFD521"/><stop offset=".055" stop-color="#FFD020"/><stop offset=".124" stop-color="#FEC01E"/><stop offset=".2" stop-color="#FCA71B"/><stop offset=".282" stop-color="#FA8316"/><stop offset=".368" stop-color="#F85510"/><stop offset=".456" stop-color="#F51E09"/><stop offset=".5" stop-color="#F30005"/><stop offset=".503" stop-color="#F20007"/><stop offset=".597" stop-color="#E1003B"/><stop offset=".688" stop-color="#D30067"/><stop offset=".776" stop-color="#C70088"/><stop offset=".859" stop-color="#BF00A0"/><stop offset=".936" stop-color="#BB00AF"/><stop offset="1" stop-color="#B900B4"/></linearGradient><clipPath id="a"><path fill="#fff" d="M0 0h56v56H0z"/></clipPath></defs></svg>