<svg width="57" height="56" viewBox="0 0 57 56" fill="none" xmlns="http://www.w3.org/2000/svg">
<g clip-path="url(#clip0_2001_390)">
<path d="M25.3653 31.0956H7.1791C5.73812 31.0956 4.55903 32.2745 4.55903 33.7155V53.3803C4.55903 54.8213 5.73812 56.0002 7.1791 56.0002H25.6711C26.2875 56.0002 26.2875 55.338 26.2875 55.338V31.9859C26.2873 31.9859 26.2873 31.0956 25.3653 31.0956ZM49.8209 31.0956H31.6532C30.5466 31.0956 30.7123 32.248 30.7123 32.248V55.3594C30.7123 55.3594 30.7034 55.9996 31.369 55.9996H49.8205C51.2615 55.9996 52.4406 54.8207 52.4406 53.3797V33.7155C52.4409 32.2745 51.2619 31.0956 49.8209 31.0956ZM26.2873 15.623C26.2873 15.623 26.2873 14.7352 25.41 14.7352H4.22041C2.77943 14.7352 1.60034 15.9143 1.60034 17.3551V25.5335C1.60034 26.9745 2.77943 28.1534 4.22041 28.1534H25.4817C26.2873 28.1534 26.2873 27.4547 26.2873 27.4547V15.623ZM52.7794 14.7352H31.5222C30.7127 14.7352 30.7127 15.5066 30.7127 15.5066V27.471C30.7127 27.471 30.7127 28.1534 31.6969 28.1534H52.7794C54.2204 28.1534 55.3995 26.9745 55.3995 25.5335V17.3551C55.3995 15.9143 54.2204 14.7352 52.7794 14.7352ZM17.3759 12.7968C16.1771 12.7968 15.0822 12.7018 14.1221 12.5141C11.6834 12.0377 10.0072 11.1104 8.99783 9.6795C8.09343 8.39715 7.81665 6.81625 8.17493 4.98053C8.80256 1.76872 10.9595 0 14.2481 0C14.944 0 15.7083 0.0803619 16.52 0.238986C18.5846 0.642322 21.2252 1.82618 23.584 3.40574C27.5859 6.08593 27.7838 7.75215 27.5845 8.77242C27.2915 10.2716 25.8902 11.3429 23.3005 12.0476C21.5509 12.5237 19.3914 12.7968 17.3759 12.7968ZM14.2483 4.19924C12.9747 4.19924 12.537 4.55505 12.2967 5.78567C12.1001 6.79182 12.348 7.14323 12.4293 7.25872C12.7699 7.74165 13.6569 8.14442 14.9272 8.39237C15.6127 8.52637 16.4596 8.59719 17.3757 8.59719C19.3901 8.59719 21.1647 8.29197 22.3423 7.95811C22.428 7.93387 22.561 7.83251 22.4185 7.74757C20.879 6.49347 18.0625 4.81885 15.7148 4.36016C15.1679 4.25364 14.6743 4.19924 14.2483 4.19924ZM39.6846 12.7968H39.6842C37.6687 12.7968 35.5094 12.5237 33.7598 12.0476C31.1699 11.343 29.7688 10.2716 29.4758 8.77261C29.2767 7.75234 29.4743 6.08612 33.4765 3.40593C35.8349 1.82637 38.4756 0.642513 40.5405 0.239177C41.3522 0.0805527 42.1165 0.000190883 42.8118 0.000190883C46.1011 0.000190883 48.2579 1.76911 48.885 4.98091C49.2437 6.81644 48.9671 8.39734 48.0625 9.67969C47.0531 11.1107 45.3771 12.0379 42.9378 12.5143C41.9781 12.7016 40.8832 12.7968 39.6846 12.7968ZM34.6754 7.72161C34.539 7.80083 34.605 7.92586 34.6758 7.94628C35.8528 8.28472 37.6462 8.59738 39.6842 8.59738C40.6007 8.59738 41.4472 8.52656 42.1329 8.39256C43.403 8.14442 44.2904 7.74184 44.6308 7.25891C44.7125 7.14342 44.9606 6.79201 44.7634 5.78586C44.5233 4.55524 44.0854 4.19943 42.8117 4.19943C42.3858 4.19943 41.8926 4.25364 41.3453 4.36054C38.9974 4.81904 36.2149 6.46732 34.6754 7.72161Z" fill="white"/>
</g>
<defs>
<clipPath id="clip0_2001_390">
<rect width="56" height="56" fill="white" transform="translate(0.5)"/>
</clipPath>
</defs>
</svg>
