<svg width="57" height="56" viewBox="0 0 57 56" fill="none" xmlns="http://www.w3.org/2000/svg">
<path d="M21.1756 18.2344C19.8294 18.2344 18.7341 19.3297 18.7341 20.6758C18.7341 22.022 19.8294 23.1173 21.1756 23.1173C22.5218 23.1173 23.6171 22.0219 23.6171 20.6758C23.6171 19.3297 22.5218 18.2344 21.1756 18.2344ZM35.8244 32.8832C34.4782 32.8832 33.3829 33.9785 33.3829 35.3247C33.3829 36.6708 34.4782 37.7661 35.8244 37.7661C37.1706 37.7661 38.2659 36.6708 38.2659 35.3247C38.2659 33.9785 37.1705 32.8832 35.8244 32.8832Z" fill="white"/>
<path d="M55.9701 26.712L51.2181 21.9132L52.9341 15.3812C53.1892 14.4098 52.6143 13.4142 51.6456 13.1496L45.1308 11.3698L43.351 4.85495C43.0863 3.88622 42.091 3.31124 41.1194 3.56652L34.5875 5.28261L29.7886 0.530491C29.0749 -0.176179 27.9253 -0.176179 27.2117 0.530491L22.4129 5.28261L15.8809 3.56663C14.9094 3.31134 13.914 3.88633 13.6494 4.85506L11.8695 11.3699L5.35471 13.1497C4.38597 13.4144 3.8111 14.41 4.06627 15.3813L5.78225 21.9133L1.03025 26.712C0.323577 27.4256 0.323577 28.5753 1.03025 29.2888L5.78236 34.0877L4.06638 40.6196C3.81121 41.591 4.38608 42.5866 5.35482 42.8512L11.8696 44.6311L13.6495 51.1459C13.9142 52.1146 14.9094 52.6896 15.881 52.4343L22.413 50.7183L27.2118 55.4704C27.5543 55.8105 28.0176 56.0011 28.5003 56.0005C28.9661 56.0005 29.4319 55.8238 29.7887 55.4704L34.5875 50.7183L41.1195 52.4343C42.091 52.6892 43.0864 52.1146 43.3511 51.1459L45.1309 44.6311L51.6457 42.8512C52.6145 42.5865 53.1893 41.5909 52.9342 40.6196L51.2182 34.0877L55.9702 29.2888C56.6767 28.5753 56.6767 27.4256 55.9701 26.712ZM15.0722 20.676C15.0722 17.3104 17.8103 14.5724 21.1759 14.5724C24.5415 14.5724 27.2795 17.3104 27.2795 20.676C27.2795 24.0416 24.5415 26.7797 21.1759 26.7797C17.8103 26.7797 15.0722 24.0416 15.0722 20.676ZM21.2498 37.8402C21.08 38.0105 20.8782 38.1455 20.656 38.2376C20.4338 38.3296 20.1956 38.3769 19.9551 38.3766C19.7146 38.3769 19.4765 38.3297 19.2543 38.2376C19.0321 38.1456 18.8303 38.0105 18.6605 37.8402C17.9454 37.1251 17.9454 35.9657 18.6605 35.2506L35.7506 18.1605C36.4656 17.4454 37.6251 17.4454 38.3402 18.1605C39.0553 18.8756 39.0553 20.035 38.3402 20.7501L21.2498 37.8402ZM35.8247 41.4285C32.4591 41.4285 29.721 38.6904 29.721 35.3248C29.721 31.9592 32.4591 29.2211 35.8247 29.2211C39.1902 29.2211 41.9283 31.9592 41.9283 35.3248C41.9283 38.6904 39.1902 41.4285 35.8247 41.4285Z" fill="white"/>
</svg>
