<svg width="564" height="97" viewBox="0 0 564 97" fill="none" xmlns="http://www.w3.org/2000/svg">
<path opacity="0.15" d="M0.186516 80.4184C-0.134686 80.8677 -0.0308625 81.4923 0.418412 81.8135C0.867687 82.1347 1.49228 82.0309 1.81348 81.5816L0.186516 80.4184ZM111 16.5L110.89 15.5061L111 16.5ZM240 62.5L240.045 61.501L240 62.5ZM407.5 2.00001L407.401 2.99508L407.5 2.00001ZM560.289 96.4775C560.829 96.594 561.361 96.2507 561.478 95.7108L563.375 86.913C563.491 86.3731 563.148 85.8411 562.608 85.7247C562.068 85.6083 561.536 85.9516 561.419 86.4914L559.733 94.3117L551.913 92.6255C551.373 92.5091 550.841 92.8524 550.725 93.3923C550.608 93.9322 550.952 94.4642 551.491 94.5806L560.289 96.4775ZM6.7134 74.973C7.05032 74.5354 6.9687 73.9075 6.53108 73.5706C6.09347 73.2336 5.46559 73.3153 5.12867 73.7529L6.7134 74.973ZM15.7853 61.0332C15.412 61.4403 15.4394 62.0728 15.8464 62.4461C16.2535 62.8194 16.8861 62.792 17.2593 62.3849L15.7853 61.0332ZM28.9509 50.8932C29.3656 50.5285 29.4061 49.8966 29.0413 49.4819C28.6766 49.0672 28.0447 49.0267 27.63 49.3915L28.9509 50.8932ZM40.7611 39.1999C40.3042 39.51 40.1852 40.1319 40.4954 40.5889C40.8056 41.0458 41.4275 41.1648 41.8844 40.8546L40.7611 39.1999ZM56.0023 32.5764C56.4962 32.3291 56.696 31.7283 56.4487 31.2344C56.2014 30.7406 55.6006 30.5408 55.1068 30.7881L56.0023 32.5764ZM70.4126 24.3053C69.8918 24.4891 69.6186 25.0603 69.8024 25.5811C69.9862 26.1019 70.5574 26.3751 71.0782 26.1913L70.4126 24.3053ZM86.8157 21.5996C87.3532 21.4726 87.686 20.934 87.559 20.3965C87.432 19.859 86.8933 19.5262 86.3559 19.6532L86.8157 21.5996ZM102.66 16.5643C102.113 16.6446 101.735 17.1527 101.816 17.6991C101.896 18.2455 102.404 18.6234 102.951 18.543L102.66 16.5643ZM119.716 17.012C120.268 17.0123 120.716 16.5648 120.717 16.0125C120.717 15.4602 120.269 15.0123 119.717 15.012L119.716 17.012ZM137.224 17.108C136.687 16.9781 136.147 17.308 136.017 17.8448C135.887 18.3816 136.217 18.922 136.754 19.0519L137.224 17.108ZM152.967 24.8275C153.468 25.0601 154.062 24.8426 154.295 24.3417C154.528 23.8408 154.31 23.2462 153.809 23.0136L152.967 24.8275ZM169.224 31.3842C168.752 31.0982 168.137 31.2493 167.851 31.7218C167.565 32.1942 167.716 32.8091 168.189 33.0951L169.224 31.3842ZM182.953 42.3481C183.421 42.6416 184.038 42.5002 184.331 42.0323C184.625 41.5645 184.484 40.9473 184.016 40.6538L182.953 42.3481ZM198.985 49.4546C198.498 49.1953 197.892 49.3803 197.633 49.8679C197.373 50.3555 197.559 50.9611 198.046 51.2204L198.985 49.4546ZM214.086 58.3897C214.607 58.5743 215.178 58.302 215.363 57.7815C215.548 57.261 215.275 56.6894 214.755 56.5048L214.086 58.3897ZM231.456 60.684C230.909 60.6039 230.401 60.982 230.321 61.5285C230.241 62.0749 230.619 62.5828 231.166 62.6628L231.456 60.684ZM247.63 63.5488C248.182 63.5309 248.615 63.0689 248.597 62.5169C248.579 61.9649 248.117 61.532 247.565 61.5499L247.63 63.5488ZM262.459 59.8684C261.917 59.9741 261.563 60.4993 261.669 61.0413C261.775 61.5834 262.3 61.9371 262.842 61.8314L262.459 59.8684ZM277.585 57.7575C278.106 57.5717 278.377 56.9995 278.191 56.4794C278.005 55.9593 277.433 55.6883 276.913 55.8741L277.585 57.7575ZM290.717 49.9277C290.224 50.175 290.024 50.7758 290.271 51.2696C290.518 51.7635 291.119 51.9633 291.613 51.7161L290.717 49.9277ZM304.927 44.2955C305.399 44.0089 305.55 43.3938 305.263 42.9218C304.976 42.4497 304.361 42.2994 303.889 42.586L304.927 44.2955ZM316.633 34.4388C316.173 34.7437 316.047 35.3642 316.352 35.8247C316.656 36.2852 317.277 36.4113 317.737 36.1064L316.633 34.4388ZM330.364 27.7106C330.825 27.4071 330.953 26.7871 330.65 26.3256C330.346 25.8641 329.726 25.736 329.265 26.0395L330.364 27.7106ZM342.134 17.9328C341.659 18.2145 341.502 18.828 341.784 19.303C342.066 19.7781 342.679 19.9348 343.154 19.6531L342.134 17.9328ZM356.425 12.5141C356.924 12.2767 357.135 11.6801 356.898 11.1814C356.661 10.6827 356.064 10.4709 355.565 10.7083L356.425 12.5141ZM369.753 5.0275C369.227 5.19656 368.938 5.75983 369.107 6.2856C369.276 6.81138 369.84 7.10055 370.365 6.9315L369.753 5.0275ZM384.947 3.49583C385.494 3.41412 385.87 2.90509 385.788 2.35888C385.707 1.81267 385.198 1.43613 384.651 1.51784L384.947 3.49583ZM399.935 0.543551C399.382 0.532486 398.926 0.971141 398.915 1.52331C398.904 2.07549 399.342 2.53208 399.895 2.54315L399.935 0.543551ZM415.112 3.86161C415.66 3.93036 416.16 3.54187 416.229 2.99388C416.298 2.44589 415.909 1.94592 415.361 1.87717L415.112 3.86161ZM430.789 4.25365C430.245 4.15347 429.724 4.51256 429.624 5.05568C429.524 5.59881 429.883 6.1203 430.426 6.22047L430.789 4.25365ZM445.548 9.5242C446.083 9.66051 446.628 9.33716 446.764 8.80196C446.9 8.26676 446.577 7.72239 446.042 7.58608L445.548 9.5242ZM461.021 12.0056C460.498 11.8287 459.93 12.1095 459.754 12.6327C459.577 13.1559 459.857 13.7234 460.381 13.9003L461.021 12.0056ZM474.811 19.4615C475.318 19.6821 475.907 19.4506 476.128 18.9443C476.348 18.438 476.117 17.8487 475.611 17.628L474.811 19.4615ZM489.648 24.5152C489.164 24.2494 488.556 24.4265 488.29 24.9107C488.024 25.3948 488.201 26.0027 488.685 26.2684L489.648 24.5152ZM501.869 34.325C502.326 34.6346 502.948 34.5148 503.257 34.0575C503.567 33.6001 503.447 32.9784 502.99 32.6688L501.869 34.325ZM515.522 42.0185C515.095 41.6686 514.465 41.7314 514.115 42.1587C513.765 42.586 513.828 43.216 514.255 43.5659L515.522 42.0185ZM525.787 53.8708C526.183 54.2557 526.816 54.2467 527.201 53.8507C527.586 53.4546 527.577 52.8215 527.181 52.4366L525.787 53.8708ZM537.947 63.7504C537.582 63.3363 536.95 63.2969 536.536 63.6623C536.122 64.0278 536.082 64.6597 536.448 65.0738L537.947 63.7504ZM546.286 77.0239C546.623 77.4615 547.251 77.5432 547.688 77.2063C548.126 76.8694 548.208 76.2415 547.871 75.8039L546.286 77.0239ZM557.023 88.4483C556.712 87.9921 556.09 87.8744 555.634 88.1856C555.177 88.4968 555.06 89.1189 555.371 89.5752L557.023 88.4483ZM1.81348 81.5816C3.43819 79.3091 5.07059 77.1068 6.7134 74.973L5.12867 73.7529C3.47075 75.9063 1.82429 78.1276 0.186516 80.4184L1.81348 81.5816ZM17.2593 62.3849C21.0653 58.2344 24.9523 54.4102 28.9509 50.8932L27.63 49.3915C23.5741 52.9589 19.6362 56.8337 15.7853 61.0332L17.2593 62.3849ZM41.8844 40.8546C46.4138 37.7798 51.1074 35.0277 56.0023 32.5764L55.1068 30.7881C50.133 33.2788 45.3634 36.0756 40.7611 39.1999L41.8844 40.8546ZM71.0782 26.1913C76.0998 24.4191 81.3352 22.8944 86.8157 21.5996L86.3559 19.6532C80.8106 20.9632 75.5063 22.5077 70.4126 24.3053L71.0782 26.1913ZM102.951 18.543C105.615 18.1513 108.334 17.8021 111.11 17.4939L110.89 15.5061C108.091 15.8168 105.348 16.169 102.66 16.5643L102.951 18.543ZM111.11 17.4939C114.074 17.165 116.939 17.0105 119.716 17.012L119.717 15.012C116.865 15.0105 113.926 15.1691 110.89 15.5061L111.11 17.4939ZM136.754 19.0519C142.433 20.4261 147.791 22.4242 152.967 24.8275L153.809 23.0136C148.539 20.5665 143.056 18.5191 137.224 17.108L136.754 19.0519ZM168.189 33.0951C173.12 36.0805 177.978 39.2281 182.953 42.3481L184.016 40.6538C179.076 37.5556 174.172 34.3795 169.224 31.3842L168.189 33.0951ZM198.046 51.2204C203.144 53.9313 208.45 56.3909 214.086 58.3897L214.755 56.5048C209.233 54.5465 204.018 52.1311 198.985 49.4546L198.046 51.2204ZM231.166 62.6628C234.005 63.0787 236.931 63.3635 239.955 63.499L240.045 61.501C237.089 61.3685 234.229 61.0902 231.456 60.684L231.166 62.6628ZM239.955 63.499C242.568 63.6161 245.125 63.6301 247.63 63.5488L247.565 61.5499C245.112 61.6295 242.607 61.6158 240.045 61.501L239.955 63.499ZM262.842 61.8314C267.961 60.8328 272.86 59.4455 277.585 57.7575L276.913 55.8741C272.273 57.5313 267.471 58.8907 262.459 59.8684L262.842 61.8314ZM291.613 51.7161C296.17 49.4342 300.592 46.9283 304.927 44.2955L303.889 42.586C299.587 45.1983 295.214 47.6761 290.717 49.9277L291.613 51.7161ZM317.737 36.1064C321.973 33.3019 326.145 30.4847 330.364 27.7106L329.265 26.0395C325.052 28.8096 320.839 31.654 316.633 34.4388L317.737 36.1064ZM343.154 19.6531C347.492 17.0806 351.897 14.6694 356.425 12.5141L355.565 10.7083C350.97 12.8956 346.51 15.3375 342.134 17.9328L343.154 19.6531ZM370.365 6.9315C375.045 5.42683 379.889 4.2525 384.947 3.49583L384.651 1.51784C379.478 2.2918 374.528 3.4923 369.753 5.0275L370.365 6.9315ZM399.895 2.54315C402.343 2.59221 404.844 2.74022 407.401 2.99508L407.599 1.00494C404.99 0.744883 402.436 0.593683 399.935 0.543551L399.895 2.54315ZM407.401 2.99508C410.005 3.25467 412.576 3.54333 415.112 3.86161L415.361 1.87717C412.807 1.55671 410.22 1.26616 407.599 1.00494L407.401 2.99508ZM430.426 6.22047C435.611 7.17687 440.649 8.27635 445.548 9.5242L446.042 7.58608C441.097 6.32664 436.016 5.21772 430.789 4.25365L430.426 6.22047ZM460.381 13.9003C465.335 15.5748 470.142 17.4264 474.811 19.4615L475.611 17.628C470.887 15.5696 466.028 13.6977 461.021 12.0056L460.381 13.9003ZM488.685 26.2684C493.207 28.7503 497.597 31.4333 501.869 34.325L502.99 32.6688C498.667 29.7423 494.224 27.0269 489.648 24.5152L488.685 26.2684ZM514.255 43.5659C518.196 46.7931 522.037 50.2257 525.787 53.8708L527.181 52.4366C523.391 48.7533 519.509 45.2827 515.522 42.0185L514.255 43.5659ZM536.448 65.0738C539.793 68.8643 543.069 72.8458 546.286 77.0239L547.871 75.8039C544.628 71.5922 541.323 67.5761 537.947 63.7504L536.448 65.0738ZM555.371 89.5752C556.811 91.6873 558.241 93.8428 559.66 96.0422L561.34 94.9578C559.912 92.7446 558.473 90.5749 557.023 88.4483L555.371 89.5752Z" fill="#540011"/>
</svg>
